<?xml version="1.0" encoding="UTF-8"?>
<!DOCTYPE svg PUBLIC "-//W3C//DTD SVG 1.1//EN" "http://www.w3.org/Graphics/SVG/1.1/DTD/svg11.dtd">
<!-- Creator: CorelDRAW 2018 (64-Bit) -->
<svg xmlns="http://www.w3.org/2000/svg" xml:space="preserve" width="5.9266mm" height="5.9266mm" version="1.1" style="shape-rendering:geometricPrecision; text-rendering:geometricPrecision; image-rendering:optimizeQuality; fill-rule:evenodd; clip-rule:evenodd"
viewBox="0 0 592.66 592.66"
 xmlns:xlink="http://www.w3.org/1999/xlink">
 <defs>
  <style type="text/css">
    .fil0 {fill:none}
    .fil7 {fill:#323330}
    .fil1 {fill:#E65100}
    .fil4 {fill:#EEEEEE}
    .fil5 {fill:#EF382C}
    .fil6 {fill:#F0DB4F}
    .fil2 {fill:#FF6D00}
    .fil3 {fill:white}
  </style>
 </defs>
 <g id="Layer_x0020_1">
  <metadata id="CorelCorpID_0Corel-Layer"/>
  <g id="_2048544612096">
   <rect class="fil0" x="-930.86" y="-24.87" width="592.66" height="592.66"/>
   <g>
    <polygon class="fil1" points="-380.53,-12.42 -888.53,-12.42 -843.71,495.58 -634.53,555.34 -425.36,495.58 -380.53,-12.42 "/>
    <polygon class="fil2" points="-634.53,32.4 -634.53,509.03 -467.19,461.22 -429.84,32.4 "/>
    <path class="fil3" d="M-634.53 286.4l0 -59.76 128.49 0 -10.45 171.82 -118.04 38.85 0 -62.76 61.26 -20.91 4.48 -67.24 -65.74 0zm132.97 -119.52l4.49 -59.77 -137.46 0 0 59.77 132.97 0z"/>
    <path class="fil4" d="M-634.53 374.55l0 62.76 -118.04 -38.85 -5.98 -82.17 59.77 0 2.99 37.35 61.26 20.91zm-73.22 -207.67l73.22 0 0 -59.77 -135.97 0 10.46 179.3 125.51 -0.01 0 -59.76 -68.73 0 -4.49 -59.76z"/>
   </g>
  </g>
  <path id="XMLID_11_" class="fil5" d="M1771.2 92.98c0,0.99 0,1.98 0,1.98l0 127.42c0,2.96 -1.98,5.93 -4.94,7.9l-106.68 61.23 0 121.5c0,2.96 -1.98,5.93 -4.94,7.9l-222.24 129.39c-0.99,0 -0.99,0 -1.98,0.99 0,0 0,0 -0.99,0 -1.98,0 -2.96,0 -4.94,0 0,0 0,0 -0.99,0 -0.99,0 -0.99,0 -1.98,-0.99l-223.24 -128.41c-0.96,-1.97 -2.94,-4.94 -2.94,-7.9l0 -382.26c0,-0.99 0,-1.98 0,-1.98 0,0 0,-0.99 0,-0.99 0,0 0,-0.99 0.99,-0.99 0,0 0,-0.99 0.99,-0.99 0,0 0.99,-0.99 0.99,-0.99 0,0 0.99,0 0.99,-0.99 0,0 0.99,-0.99 0.99,-0.99l-0.01 0.02 111.62 -64.2c1.97,-0.99 5.92,-0.99 8.89,0l111.61 64.2 0 0c0,0 0.99,0.99 0.99,0.99 0,0 0.99,0 0.99,0.99 0,0 0.99,0.99 0.99,0.99 0,0 0,0.99 0.99,0.99 0,0 0,0.99 0.99,0.99 0,0 0,0.99 0,0.99 0,0.99 0,1.98 0,1.98l0 238.04 92.84 -53.33 -0.01 -121.51c0,-0.99 0,-1.98 0,-1.98 0,0 0,-0.99 0,-0.99 0,0 0,-0.99 0.99,-0.99 0,0 0,-0.99 0.99,-0.99 0,0 0.99,-0.99 0.99,-0.99 0,0 0.99,0 0.99,-0.99 0,0 0.99,-0.99 0.99,-0.99l-0.01 0.02 111.62 -64.2c2.96,-1.98 5.93,-1.98 8.89,0l110.63 64.2c0,0 0.99,0.99 0.99,0.99 0,0 0.99,0 0.99,0.99 0,0 0.99,0.99 0.99,0.99 0,0 0,0.99 0.99,0.99 -0.01,-0.01 -0.01,-0.01 0.98,1.97 -0.99,-0.99 -0.99,-0.99 0,0l0 0zm-18.77 124.45l0 -106.67 -38.52 22.72 -54.33 31.6 0 105.68 92.85 -53.33 0 0zm-111.62 190.63l0 -105.69 -53.34 30.62 -151.12 85.94 0 106.68 204.46 -117.55zm-426.7 -359.53l0 360.52 204.47 117.54 0 -107.66 -106.68 -60.25 0 0 0 0c0,0 -0.99,-0.99 -0.99,-0.99 0,0 -0.99,0 -0.99,-0.99l0 0c0,0 -0.99,-0.99 -0.99,-0.99 0,0 -0.99,-0.99 -0.99,-0.99l0 0c0,0 0,-0.99 0,-0.99 0,0 0,-0.99 0,-0.99l0 0c0,0 0,-0.99 0,-0.99 0,0 0,-0.99 0,-0.99l0.01 -248.89 -54.33 -30.62 -39.51 -22.72 0 0zm101.74 -70.13l-92.85 53.33 92.85 53.34 92.85 -53.34 -92.85 -53.33 0 0zm48.4 333.85l54.33 -30.62 0 -233.1 -38.52 22.72 -54.33 30.62 0 233.1 38.52 -22.72zm286.44 -270.64l-92.85 53.34 92.85 53.34 92.85 -53.34 -92.85 -53.34zm-9.88 123.47l-54.33 -30.62 -38.52 -22.72 0 105.69 54.33 30.61 38.52 22.72 0 -105.68zm-213.34 238.04l136.3 -78.03 68.16 -38.52 -92.85 -53.33 -106.68 61.23 -97.79 56.3 92.86 52.35z"/>
  <g id="_2048544602752">
   <polygon class="fil6" points="-0.01,-0.01 592.67,-0.01 592.67,592.66 -0.01,592.67 "/>
   <path class="fil7" d="M544.16 451.31c-4.34,-27.04 -21.97,-49.74 -74.2,-70.92 -18.14,-8.34 -38.36,-14.31 -44.39,-28.06 -2.14,-8 -2.42,-12.51 -1.07,-17.35 3.89,-15.72 22.65,-20.62 37.52,-16.12 9.58,3.22 18.65,10.6 24.11,22.37 25.58,-16.56 25.52,-16.45 43.38,-27.83 -6.53,-10.14 -10.03,-14.82 -14.31,-19.15 -15.38,-17.19 -36.34,-26.03 -69.86,-25.36 -5.8,0.74 -11.66,1.52 -17.46,2.26 -16.73,4.22 -32.68,13.01 -42.03,24.79 -28.06,31.83 -20.06,87.54 14.08,110.47 33.64,25.24 83.05,30.99 89.36,54.6 6.14,28.9 -21.24,38.25 -48.45,34.92 -20.06,-4.16 -31.21,-14.36 -43.27,-32.9 -22.2,12.85 -22.2,12.85 -45.01,25.97 5.4,11.84 11.09,17.19 20.16,27.44 42.93,43.55 150.37,41.41 169.64,-24.51 0.78,-2.25 5.97,-17.35 1.8,-40.62l0 0zm-221.97 -178.92l-55.44 0c0,47.88 -0.22,95.43 -0.22,143.32 0,30.48 1.58,58.42 -3.38,66.98 -8.11,16.85 -29.13,14.76 -38.71,11.5 -9.74,-4.79 -14.7,-11.61 -20.45,-21.24 -1.57,-2.76 -2.76,-4.9 -3.15,-5.07 -15.04,9.18 -30.03,18.42 -45.07,27.6 7.49,15.38 18.53,28.73 32.67,37.41 21.13,12.68 49.52,16.56 79.21,9.75 19.33,-5.64 36,-17.3 44.74,-35.04 12.62,-23.27 9.91,-51.44 9.8,-82.6 0.28,-50.81 0,-101.63 0,-152.61z"/>
  </g>
 </g>
</svg>
