<?xml version="1.0" encoding="UTF-8"?>
<!DOCTYPE svg PUBLIC "-//W3C//DTD SVG 1.1//EN" "http://www.w3.org/Graphics/SVG/1.1/DTD/svg11.dtd">
<!-- Creator: CorelDRAW 2018 (64-Bit) -->
<svg xmlns="http://www.w3.org/2000/svg" xml:space="preserve" width="5.9266mm" height="5.9266mm" version="1.1" style="shape-rendering:geometricPrecision; text-rendering:geometricPrecision; image-rendering:optimizeQuality; fill-rule:evenodd; clip-rule:evenodd"
viewBox="0 0 592.66 592.66"
 xmlns:xlink="http://www.w3.org/1999/xlink">
 <defs>
  <style type="text/css">
    .fil0 {fill:none}
    .fil1 {fill:#E65100}
    .fil4 {fill:#EEEEEE}
    .fil5 {fill:#EF382C}
    .fil2 {fill:#FF6D00}
    .fil3 {fill:white}
  </style>
 </defs>
 <g id="Layer_x0020_1">
  <metadata id="CorelCorpID_0Corel-Layer"/>
  <g id="_2048644592128">
   <rect class="fil0" x="-930.86" y="-24.87" width="592.66" height="592.66"/>
   <g>
    <polygon class="fil1" points="-380.53,-12.42 -888.53,-12.42 -843.71,495.58 -634.53,555.34 -425.36,495.58 -380.53,-12.42 "/>
    <polygon class="fil2" points="-634.53,32.4 -634.53,509.03 -467.19,461.22 -429.84,32.4 "/>
    <path class="fil3" d="M-634.53 286.4l0 -59.76 128.49 0 -10.45 171.82 -118.04 38.85 0 -62.76 61.26 -20.91 4.48 -67.24 -65.74 0zm132.97 -119.52l4.49 -59.77 -137.46 0 0 59.77 132.97 0z"/>
    <path class="fil4" d="M-634.53 374.55l0 62.76 -118.04 -38.85 -5.98 -82.17 59.77 0 2.99 37.35 61.26 20.91zm-73.22 -207.67l73.22 0 0 -59.77 -135.97 0 10.46 179.3 125.51 -0.01 0 -59.76 -68.73 0 -4.49 -59.76z"/>
   </g>
  </g>
  <path id="XMLID_11_" class="fil5" d="M584.26 134.23c0,0.99 0,1.98 0,1.98l0 127.42c0,2.96 -1.98,5.93 -4.94,7.9l-106.68 61.23 0 121.5c0,2.96 -1.98,5.93 -4.94,7.9l-222.24 129.39c-0.99,0 -0.99,0 -1.98,0.99 0,0 0,0 -0.99,0 -1.98,0 -2.96,0 -4.94,0 0,0 0,0 -0.99,0 -0.99,0 -0.99,0 -1.98,-0.99l-223.24 -128.41c-0.96,-1.97 -2.94,-4.94 -2.94,-7.9l0 -382.26c0,-0.99 0,-1.98 0,-1.98 0,0 0,-0.99 0,-0.99 0,0 0,-0.99 0.99,-0.99 0,0 0,-0.99 0.99,-0.99 0,0 0.99,-0.99 0.99,-0.99 0,0 0.99,0 0.99,-0.99 0,0 0.99,-0.99 0.99,-0.99l-0.01 0.02 111.62 -64.2c1.97,-0.99 5.92,-0.99 8.89,0l111.61 64.2 0 0c0,0 0.99,0.99 0.99,0.99 0,0 0.99,0 0.99,0.99 0,0 0.99,0.99 0.99,0.99 0,0 0,0.99 0.99,0.99 0,0 0,0.99 0.99,0.99 0,0 0,0.99 0,0.99 0,0.99 0,1.98 0,1.98l0 238.04 92.84 -53.33 -0.01 -121.51c0,-0.99 0,-1.98 0,-1.98 0,0 0,-0.99 0,-0.99 0,0 0,-0.99 0.99,-0.99 0,0 0,-0.99 0.99,-0.99 0,0 0.99,-0.99 0.99,-0.99 0,0 0.99,0 0.99,-0.99 0,0 0.99,-0.99 0.99,-0.99l-0.01 0.02 111.62 -64.2c2.96,-1.98 5.93,-1.98 8.89,0l110.63 64.2c0,0 0.99,0.99 0.99,0.99 0,0 0.99,0 0.99,0.99 0,0 0.99,0.99 0.99,0.99 0,0 0,0.99 0.99,0.99 -0.01,-0.01 -0.01,-0.01 0.98,1.97 -0.99,-0.99 -0.99,-0.99 0,0l0 0zm-18.77 124.45l0 -106.67 -38.52 22.72 -54.33 31.6 0 105.68 92.85 -53.33 0 0zm-111.62 190.63l0 -105.69 -53.34 30.62 -151.12 85.94 0 106.68 204.46 -117.55zm-426.7 -359.53l0 360.52 204.47 117.54 0 -107.66 -106.68 -60.25 0 0 0 0c0,0 -0.99,-0.99 -0.99,-0.99 0,0 -0.99,0 -0.99,-0.99l0 0c0,0 -0.99,-0.99 -0.99,-0.99 0,0 -0.99,-0.99 -0.99,-0.99l0 0c0,0 0,-0.99 0,-0.99 0,0 0,-0.99 0,-0.99l0 0c0,0 0,-0.99 0,-0.99 0,0 0,-0.99 0,-0.99l0.01 -248.89 -54.33 -30.62 -39.51 -22.72 0 0zm101.74 -70.13l-92.85 53.33 92.85 53.34 92.85 -53.34 -92.85 -53.33 0 0zm48.4 333.85l54.33 -30.62 0 -233.1 -38.52 22.72 -54.33 30.62 0 233.1 38.52 -22.72zm286.44 -270.64l-92.85 53.34 92.85 53.34 92.85 -53.34 -92.85 -53.34zm-9.88 123.47l-54.33 -30.62 -38.52 -22.72 0 105.69 54.33 30.61 38.52 22.72 0 -105.68zm-213.34 238.04l136.3 -78.03 68.16 -38.52 -92.85 -53.33 -106.68 61.23 -97.79 56.3 92.86 52.35z"/>
 </g>
</svg>
