<?xml version="1.0" encoding="UTF-8"?>
<!DOCTYPE svg PUBLIC "-//W3C//DTD SVG 1.1//EN" "http://www.w3.org/Graphics/SVG/1.1/DTD/svg11.dtd">
<!-- Creator: CorelDRAW 2018 (64-Bit) -->
<svg xmlns="http://www.w3.org/2000/svg" xml:space="preserve" width="5.9266mm" height="5.9266mm" version="1.1" style="shape-rendering:geometricPrecision; text-rendering:geometricPrecision; image-rendering:optimizeQuality; fill-rule:evenodd; clip-rule:evenodd"
viewBox="0 0 592.66 592.66"
 xmlns:xlink="http://www.w3.org/1999/xlink">
 <defs>
  <style type="text/css">
    .fil0 {fill:none}
    .fil8 {fill:#1E74BB}
    .fil9 {fill:#2189C7}
    .fil7 {fill:#323330}
    .fil10 {fill:#61DAFB}
    .fil1 {fill:#E65100}
    .fil4 {fill:#EEEEEE}
    .fil5 {fill:#EF382C}
    .fil6 {fill:#F0DB4F}
    .fil2 {fill:#FF6D00}
    .fil3 {fill:white}
  </style>
 </defs>
 <g id="Layer_x0020_1">
  <metadata id="CorelCorpID_0Corel-Layer"/>
  <rect class="fil0" width="592.66" height="592.66"/>
  <g id="_2048647608720">
   <rect class="fil0" x="-930.86" y="-24.87" width="592.66" height="592.66"/>
   <g>
    <polygon class="fil1" points="-380.53,-12.42 -888.53,-12.42 -843.71,495.58 -634.53,555.34 -425.36,495.58 -380.53,-12.42 "/>
    <polygon class="fil2" points="-634.53,32.4 -634.53,509.03 -467.19,461.22 -429.84,32.4 "/>
    <path class="fil3" d="M-634.53 286.4l0 -59.76 128.49 0 -10.45 171.82 -118.04 38.85 0 -62.76 61.26 -20.91 4.48 -67.24 -65.74 0zm132.97 -119.52l4.49 -59.77 -137.46 0 0 59.77 132.97 0z"/>
    <path class="fil4" d="M-634.53 374.55l0 62.76 -118.04 -38.85 -5.98 -82.17 59.77 0 2.99 37.35 61.26 20.91zm-73.22 -207.67l73.22 0 0 -59.77 -135.97 0 10.46 179.3 125.51 -0.01 0 -59.76 -68.73 0 -4.49 -59.76z"/>
   </g>
  </g>
  <path id="XMLID_11_" class="fil5" d="M1771.2 92.98c0,0.99 0,1.98 0,1.98l0 127.42c0,2.96 -1.98,5.93 -4.94,7.9l-106.68 61.23 0 121.5c0,2.96 -1.98,5.93 -4.94,7.9l-222.24 129.39c-0.99,0 -0.99,0 -1.98,0.99 0,0 0,0 -0.99,0 -1.98,0 -2.96,0 -4.94,0 0,0 0,0 -0.99,0 -0.99,0 -0.99,0 -1.98,-0.99l-223.24 -128.41c-0.96,-1.97 -2.94,-4.94 -2.94,-7.9l0 -382.26c0,-0.99 0,-1.98 0,-1.98 0,0 0,-0.99 0,-0.99 0,0 0,-0.99 0.99,-0.99 0,0 0,-0.99 0.99,-0.99 0,0 0.99,-0.99 0.99,-0.99 0,0 0.99,0 0.99,-0.99 0,0 0.99,-0.99 0.99,-0.99l-0.01 0.02 111.62 -64.2c1.97,-0.99 5.92,-0.99 8.89,0l111.61 64.2 0 0c0,0 0.99,0.99 0.99,0.99 0,0 0.99,0 0.99,0.99 0,0 0.99,0.99 0.99,0.99 0,0 0,0.99 0.99,0.99 0,0 0,0.99 0.99,0.99 0,0 0,0.99 0,0.99 0,0.99 0,1.98 0,1.98l0 238.04 92.84 -53.33 -0.01 -121.51c0,-0.99 0,-1.98 0,-1.98 0,0 0,-0.99 0,-0.99 0,0 0,-0.99 0.99,-0.99 0,0 0,-0.99 0.99,-0.99 0,0 0.99,-0.99 0.99,-0.99 0,0 0.99,0 0.99,-0.99 0,0 0.99,-0.99 0.99,-0.99l-0.01 0.02 111.62 -64.2c2.96,-1.98 5.93,-1.98 8.89,0l110.63 64.2c0,0 0.99,0.99 0.99,0.99 0,0 0.99,0 0.99,0.99 0,0 0.99,0.99 0.99,0.99 0,0 0,0.99 0.99,0.99 -0.01,-0.01 -0.01,-0.01 0.98,1.97 -0.99,-0.99 -0.99,-0.99 0,0l0 0zm-18.77 124.45l0 -106.67 -38.52 22.72 -54.33 31.6 0 105.68 92.85 -53.33 0 0zm-111.62 190.63l0 -105.69 -53.34 30.62 -151.12 85.94 0 106.68 204.46 -117.55zm-426.7 -359.53l0 360.52 204.47 117.54 0 -107.66 -106.68 -60.25 0 0 0 0c0,0 -0.99,-0.99 -0.99,-0.99 0,0 -0.99,0 -0.99,-0.99l0 0c0,0 -0.99,-0.99 -0.99,-0.99 0,0 -0.99,-0.99 -0.99,-0.99l0 0c0,0 0,-0.99 0,-0.99 0,0 0,-0.99 0,-0.99l0 0c0,0 0,-0.99 0,-0.99 0,0 0,-0.99 0,-0.99l0.01 -248.89 -54.33 -30.62 -39.51 -22.72 0 0zm101.74 -70.13l-92.85 53.33 92.85 53.34 92.85 -53.34 -92.85 -53.33 0 0zm48.4 333.85l54.33 -30.62 0 -233.1 -38.52 22.72 -54.33 30.62 0 233.1 38.52 -22.72zm286.44 -270.64l-92.85 53.34 92.85 53.34 92.85 -53.34 -92.85 -53.34zm-9.88 123.47l-54.33 -30.62 -38.52 -22.72 0 105.69 54.33 30.61 38.52 22.72 0 -105.68zm-213.34 238.04l136.3 -78.03 68.16 -38.52 -92.85 -53.33 -106.68 61.23 -97.79 56.3 92.86 52.35z"/>
  <g id="_2048647606128">
   <polygon class="fil6" points="522.92,-1179.55 1115.6,-1179.55 1115.6,-586.88 522.92,-586.87 "/>
   <path class="fil7" d="M1067.09 -728.23c-4.34,-27.04 -21.97,-49.74 -74.2,-70.92 -18.14,-8.34 -38.36,-14.31 -44.39,-28.06 -2.14,-8 -2.42,-12.51 -1.07,-17.35 3.89,-15.72 22.65,-20.62 37.52,-16.12 9.58,3.22 18.65,10.6 24.11,22.37 25.58,-16.56 25.52,-16.45 43.38,-27.83 -6.53,-10.14 -10.03,-14.82 -14.31,-19.15 -15.38,-17.19 -36.34,-26.03 -69.86,-25.36 -5.8,0.74 -11.66,1.52 -17.46,2.26 -16.73,4.22 -32.68,13.01 -42.03,24.79 -28.06,31.83 -20.06,87.54 14.08,110.47 33.64,25.24 83.05,30.99 89.36,54.6 6.14,28.9 -21.24,38.25 -48.45,34.92 -20.06,-4.16 -31.21,-14.36 -43.27,-32.9 -22.2,12.85 -22.2,12.85 -45.01,25.97 5.4,11.84 11.09,17.19 20.16,27.44 42.93,43.55 150.37,41.41 169.64,-24.51 0.78,-2.25 5.97,-17.35 1.8,-40.62l0 0zm-221.97 -178.92l-55.44 0c0,47.88 -0.22,95.43 -0.22,143.32 0,30.48 1.58,58.42 -3.38,66.98 -8.11,16.85 -29.13,14.76 -38.71,11.5 -9.74,-4.79 -14.7,-11.61 -20.45,-21.24 -1.57,-2.76 -2.76,-4.9 -3.15,-5.07 -15.04,9.18 -30.03,18.42 -45.07,27.6 7.49,15.38 18.53,28.73 32.67,37.41 21.13,12.68 49.52,16.56 79.21,9.75 19.33,-5.64 36,-17.3 44.74,-35.04 12.62,-23.27 9.91,-51.44 9.8,-82.6 0.28,-50.81 0,-101.63 0,-152.61z"/>
  </g>
  <g id="XMLID_15_">
   <polygon id="XMLID_13_" class="fil8" points="-577.25,-561.46 -620.37,-1092.97 -100.9,-1091.96 -147.04,-561.46 -358.63,-500.29 "/>
   <polygon id="XMLID_12_" class="fil9" points="-358.62,-551.43 -358.62,-1041.82 -145.03,-1040.81 -183.14,-601.58 "/>
   <polygon id="XMLID_10_" class="fil3" points="-198.17,-978.64 -527.1,-978.64 -518.08,-914.45 -361.64,-914.46 -515.07,-848.28 -506.05,-786.11 -280.41,-786.1 -288.43,-699.85 -364.64,-685.82 -433.84,-703.87 -438.86,-753.01 -503.03,-753.01 -494.01,-650.72 -357.62,-612.61 -226.25,-654.73 -210.22,-853.29 -348.6,-853.29 -198.17,-916.46 "/>
  </g>
  <g id="_2048647600368">
   <g>
    <path class="fil10" d="M592.67 296.39c0,-39.26 -49.16,-76.47 -124.55,-99.54 17.4,-76.83 9.67,-137.96 -24.4,-157.53 -7.85,-4.59 -17.03,-6.76 -27.06,-6.76l0 26.94c5.56,0 10.03,1.08 13.77,3.14 16.43,9.42 23.56,45.3 18,91.44 -1.33,11.36 -3.5,23.32 -6.16,35.52 -23.68,-5.8 -49.53,-10.27 -76.71,-13.17 -16.31,-22.35 -33.22,-42.64 -50.25,-60.4 39.38,-36.6 76.35,-56.66 101.47,-56.66l0 -26.93c-33.22,0 -76.71,23.67 -120.68,64.75 -43.97,-40.84 -87.46,-64.27 -120.69,-64.27l0 26.94c25.01,0 62.1,19.93 101.48,56.29 -16.91,17.76 -33.83,37.93 -49.89,60.28 -27.3,2.9 -53.16,7.37 -76.83,13.29 -2.78,-12.08 -4.84,-23.8 -6.29,-35.03 -5.67,-46.15 1.33,-82.03 17.64,-91.57 3.63,-2.18 8.34,-3.14 13.89,-3.14l0 -26.94c-10.14,0 -19.32,2.17 -27.3,6.76 -33.94,19.57 -41.55,80.58 -24.04,157.17 -75.14,23.19 -124.07,60.28 -124.07,99.42 0,39.26 49.17,76.47 124.56,99.54 -17.4,76.83 -9.67,137.96 24.4,157.53 7.85,4.59 17.03,6.77 27.18,6.77 33.22,0 76.71,-23.68 120.68,-64.76 43.98,40.84 87.47,64.27 120.69,64.27 10.15,0 19.33,-2.17 27.3,-6.76 33.95,-19.57 41.56,-80.58 24.04,-157.17 74.9,-23.07 123.82,-60.28 123.82,-99.42l0 0zm-157.28 -80.58c-4.47,15.59 -10.03,31.65 -16.31,47.72 -4.96,-9.66 -10.15,-19.33 -15.83,-28.99 -5.55,-9.67 -11.47,-19.09 -17.39,-28.27 17.15,2.54 33.7,5.68 49.53,9.54zm-55.33 128.66c-9.42,16.31 -19.09,31.77 -29.12,46.15 -18,1.57 -36.24,2.41 -54.6,2.41 -18.24,0 -36.48,-0.84 -54.36,-2.29 -10.03,-14.38 -19.81,-29.72 -29.24,-45.91 -9.18,-15.82 -17.51,-31.89 -25.12,-48.08 7.49,-16.18 15.94,-32.37 25,-48.2 9.42,-16.31 19.09,-31.77 29.12,-46.14 18,-1.57 36.24,-2.42 54.6,-2.42 18.24,0 36.48,0.85 54.36,2.29 10.03,14.38 19.81,29.72 29.24,45.91 9.18,15.83 17.51,31.89 25.12,48.08 -7.61,16.19 -15.94,32.37 -25,48.2zm39.02 -15.7c6.52,16.18 12.08,32.37 16.67,48.08 -15.83,3.86 -32.5,7.12 -49.77,9.66 5.92,-9.3 11.84,-18.85 17.39,-28.63 5.56,-9.66 10.75,-19.45 15.71,-29.11l0 0zm-122.5 128.89c-11.23,-11.59 -22.47,-24.52 -33.58,-38.65 10.87,0.48 21.98,0.84 33.22,0.84 11.35,0 22.59,-0.24 33.58,-0.84 -10.87,14.13 -22.1,27.06 -33.22,38.65zm-89.88 -71.15c-17.15,-2.54 -33.7,-5.68 -49.53,-9.54 4.47,-15.59 10.03,-31.65 16.31,-47.72 4.95,9.66 10.15,19.33 15.83,28.99 5.67,9.67 11.47,19.09 17.39,28.27zm89.28 -251.39c11.23,11.59 22.47,24.52 33.58,38.65 -10.87,-0.48 -21.99,-0.84 -33.22,-0.84 -11.36,0 -22.59,0.24 -33.58,0.84 10.87,-14.13 22.1,-27.06 33.22,-38.65zm-89.4 71.15c-5.92,9.3 -11.84,18.85 -17.39,28.63 -5.56,9.67 -10.76,19.33 -15.71,28.99 -6.52,-16.18 -12.08,-32.37 -16.67,-48.08 15.83,-3.74 32.5,-7 49.77,-9.54l0 0zm-109.33 151.25c-42.76,-18.24 -70.43,-42.16 -70.43,-61.13 0,-18.97 27.67,-43.01 70.43,-61.13 10.39,-4.47 21.75,-8.45 33.47,-12.2 6.88,23.68 15.94,48.32 27.18,73.57 -11.12,25.13 -20.06,49.65 -26.82,73.21 -11.96,-3.75 -23.32,-7.85 -33.83,-12.32l0 0zm65 172.62c-16.43,-9.42 -23.56,-45.3 -18,-91.44 1.33,-11.36 3.5,-23.32 6.16,-35.52 23.67,5.8 49.53,10.27 76.71,13.17 16.31,22.35 33.22,42.64 50.25,60.4 -39.38,36.6 -76.35,56.66 -101.47,56.66 -5.44,-0.12 -10.03,-1.21 -13.65,-3.27l0 0zm286.55 -92.05c5.67,46.15 -1.33,82.03 -17.64,91.57 -3.63,2.18 -8.34,3.14 -13.89,3.14 -25.01,0 -62.1,-19.93 -101.48,-56.29 16.91,-17.76 33.82,-37.93 49.89,-60.28 27.3,-2.9 53.16,-7.37 76.83,-13.29 2.78,12.2 4.96,23.92 6.29,35.15l0 0zm46.51 -80.57c-10.39,4.47 -21.75,8.45 -33.47,12.2 -6.88,-23.68 -15.94,-48.32 -27.18,-73.57 11.12,-25.13 20.06,-49.65 26.82,-73.21 11.96,3.75 23.32,7.85 33.95,12.32 42.76,18.25 70.43,42.16 70.43,61.13 -0.12,18.97 -27.79,43.01 -70.55,61.13l0 0z"/>
    <circle class="fil10" cx="296.22" cy="296.39" r="55.21"/>
   </g>
  </g>
 </g>
</svg>
