<?xml version="1.0" encoding="UTF-8"?>
<!DOCTYPE svg PUBLIC "-//W3C//DTD SVG 1.1//EN" "http://www.w3.org/Graphics/SVG/1.1/DTD/svg11.dtd">
<!-- Creator: CorelDRAW 2018 (64-Bit) -->
<svg xmlns="http://www.w3.org/2000/svg" xml:space="preserve" width="95px" height="87px" version="1.1" style="shape-rendering:geometricPrecision; text-rendering:geometricPrecision; image-rendering:optimizeQuality; fill-rule:evenodd; clip-rule:evenodd"
viewBox="0 0 95 87"
 xmlns:xlink="http://www.w3.org/1999/xlink">
 <defs>
  <style type="text/css">
   <![CDATA[
    .str0 {stroke:white;stroke-width:8;stroke-miterlimit:22.9256}
    .str1 {stroke:black;stroke-width:2.36;stroke-miterlimit:22.9256}
    .fil0 {fill:none}
    .fil1 {fill:#599E14;fill-rule:nonzero}
   ]]>
  </style>
 </defs>
 <g id="Layer_x0020_1">
  <metadata id="CorelCorpID_0Corel-Layer"/>
  <rect class="fil0" width="95" height="87"/>
  <g id="_1624159955776">
   <rect class="fil0" x="-801.96" y="-141.41" width="325.01" height="372"/>
   <g>
    <circle class="fil0 str0" cx="-621.51" cy="43.82" r="61.4"/>
    <path class="fil0 str0" d="M-618.01 -141.16c58.09,0 107.97,25.27 141.06,65.12l-58.03 58.18c-18.39,-25.29 -48.07,-41.64 -83.06,-41.64 -59.07,0 -105.19,41.37 -103.01,104.1 2.17,62.72 42.2,104.1 103.01,104.1 35.11,0 64.01,-15.54 82.17,-39.73l58.65 57.84c-32.59,38.94 -81.78,63.54 -140.79,63.54 -108.51,0 -179.93,-73.83 -183.81,-185.75 -3.89,-111.92 78.41,-185.76 183.81,-185.76z"/>
   </g>
  </g>
  <path class="fil1" d="M32.77 1.96c-11.9,12.91 -20.33,25 -25.21,36.29 -5.05,12.92 -7.56,22.53 -7.56,28.79l0 1.2c0,2.66 0.54,5.17 1.56,7.49 4.82,5.52 9.31,8.26 13.5,8.26l1.97 0c1.62,0 6.04,-2.2 13.38,-6.68 4.46,-3.45 7.32,-6.61 8.65,-9.48l0 -0.79c-3.63,4.4 -5.6,6.62 -5.91,6.72 -3.48,2.71 -8.31,5.72 -14.55,9.05 -1.57,-0.33 -2.36,-0.74 -2.36,-1.18 1.87,0 3.58,-0.38 5.12,-1.17 8.5,-3.69 15.19,-10.69 20.06,-20.91l0 -0.79 -5.12 7.49c-8.5,9.48 -15.04,14.21 -19.67,14.21l-1.97 0c-7.34,-2.51 -11.13,-6.45 -11.13,-11.83l0 -5.52c0,-3.61 2.01,-10.17 5.99,-19.73l0.41 0 0 0.39c-3.99,11.11 -5.98,18.29 -5.98,21.71 0,2.61 0.64,4.73 1.99,6.31l0 -0.79 0.44 0c0,2.81 3.3,5.16 9.86,7.1l0 0.39 -0.79 0c-2.61,0 -5.62,-1.97 -9.07,-5.91l0 0.77c2.71,4.21 5.87,6.32 9.47,6.32 2.7,0 7.04,-2.36 12.98,-7.09l0 -0.4 -0.39 0 -2.76 1.97 -0.39 0c4.18,-3.99 6.3,-6.11 6.3,-6.32 0.28,0 0.69,0.16 1.18,0.41l0 -1.58 -0.41 0 -0.77 0.38 0.77 -1.56 0 -0.4c-4.71,5.18 -8.11,8.09 -10.21,8.68l-0.79 0 0 -0.41c1.91,-0.63 5.55,-4.19 11,-10.63 8.42,-14.71 12.57,-27.48 12.57,-38.27 -0.54,-1.04 -1.02,-2.53 -1.56,-4.34l-0.78 0c0,1.22 -0.25,2.12 -0.79,2.76l0 5.52 0.79 0 0 -2.38 0.39 0c0,1.74 0.15,3.96 0.39,6.72l-0.78 2.76c-1.02,1.13 -1.56,2.22 -1.56,3.16l-0.4 0 0 -0.4c0.25,-1.43 0.4,-2.61 0.4,-3.55l-0.79 0c-1.03,2.12 -1.58,4.34 -1.58,6.71l-0.39 0 0 -1.98c1.03,-2.51 1.82,-7.64 2.36,-15.39l-0.78 0c-0.55,6.67 -1.19,11.01 -1.97,13.03 -4.09,12.47 -7.23,19.29 -9.44,20.52l0 -1.2c-1.28,2.09 -4.96,6.03 -11.02,11.85l-1.57 -0.41c0,-0.23 0.14,-0.38 0.39,-0.38 0,-6.77 2.12,-13.72 6.29,-20.92 3.79,-10.45 9.98,-19.91 18.5,-28.39l1.18 0c1.01,-3.07 3.36,-6.23 7.1,-9.48 0,-0.74 -0.25,-1.53 -0.81,-2.37 -1.83,-0.14 -2.78,-0.69 -2.78,-1.57 -2.59,-0.45 -3.92,-1.14 -3.92,-1.98 -0.23,0 -0.64,0.15 -1.17,0.4 -0.24,0 -0.88,-0.64 -1.97,-1.97l-0.39 0 -0.79 0.39c-0.39,-1.03 -0.78,-1.58 -1.18,-1.58l-0.39 0 -3.14 1.98zm19.32 15.77c0.79,4.5 1.17,8.15 1.17,11.06l0 0.39 0.76 0 0 -7.1c-0.4,-2.92 -0.92,-4.35 -1.56,-4.35l-0.37 0zm-33.49 4.35l0 0.4c-1.03,1.77 -1.57,2.81 -1.57,3.15l-0.4 0 0 -0.39c1.04,-1.48 1.58,-2.52 1.58,-3.16l0.39 0zm32.29 3.16c0,5.57 -1.73,13.46 -5.17,23.66l0 0.41 0.41 0c3.99,-9.53 5.96,-17.27 5.96,-23.3 0,-0.43 -0.26,-0.72 -0.8,-0.77l-0.4 0zm-32.68 1.56l0 0.41 -6.31 12.62 -0.39 0 0 -0.4c2.91,-6.55 4.98,-10.79 6.31,-12.63l0.39 0zm1.56 0.8l0 0.4c-0.23,0.49 -0.38,0.87 -0.38,1.18l-0.39 0 0 -0.39c0.24,-0.56 0.39,-0.94 0.39,-1.19l0.38 0zm-5.11 1.58l0 0.38c-4.43,7.46 -6.8,12.19 -7.1,14.21l-0.39 0 0 -0.39c2.61,-6.16 4.98,-10.9 7.1,-14.2l0.39 0zm3.55 1.18l0 0.4c-0.54,0.84 -0.79,1.53 -0.79,1.97l-0.39 0 0 -0.39c0.54,-0.84 0.79,-1.53 0.79,-1.98l0.39 0zm31.1 14.99l0.79 0c2.36,-9.32 3.52,-14.35 3.52,-14.99l0 -0.39 -0.78 0 -3.53 15.38zm-8.28 -12.23l0.77 0 0 -1.97 -0.77 0 0 1.97zm6.68 1.19l0.79 0 0 -0.79 -0.79 0 0 0.79zm-29.89 1.97l0 0.79 -0.4 0 0 -0.79 0.4 0zm27.11 0l0.79 0 0 -0.39 -0.79 0 0 0.39zm2.39 0l0.79 0 0 -0.39 -0.79 0 0 0.39zm-6.69 2.76l0 0.79 -0.39 0 0 -0.79 0.39 0zm-5.12 0c0,1.73 -1.41,5.57 -4.33,11.44l0 0.39 0.8 0c1.71,-3.15 3.19,-6.95 4.32,-11.44l0 -0.39 -0.79 0zm4.73 1.18l0 0.4c-0.99,3.45 -2.31,6.85 -3.94,10.25l-0.39 0 0 -0.39c2.61,-6.02 3.94,-9.42 3.94,-10.26l0.39 0zm-29.52 1.19l0 0.39c-0.25,0.49 -0.4,0.89 -0.4,1.18l-0.39 0 0 -0.39c0.25,-0.54 0.39,-0.94 0.39,-1.18l0.4 0zm32.26 0.79c0,0.44 -0.25,1.47 -0.77,3.15l0.77 0c0,-0.15 0.24,-1.08 0.78,-2.76l0 -0.39 -0.78 0zm-5.1 1.18c-0.25,0.44 -0.4,0.99 -0.4,1.58l-0.39 0 0 -1.58 0.79 0zm10.62 3.55c-1.33,2.96 -1.98,4.68 -1.98,5.14l0 0.38c1.85,-2.61 2.79,-4.49 2.79,-5.52l-0.81 0zm-7.47 1.97c-0.45,0 -0.69,0.25 -0.79,0.79l0 1.18c0.44,0 0.84,-0.64 1.18,-1.97l-0.39 0zm-31.89 1.18l0 0.79 -0.39 0 0 -0.79 0.39 0zm7.49 0l0 0.79 -0.39 0 0 -0.79 0.39 0zm29.09 -0.39c-0.45,0 -1.48,1.97 -3.13,5.93l0 0.77c0.54,0 1.55,-1.97 3.13,-5.91l0 -0.79zm-29.48 1.58l0 0.8 -0.39 0 0 -0.8 0.39 0zm-7.49 0.39l0 0.79 -0.4 0 0 -0.79 0.4 0zm33.05 1.18c0.54,0 0.79,-0.24 0.79,-0.77l-0.79 0 0 0.77zm-33.45 0.4l0 0.8 -0.39 0 0 -0.8 0.39 0zm2.37 0.39l0 0.41c-1.58,5.95 -2.37,9.27 -2.37,9.86l-0.39 0 0 -0.41c0.44,-4.32 1.23,-7.64 2.36,-9.86l0.4 0zm31.08 -0.39c-0.43,0 -0.67,0.26 -0.77,0.8l0 0.38c0.54,0 0.77,-0.23 0.77,-0.79l0 -0.39zm-3.14 0.39c0,0.74 -0.64,2.22 -1.96,4.34l0 0.79c1.23,-0.89 2.11,-2.6 2.75,-5.13l-0.79 0zm1.58 1.58c0,0.54 -0.39,1.33 -1.18,2.38l0 0.38 0.39 0c0.35,-0.05 0.89,-0.69 1.58,-1.97l0 -0.79 -0.79 0zm5.08 1.18c-0.34,0 -1.67,2.22 -3.9,6.72l0 0.38c1.07,-0.23 2.39,-2.35 3.9,-6.31l0 -0.79zm-42.58 1.58l0 0.41c-0.54,5.62 -0.77,9.71 -0.77,12.21l-0.41 0 -0.38 -2.76 0 -2.75c0,-1.03 0.38,-3.4 1.18,-7.11l0.38 0zm4.03 0.41l0 0.79 -0.39 0 0 -0.79 0.39 0zm24.03 0l0 0.38c-1.38,2.02 -2.17,3.35 -2.36,3.96l-0.4 0 0 -0.41c1.58,-2.17 2.37,-3.5 2.37,-3.93l0.39 0zm5.11 1.56l0.39 0 0 -0.77 -0.39 0 0 0.77zm2.75 -0.77c-0.54,0.08 -1.03,0.74 -1.57,1.97l0 0.38 0.79 0c0,-0.43 0.24,-0.92 0.78,-1.58l0 -0.77zm-32.28 0.77l0 1.2 -0.44 0 0 -1.2 0.44 0zm-0.44 1.99l0 1.18 -0.4 0 0 -1.18 0.4 0zm30.36 0.79c-0.44,0 -0.69,0.23 -0.79,0.77l0 0.41 0.4 0c0.54,0 0.79,-0.26 0.79,-0.79l0 -0.39 -0.4 0zm-24 1.56l0 2.76 -0.4 0 0 -2.76 0.4 0zm10.62 0l-0.39 0.8 -0.38 0 0.38 -0.8 0.39 0zm2.76 0c-1.03,1.15 -1.56,1.84 -1.56,1.97l-0.41 0 1.58 -1.97 0.39 0zm1.97 0.41c-2.25,2.61 -3.58,3.94 -3.94,3.94l-0.39 0c2.61,-2.38 3.94,-3.71 3.94,-3.94l0.39 0zm6.68 1.18l0.79 0 0 -0.79 -0.79 0 0 0.79zm-28.79 1.58l0 1.58 -0.39 0 0 -1.58 0.39 0zm2.81 0.79l0 0.79c0.94,3.94 2.81,5.91 5.52,5.91l0 0.4 -0.39 0c-1.68,0 -3.5,-1.43 -5.52,-4.34l0 -2.76 0.39 0zm3.95 0.39c0.54,0 0.78,0.25 0.78,0.79l-0.78 0 0 -0.79zm5.91 1.17c0.79,0 1.82,-0.38 3.15,-1.17l0.38 0 0 0.4c-0.54,0 -1.56,0.54 -3.14,1.56l-0.39 0 0 -0.79zm-12.27 -0.38l0 1.17 -0.4 0 0 -1.17 0.4 0zm24.47 0.38l0.39 0.79c0.54,0 0.79,-0.23 0.79,-0.79l0 -0.38 -0.41 0 -0.77 0.38zm-28.05 1.99c0,0.54 0.53,1.56 1.59,3.15l0 0.4 -0.42 0c0,-0.55 -0.53,-1.58 -1.56,-3.16l0 -0.39 0.39 0zm3.58 0.79l0.44 0 0 -0.79 -0.44 0 0 0.79zm9.51 3.15c0.74,0 1.82,-0.26 3.15,-0.79l0.4 0 0 0.4c-0.45,0 -1.14,0.24 -1.97,0.79l-1.58 0 0 -0.4zm-10.7 0.79c2.32,2.61 4.05,3.94 5.18,3.94l0 0.4 -0.41 0c-1.22,0 -2.81,-1.43 -4.77,-4.34zm70.12 -68.41l0.41 0.79c-1.84,2.12 -2.92,3.15 -3.17,3.15l0 -0.39c0,-0.15 0.79,-1.05 2.38,-2.76l-0.8 0c-6.36,6.56 -9.76,9.86 -10.24,9.86 -7.75,7.35 -13.18,12.19 -16.18,14.59 0.24,1.58 0.64,2.37 1.18,2.37 1.04,0 1.58,0.39 1.58,1.18 4.48,1.74 6.7,3.22 6.7,4.34 1.84,0.64 2.76,1.44 2.76,2.38l0.79 0 2.76 -1.59 0.41 0c0,0.65 -0.26,1.84 -0.8,3.56 -4.98,12.97 -8.14,21.66 -9.47,26.03l0.79 0c0.99,-3.68 2.17,-7.24 3.55,-10.65 3.4,-7.05 5.13,-10.84 5.13,-11.43l-0.4 -0.79c1.04,-1.04 2.32,-4.19 3.96,-9.47l0.38 0 0 0.38c-9.46,26.69 -14.2,40.36 -14.2,41.05l0 0.39 0.4 0c0.39,0 0.93,-0.64 1.59,-1.97 0,-2.58 2.12,-8.48 6.31,-17.76 5.75,-17.37 9.07,-26.03 9.84,-26.03 -1.03,4.88 -1.97,8.43 -2.76,10.65l0 0.77 0.41 0c1.32,-3.68 2.5,-7.64 3.55,-11.83l0.38 0 0 0.41c0,1.66 -1.33,5.75 -3.93,12.22l-0.8 -0.39 -3.93 10.25 0.77 0c0,-0.24 0.25,-1.33 0.79,-3.15l0.41 0 0 0.39c-0.26,1.58 -0.8,3.01 -1.59,4.34 0,0.54 0.26,0.79 0.79,0.79 0,0.94 -0.64,2.81 -1.97,5.52l0 0.4 0.39 0c0.54,-0.4 2.66,-5.67 6.31,-15.78l0.41 0 0 0.39c-0.26,1.43 -0.41,2.52 -0.41,3.16 -3.35,7 -6.64,16.22 -9.86,27.62l0.4 0.79 -0.4 0.79 0.4 0.79c0,0.23 -0.25,0.39 -0.79,0.39 0,0.25 0.16,0.4 0.39,0.4l-0.39 2.76 0.39 0c0.54,0 0.79,-0.4 0.79,-1.19 0.25,0 0.41,0.15 0.41,0.4 0.69,0 1.22,-0.94 1.56,-2.76l-0.39 0c-0.53,0 -0.79,0.64 -0.79,1.97l-0.38 0 0 -0.79c2.35,-7.95 4.09,-13.08 5.11,-15.38l0.41 0 0 0.38c0,0.84 -1.05,3.99 -3.17,9.48l0.41 0c0.92,0 1.56,-1.43 1.97,-4.34l0.38 0 0 0.79c-0.44,3.34 -1.38,6.75 -2.76,10.25l0.41 0c0.53,-0.19 1.81,-3.61 3.93,-10.25l0.39 0 0 1.17 0.41 0c1.02,-1.02 2.12,-3.7 3.14,-7.89l-0.79 -0.39c0.56,-2.42 0.79,-3.9 0.79,-4.34l0.41 0c0,0.79 0.23,1.18 0.79,1.18l0.38 0 0 -0.79c4.5,-10.99 7.26,-18.39 8.28,-22.08 8.15,-20.77 12.78,-33.15 13.82,-37.09 0,-1.33 -0.4,-2.12 -1.19,-2.38l-7.11 0 0 -0.79 -1.97 0 -0.79 0.41c0,-0.21 -1.43,-0.59 -4.32,-1.2l-4.75 6.72zm-2.76 7.89l0 0.39c-0.38,0 -0.92,0.25 -1.58,0.79l-0.39 0 0.79 -1.18 1.18 0zm-5.9 1.97c0,-0.44 0.23,-0.74 0.79,-0.79l0.38 0c-0.38,0.79 -0.79,1.18 -1.17,1.18l0 -0.39zm1.97 1.97l-0.41 0.79 -0.39 0 0.39 -0.79 0.41 0zm1.17 0.4l0 0.39 -0.79 0 0 -0.39 0.79 0zm-3.93 0.79c0.53,0 0.79,0.24 0.79,0.78l-0.79 0 0 -0.78zm1.96 5.12c0.95,-1.33 1.64,-1.97 1.97,-1.97l0 0.4c-0.92,1.33 -1.61,1.97 -1.97,1.97l0 -0.4zm6.31 -0.79l0 1.19 -0.38 0 0 -1.19 0.38 0zm-8.68 7.5l-0.39 0.8 -0.4 0 0.4 -0.8 0.39 0zm0.41 1.59c0,-0.46 0.23,-0.74 0.79,-0.79l0 0.38c0,0.54 -0.26,0.79 -0.79,0.79l0 -0.38zm14.97 -0.41l0 0.79 -0.38 0 0 -0.79 0.38 0zm-5.52 1.58l0 0.39c0,1.04 -0.92,3.8 -2.76,8.3l-0.38 0 0 -0.41c1.02,-3.68 1.96,-6.46 2.76,-8.28l0.38 0zm3.17 11.45l0 0.79 -0.41 0 0 -0.79 0.41 0zm-3.17 0.79l0 1.18 -0.38 0 0 -1.18 0.38 0zm-1.56 5.91l0 0.4 -0.79 2.36 -0.41 0 0 -0.39c0,-0.15 0.25,-0.94 0.79,-2.37l0.41 0zm-11.06 6.31l0 0.4 0.4 0c0.54,0 0.8,-0.25 0.8,-0.79l0 -1.58 -0.8 0 -0.4 1.97zm7.89 -1.57l0 1.18 -0.38 0 0 -1.18 0.38 0zm3.94 0l0 0.79 -0.39 0 0 -0.79 0.39 0zm-11.83 2.36c-0.44,0 -0.69,0.25 -0.79,0.79l0 0.79 0.4 0c0.54,0 0.79,-0.25 0.79,-0.79l0 -0.79 -0.4 0zm-0.39 1.98c-0.43,0 -0.69,0.24 -0.79,0.78l0 0.4 0.79 0 0 -1.18zm-0.79 1.97c-0.43,0 -0.69,0.24 -0.79,0.79l0 0.39 0.79 0 0 -1.18zm-0.79 1.97c-0.44,0 -0.69,0.25 -0.79,0.79l0 0.39 0.79 0 0 -1.18zm2.37 0c-0.64,0 -1.04,0.79 -1.19,2.38l0 0.79 0.79 0c0,-0.46 0.25,-1.49 0.79,-3.17l-0.39 0zm-3.16 1.97c-0.44,0 -0.69,0.25 -0.79,0.79l0 0.41 0.79 0 0 -1.2zm1.2 3.55c-0.46,0 -0.69,0.25 -0.8,0.79l0 0.79 0.8 0c0,-0.58 0.13,-1.12 0.38,-1.58l-0.38 0zm5.9 0.79l0 0.79 -0.79 0 0 -0.79 0.79 0zm-7.1 2.38c-0.44,0 -0.69,0.23 -0.79,0.79l0 0.79 0.79 0 0 -1.58zm2.37 2.76l0 0.38c-0.25,0.46 -0.4,1.1 -0.4,1.99l-0.39 0 0 -0.79 0.39 -1.58 0.4 0zm-11.04 0.79c0,0.92 -0.55,2.12 -1.58,3.55l0 0.38 0.39 0.8c0.55,0 1.19,-1.43 1.97,-4.35l0 -0.38 -0.78 0z"/>
  <rect class="fil0 str1" x="1186.52" y="440.01" width="97" height="87"/>
 </g>
</svg>
