<?xml version="1.0" encoding="UTF-8"?>
<!DOCTYPE svg PUBLIC "-//W3C//DTD SVG 1.1//EN" "http://www.w3.org/Graphics/SVG/1.1/DTD/svg11.dtd">
<!-- Creator: CorelDRAW 2018 (64-Bit) -->
<svg xmlns="http://www.w3.org/2000/svg" xml:space="preserve" width="104px" height="86px" version="1.1" style="shape-rendering:geometricPrecision; text-rendering:geometricPrecision; image-rendering:optimizeQuality; fill-rule:evenodd; clip-rule:evenodd"
viewBox="0 0 104 86"
 xmlns:xlink="http://www.w3.org/1999/xlink">
 <defs>
  <style type="text/css">
   <![CDATA[
    .str0 {stroke:white;stroke-width:8;stroke-miterlimit:22.9256}
    .str1 {stroke:black;stroke-width:2.36;stroke-miterlimit:22.9256}
    .fil0 {fill:none}
    .fil1 {fill:#599E14;fill-rule:nonzero}
    .fil2 {fill:#599E14;fill-rule:nonzero}
   ]]>
  </style>
 </defs>
 <g id="Layer_x0020_1">
  <metadata id="CorelCorpID_0Corel-Layer"/>
  <rect class="fil0" width="104" height="86"/>
  <g id="_1624165106624">
   <rect class="fil0" x="-797.46" y="-141.91" width="325.01" height="372"/>
   <g>
    <circle class="fil0 str0" cx="-617.01" cy="43.32" r="61.4"/>
    <path class="fil0 str0" d="M-613.51 -141.66c58.09,0 107.97,25.27 141.06,65.12l-58.03 58.18c-18.39,-25.29 -48.07,-41.64 -83.06,-41.64 -59.07,0 -105.19,41.37 -103.01,104.1 2.18,62.72 42.2,104.1 103.01,104.1 35.11,0 64.01,-15.54 82.18,-39.73l58.64 57.84c-32.59,38.94 -81.78,63.54 -140.79,63.54 -108.51,0 -179.93,-73.83 -183.81,-185.75 -3.88,-111.92 78.41,-185.76 183.81,-185.76z"/>
   </g>
  </g>
  <path class="fil1" d="M-110.44 1.7c-11.9,12.91 -20.33,24.99 -25.21,36.28 -5.05,12.93 -7.56,22.54 -7.56,28.8l0 1.19c0,2.66 0.54,5.17 1.57,7.49 4.81,5.52 9.3,8.26 13.49,8.26l1.97 0c1.62,0 6.04,-2.2 13.38,-6.68 4.46,-3.45 7.32,-6.61 8.65,-9.47l0 -0.79c-3.63,4.39 -5.6,6.61 -5.9,6.71 -3.49,2.71 -8.32,5.72 -14.56,9.06 -1.57,-0.34 -2.36,-0.74 -2.36,-1.18 1.87,0 3.59,-0.39 5.12,-1.18 8.5,-3.69 15.2,-10.69 20.06,-20.9l0 -0.79 -5.12 7.49c-8.5,9.47 -15.04,14.2 -19.67,14.2l-1.97 0c-7.34,-2.51 -11.12,-6.44 -11.12,-11.83l0 -5.52c0,-3.6 2,-10.16 5.99,-19.72l0.4 0 0 0.38c-3.99,11.11 -5.97,18.3 -5.97,21.71 0,2.61 0.64,4.73 1.98,6.31l0 -0.79 0.44 0c0,2.81 3.3,5.17 9.86,7.1l0 0.39 -0.79 0c-2.61,0 -5.62,-1.97 -9.07,-5.9l0 0.77c2.71,4.21 5.87,6.31 9.48,6.31 2.69,0 7.03,-2.36 12.97,-7.08l0 -0.41 -0.39 0 -2.76 1.97 -0.38 0c4.17,-3.99 6.29,-6.11 6.29,-6.31 0.29,0 0.69,0.15 1.18,0.4l0 -1.58 -0.4 0 -0.78 0.39 0.78 -1.57 0 -0.4c-4.72,5.18 -8.12,8.09 -10.22,8.68l-0.79 0 0 -0.4c1.92,-0.64 5.55,-4.19 11.01,-10.64 8.41,-14.71 12.57,-27.48 12.57,-38.27 -0.54,-1.04 -1.03,-2.52 -1.57,-4.34l-0.77 0c0,1.23 -0.26,2.12 -0.79,2.76l0 5.52 0.79 0 0 -2.37 0.38 0c0,1.73 0.16,3.95 0.39,6.71l-0.77 2.76c-1.03,1.13 -1.57,2.22 -1.57,3.17l-0.4 0 0 -0.41c0.25,-1.43 0.4,-2.61 0.4,-3.55l-0.79 0c-1.03,2.12 -1.58,4.34 -1.58,6.72l-0.39 0 0 -1.99c1.03,-2.51 1.82,-7.64 2.36,-15.38l-0.78 0c-0.55,6.66 -1.19,11.01 -1.97,13.02 -4.08,12.48 -7.23,19.29 -9.44,20.52l0 -1.2c-1.28,2.09 -4.96,6.03 -11.02,11.85l-1.56 -0.4c0,-0.24 0.13,-0.39 0.38,-0.39 0,-6.76 2.12,-13.71 6.3,-20.92 3.78,-10.45 9.98,-19.91 18.49,-28.39l1.18 0c1.01,-3.06 3.37,-6.23 7.1,-9.47 0,-0.74 -0.25,-1.53 -0.81,-2.38 -1.83,-0.13 -2.77,-0.69 -2.77,-1.56 -2.59,-0.45 -3.92,-1.15 -3.92,-1.99 -0.24,0 -0.64,0.15 -1.18,0.41 -0.24,0 -0.88,-0.64 -1.97,-1.97l-0.39 0 -0.79 0.38c-0.39,-1.02 -0.77,-1.58 -1.18,-1.58l-0.38 0 -3.15 1.99zm19.32 15.77c0.79,4.49 1.18,8.14 1.18,11.06l0 0.38 0.75 0 0 -7.1c-0.4,-2.91 -0.92,-4.34 -1.56,-4.34l-0.37 0zm-33.49 4.34l0 0.4c-1.03,1.77 -1.57,2.81 -1.57,3.15l-0.4 0 0 -0.39c1.04,-1.48 1.58,-2.52 1.58,-3.16l0.39 0zm32.29 3.16c0,5.57 -1.73,13.47 -5.16,23.67l0 0.4 0.4 0c3.99,-9.53 5.96,-17.27 5.96,-23.29 0,-0.44 -0.25,-0.73 -0.79,-0.78l-0.41 0zm-32.68 1.57l0 0.4 -6.31 12.63 -0.39 0 0 -0.41c2.92,-6.55 4.98,-10.79 6.31,-12.62l0.39 0zm1.57 0.79l0 0.4c-0.24,0.49 -0.39,0.88 -0.39,1.18l-0.39 0 0 -0.38c0.24,-0.56 0.39,-0.95 0.39,-1.2l0.39 0zm-5.12 1.58l0 0.39c-4.43,7.45 -6.8,12.18 -7.1,14.2l-0.39 0 0 -0.38c2.61,-6.16 4.98,-10.91 7.1,-14.21l0.39 0zm3.55 1.18l0 0.4c-0.54,0.85 -0.79,1.53 -0.79,1.97l-0.39 0 0 -0.38c0.54,-0.85 0.79,-1.54 0.79,-1.99l0.39 0zm31.1 14.99l0.79 0c2.36,-9.32 3.52,-14.35 3.52,-14.99l0 -0.39 -0.77 0 -3.54 15.38zm-8.28 -12.23l0.78 0 0 -1.97 -0.78 0 0 1.97zm6.68 1.19l0.79 0 0 -0.79 -0.79 0 0 0.79zm-29.89 1.97l0 0.79 -0.4 0 0 -0.79 0.4 0zm27.12 0l0.79 0 0 -0.38 -0.79 0 0 0.38zm2.39 0l0.79 0 0 -0.38 -0.79 0 0 0.38zm-6.7 2.76l0 0.8 -0.39 0 0 -0.8 0.39 0zm-5.12 0c0,1.74 -1.41,5.57 -4.32,11.45l0 0.39 0.79 0c1.71,-3.15 3.2,-6.96 4.32,-11.45l0 -0.39 -0.79 0zm4.73 1.18l0 0.41c-0.99,3.45 -2.3,6.85 -3.94,10.25l-0.38 0 0 -0.39c2.6,-6.03 3.93,-9.43 3.93,-10.27l0.39 0zm-29.52 1.2l0 0.38c-0.25,0.49 -0.4,0.9 -0.4,1.18l-0.39 0 0 -0.38c0.25,-0.54 0.39,-0.95 0.39,-1.18l0.4 0zm32.26 0.79c0,0.44 -0.25,1.46 -0.77,3.14l0.77 0c0,-0.15 0.24,-1.07 0.78,-2.75l0 -0.39 -0.78 0zm-5.1 1.18c-0.25,0.43 -0.4,0.99 -0.4,1.58l-0.39 0 0 -1.58 0.79 0zm10.62 3.55c-1.33,2.96 -1.98,4.68 -1.98,5.13l0 0.39c1.85,-2.61 2.79,-4.5 2.79,-5.52l-0.81 0zm-7.47 1.97c-0.45,0 -0.69,0.25 -0.79,0.79l0 1.18c0.44,0 0.84,-0.65 1.18,-1.97l-0.39 0zm-31.89 1.17l0 0.8 -0.39 0 0 -0.8 0.39 0zm7.49 0l0 0.8 -0.39 0 0 -0.8 0.39 0zm29.1 -0.38c-0.46,0 -1.48,1.97 -3.13,5.92l0 0.77c0.54,0 1.55,-1.96 3.13,-5.9l0 -0.79zm-29.49 1.58l0 0.79 -0.38 0 0 -0.79 0.38 0zm-7.49 0.39l0 0.79 -0.4 0 0 -0.79 0.4 0zm33.06 1.17c0.53,0 0.79,-0.23 0.79,-0.77l-0.79 0 0 0.77zm-33.46 0.41l0 0.79 -0.39 0 0 -0.79 0.39 0zm2.37 0.39l0 0.4c-1.58,5.96 -2.37,9.27 -2.37,9.86l-0.39 0 0 -0.4c0.44,-4.33 1.23,-7.64 2.36,-9.86l0.4 0zm31.09 -0.39c-0.44,0 -0.68,0.25 -0.78,0.79l0 0.39c0.54,0 0.78,-0.24 0.78,-0.79l0 -0.39zm-3.15 0.39c0,0.74 -0.64,2.22 -1.95,4.34l0 0.79c1.23,-0.89 2.1,-2.61 2.74,-5.13l-0.79 0zm1.58 1.58c0,0.54 -0.39,1.33 -1.18,2.37l0 0.39 0.39 0c0.35,-0.05 0.89,-0.69 1.58,-1.97l0 -0.79 -0.79 0zm5.08 1.17c-0.33,0 -1.66,2.23 -3.9,6.72l0 0.39c1.08,-0.24 2.39,-2.36 3.9,-6.31l0 -0.8zm-42.57 1.59l0 0.4c-0.54,5.62 -0.78,9.71 -0.78,12.22l-0.4 0 -0.39 -2.76 0 -2.76c0,-1.03 0.39,-3.4 1.18,-7.1l0.39 0zm4.02 0.4l0 0.79 -0.39 0 0 -0.79 0.39 0zm24.03 0l0 0.39c-1.38,2.02 -2.17,3.35 -2.36,3.95l-0.4 0 0 -0.4c1.58,-2.17 2.37,-3.5 2.37,-3.94l0.39 0zm5.12 1.57l0.38 0 0 -0.78 -0.38 0 0 0.78zm2.74 -0.78c-0.54,0.09 -1.03,0.74 -1.57,1.97l0 0.39 0.79 0c0,-0.44 0.24,-0.93 0.78,-1.58l0 -0.78zm-32.28 0.78l0 1.19 -0.44 0 0 -1.19 0.44 0zm-0.44 1.98l0 1.18 -0.4 0 0 -1.18 0.4 0zm30.36 0.79c-0.43,0 -0.69,0.24 -0.79,0.78l0 0.4 0.41 0c0.53,0 0.79,-0.25 0.79,-0.79l0 -0.39 -0.41 0zm-24 1.57l0 2.76 -0.4 0 0 -2.76 0.4 0zm10.62 0l-0.38 0.79 -0.39 0 0.39 -0.79 0.38 0zm2.76 0c-1.02,1.14 -1.56,1.83 -1.56,1.97l-0.41 0 1.59 -1.97 0.38 0zm1.97 0.4c-2.25,2.61 -3.58,3.94 -3.94,3.94l-0.38 0c2.61,-2.37 3.94,-3.7 3.94,-3.94l0.38 0zm6.68 1.18l0.79 0 0 -0.79 -0.79 0 0 0.79zm-28.79 1.58l0 1.58 -0.39 0 0 -1.58 0.39 0zm2.81 0.79l0 0.79c0.94,3.94 2.81,5.91 5.52,5.91l0 0.4 -0.39 0c-1.68,0 -3.5,-1.43 -5.52,-4.34l0 -2.76 0.39 0zm3.95 0.39c0.54,0 0.78,0.25 0.78,0.79l-0.78 0 0 -0.79zm5.91 1.18c0.79,0 1.82,-0.39 3.15,-1.18l0.39 0 0 0.4c-0.54,0 -1.57,0.54 -3.15,1.57l-0.39 0 0 -0.79zm-12.27 -0.39l0 1.18 -0.4 0 0 -1.18 0.4 0zm24.47 0.39l0.39 0.79c0.54,0 0.79,-0.24 0.79,-0.79l0 -0.39 -0.4 0 -0.78 0.39zm-28.05 1.98c0,0.54 0.54,1.57 1.6,3.15l0 0.4 -0.42 0c0,-0.55 -0.54,-1.58 -1.57,-3.16l0 -0.39 0.39 0zm3.58 0.8l0.44 0 0 -0.8 -0.44 0 0 0.8zm9.51 3.14c0.74,0 1.82,-0.25 3.15,-0.79l0.4 0 0 0.4c-0.45,0 -1.14,0.24 -1.97,0.8l-1.58 0 0 -0.41zm-10.7 0.79c2.32,2.61 4.05,3.94 5.18,3.94l0 0.4 -0.4 0c-1.23,0 -2.81,-1.43 -4.78,-4.34zm70.13 -68.41l0.4 0.79c-1.84,2.12 -2.91,3.15 -3.16,3.15l0 -0.39c0,-0.15 0.79,-1.04 2.37,-2.76l-0.79 0c-6.36,6.57 -9.76,9.86 -10.25,9.86 -7.74,7.36 -13.18,12.19 -16.17,14.6 0.23,1.58 0.63,2.37 1.17,2.37 1.05,0 1.58,0.39 1.58,1.18 4.48,1.73 6.7,3.21 6.7,4.34 1.84,0.64 2.76,1.43 2.76,2.37l0.79 0 2.77 -1.58 0.4 0c0,0.64 -0.25,1.83 -0.79,3.55 -4.98,12.98 -8.15,21.66 -9.48,26.04l0.79 0c1,-3.69 2.17,-7.24 3.55,-10.66 3.4,-7.05 5.14,-10.84 5.14,-11.42l-0.41 -0.8c1.05,-1.04 2.33,-4.19 3.96,-9.47l0.39 0 0 0.39c-9.46,26.69 -14.21,40.35 -14.21,41.04l0 0.39 0.41 0c0.38,0 0.92,-0.64 1.58,-1.97 0,-2.57 2.12,-8.48 6.31,-17.75 5.75,-17.37 9.07,-26.04 9.84,-26.04 -1.02,4.88 -1.97,8.43 -2.76,10.65l0 0.78 0.41 0c1.33,-3.69 2.5,-7.64 3.55,-11.83l0.39 0 0 0.4c0,1.67 -1.33,5.76 -3.94,12.22l-0.79 -0.39 -3.94 10.25 0.77 0c0,-0.23 0.26,-1.33 0.79,-3.15l0.41 0 0 0.39c-0.25,1.58 -0.79,3.01 -1.58,4.34 0,0.54 0.25,0.79 0.79,0.79 0,0.95 -0.64,2.81 -1.97,5.52l0 0.41 0.39 0c0.53,-0.41 2.65,-5.67 6.31,-15.79l0.4 0 0 0.39c-0.25,1.43 -0.4,2.52 -0.4,3.16 -3.35,7 -6.65,16.23 -9.87,27.62l0.41 0.79 -0.41 0.79 0.41 0.79c0,0.24 -0.26,0.39 -0.79,0.39 0,0.25 0.15,0.4 0.38,0.4l-0.38 2.76 0.38 0c0.54,0 0.79,-0.4 0.79,-1.19 0.26,0 0.41,0.15 0.41,0.4 0.69,0 1.23,-0.94 1.56,-2.76l-0.38 0c-0.54,0 -0.79,0.64 -0.79,1.97l-0.39 0 0 -0.79c2.36,-7.94 4.09,-13.07 5.11,-15.38l0.41 0 0 0.39c0,0.84 -1.04,3.98 -3.16,9.47l0.4 0c0.92,0 1.56,-1.43 1.97,-4.34l0.38 0 0 0.79c-0.43,3.35 -1.38,6.75 -2.75,10.25l0.4 0c0.54,-0.19 1.82,-3.6 3.94,-10.25l0.38 0 0 1.18 0.41 0c1.02,-1.03 2.12,-3.7 3.14,-7.89l-0.79 -0.39c0.56,-2.43 0.79,-3.91 0.79,-4.34l0.41 0c0,0.79 0.23,1.17 0.79,1.17l0.39 0 0 -0.79c4.49,-10.99 7.25,-18.39 8.28,-22.08 8.14,-20.76 12.77,-33.15 13.81,-37.09 0,-1.33 -0.4,-2.12 -1.19,-2.37l-7.1 0 0 -0.79 -1.97 0 -0.79 0.4c0,-0.2 -1.43,-0.59 -4.33,-1.19l-4.74 6.71zm-2.76 7.89l0 0.39c-0.39,0 -0.93,0.25 -1.59,0.79l-0.38 0 0.79 -1.18 1.18 0zm-5.91 1.97c0,-0.43 0.23,-0.74 0.79,-0.79l0.39 0c-0.39,0.79 -0.79,1.18 -1.18,1.18l0 -0.39zm1.97 1.97l-0.41 0.79 -0.38 0 0.38 -0.79 0.41 0zm1.18 0.41l0 0.38 -0.8 0 0 -0.38 0.8 0zm-3.94 0.79c0.54,0 0.79,0.23 0.79,0.77l-0.79 0 0 -0.77zm1.97 5.11c0.94,-1.33 1.63,-1.97 1.97,-1.97l0 0.41c-0.93,1.33 -1.62,1.97 -1.97,1.97l0 -0.41zm6.31 -0.79l0 1.2 -0.39 0 0 -1.2 0.39 0zm-8.69 7.51l-0.38 0.79 -0.41 0 0.41 -0.79 0.38 0zm0.41 1.58c0,-0.45 0.23,-0.74 0.79,-0.79l0 0.39c0,0.54 -0.25,0.79 -0.79,0.79l0 -0.39zm14.98 -0.4l0 0.79 -0.39 0 0 -0.79 0.39 0zm-5.52 1.58l0 0.39c0,1.04 -0.93,3.8 -2.76,8.29l-0.39 0 0 -0.4c1.02,-3.69 1.97,-6.46 2.76,-8.28l0.39 0zm3.16 11.44l0 0.79 -0.4 0 0 -0.79 0.4 0zm-3.16 0.79l0 1.18 -0.39 0 0 -1.18 0.39 0zm-1.57 5.91l0 0.4 -0.79 2.36 -0.4 0 0 -0.39c0,-0.15 0.25,-0.94 0.79,-2.37l0.4 0zm-11.06 6.31l0 0.41 0.41 0c0.54,0 0.79,-0.26 0.79,-0.8l0 -1.58 -0.79 0 -0.41 1.97zm7.9 -1.56l0 1.17 -0.39 0 0 -1.17 0.39 0zm3.93 0l0 0.79 -0.38 0 0 -0.79 0.38 0zm-11.83 2.35c-0.43,0 -0.69,0.26 -0.79,0.79l0 0.79 0.41 0c0.53,0 0.79,-0.25 0.79,-0.79l0 -0.79 -0.41 0zm-0.38 1.99c-0.44,0 -0.69,0.23 -0.79,0.77l0 0.41 0.79 0 0 -1.18zm-0.79 1.97c-0.44,0 -0.69,0.23 -0.8,0.79l0 0.39 0.8 0 0 -1.18zm-0.8 1.97c-0.43,0 -0.69,0.25 -0.79,0.79l0 0.38 0.79 0 0 -1.17zm2.38 0c-0.64,0 -1.05,0.79 -1.2,2.37l0 0.79 0.79 0c0,-0.45 0.26,-1.48 0.8,-3.16l-0.39 0zm-3.17 1.97c-0.43,0 -0.69,0.25 -0.79,0.79l0 0.4 0.79 0 0 -1.19zm1.2 3.55c-0.46,0 -0.69,0.25 -0.79,0.79l0 0.79 0.79 0c0,-0.59 0.13,-1.13 0.39,-1.58l-0.39 0zm5.91 0.79l0 0.79 -0.8 0 0 -0.79 0.8 0zm-7.11 2.37c-0.43,0 -0.69,0.24 -0.79,0.79l0 0.79 0.79 0 0 -1.58zm2.38 2.76l0 0.39c-0.26,0.45 -0.41,1.09 -0.41,1.98l-0.38 0 0 -0.79 0.38 -1.58 0.41 0zm-11.04 0.79c0,0.93 -0.56,2.12 -1.59,3.55l0 0.39 0.39 0.79c0.56,0 1.2,-1.43 1.97,-4.34l0 -0.39 -0.77 0z"/>
  <rect class="fil0 str1" x="1191.02" y="439.51" width="97" height="87"/>
  <path class="fil2" d="M37.15 0.33c-2.26,0 -3.88,0.82 -4.8,2.48 -0.51,0 -1.33,-0.43 -2.57,-1.23 -0.24,0 -0.62,0.13 -1.12,0.4 -0.22,-0.46 -0.36,-1.04 -0.36,-1.65 -3.46,0.77 -5.17,1.7 -5.17,2.88 -15.26,22.27 -22.88,39.85 -22.88,52.79 0,9.89 3.08,17.16 9.24,21.84 2.94,0.83 4.42,1.9 4.42,3.29l-0.36 0.83c0.22,0 0.36,0.16 0.36,0.42 0.43,-0.26 1.89,-0.58 4.44,-0.82l5.89 0.4c3.37,0 8.9,-4.12 16.59,-12.37 2.89,-4.07 5.33,-8.29 7.36,-12.78l0 -1.23 -0.74 0c-4.09,7.58 -6.81,11.81 -8.1,12.77l-0.36 0c8.46,-13.04 13.46,-26.22 15.08,-39.56l-0.74 0c-0.91,10.66 -6.29,23.55 -16.18,38.74l-0.38 0 0 -0.41c1.15,-2.67 4.11,-7.78 8.84,-15.26 4.64,-12.78 7.12,-21.84 7.36,-27.21 -0.24,0 -0.38,-0.14 -0.38,-0.41l-0.72 0.41c-1.25,7.83 -2.22,12.22 -2.94,13.2 0,3.13 -3.92,11.71 -11.78,25.56 0,-0.25 1.46,-3.96 4.42,-11.13 2.43,-5 3.68,-7.78 3.68,-8.25l-0.4 0c-0.33,0 -1.77,2.32 -4.38,7 0.55,-2.46 1.29,-4.36 2.2,-5.75l0 -0.42c0,-0.46 -0.24,-0.78 -0.74,-0.83l-1.1 0.83c0,-0.21 0.14,-1.03 0.36,-2.47 2.42,-6.25 3.66,-12.32 3.66,-18.15l-0.37 -0.82 0.37 0c-0.19,-0.57 -0.4,-2.06 -0.74,-4.54 0.6,0 2.35,-1.8 5.16,-5.35l0 -0.83c0,-0.56 -0.38,-0.83 -1.1,-0.83 -1.9,-2.73 -3.36,-4.12 -4.42,-4.12 0,-1.09 -0.72,-1.65 -2.18,-1.65 -1.67,-2.47 -2.91,-3.72 -3.7,-3.72 0,-0.24 0.14,-0.4 0.38,-0.4l-1.1 -1.65zm-17.7 11.54l0 0.42c-0.24,0.57 -0.37,0.97 -0.37,1.24l-0.37 0 0 -0.43c0.23,-0.56 0.37,-0.96 0.37,-1.23l0.37 0zm30.18 4.12l0.74 0 0 -0.4 -0.74 0 0 0.4zm4.8 1.65c-0.24,3.45 -0.36,5.21 -0.36,5.37l0.36 0c0.5,0 0.74,-0.26 0.74,-0.83l0 -4.54 -0.74 0zm-4.8 3.31l0.74 0 0 -1.65 -0.74 0 0 1.65zm-7.7 -0.42c-0.22,3.45 -0.36,5.21 -0.36,5.37l0 1.23 0.36 0c0.5,-1.39 0.74,-3.45 0.74,-6.18l0.36 0 0 2.47c0,1.18 -0.36,3.25 -1.1,6.18l0 0.42 0.74 0 0.36 -2.06 0.36 0 0 0.4c0,0.83 -0.36,2.63 -1.08,5.37l-0.38 0 0 -0.83 0.38 -1.65 -0.74 0c0,0.16 -0.38,1.5 -1.1,4.12l-0.38 0 0 -0.41c0.74,-2 1.1,-3.66 1.1,-4.94l0 -0.42 -0.72 0c-1.26,3.97 -1.86,6.35 -1.86,7.02l-0.36 0 0 -0.42c0,-1.08 0.88,-6.34 2.58,-15.67l1.1 0zm-23.22 37.93c0,-9.06 3.17,-17.32 9.59,-24.73 5.16,-7.99 8.97,-11.97 11.43,-11.97 0,1.09 -1.12,5.78 -3.32,14.03l-0.38 0c0,-0.26 -0.14,-0.67 -0.36,-1.25l-0.38 0c-1.24,5.37 -2.94,9.49 -5.15,12.38l0 0.42c0,0.56 0.23,0.81 0.74,0.81 0,0.37 -0.51,1.71 -1.48,4.13l-1.84 0c0,0.62 -2.08,3.51 -6.28,8.66 -1.24,-0.82 -2.07,-1.25 -2.57,-1.25l0 -1.23zm29.82 -28.86l0.36 0c0.52,0 0.74,-0.25 0.74,-0.81l0 -2.08 -0.74 0 -0.36 2.89zm-11.76 -0.41l0.74 0 0 -0.4 -0.74 0 0 0.4zm-24.7 2.48l0 0.81c-0.23,0.58 -0.36,0.99 -0.36,1.25l-0.38 0 0 -0.42c0.24,-0.46 0.38,-1.02 0.38,-1.64l0.36 0zm33.88 0c-0.4,0 -0.69,0.25 -0.73,0.81l0 1.25 0.73 0c0,-0.61 0.15,-1.19 0.37,-1.65 -0.22,0 -0.37,-0.16 -0.37,-0.41zm1.84 2.06l0.74 0 0 -0.83 -0.74 0 0 0.83zm-3.31 2.47l0.74 0 0 -0.41 -0.74 0 0 0.41zm2.57 0l0.74 0 0 -0.41 -0.74 0 0 0.41zm-7.7 2.06l0 0.82 -0.36 0 0 -0.82 0.36 0zm6.97 0.42l0.73 0 0 -0.42 -0.73 0 0 0.42zm-3.65 2.88l0.36 0c0.72,-0.21 1.08,-1.03 1.08,-2.48l0 -0.4 -0.72 0 -0.72 2.88zm-4.8 -1.65l0 0.41 -0.72 0 0 -0.41 0.72 0zm7.72 1.23l0.73 0 0 -0.4 -0.73 0 0 0.4zm-39.41 7.43l0 0.83 -0.38 0 0 -0.83 0.38 0zm23.6 0c-0.43,0 -0.7,0.26 -0.74,0.83l0 1.23 0.74 0c0,-0.62 0.12,-1.18 0.36,-1.66 -0.24,0 -0.36,-0.14 -0.36,-0.4zm-23.98 1.23l0 2.48 -0.36 0 0 -2.48 0.36 0zm4.79 0.42l0 1.24 -0.36 2.88 -0.37 0 0 -0.82c0.23,-1.5 0.37,-2.63 0.37,-3.3l0.36 0zm17.71 1.64c0.5,0 0.74,-0.25 0.74,-0.83l-0.74 0 0 0.83zm6.63 9.08c2.77,-5.31 4.61,-8.46 5.54,-9.48l0 1.65 -5.18 7.83 -0.36 0zm-32.06 -9.08l0 1.25c-0.21,3.96 -0.36,6.18 -0.36,6.58 0,0.88 0.36,2.7 1.09,5.37l0 0.83 -0.36 0c-0.73,-2.53 -1.09,-4.89 -1.09,-7.02l0 -2.87 0.36 -4.14 0.36 0zm2.57 0.83l0 4.54 -0.4 0 0 -4.54 0.4 0zm43.83 -0.41c-0.55,0 -0.93,0.83 -1.1,2.47l0 0.42c0.96,-0.47 1.46,-1.44 1.46,-2.89l-0.36 0zm-39.41 6.18c0,0.27 0.14,0.67 0.37,1.23l0 2.06 -0.37 0c0,-0.81 -0.13,-1.79 -0.37,-2.88l0 -0.41 0.37 0zm-4.42 0.41l0 2.48 -0.4 0 0 -2.48 0.4 0zm0.36 2.88c0,1.2 0.38,2.43 1.12,3.72l-0.38 0c-0.5,0 -0.87,-0.97 -1.1,-2.89l0 -0.83 0.36 0zm28.76 4.55l-5.16 5.77 -0.36 0c0,-0.27 1.7,-2.22 5.15,-5.77l0.37 0zm-26.54 2.05l0 0.83 -0.37 0 0 -0.83 0.37 0zm1.47 6.2c0.6,0.56 1.1,0.81 1.48,0.81l0 0.42 -0.38 0c-0.95,-0.42 -1.47,-0.83 -1.47,-1.23l0.37 0zm15.49 0.4l0 0.41 -1.12 0 0 -0.41 1.12 0zm68.06 -75.24c-2.21,0 -4.41,0.4 -6.63,1.23 -11.2,5.47 -23.35,15.37 -36.48,29.69l0 0.83 8.84 7.41c1.02,0 3.96,-2.32 8.85,-7 11.74,-11.8 19.72,-17.99 23.95,-18.55l0.37 0c0,0.82 -0.74,3.14 -2.21,7 -6.78,8.4 -11.47,15 -14,19.78l0 0.43 0.36 0 2.94 -3.31 0 0.42c-1.69,4.07 -5.1,8.45 -10.31,13.18 -4.75,8.87 -9.53,16.04 -14.37,21.44l-0.36 0 0 -0.83c-1.34,1.66 -3.27,3.05 -5.9,4.14 0,0.78 0.96,2.73 2.94,5.77l3.7 4.95c4.92,0 10.91,-3.15 18.05,-9.49 8.33,-4.73 13.49,-8.04 15.47,-9.89 -1.2,0 -2.44,0.41 -3.68,1.23l-0.36 0 0 -0.4c9.52,-5.62 14.4,-8.82 14.73,-9.49l0 -0.4c-8.71,4.78 -18.43,10.86 -29.1,18.13l-0.38 0 6.27 -5.36 0 -0.42c-0.56,0 -1.8,0.67 -3.69,2.06 0.45,-0.86 1.79,-1.79 4.05,-2.89l0.74 0.43c4.11,-2.12 6.45,-3.66 7,-4.54l-0.74 0c1.53,-1.61 2.41,-2.68 2.58,-3.3 -0.77,0 -2.39,0.67 -4.78,2.06l-0.38 0 0.38 -0.82c7.4,-3.4 13.3,-7.38 17.67,-11.95l0 -0.43c-0.45,0 -1.19,0.27 -2.2,0.83 0,-0.25 -0.14,-0.4 -0.38,-0.4l0 0.4c-1.14,1.09 -1.74,2.06 -1.84,2.89l-2.2 -0.41 0 -0.42 0.74 0 0 -0.83c-0.56,0 -1.07,0.16 -1.48,0.43l-0.37 0c1.71,-1.4 2.59,-2.22 2.59,-2.49 -0.61,0 -1.81,0.58 -3.69,1.66 -0.24,0 -0.37,-0.27 -0.37,-0.83l-0.37 0c-2.85,2.43 -4.7,4.08 -5.52,4.95 0,-0.3 -0.14,-0.73 -0.38,-1.23 -3.54,1.84 -5.75,3.23 -6.63,4.11l0 -0.4 1.47 -2.06 0 -0.42 -0.36 0c-0.88,0.52 -1.52,1.33 -1.84,2.48l-0.37 0c0,-0.48 2.43,-3.45 7.37,-9.07l0 0.81 0.36 0c2.45,-3.64 3.7,-5.72 3.7,-6.17 11.28,-12.89 16.96,-22.78 16.96,-29.68l0 -2.89c-1.57,-8.25 -5.13,-12.37 -10.69,-12.37l-0.02 0zm2.22 7c0,0.37 0.52,1.29 1.48,2.89 -1.72,-1.5 -2.6,-2.46 -2.6,-2.89l1.12 0zm-8.11 0.83l0 0.41 -0.74 0 0 -0.41 0.74 0zm-9.58 11.14c5.95,-5.82 10.72,-8.87 14.37,-9.08l0.36 0c0.24,0 1.12,0.99 2.58,2.89l0.38 0c0,-0.67 -0.52,-1.64 -1.48,-2.89l0.74 0c0.96,2.54 1.46,3.93 1.46,4.12l-0.72 0c-1.07,3.82 -1.81,6.14 -2.22,7.02l0 0.81c0.51,0 0.98,-0.97 1.48,-2.87l0.36 0 0 0.41c0,0.21 -0.86,2 -2.58,5.35l-0.36 0 1.1 -2.06 0 -0.83c-0.23,0 -0.96,0.99 -2.21,2.89 -2.9,4.13 -4.47,6.19 -4.78,6.19 -1.34,2.73 -2.22,4.12 -2.58,4.12 -0.19,1.08 -0.55,1.66 -1.12,1.66 -1.46,3.39 -2.2,5.72 -2.2,7l0.74 0c1.34,-3.04 4.73,-8.3 10.31,-15.66l0.37 0 -8.48 13.6c0,0.87 -3.91,5.83 -11.79,14.84 -2.15,5 -4.47,8.71 -7,11.13 -0.23,0 -0.6,-0.16 -1.1,-0.41 -0.83,1.5 -2.91,2.99 -6.27,4.52l-0.74 0c4.56,-5.35 8.71,-11.52 12.53,-18.55 5.9,-6.33 10.83,-13.02 14.75,-20.19 7.14,-8.5 10.67,-14.54 10.67,-18.14 0,-0.83 -0.5,-2.22 -1.46,-4.12 -4.01,0 -8.94,2.73 -14.75,8.25l-0.36 0zm4.06 -7.42l0 0.4 -0.74 0 0 -0.4 0.74 0zm16.19 0l0.38 2.06c0,3.55 -1.84,7.99 -5.52,13.2l-0.38 0c3.68,-5.69 5.52,-9.97 5.52,-12.8l-0.36 -2.46 0.36 0zm-9.19 1.65l0 0.41 -0.74 0 0 -0.41 0.74 0zm4.41 1.23l0 0.83 -0.36 0 0 -0.83 0.36 0zm-0.36 1.23l0 0.83 -0.38 0 0 -0.83 0.38 0zm-16.95 2.89c1.15,-1.39 2.16,-2.22 2.94,-2.46l0.36 0 0 0.4c-0.31,0 -1.41,0.67 -3.3,2.06zm22.09 6.18l0 0.83 -0.36 0 0 -0.83 0.36 0zm-10.67 1.25l-0.74 1.23 -0.36 0 0.74 -1.23 0.36 0zm4.05 0c-0.97,1.18 -1.47,1.9 -1.47,2.06l-0.37 0 1.47 -2.06 0.37 0zm0.74 7.83c-1.33,2.41 -2.53,4.07 -3.69,4.95l0 -0.43c1.98,-2.3 2.95,-3.85 2.95,-4.52l0.74 0zm-4.79 7.01l0 0.4 -0.36 0.83 -0.38 0c0.23,-0.56 0.38,-0.99 0.38,-1.23l0.36 0zm-1.84 0.82l0 0.41c-0.74,0.88 -1.1,1.6 -1.1,2.06l-0.38 0 0 -0.41c0.74,-0.88 1.1,-1.6 1.1,-2.06l0.38 0zm-10.32 0.83l0.37 0 0 -0.83 -0.37 0 0 0.83zm4.04 0c0.52,0 0.74,-0.26 0.74,-0.83l-0.74 0 0 0.83zm-5.15 0.81c-0.32,0 -0.92,0.83 -1.84,2.48l0 0.41c1.48,-1.29 2.21,-2.11 2.21,-2.47l0 -0.42 -0.37 0zm6.27 0.83c-3.55,4.12 -5.53,6.19 -5.9,6.19l0.37 0.81c3.69,-3.69 5.53,-5.91 5.53,-6.58l0 -0.42zm-11.43 5.37c-1.48,1.28 -2.2,2.11 -2.2,2.46l0 0.42c1.7,-1.49 2.58,-2.48 2.58,-2.88l-0.38 0zm26.54 0c-0.42,0 -0.64,0.24 -0.74,0.82l1.1 0 0 -0.82 -0.36 0zm-22.12 2.46c-1.06,1.39 -1.7,2.06 -1.84,2.06l0.38 0.83c0.86,-0.51 1.51,-1.34 1.84,-2.47l0 -0.42 -0.38 0zm3.32 1.66c-4.19,6.02 -6.26,9.32 -6.26,9.89l-0.36 0 0 -0.41c0,-0.47 2.06,-3.66 6.25,-9.48l0.37 0zm11.79 3.29l0 0.42 -0.73 0 0 -0.42 0.73 0zm-25.79 2.48c0.51,0 0.74,-0.27 0.74,-0.83l-0.74 0 0 0.83zm19.53 0l0 0.4 -1.1 0 0 -0.4 1.1 0zm1.48 0.4l0 0.43 -0.74 0 0 -0.43 0.74 0zm-21.75 0.83c0.51,0 0.74,-0.26 0.74,-0.83l-0.74 0 0 0.83zm27.27 -0.83c-1.47,0.72 -2.2,1.29 -2.2,1.66l1.1 0c1.24,-0.72 1.84,-1.29 1.84,-1.66l-0.74 0zm9.57 0.43l0 0.82c1.24,-0.21 1.84,-0.63 1.84,-1.25l-1.84 0.43zm-36.84 0.4c-0.4,0 -0.64,0.26 -0.73,0.83l0.73 0 0 -0.83zm16.59 1.23c0,-0.45 0.22,-0.77 0.72,-0.81l0.38 0c0,0.57 -0.23,0.81 -0.74,0.81l-0.36 0zm19.15 -0.81c-0.97,0.41 -1.48,0.81 -1.48,1.23l0.74 0c0.51,0 0.74,-0.26 0.74,-0.82l0 -0.41zm-9.21 1.23c-0.41,0 -0.65,0.25 -0.73,0.83l1.11 0 0 -0.83 -0.38 0zm4.43 2.06c-2.72,1.08 -4.05,1.9 -4.05,2.47l0.36 0c0.55,0 1.81,-0.57 3.69,-1.64l0 -0.83zm-34.27 0.83c-0.41,0 -0.65,0.25 -0.74,0.83l0.37 0c0.51,0 0.73,-0.27 0.73,-0.83l-0.36 0zm21.74 2.06l0 0.41 -0.74 0 0 -0.41 0.74 0zm-24.32 1.23l0.74 0 0 -0.4 -0.74 0 0 0.4zm14.73 2.48c0,-0.36 0.97,-1.19 2.96,-2.48l0.36 0c0,0.37 -0.96,1.18 -2.94,2.48l-0.38 0zm-16.57 0.81l0.36 0 0 -0.81 -0.36 0 0 0.81zm16.57 5.78l0 0.42 -0.72 0 0 -0.42 0.72 0zm-5.52 1.65l0 0.41 -1.1 0 0 -0.41 1.1 0z"/>
 </g>
</svg>
