<?xml version="1.0" encoding="UTF-8"?>
<!DOCTYPE svg PUBLIC "-//W3C//DTD SVG 1.1//EN" "http://www.w3.org/Graphics/SVG/1.1/DTD/svg11.dtd">
<!-- Creator: CorelDRAW 2018 (64-Bit) -->
<svg xmlns="http://www.w3.org/2000/svg" xml:space="preserve" width="198px" height="56px" version="1.1" style="shape-rendering:geometricPrecision; text-rendering:geometricPrecision; image-rendering:optimizeQuality; fill-rule:evenodd; clip-rule:evenodd"
viewBox="0 0 168.35 47.81"
 xmlns:xlink="http://www.w3.org/1999/xlink">
 <defs>
  <style type="text/css">
    .fil0 {fill:#17313B}
    .fil1 {fill:#EF4335}
  </style>
 </defs>
 <g id="Layer_x0020_1">
  <metadata id="CorelCorpID_0Corel-Layer"/>
  <g id="_2191975751040">
   <g>
    <polygon class="fil0" points="43.77,0 51.52,0 51.52,47.81 43.77,47.81 "/>
    <path class="fil0" d="M78.45 32.66c0,7.41 -6.06,8.08 -8.08,8.08 -4.71,0 -5.39,-4.38 -5.39,-6.73l0 -18.52 -7.74 0 0 18.18c0,4.38 1.35,8.42 4.04,10.78 2.36,2.35 5.39,3.36 9.09,3.36 2.7,0 6.06,-0.67 8.08,-2.69l0 2.69 7.75 0 0 -32.32 -7.75 0c0,0 0,17.17 0,17.17z"/>
    <polygon class="fil0" points="101.35,3.7 93.6,3.7 93.6,15.49 87.88,15.49 87.88,22.9 93.6,22.9 93.6,47.81 101.35,47.81 101.35,22.9 107.07,22.9 107.07,15.49 101.35,15.49 "/>
    <path class="fil0" d="M131.31 38.05c-1.68,1.34 -4.04,2.36 -6.39,2.36 -5.39,0 -9.09,-4.05 -9.09,-9.43 0,-5.39 3.7,-9.09 9.09,-9.09 2.35,0 4.71,0.67 6.39,2.35l1.02 1.01 5.38 -5.05 -1.34 -1.01c-3.03,-2.69 -7.08,-4.38 -11.45,-4.38 -9.43,0 -16.5,7.08 -16.5,16.5 0,9.43 7.07,16.5 16.5,16.5 4.37,0 8.42,-1.68 11.45,-4.38l1.34 -1 -5.38 -5.39 -1.02 1.01z"/>
    <path class="fil0" d="M164.99 18.18c-2.36,-2.36 -4.72,-3.37 -8.42,-3.37 -2.7,0 -5.39,0.68 -7.41,2.7l0 -17.51 -7.74 0 0 47.81 7.74 0 0 -17.84c0,-7.41 5.05,-8.08 7.07,-8.08 4.72,0 4.38,4.37 4.38,6.73l0 18.86 7.74 0 0 -18.52c0,-4.38 -1.01,-8.42 -3.36,-10.78z"/>
    <circle class="fil1" cx="124.58" cy="31.31" r="5.39"/>
    <path class="fil0" d="M33 36.03c-2.7,2.69 -6.74,4.38 -11.11,4.38 -8.42,0 -14.48,-6.74 -14.48,-15.83 0,-9.09 6.06,-15.83 14.81,-15.83 4.04,0 8.08,1.69 11.11,4.72l1.01 1.01 5.05 -5.05 -1.01 -1.01c-4.37,-4.38 -10.1,-6.74 -16.16,-6.74 -12.79,-0.33 -22.22,9.77 -22.22,22.9 0,13.13 9.43,23.23 21.89,23.23 6.06,0 12.12,-2.35 16.16,-6.73l1.01 -1.01 -5.05 -5.05 -1.01 1.01z"/>
   </g>
  </g>
 </g>
</svg>
