<?xml version="1.0" encoding="UTF-8"?>
<!DOCTYPE svg PUBLIC "-//W3C//DTD SVG 1.1//EN" "http://www.w3.org/Graphics/SVG/1.1/DTD/svg11.dtd">
<!-- Creator: CorelDRAW 2018 (64-Bit) -->
<svg xmlns="http://www.w3.org/2000/svg" xml:space="preserve" width="100px" height="100px" version="1.1" style="shape-rendering:geometricPrecision; text-rendering:geometricPrecision; image-rendering:optimizeQuality; fill-rule:evenodd; clip-rule:evenodd"
viewBox="0 0 10.64 10.64"
 xmlns:xlink="http://www.w3.org/1999/xlink">
 <defs>
  <style type="text/css">
   <![CDATA[
    .fil0 {fill:none}
    .fil3 {fill:#FEFEFE}
    .fil5 {fill:#40465C}
    .fil2 {fill:#194603}
    .fil4 {fill:#5A9E13}
    .fil1 {fill:white}
   ]]>
  </style>
    <clipPath id="id0">
     <path d="M0 0.57l10.46 0 0 9.5 -10.46 0 0 -9.5z"/>
    </clipPath>
 </defs>
 <g id="Layer_x0020_1">
  <metadata id="CorelCorpID_0Corel-Layer"/>
  <rect class="fil0" width="10.64" height="10.64"/>
  <g id="_2970713037072">
   <g style="clip-path:url(#id0)">
    <image x="0" y="0.57" width="10.46" height="9.51" xlink:href="date-time_Images\date-time_ImgID1.png"/>
   </g>
   <g>
    <circle class="fil1" cx="5.72" cy="4.93" r="3.77"/>
    <g>
     <path class="fil2" d="M10.11 5c-0.02,2.38 -1.95,4.3 -4.33,4.28 -2.38,-0.01 -4.29,-1.95 -4.28,-4.32 0.01,-2.38 1.95,-4.29 4.33,-4.28 2.37,0.01 4.29,1.95 4.28,4.32z"/>
     <path class="fil3" d="M9.33 5c-0.01,1.95 -1.6,3.52 -3.54,3.51 -1.95,-0.01 -3.52,-1.6 -3.51,-3.55 0.01,-1.94 1.6,-3.51 3.54,-3.5 1.95,0.01 3.52,1.59 3.51,3.54z"/>
     <path class="fil4" d="M5.65 1.75l0 0.65c0,0.07 0.06,0.13 0.13,0.13 0.07,0 0.13,-0.06 0.13,-0.13l0.01 -0.65c0,-0.07 -0.06,-0.13 -0.13,-0.13 -0.08,0 -0.14,0.06 -0.14,0.13z"/>
     <path class="fil4" d="M5.62 7.63l0 0.65c0,0.07 0.06,0.13 0.13,0.13 0.07,0 0.13,-0.06 0.13,-0.13l0 -0.65c0,-0.07 -0.05,-0.13 -0.13,-0.13 -0.07,0 -0.13,0.06 -0.13,0.13z"/>
     <path class="fil4" d="M2.5 5.13l0.65 0c0.07,0 0.13,-0.06 0.13,-0.13 0,-0.07 -0.06,-0.13 -0.13,-0.13l-0.65 -0.01c-0.07,0 -0.13,0.06 -0.13,0.13 0,0.08 0.06,0.14 0.13,0.14z"/>
     <path class="fil4" d="M8.38 5.16l0.65 0c0.07,0 0.13,-0.06 0.13,-0.13 0,-0.07 -0.06,-0.13 -0.13,-0.13l-0.65 0c-0.07,0 -0.13,0.05 -0.13,0.13 0,0.07 0.06,0.13 0.13,0.13z"/>
     <path class="fil4" d="M3.37 2.79l0.46 0.46c0.05,0.05 0.13,0.05 0.18,0 0.06,-0.05 0.06,-0.13 0,-0.18l-0.45 -0.46c-0.05,-0.05 -0.14,-0.05 -0.19,0 -0.05,0.05 -0.05,0.13 0,0.18z"/>
     <path class="fil4" d="M7.52 6.96l0.46 0.46c0.05,0.05 0.13,0.05 0.18,0 0.05,-0.05 0.05,-0.13 0,-0.19l-0.45 -0.45c-0.06,-0.06 -0.14,-0.06 -0.19,0 -0.05,0.05 -0.05,0.13 0,0.18z"/>
     <path class="fil5" d="M3.61 7.47l0.45 -0.47c0.05,-0.05 0.05,-0.14 -0.01,-0.19 -0.05,-0.05 -0.13,-0.04 -0.18,0.01l-0.45 0.47c-0.05,0.05 -0.05,0.13 0.01,0.18 0.05,0.05 0.13,0.05 0.18,0z"/>
     <path class="fil4" d="M7.67 3.21l0.44 -0.47c0.05,-0.05 0.05,-0.14 0,-0.19 -0.06,-0.05 -0.14,-0.04 -0.19,0.01l-0.44 0.47c-0.05,0.05 -0.05,0.13 0,0.18 0.05,0.05 0.14,0.05 0.19,0z"/>
     <polygon class="fil2" points="5.92,4.93 5.82,3.38 5.72,4.93 "/>
     <polygon class="fil2" points="5.82,4.88 3.36,4.97 5.82,5.08 "/>
     <polygon class="fil2" points="6.07,5.39 6.03,5.42 4.5,2.77 4.54,2.74 "/>
     <path class="fil2" d="M6.03 4.98c0,0.11 -0.1,0.21 -0.21,0.21 -0.11,-0.01 -0.21,-0.1 -0.21,-0.21 0,-0.12 0.1,-0.21 0.21,-0.21 0.12,0 0.21,0.1 0.21,0.21z"/>
     <path class="fil5" d="M1.32 8.87l1.2 0 0 0.52 -1.88 0 0 -0.21c0,-0.15 0.02,-0.28 0.07,-0.39 0.05,-0.12 0.11,-0.22 0.18,-0.31 0.08,-0.09 0.16,-0.17 0.25,-0.24 0.08,-0.07 0.17,-0.14 0.25,-0.19 0.08,-0.06 0.15,-0.12 0.21,-0.17 0.07,-0.06 0.12,-0.11 0.16,-0.16 0.04,-0.06 0.08,-0.11 0.1,-0.17 0.02,-0.05 0.03,-0.11 0.03,-0.17 0,-0.12 -0.03,-0.21 -0.1,-0.28 -0.07,-0.06 -0.18,-0.09 -0.32,-0.09 -0.24,0 -0.47,0.1 -0.7,0.29l0 -0.55c0.25,-0.16 0.53,-0.23 0.84,-0.23 0.14,0 0.27,0.01 0.38,0.05 0.12,0.04 0.21,0.09 0.29,0.16 0.08,0.07 0.14,0.16 0.18,0.26 0.04,0.09 0.06,0.21 0.06,0.33 0,0.13 -0.02,0.24 -0.06,0.35 -0.04,0.1 -0.09,0.19 -0.16,0.27 -0.06,0.08 -0.14,0.16 -0.23,0.23 -0.08,0.07 -0.17,0.14 -0.27,0.2 -0.06,0.04 -0.12,0.09 -0.18,0.13 -0.06,0.05 -0.11,0.09 -0.15,0.13 -0.05,0.05 -0.08,0.09 -0.11,0.13 -0.03,0.04 -0.04,0.08 -0.04,0.11z"/>
     <path class="fil5" d="M3.43 8.35l0.68 0 0 -0.99c-0.05,0.08 -0.1,0.17 -0.15,0.26 -0.05,0.08 -0.11,0.17 -0.17,0.26 -0.06,0.08 -0.12,0.16 -0.18,0.24 -0.06,0.08 -0.12,0.16 -0.18,0.23zm1.25 -1.79l0 1.79 0.34 0 0 0.46 -0.34 0 0 0.58 -0.57 0 0 -0.58 -1.23 0 0 -0.49c0.1,-0.12 0.22,-0.25 0.34,-0.4 0.11,-0.14 0.23,-0.29 0.33,-0.45 0.11,-0.15 0.22,-0.31 0.31,-0.46 0.09,-0.16 0.17,-0.31 0.24,-0.45l0.58 0z"/>
     <path class="fil3" d="M5.02 8.04l-0.04 0 0 -1.48c0,-0.16 -0.14,-0.3 -0.3,-0.3l-0.58 0c-0.12,0 -0.23,0.07 -0.28,0.18 -0.06,0.13 -0.13,0.27 -0.22,0.41 -0.09,0.15 -0.19,0.3 -0.29,0.45 -0.11,0.15 -0.22,0.29 -0.33,0.43 -0.11,0.14 -0.22,0.27 -0.33,0.39 -0.05,0.06 -0.08,0.13 -0.08,0.2l0 0.26c-0.01,-0.01 -0.03,-0.01 -0.05,-0.01l-0.48 0c0.08,-0.05 0.15,-0.11 0.22,-0.16 0.11,-0.09 0.2,-0.18 0.28,-0.28 0.09,-0.11 0.15,-0.22 0.21,-0.35 0.05,-0.14 0.08,-0.29 0.08,-0.46 0,-0.16 -0.03,-0.32 -0.09,-0.45 -0.06,-0.14 -0.14,-0.27 -0.26,-0.36 -0.11,-0.1 -0.24,-0.18 -0.39,-0.23 -0.15,-0.04 -0.31,-0.07 -0.48,-0.07 -0.37,0 -0.71,0.1 -1,0.29 -0.09,0.06 -0.14,0.15 -0.14,0.25l0 0.55c0,0.12 0.07,0.23 0.18,0.28 0.11,0.05 0.23,0.03 0.32,-0.05 0.17,-0.14 0.33,-0.22 0.5,-0.22 0.07,0 0.1,0.01 0.11,0.02 0,0.01 0.01,0.02 0.01,0.05 0,0.02 -0.01,0.05 -0.01,0.06 -0.01,0.03 -0.03,0.06 -0.05,0.09 -0.03,0.03 -0.07,0.08 -0.12,0.12 -0.06,0.04 -0.12,0.1 -0.2,0.15 -0.08,0.06 -0.17,0.13 -0.26,0.2 -0.11,0.08 -0.2,0.18 -0.29,0.29 -0.09,0.11 -0.17,0.24 -0.23,0.38 -0.06,0.15 -0.09,0.32 -0.09,0.51l0 0.21c0,0.17 0.13,0.3 0.3,0.3l1.88 0c0.17,0 0.3,-0.13 0.3,-0.3l0 -0.28c0.02,0 0.04,0 0.06,0l0.93 0 0 0.28c0,0.17 0.13,0.3 0.3,0.3l0.57 0c0.16,0 0.3,-0.13 0.3,-0.3l0 -0.28 0.04 0c0.16,0 0.3,-0.13 0.3,-0.3l0 -0.46c0,-0.17 -0.14,-0.31 -0.3,-0.31z"/>
     <path class="fil4" d="M1.32 8.92l1.2 0 0 0.52 -1.88 0 0 -0.21c0,-0.15 0.02,-0.28 0.07,-0.39 0.05,-0.12 0.11,-0.22 0.18,-0.31 0.08,-0.1 0.16,-0.18 0.25,-0.25 0.08,-0.07 0.17,-0.13 0.25,-0.19 0.08,-0.06 0.15,-0.11 0.21,-0.17 0.07,-0.05 0.12,-0.1 0.16,-0.16 0.04,-0.05 0.08,-0.1 0.1,-0.16 0.02,-0.05 0.03,-0.11 0.03,-0.17 0,-0.12 -0.03,-0.22 -0.1,-0.28 -0.07,-0.06 -0.18,-0.09 -0.32,-0.09 -0.24,0 -0.47,0.1 -0.7,0.29l0 -0.55c0.25,-0.16 0.53,-0.24 0.84,-0.24 0.14,0 0.27,0.02 0.38,0.06 0.12,0.04 0.21,0.09 0.29,0.16 0.08,0.07 0.14,0.15 0.18,0.25 0.04,0.1 0.06,0.21 0.06,0.34 0,0.13 -0.02,0.24 -0.06,0.34 -0.04,0.1 -0.09,0.2 -0.16,0.28 -0.06,0.08 -0.14,0.16 -0.23,0.23 -0.08,0.07 -0.17,0.13 -0.27,0.2 -0.06,0.04 -0.12,0.09 -0.18,0.13 -0.06,0.04 -0.11,0.09 -0.15,0.13 -0.05,0.04 -0.08,0.08 -0.11,0.13 -0.03,0.04 -0.04,0.07 -0.04,0.11z"/>
     <path class="fil4" d="M3.43 8.39l0.68 0 0 -0.99c-0.05,0.09 -0.1,0.18 -0.15,0.26 -0.05,0.09 -0.11,0.18 -0.17,0.26 -0.06,0.09 -0.12,0.17 -0.18,0.25 -0.06,0.08 -0.12,0.15 -0.18,0.22zm1.25 -1.78l0 1.78 0.34 0 0 0.47 -0.34 0 0 0.58 -0.57 0 0 -0.58 -1.23 0 0 -0.49c0.1,-0.12 0.22,-0.25 0.34,-0.4 0.11,-0.15 0.23,-0.3 0.33,-0.45 0.11,-0.15 0.22,-0.31 0.31,-0.46 0.09,-0.16 0.17,-0.31 0.24,-0.45l0.58 0z"/>
    </g>
   </g>
  </g>
 </g>
</svg>
