<?xml version="1.0" encoding="UTF-8"?>
<!DOCTYPE svg PUBLIC "-//W3C//DTD SVG 1.1//EN" "http://www.w3.org/Graphics/SVG/1.1/DTD/svg11.dtd">
<!-- Creator: CorelDRAW 2018 (64-Bit) -->
<svg xmlns="http://www.w3.org/2000/svg" xml:space="preserve" width="86px" height="86px" version="1.1" style="shape-rendering:geometricPrecision; text-rendering:geometricPrecision; image-rendering:optimizeQuality; fill-rule:evenodd; clip-rule:evenodd"
viewBox="0 0 30.21 30.21"
 xmlns:xlink="http://www.w3.org/1999/xlink">
 <defs>
  <style type="text/css">
    .fil0 {fill:#2F2F2F}
    .fil1 {fill:black;fill-rule:nonzero}
  </style>
 </defs>
 <g id="Layer_x0020_1">
  <metadata id="CorelCorpID_0Corel-Layer"/>
  <g id="_2191825506368">
   <path class="fil0" d="M6.95 3.74c-0.25,0.18 -0.6,0.12 -0.78,-0.13 -0.18,-0.25 -0.12,-0.6 0.13,-0.78 1.28,-0.92 2.69,-1.62 4.18,-2.1 1.49,-0.48 3.05,-0.73 4.62,-0.73 3.47,0 6.67,1.17 9.22,3.14 -0.32,0.2 -0.58,0.49 -0.74,0.84 -2.35,-1.79 -5.29,-2.86 -8.48,-2.86 -1.46,0 -2.91,0.23 -4.28,0.67 -1.37,0.44 -2.68,1.1 -3.87,1.95zm20.04 2.05c2.02,2.56 3.22,5.8 3.22,9.31 0,4.18 -1.69,7.95 -4.42,10.69 -2.74,2.73 -6.51,4.42 -10.69,4.42 -3.49,0 -6.71,-1.19 -9.27,-3.18 0.32,-0.21 0.57,-0.51 0.72,-0.86 2.37,1.83 5.33,2.92 8.55,2.92 3.87,0 7.36,-1.57 9.89,-4.1 2.53,-2.53 4.1,-6.02 4.1,-9.89 0,-3.23 -1.1,-6.2 -2.94,-8.57 0.35,-0.16 0.64,-0.42 0.84,-0.74zm-23.83 18.56c-1.98,-2.56 -3.16,-5.76 -3.16,-9.25 0,-1.48 0.22,-2.96 0.65,-4.37 0.42,-1.41 1.06,-2.75 1.88,-3.99 0.17,-0.26 0.52,-0.33 0.78,-0.16 0.25,0.17 0.32,0.51 0.15,0.77 -0.76,1.15 -1.35,2.4 -1.74,3.71 -0.4,1.3 -0.6,2.67 -0.6,4.04 0,3.21 1.08,6.17 2.9,8.53 -0.36,0.15 -0.65,0.4 -0.86,0.72z"/>
   <circle class="fil0" cx="4.68" cy="4.94" r="0.62"/>
   <path class="fil0" d="M15.04 0.04c1.58,0 2.95,1.77 3.88,4.64 0.88,2.68 1.42,6.37 1.42,10.44 0,1.03 -0.04,2.03 -0.1,2.99 -0.17,-0.05 -0.35,-0.07 -0.54,-0.07 -0.2,0 -0.4,0.03 -0.58,0.09 0.06,-0.97 0.1,-1.98 0.1,-3.01 0,-3.95 -0.52,-7.52 -1.36,-10.1 -0.78,-2.39 -1.78,-3.86 -2.82,-3.86 -1.04,0 -2.04,1.47 -2.82,3.86 -0.33,1.02 -0.61,2.19 -0.83,3.48 -0.25,-0.12 -0.53,-0.18 -0.82,-0.18 -0.1,0 -0.2,0 -0.29,0.02 0.23,-1.36 0.53,-2.59 0.88,-3.66 0.93,-2.87 2.3,-4.64 3.88,-4.64zm4.76 21.86c-0.23,1.36 -0.53,2.59 -0.88,3.67 -0.93,2.87 -2.3,4.64 -3.88,4.64 -1.58,0 -2.95,-1.77 -3.88,-4.64 -0.88,-2.68 -1.42,-6.38 -1.42,-10.45 0,-1.05 0.04,-2.08 0.1,-3.08 0.23,0.09 0.47,0.14 0.73,0.14 0.13,0 0.26,-0.01 0.39,-0.04 -0.07,0.96 -0.1,1.96 -0.1,2.98 0,3.96 0.52,7.53 1.36,10.1 0.78,2.39 1.78,3.87 2.82,3.87 1.04,0 2.04,-1.48 2.82,-3.87 0.34,-1.04 0.63,-2.26 0.85,-3.59 0.29,0.17 0.63,0.27 0.99,0.27 0.03,0 0.07,0 0.1,0z"/>
   <path class="fil0" d="M1.42 9.61l7.33 0c-0.07,0.2 -0.11,0.42 -0.11,0.64 0,0.16 0.02,0.33 0.06,0.48l-7.28 0 0 -1.12zm10.97 0l16.44 0 0 1.12 -16.39 0c0.04,-0.15 0.06,-0.32 0.06,-0.48 0,-0.22 -0.04,-0.44 -0.11,-0.64z"/>
   <path class="fil0" d="M1.42 19.49l16.41 0c-0.04,0.15 -0.06,0.32 -0.06,0.48 0,0.23 0.04,0.44 0.11,0.64l-16.46 0 0 -1.12zm20.15 0l7.26 0 0 1.12 -7.31 0c0.07,-0.2 0.11,-0.41 0.11,-0.64 0,-0.16 -0.02,-0.33 -0.06,-0.48z"/>
   <path class="fil0" d="M10.57 7.76c0.69,0 1.31,0.28 1.76,0.73 0.45,0.45 0.73,1.07 0.73,1.76 0,0.69 -0.28,1.31 -0.73,1.76 -0.45,0.45 -1.07,0.73 -1.76,0.73 -0.69,0 -1.31,-0.28 -1.76,-0.73 -0.45,-0.45 -0.73,-1.07 -0.73,-1.76 0,-0.69 0.28,-1.31 0.73,-1.76 0.45,-0.45 1.07,-0.73 1.76,-0.73zm0.97 1.52c-0.25,-0.25 -0.59,-0.4 -0.97,-0.4 -0.38,0 -0.72,0.15 -0.97,0.4 -0.25,0.25 -0.4,0.59 -0.4,0.97 0,0.38 0.15,0.72 0.4,0.97 0.25,0.25 0.59,0.4 0.97,0.4 0.38,0 0.72,-0.15 0.97,-0.4 0.25,-0.25 0.4,-0.59 0.4,-0.97 0,-0.38 -0.15,-0.72 -0.4,-0.97z"/>
   <path class="fil1" d="M25.34 2.82c0.54,0 1.03,0.22 1.39,0.57 0.35,0.36 0.57,0.85 0.57,1.39 0,0.54 -0.22,1.02 -0.57,1.38 -0.36,0.35 -0.85,0.57 -1.39,0.57 -0.54,0 -1.02,-0.22 -1.38,-0.57 -0.35,-0.36 -0.57,-0.84 -0.57,-1.38 0,-0.54 0.22,-1.03 0.57,-1.39 0.36,-0.35 0.84,-0.57 1.38,-0.57zm1.36 0.6c-0.35,-0.34 -0.83,-0.56 -1.36,-0.56 -0.52,0 -1,0.22 -1.35,0.56 -0.34,0.35 -0.56,0.83 -0.56,1.36 0,0.52 0.22,1 0.56,1.35 0.35,0.34 0.83,0.56 1.35,0.56 0.53,0 1.01,-0.22 1.36,-0.56 0.34,-0.35 0.56,-0.83 0.56,-1.35 0,-0.53 -0.22,-1.01 -0.56,-1.36z"/>
   <path class="fil0" d="M25.34 2.28c0.69,0 1.32,0.28 1.77,0.73 0.45,0.45 0.73,1.08 0.73,1.77 0,0.68 -0.28,1.31 -0.73,1.76 -0.45,0.45 -1.08,0.73 -1.77,0.73 -0.68,0 -1.31,-0.28 -1.76,-0.73 -0.45,-0.45 -0.73,-1.08 -0.73,-1.76 0,-0.69 0.28,-1.32 0.73,-1.77 0.45,-0.45 1.08,-0.73 1.76,-0.73zm0.98 1.52c-0.25,-0.24 -0.6,-0.4 -0.98,-0.4 -0.37,0 -0.72,0.16 -0.97,0.4 -0.24,0.25 -0.4,0.6 -0.4,0.98 0,0.37 0.16,0.72 0.4,0.97 0.25,0.24 0.6,0.4 0.97,0.4 0.38,0 0.73,-0.16 0.98,-0.4 0.24,-0.25 0.4,-0.6 0.4,-0.97 0,-0.38 -0.16,-0.73 -0.4,-0.98z"/>
   <path class="fil0" d="M19.7 17.48c0.69,0 1.31,0.28 1.76,0.73 0.45,0.45 0.73,1.07 0.73,1.76 0,0.69 -0.28,1.31 -0.73,1.76 -0.45,0.45 -1.07,0.73 -1.76,0.73 -0.69,0 -1.31,-0.28 -1.76,-0.73 -0.45,-0.45 -0.73,-1.07 -0.73,-1.76 0,-0.69 0.28,-1.31 0.73,-1.76 0.45,-0.45 1.07,-0.73 1.76,-0.73zm0.97 1.52c-0.25,-0.25 -0.59,-0.4 -0.97,-0.4 -0.38,0 -0.72,0.15 -0.97,0.4 -0.25,0.25 -0.4,0.59 -0.4,0.97 0,0.38 0.15,0.72 0.4,0.97 0.25,0.25 0.59,0.4 0.97,0.4 0.38,0 0.72,-0.15 0.97,-0.4 0.25,-0.25 0.4,-0.59 0.4,-0.97 0,-0.38 -0.15,-0.72 -0.4,-0.97z"/>
   <path class="fil0" d="M4.78 22.91c0.68,0 1.31,0.28 1.76,0.73 0.45,0.45 0.73,1.08 0.73,1.77 0,0.68 -0.28,1.31 -0.73,1.76 -0.45,0.45 -1.08,0.73 -1.76,0.73 -0.69,0 -1.32,-0.28 -1.77,-0.73 -0.45,-0.45 -0.73,-1.08 -0.73,-1.76 0,-0.69 0.28,-1.32 0.73,-1.77 0.45,-0.45 1.08,-0.73 1.77,-0.73zm0.97 1.52c-0.25,-0.24 -0.6,-0.4 -0.97,-0.4 -0.38,0 -0.73,0.16 -0.98,0.4 -0.24,0.25 -0.4,0.6 -0.4,0.98 0,0.37 0.16,0.72 0.4,0.97 0.25,0.24 0.6,0.4 0.98,0.4 0.37,0 0.72,-0.16 0.97,-0.4 0.25,-0.25 0.4,-0.6 0.4,-0.97 0,-0.38 -0.15,-0.73 -0.4,-0.98z"/>
  </g>
 </g>
</svg>
