<?xml version="1.0" encoding="utf-8"?>
<!-- Generator: Adobe Illustrator 16.0.0, SVG Export Plug-In . SVG Version: 6.00 Build 0)  -->
<!DOCTYPE svg PUBLIC "-//W3C//DTD SVG 1.1//EN" "http://www.w3.org/Graphics/SVG/1.1/DTD/svg11.dtd">
<svg version="1.1" id="Vrstva_1" xmlns="http://www.w3.org/2000/svg" xmlns:xlink="http://www.w3.org/1999/xlink" x="0px" y="0px"
	 width="297.638px" height="170.079px" viewBox="0 0 297.638 170.079" enable-background="new 0 0 297.638 170.079"
	 xml:space="preserve">
<g>
	<g>
		<g>
			<path fill="#3D871A" d="M0,170.078V0c0,0,210.762,0,212.29,0c47.022,0,85.31,38.139,85.348,85.021v0.002v0.004
				c-0.038,46.897-38.325,85.051-85.348,85.051C210.764,170.078,0,170.078,0,170.078z"/>
		</g>
	</g>
</g>
<g>
	<path fill="#FFFFFF" d="M33.257,53.491c0-1.808-0.055-2.456-0.216-2.969c-0.136-0.486-0.648-0.81-1.242-0.81
		c-0.81,0-1.269,0.459-1.431,1.403c-0.054,0.432-0.081,1.646-0.081,3.833c0,1.917,0.027,6.263,0.055,6.803
		c0.026,1.16,0.566,1.808,1.457,1.808c0.783,0,1.296-0.513,1.403-1.403c0.055-0.297,0.055-0.324,0.081-2.915h2.754
		c-0.055,2.915-0.081,3.186-0.352,4.157c-0.432,1.538-1.916,2.51-3.887,2.51c-1.619,0-2.969-0.675-3.617-1.781
		c-0.54-0.945-0.647-2.24-0.647-7.855c0-5.29,0.135-6.478,0.891-7.477c0.675-0.891,1.917-1.431,3.374-1.431
		c1.971,0,3.455,0.972,3.887,2.537c0.243,0.864,0.297,1.296,0.324,3.59H33.257z"/>
	<path fill="#FFFFFF" d="M45.54,50.063h-4.724v4.994h4.347v2.429h-4.347v5.723h4.724v2.43h-7.477V47.634h7.477V50.063z"/>
	<path fill="#FFFFFF" d="M47.756,47.634h3.563c1.673,0,2.267,0.081,2.969,0.433c1.215,0.594,1.728,1.835,1.728,4.156
		c0,2.133-0.459,3.158-1.674,3.779c1.242,0.594,1.674,1.269,1.674,2.592v5.344c0,0.811,0.081,1.27,0.324,1.701h-2.915
		c-0.136-0.648-0.162-0.891-0.162-1.431v-3.752c0-2.511-0.378-3.051-2.079-3.051h-0.675v8.233h-2.753V47.634z M51.184,55.165
		c1.646,0,2.079-0.54,2.079-2.591c0-2.105-0.352-2.511-2.214-2.511h-0.54v5.102H51.184z"/>
	<path fill="#FFFFFF" d="M63.198,65.639h-2.753V50.063h-3.05v-2.43h8.88v2.43h-3.077V65.639z"/>
	<path fill="#FFFFFF" d="M70.705,65.639h-2.753V47.634h2.753V65.639z"/>
	<path fill="#FFFFFF" d="M80.883,50.063h-4.724v4.994h4.347v2.429h-4.347v8.152h-2.753V47.634h7.477V50.063z"/>
	<path fill="#FFFFFF" d="M85.231,65.639h-2.753V47.634h2.753V65.639z"/>
	<path fill="#FFFFFF" d="M95.409,50.063h-4.724v4.994h4.347v2.429h-4.347v5.723h4.724v2.43h-7.477V47.634h7.477V50.063z"/>
	<path fill="#FFFFFF" d="M100.811,47.634c2.456,0,3.455,0.298,4.237,1.296c0.837,1.026,1.08,2.699,1.08,7.693
		c0,5.371-0.271,6.964-1.296,7.989c-0.81,0.783-1.781,1.026-4.021,1.026h-3.186V47.634H100.811z M100.378,63.209h0.567
		c2.349,0,2.429-0.243,2.429-6.424c0-6.613-0.026-6.722-2.267-6.722h-0.729V63.209z"/>
	<path fill="#FFFFFF" d="M45.926,85.803l-1.406-1.158c-0.626,0.569-1.311,0.816-2.336,0.816c-1.368,0-2.527-0.684-3.116-1.843
		c-0.551-1.102-0.76-2.47-0.76-4.806c0-2.223,0.209-3.496,0.76-4.56c0.627-1.197,1.768-1.881,3.154-1.881
		c1.311,0,2.432,0.608,3.021,1.652c0.627,1.083,0.874,2.413,0.874,4.598c0,1.292-0.076,2.337-0.267,3.344
		c-0.133,0.76-0.247,1.102-0.607,1.748l1.405,1.234L45.926,85.803z M44.159,82.782c0.342-1.102,0.475-2.298,0.475-4.046
		c0-1.805-0.228-3.287-0.665-4.142c-0.304-0.627-0.969-1.007-1.747-1.007c-1.71,0-2.413,1.558-2.413,5.281
		c0,3.895,0.703,5.396,2.526,5.396c0.494,0,0.894-0.152,1.216-0.476l-1.272-1.007l0.741-0.949L44.159,82.782z"/>
	<path fill="#FFFFFF" d="M55.445,81.244c0,1.481-0.114,2.07-0.514,2.659c-0.646,1.007-1.729,1.52-3.153,1.52
		c-1.576,0-2.755-0.665-3.344-1.861c-0.266-0.57-0.36-1.14-0.36-2.317v-8.663h1.558v8.701c0,1.025,0.076,1.462,0.304,1.88
		c0.342,0.665,0.969,1.007,1.824,1.007c0.931,0,1.596-0.398,1.919-1.178c0.151-0.398,0.208-0.798,0.208-1.709v-8.701h1.559V81.244z"
		/>
	<path fill="#FFFFFF" d="M59.341,81.566l-1.026,3.686h-1.577l3.686-12.671h1.862l3.799,12.671h-1.652l-1.007-3.686H59.341z
		 M61.335,73.759l-1.69,6.517h3.419L61.335,73.759z"/>
	<path fill="#FFFFFF" d="M74.103,83.847v1.405h-6.611V72.581h1.463v11.266H74.103z"/>
	<path fill="#FFFFFF" d="M77.238,85.252h-1.406V72.581h1.406V85.252z"/>
	<path fill="#FFFFFF" d="M83.64,85.252h-1.538V73.949h-3.135v-1.368h7.751v1.368H83.64V85.252z"/>
	<path fill="#FFFFFF" d="M92.532,85.252H91.05v-4.863l-3.742-7.808h1.71l2.773,6.193l2.641-6.193h1.69l-3.59,7.713V85.252z"/>
	<path fill="#FFFFFF" d="M22.595,104.866l-2.85-10.715v10.715h-1.481V92.195h2.337l2.717,10.695l2.621-10.695h2.242v12.671h-1.463
		V94.151l-2.793,10.715H22.595z"/>
	<path fill="#FFFFFF" d="M32.191,101.181l-1.026,3.686h-1.577l3.686-12.671h1.862l3.799,12.671h-1.652l-1.007-3.686H32.191z
		 M34.186,93.373l-1.69,6.516h3.419L34.186,93.373z"/>
	<path fill="#FFFFFF" d="M47.902,104.866h-2.014L41.861,94.38v10.486h-1.52V92.195h1.957l4.104,10.372V92.195h1.5V104.866z"/>
	<path fill="#FFFFFF" d="M51.913,101.181l-1.026,3.686H49.31l3.686-12.671h1.862l3.799,12.671h-1.652l-1.007-3.686H51.913z
		 M53.907,93.373l-1.69,6.516h3.419L53.907,93.373z"/>
	<path fill="#FFFFFF" d="M67.491,104.866h-1.178v-1.368c-0.722,1.064-1.596,1.577-2.735,1.577c-1.463,0-2.603-0.798-3.153-2.185
		c-0.438-1.141-0.646-2.622-0.646-4.674c0-4.236,1.254-6.23,3.914-6.23c1.311,0,2.47,0.589,3.096,1.576
		c0.361,0.589,0.532,1.216,0.57,2.355h-1.596c0-0.627-0.019-0.778-0.133-1.178c-0.304-0.912-0.988-1.443-1.899-1.443
		c-1.634,0-2.395,1.576-2.395,5.034c0,1.748,0.19,3.173,0.552,4.084c0.342,0.874,1.082,1.406,1.938,1.406
		c0.893,0,1.614-0.589,1.976-1.615c0.189-0.531,0.228-0.949,0.247-2.621h-2.584v-1.311h4.027V104.866z"/>
	<path fill="#FFFFFF" d="M71.217,103.518h5.224v1.349h-6.725V92.195h6.725v1.425h-5.224v3.989h4.978v1.349h-4.978V103.518z"/>
	<path fill="#FFFFFF" d="M82.691,104.866l-2.85-10.715v10.715H78.36V92.195h2.337l2.717,10.695l2.621-10.695h2.242v12.671h-1.463
		V94.151l-2.793,10.715H82.691z"/>
	<path fill="#FFFFFF" d="M92.135,103.518h5.224v1.349h-6.725V92.195h6.725v1.425h-5.224v3.989h4.978v1.349h-4.978V103.518z"/>
	<path fill="#FFFFFF" d="M106.839,104.866h-2.014l-4.027-10.486v10.486h-1.52V92.195h1.957l4.104,10.372V92.195h1.5V104.866z"/>
	<path fill="#FFFFFF" d="M113.109,104.866h-1.538V93.563h-3.135v-1.367h7.751v1.367h-3.078V104.866z"/>
	<path fill="#FFFFFF" d="M40.55,120.49c0.038,1.311,0.133,1.767,0.494,2.203c0.418,0.532,1.007,0.779,1.805,0.779
		c1.596,0,2.488-0.874,2.488-2.413c0-1.234-0.532-1.729-2.526-2.394c-1.691-0.551-2.185-0.778-2.66-1.216
		c-0.531-0.494-0.798-1.272-0.798-2.299c0-2.223,1.349-3.552,3.609-3.552c2.128,0,3.515,1.253,3.515,3.21
		c0,0.114,0,0.209-0.019,0.38h-1.463c0.019-0.189,0.038-0.342,0.038-0.437c0-0.494-0.229-1.045-0.608-1.406
		c-0.342-0.322-0.798-0.475-1.463-0.475c-1.387,0-2.146,0.76-2.146,2.146c0,0.608,0.229,1.159,0.57,1.444
		c0.304,0.246,0.702,0.398,1.994,0.835c1.387,0.456,1.919,0.685,2.413,1.083c0.684,0.514,1.025,1.368,1.025,2.508
		c0,2.355-1.501,3.8-3.97,3.8c-1.482,0-2.717-0.608-3.306-1.634c-0.323-0.551-0.456-1.216-0.494-2.564H40.55z"/>
	<path fill="#FFFFFF" d="M52.918,124.479h-1.482v-4.863l-3.742-7.808h1.71l2.773,6.192l2.641-6.192h1.69l-3.59,7.712V124.479z"/>
	<path fill="#FFFFFF" d="M58.789,120.49c0.038,1.311,0.133,1.767,0.494,2.203c0.417,0.532,1.007,0.779,1.805,0.779
		c1.596,0,2.488-0.874,2.488-2.413c0-1.234-0.532-1.729-2.526-2.394c-1.691-0.551-2.185-0.778-2.66-1.216
		c-0.531-0.494-0.798-1.272-0.798-2.299c0-2.223,1.349-3.552,3.609-3.552c2.128,0,3.515,1.253,3.515,3.21
		c0,0.114,0,0.209-0.019,0.38h-1.463c0.019-0.189,0.038-0.342,0.038-0.437c0-0.494-0.229-1.045-0.608-1.406
		c-0.342-0.322-0.798-0.475-1.463-0.475c-1.387,0-2.146,0.76-2.146,2.146c0,0.608,0.229,1.159,0.57,1.444
		c0.304,0.246,0.702,0.398,1.994,0.835c1.387,0.456,1.919,0.685,2.413,1.083c0.684,0.514,1.025,1.368,1.025,2.508
		c0,2.355-1.501,3.8-3.97,3.8c-1.482,0-2.717-0.608-3.306-1.634c-0.323-0.551-0.456-1.216-0.494-2.564H58.789z"/>
	<path fill="#FFFFFF" d="M70.853,124.479h-1.538v-11.304H66.18v-1.367h7.751v1.367h-3.078V124.479z"/>
	<path fill="#FFFFFF" d="M77.028,123.131h5.225v1.349h-6.726v-12.671h6.726v1.425h-5.225v3.989h4.978v1.349h-4.978V123.131z"/>
	<path fill="#FFFFFF" d="M88.503,124.479l-2.85-10.715v10.715h-1.481v-12.671h2.337l2.717,10.695l2.621-10.695h2.242v12.671h-1.463
		v-10.715l-2.793,10.715H88.503z"/>
</g>
<g>
	<path fill="#3D871A" d="M212.598,0c-46.891,0-85.039,38.148-85.039,85.038c0,46.892,38.148,85.04,85.039,85.04
		c46.892,0,85.04-38.148,85.04-85.04C297.638,38.148,259.489,0,212.598,0z"/>
	<g>
		<path fill="#FFFFFF" d="M212.598,5.549c-43.9,0-79.49,35.59-79.49,79.489c0,43.901,35.589,79.491,79.49,79.491
			c43.901,0,79.491-35.59,79.491-79.491C292.089,41.139,256.499,5.549,212.598,5.549z M212.598,148.366
			c-34.973,0-63.325-28.353-63.325-63.328c0-34.973,28.352-63.326,63.325-63.326c34.976,0,63.328,28.353,63.328,63.326
			C275.926,120.014,247.573,148.366,212.598,148.366z"/>
		<g>
			
				<radialGradient id="SVGID_1_" cx="2.3013" cy="184.5215" r="90.7816" fx="2.3013" fy="184.4699" gradientTransform="matrix(1 0 0 1 187.1313 -131.7876)" gradientUnits="userSpaceOnUse">
				<stop  offset="0.25" style="stop-color:#F6F6F6"/>
				<stop  offset="0.4334" style="stop-color:#F1F1F1"/>
				<stop  offset="0.6488" style="stop-color:#E3E4E4"/>
				<stop  offset="0.8794" style="stop-color:#CBCDCE"/>
				<stop  offset="1" style="stop-color:#BCBEC0"/>
			</radialGradient>
			<path fill="url(#SVGID_1_)" d="M261.189,109.768c0-1.229-1.006-0.597-1.355-3.278c-0.313-2.649,0.568-3.752,1.264-4.573
				c0.66-0.822-0.256-1.326-0.477-2.146c-0.219-0.817-0.564-1.23-0.564-2.558c0-1.32-2.241-2.142-2.679-3.06
				c-0.446-0.909-0.132-0.909,0.219-2.238c0.346-1.322,1.008-1.733,0-2.433c-0.343-0.231-0.646-0.301-0.924-0.301
				c-0.212,0-0.417,0.042-0.625,0.082c-0.204,0.042-0.424,0.086-0.649,0.086c-0.153,0-0.314-0.023-0.485-0.086
				c-0.976-0.273-0.802-1.644-2.219-1.644c-0.047,0-0.097,0-0.145,0.004c-1.58,0.127-1.358,0.727-2.464,1.229
				c-0.281,0.138-0.561,0.185-0.855,0.185c-0.391,0-0.794-0.091-1.19-0.185c-0.438-0.109-0.876-0.195-1.336-0.195
				c-0.071,0-0.142,0.004-0.211,0.008c-1.355,0.097-0.917,0.411-2.021,0.411c-1.135,0-1.482-0.726-2.019-1.735
				c-0.569-1.04-2.143-1.641-2.589-2.365c-0.471-0.696-1.826-2.746-1.923-3.566s0.097-1.42,0.568-3.06
				c0.445-1.64-0.219-0.82-0.568-1.325c-0.345-0.504,0.097-1.324,0.663-2.238c0.57-0.913,1.012-1.735,2.052-2.963
				c1.008-1.204,0.756-0.822,2.021-1.33c1.227-0.502,0.536-1.828,0.883-2.649c0.344-0.818,0.344-0.504,1.227-1.009
				c0.919-0.504,0.919-0.915,1.801-1.64c0.303-0.226,0.511-0.305,0.698-0.305c0.386,0,0.678,0.336,1.444,0.401
				c0.213,0.024,0.376,0.033,0.518,0.033c0.593,0,0.688-0.208,1.502-0.54c1.01-0.407,1.578-0.502,2.808-0.915
				c0.505-0.166,0.924-0.208,1.375-0.208c0.222,0,0.455,0.011,0.706,0.02c0.222,0.018,0.457,0.024,0.725,0.024
				c0.267,0,0.554-0.006,0.883-0.024c0.132-0.009,0.241-0.013,0.34-0.013c1.372,0,0.569,0.787,0.452,1.84
				c-0.096,1.106-0.223,0.918,0.343,1.422c0.569,0.502,2.147,0.502,3.031,0.628c0.912,0.097,0.661,0.285,1.577,0.792
				c0.884,0.501,1.01,0.627,1.925,0.913c0.125,0.043,0.219,0.066,0.297,0.066c0.282,0,0.444-0.507,0.487-0.962
				c-1.03-3.282-2.36-6.428-3.95-9.416l-0.997-0.476c-0.537-0.486-0.923-0.955-1.272-0.955c-0.104,0-0.206,0.041-0.309,0.137
				c-0.438,0.406,0,0.692,0.445,1.417c0.441,0.725,0.665,0.633,1.703,1.009c0.535,0.254,0.755,0.38,0.978,0.508l0.389,0.212
				c0.094,0.188,0.181,0.383,0.271,0.571c-0.076,0.035-0.164,0.063-0.251,0.098l-0.157,0.062c-0.346,0.095-0.127,0.411-0.127,1.01
				c0,0.598-0.567,0.724-1.231,1.135c-0.192,0.113-0.322,0.155-0.424,0.155c-0.249,0-0.336-0.273-0.805-0.566
				c-0.66-0.409,0.096-0.409,1.137-0.409c0.976,0,0.66-0.411,0.756-1.042c0.126-0.597-0.316-0.693-1.012-1.008
				c-0.658-0.315-0.785-0.315-1.892-0.819c-1.135-0.506-0.691-0.694-1.45-1.231c-0.455-0.292-0.612-0.445-0.835-0.445
				c-0.171,0-0.368,0.086-0.739,0.256c-0.919,0.411-0.698,0.316-1.802,0.411c-1.136,0.093-0.566,0-1.136,0.409
				c-0.568,0.409-0.348,0.506-0.787,1.105c-0.441,0.63-0.662,0.315-1.451,1.04c-0.786,0.696,0,0-0.126,1.107
				c-0.093,1.131-0.316,0.407-1.447,1.131c-0.453,0.294-0.705,0.369-0.884,0.369c-0.11,0-0.183-0.027-0.253-0.051
				c-0.091-0.024-0.178-0.061-0.28-0.061c-0.055,0-0.103,0.009-0.164,0.027c-0.363,0.139-0.531,0.283-0.782,0.283
				c-0.142,0-0.303-0.044-0.54-0.157c-0.697-0.316-0.475-0.411-0.917-0.504c-0.441-0.126-0.788-0.411-1.011-1.135
				c-0.033-0.114-0.051-0.205-0.062-0.294v-0.184c0.039-0.309,0.277-0.469,0.503-1.036c0.351-0.821-0.094-0.821-0.094-1.323
				c0-0.537,0.222-0.727,0.539-0.727c0.344,0,1.574,0.093,2.27,0.093h1.675c0,0,0.66-0.314,0.66-1.041
				c0-0.756,0.38-1.102-0.347-1.513c-0.76-0.411-0.76-0.253-1.201-0.598c-0.471-0.35-0.756-0.538-0.092-0.822
				c0.69-0.284,1.07-0.188,1.64-0.538c0.6-0.345,1.42-0.63,0.976-0.756c-0.438-0.127-0.438-0.127-0.976-0.127
				c-0.504,0-0.441,0-1.106,0.192c-0.471,0.15-0.752,0.578-0.887,0.578c-0.063,0-0.091-0.096-0.091-0.359
				c0-0.818-0.063-0.346,0.065-1.103c0.156-0.725-0.504-0.192,0.156-0.725c0.694-0.569,1.041-0.35,0.818-0.822
				c-0.22-0.473,0.475,0-0.22-0.473c-0.488-0.376-0.339-0.578-0.438-0.578c-0.03,0-0.096,0.024-0.226,0.071l-0.157,0.066
				l-0.157-0.254c-0.348-0.599-0.661-0.345-0.505-0.945c0.157-0.633-0.693-0.476,0.442-0.886c0.781-0.277,1.123-0.5,1.362-0.5
				c0.106,0,0.191,0.044,0.281,0.154c0.313,0.345,0.752,0.472,0.438,0.883c-0.281,0.411-0.503,0.756-0.219,1.167
				c0.314,0.41,0.533,0.537,0.912,0.882c0.38,0.315-0.091,0.538,0.505,0.726c0.602,0.223,1.135,0.349,0.978,0.756
				c-0.129,0.35-0.521,0.948-0.267,0.948c0.048,0,0.114-0.017,0.205-0.065c0.6-0.25,0.665-0.6,1.417-1.132
				c0.76-0.569,1.041-0.507,1.861-0.822c0.822-0.346,1.138,0,0.979-0.63c-0.109-0.441-0.508-0.917-0.57-1.306
				c-4.027-4.847-8.861-8.994-14.295-12.246c-0.398,0.246-0.973,0.443-1.504,1.217c-0.915,1.355-0.319,0.411-1.357,1.451
				c-1.041,1.041-0.57,0.63-2.871,0.821c-2.271,0.219-1.922,0.629-3.185,1.259c-1.265,0.633-1.737,0.633-4.009,1.263
				c-2.3,0.599-1.732,1.547-2.65,2.587c-0.401,0.463-0.58,0.674-0.803,0.726h-0.243c-0.262-0.048-0.638-0.206-1.349-0.41
				c-1.706-0.538-2.049-1.862-2.049-3.944c0-2.081,0.913-1.167,2.049-1.577c1.135-0.411-0.096-0.726-0.442-1.229
				c-0.345-0.537-0.693-0.537-0.345-1.262c0.345-0.726,0-0.503-0.696-1.451c-0.372-0.47-0.748-0.555-1.475-0.555
				c-0.249,0-0.544,0.006-0.889,0.017c-0.35,0.021-0.747,0.041-1.211,0.041c-0.336,0-0.716-0.013-1.125-0.041
				c-3.187-0.092-1.011-0.284-0.789-1.133c0.085-0.362,0.545-0.452,1.15-0.452c0.296,0,0.624,0.024,0.964,0.041
				c0.292,0.018,0.592,0.038,0.895,0.038c0.22,0,0.438-0.013,0.65-0.038c1.484-0.096,0.694-0.507-0.219-0.947
				c-0.271-0.12-0.516-0.172-0.76-0.172c-0.566,0-1.138,0.277-2.114,0.52c-1.388,0.284-1.955,0.599-2.872,0.818
				c-0.912,0.191-1.353,0.41-2.837,1.04c-1.513,0.603-0.914,0.507-1.957,0.917c-0.542,0.213-0.706,0.268-0.899,0.268
				c-0.182,0-0.383-0.048-0.928-0.048c-1.136,0-1.136-0.093-2.271-0.093c-1.169,0-0.694-0.127-1.041-0.853
				c-0.114-0.236-0.092-0.318,0.016-0.318c0.232,0,0.853,0.35,1.465,0.411c0.181,0.028,0.319,0.039,0.437,0.039
				c0.478,0,0.58-0.196,1.519-0.446c1.138-0.284,1.358-0.599,2.618-1.451c0.712-0.462,0.397-0.564-0.15-0.564
				c-0.427,0-0.988,0.059-1.33,0.059c-0.821,0-0.696,0.221-1.608,0.505c-0.396,0.137-0.64,0.195-0.853,0.195
				c-0.29,0-0.524-0.113-0.978-0.291c-0.788-0.315,0.442-0.725,0.913-1.136c0.143-0.133,0.347-0.178,0.582-0.178
				c0.495,0,1.125,0.209,1.597,0.274c0,0,1.356-0.223,2.397-0.315c1.039-0.096,1.26-0.315,3.438-0.507
				c1.198-0.093,1.987-0.093,2.771-0.093c0.265,0.014,0.526,0.021,0.808,0.021c0.394,0,0.825-0.014,1.341-0.055
				c0.548-0.023,0.915-0.037,1.186-0.037c0.693,0,0.811,0.075,1.782,0.164c1.387,0.096,0.91,0.411-0.096,0.507
				c-1.041,0.092-0.603,0.315-0.128,0.629c0.094,0.065,0.203,0.088,0.32,0.088c0.473,0,1.1-0.403,1.731-0.403
				c0.822,0,1.168-0.223,3.09-0.726c0.668-0.182,1.785-0.351,2.625-0.459c-5.313-1.685-10.967-2.6-16.836-2.6
				c-12.125,0-23.332,3.89-32.474,10.473c0.444-0.091,0.711-0.175,1.074-0.175c0.211,0,0.468,0.031,0.819,0.109
				c1.354,0.315,2.49,0.411,3.373,0.726c0.884,0.284,0.442,0.822,2.366,0.917c1.16,0.055,1.823,0.165,2.293,0.165
				c0.299,0,0.516-0.045,0.736-0.165c0.568-0.318,2.019-0.41,0.347-0.633c-1.703-0.188-1.926,0.127-2.368-0.411
				c-0.439-0.503-0.788-0.092-0.565-0.787c0.219-0.726,0.441-0.538,0.219-1.041c-0.171-0.393,0.615-0.537,0.332-0.537
				c-0.084,0-0.247,0.01-0.551,0.031c-1.356,0.096-1.136,0.223-1.796,0.318c-0.446,0.062-1.15,0.455-1.399,0.455
				c-0.121,0-0.135-0.095,0.041-0.362c0.567-0.818,0.127-0.818,1.229-1.229c1.137-0.41,1.262-0.41,2.366-0.506
				c0.343-0.028,0.726-0.045,1.066-0.045c0.785,0,1.34,0.103,0.637,0.456c-1.01,0.506-1.798,0.821-1.137,0.913
				c0.459,0.068-0.132,0.192,0.146,0.192c0.122,0,0.423-0.023,1.084-0.096c2.146-0.188,2.242-0.188,3.154-0.188
				c0.884,0,0.317,0,1.231-0.096c0.616-0.062,1.424-0.329,1.676-0.329c0.124,0,0.116,0.062-0.1,0.233
				c-0.66,0.507-1.703,0.096-1.576,0.79c0.127,0.726-0.442,0.818,0.567,1.041c1.009,0.188,1.232,0.599,0.442,0.599
				c-0.525,0-0.546-0.083-0.802-0.083c-0.128,0-0.313,0.02-0.65,0.083c-0.146,0.037-0.287,0.047-0.416,0.047
				c-0.199,0-0.376-0.029-0.53-0.047c-0.156-0.021-0.292-0.045-0.394-0.045c-0.201,0-0.321,0.076-0.361,0.359
				c-0.096,0.695-0.663,0.917,0.567,1.01c0.637,0.048,0.86,0.11,1.081,0.11c0.2,0,0.406-0.051,0.937-0.203
				c0.157-0.047,0.281-0.065,0.376-0.065c0.168,0,0.244,0.051,0.284,0.096c0.041,0.038,0.052,0.079,0.076,0.079
				c0.033,0,0.117-0.089,0.398-0.427c0.59-0.681,1.06-1.191,1.201-1.191c0.048,0,0.061,0.058,0.03,0.182
				c-0.127,0.506-0.219,0.603-0.441,0.917c-0.168,0.236-0.279,0.644-0.037,0.644c0.082,0,0.195-0.041,0.352-0.141
				c0.693-0.411,1.483-0.093,1.483-1.01c0-0.914-0.473-1.041,0.097-1.229c0.565-0.223,1.008-0.63,0.471-0.63
				c-0.466,0-0.869,0.147-1.3,0.147c-0.091,0-0.183-0.007-0.278-0.024c-0.564-0.124-1.006-0.124-0.693-0.503
				c0.348-0.411,0.348-0.63,1.355-0.726c1.011-0.096,0.349,0,1.011-0.096c0.468-0.062,0.505-0.37,0.557-0.37
				c0.027,0,0.058,0.072,0.137,0.278c0.222,0.599-0.475,0.599,0.222,0.599c0.662,0,0.882,0,1.451-0.315
				c0.566-0.284,0.66-0.284,1.103-0.506c0.038-0.018,0.075-0.021,0.106-0.021c0.168,0,0.296,0.178,0.431,0.336
				c0.13,0.181,0.298,0.342,0.552,0.342c0.051,0,0.109-0.007,0.175-0.027c0.661-0.219,2.112-0.407,3.026-0.407
				c0.884,0,0.442,0,1.798,0.407c1.325,0.38,2.241,0.284,2.809,0.886c0.566,0.63,1.229,0.63,1.229,1.229
				c0,0.629-0.912,0.914,0.129,1.136c0.207,0.055,0.396,0.068,0.552,0.068c0.111,0,0.209-0.007,0.299-0.007c0.054,0,0.102,0,0.152,0
				c0.289,0,0.478,0.021,0.669,0.349c0.313,0.599,0.883,0.914,0.313,1.103c-0.537,0.223-0.664,0.223-1.23,0.223
				c-0.391,0-1.275-0.482-1.552-0.482c-0.106,0-0.122,0.071,0.006,0.26c0.441,0.726,1.327,0.726,1.23,1.137
				c-0.122,0.41,0,0.817-0.692,0.817c-0.664,0-1.011-0.092-1.325-0.219c-0.237-0.061-0.212-0.455-0.237-0.455
				c-0.013,0-0.037,0.089-0.109,0.36c-0.223,0.821,0.884,0.633-0.223,0.821c-0.566,0.113-0.851,0.188-1.052,0.188
				c-0.192,0-0.304-0.075-0.525-0.284c-0.441-0.411-0.441-0.503-0.913-0.726c-0.442-0.188,0.124-0.315-1.01-0.315
				c-0.735,0-1.178,0.24-1.43,0.24c-0.123,0-0.201-0.062-0.242-0.24c-0.094-0.503,0.125-0.787,1.009-0.914
				c0.053-0.007,0.106-0.01,0.149-0.01c0.205,0,0.35,0.048,0.449,0.071c0.089,0.025,0.157,0.059,0.253,0.059
				c0.141,0,0.33-0.068,0.727-0.308c1.008-0.633,2.019-0.318,1.577-1.136c-0.473-0.822-0.693-1.106-1.482-1.325
				c-0.789-0.192-1.01-0.192-1.894-0.192c-0.414,0-0.735-0.044-0.958-0.044c-0.262,0-0.398,0.064-0.398,0.329
				c0,0.538,0.129,0.948-0.221,1.136c-0.349,0.223-0.221,0.506-0.788,0.599c-0.568,0.127-0.442,0.127-1.135,0.127
				c-0.441,0-0.941,0.307-1.117,0.307c-0.095,0-0.104-0.075,0.013-0.307c0.346-0.726,0-0.63,0.663-1.041
				c0.692-0.411,1.008-0.096,1.134-0.821c0.033-0.315,0.033-0.315,0-0.315c-0.006,0.007-0.013,0.014-0.023,0.014
				c-0.047,0-0.12-0.082-0.197-0.486c-0.221-0.945,0-0.223-0.221-0.945c-0.182-0.506,0.361-0.859,0.246-0.859
				c-0.045,0-0.187,0.051-0.497,0.165c-1.104,0.41-1.104,0.188-1.672,0.598c-0.569,0.411-0.788,0.315-0.569,1.041
				c0.223,0.695,0.127,0.787,0.695,0.787c0.535,0,1.323,0.126,0.663,0.633c-0.663,0.503-0.884,0.503-0.789,1.009
				c0.126,0.503,0.789,0.503-0.223,0.914c-1.008,0.411-1.449,1.041-2.932,1.543c-1.452,0.507-1.892,0.319-3.029,1.01
				c-1.104,0.726-1.323,0.411-1.673,1.232c-0.345,0.818-0.662,0.726-0.221,1.324c0.441,0.599,0.789,0.818,1.452,1.01
				c0.695,0.219,1.138,0.818,2.146,0.914c0.186,0.038,0.368,0.051,0.543,0.051c0.121,0,0.234-0.006,0.34-0.02
				c0.566,0,0.884,0,0.693,0.38c-0.347,0.629-1.135,1.735-0.693,2.27c0.26,0.297,0.676,0.622,1.098,0.622
				c0.297,0,0.594-0.161,0.827-0.622c0.567-1.133,0.219-1.64,1.009-2.143c0.283-0.192,0.568-0.192,0.82-0.192
				c0.065,0.006,0.134,0.01,0.2,0.01c0.358,0,0.676-0.124,0.999-0.955c0.566-1.547-0.223-1.325,0.566-2.146
				c0.79-0.818,0.884-1.229,1.323-1.827c0.241-0.298,0.433-0.401,0.745-0.401c0.309,0,0.726,0.103,1.401,0.209
				c1.355,0.192,2.366,1.105,2.018,1.831c-0.345,0.694-1.008,0.914-0.345,1.009c0.237,0.031,0.424,0.065,0.592,0.065
				c0.321,0,0.596-0.113,1.109-0.571c0.57-0.517,0.891-0.931,1.154-0.931c0.105,0,0.201,0.065,0.3,0.206
				c0.346,0.506,0.691,0.633,0.565,1.42c-0.124,0.822-0.661,0.63-0.22,1.355c0.442,0.695,1.795,0.695,2.144,1.328
				c0.314,0.599,1.104,1.102,0.314,1.417c-0.785,0.315-0.566,1.325-0.566,1.735s0.472,0.411,0.917,0.914
				c0.438,0.507,0.789,1.232,0.219,1.325c-0.077,0.017-0.133,0.02-0.179,0.02c-0.322,0-0.19-0.239-1.176-0.239
				c-0.573,0-1.214,0.059-1.687,0.059c-0.436,0-0.726-0.048-0.682-0.246c0.126-0.411,0.254-0.507,0.915-1.01
				c0.664-0.538,1.138-0.634,1.138-1.232c0-0.456,0-0.78-0.267-0.78c-0.101,0-0.235,0.044-0.429,0.15
				c-0.662,0.411-0.442,0.822-1.357,0.822c-0.882,0-1.009-0.096-2.017-0.096c-0.675,0-1.039-0.182-1.439-0.182
				c-0.203,0-0.412,0.044-0.676,0.182c-0.789,0.411-1.795,0.821-1.924,1.137c-0.053,0.157,0.129,0.225,0.395,0.225
				c0.212,0,0.486-0.047,0.74-0.133c0.238-0.092,0.68-0.147,1.061-0.147c0.521,0,0.941,0.103,0.612,0.339
				c-0.567,0.407-1.103,0.534-0.884,1.041c0.158,0.359,0.895,0.671,1.466,0.671c0.226,0,0.426-0.052,0.554-0.168
				c0.175-0.161,0.497-0.226,0.804-0.226c0.47,0,0.882,0.168,0.554,0.418c-0.568,0.407-0.916,0.914-1.799,1.228
				c-0.225,0.086-0.418,0.109-0.586,0.109c-0.218,0-0.405-0.043-0.583-0.078c-0.17-0.02-0.36-0.058-0.565-0.058
				c-0.092,0-0.187,0.011-0.285,0.027c-0.46,0.109-0.895,0.159-1.256,0.159c-0.258,0-0.485-0.023-0.668-0.062
				c-0.358-0.078-0.365-0.215-0.703-0.215c-0.082,0-0.181,0.007-0.307,0.023c-0.692,0.095-0.915,0.696-1.893,1.326
				c-1.041,0.601-1.26,0.694-2.049,1.324c-0.789,0.603-0.884,1.009-1.577,1.517c-0.519,0.42-0.285,0.568-0.427,0.568
				c-0.045,0-0.114-0.011-0.234-0.031c-0.388-0.086-0.615-0.349-0.745-0.349c-0.065,0-0.109,0.061-0.138,0.223
				c-0.129,0.501-0.129,0.627,0,1.039c0.092,0.378,0.313,0.601,0.092,1.103c-0.221,0.507-0.663,0.633-1.451,1.04
				c-0.788,0.38-0.788,0.506-1.799,1.106c-1.008,0.628-1.355,0.502-1.574,1.421c-0.222,0.913-0.096,1.354-0.096,2.364
				s0.537,1.734-0.126,2.02c-0.129,0.059-0.265,0.089-0.396,0.089c-0.545,0-1.056-0.517-1.056-1.51c0-1.229-0.128-1.828-0.128-1.828
				s-0.789-0.222-1.449-0.317c-0.663-0.093-1.136-0.19-1.925-0.19c-0.351,0-0.609-0.023-0.784-0.023
				c-0.222,0-0.318,0.038-0.318,0.213v0.822c0,0,0,0.329-0.413,0.329c-0.048,0-0.097-0.004-0.157-0.015
				c-0.566-0.093-0.787-0.219-1.355-0.41c-0.363-0.13-0.014-0.462-0.333-0.462c-0.147,0-0.438,0.071-1.023,0.274
				c-1.767,0.598-2.333,0.598-2.681,1.608c-0.346,1.009-0.095,1.229-0.569,1.924c-0.441,0.724-1.008,1.232-0.784,2.364
				c0.249,1.106,0.47,2.46,1.133,2.652c0.389,0.106,0.785,0.157,1.251,0.157c0.333,0,0.693-0.027,1.115-0.064
				c1.01-0.093,1.229-0.504,1.671-1.103c0.441-0.633,1.01-1.041,1.924-1.041c0.884,0,1.104,0.093,0.441,1.041
				c-0.66,0.913-1.797,1.734-1.449,2.523c0.168,0.438,0.348,0.56,0.632,0.56c0.244,0,0.569-0.093,1.041-0.149
				c0.157-0.018,0.303-0.022,0.45-0.022c0.785,0,1.363,0.21,1.472,0.555c0.093,0.379,0.536,1.009,0.221,1.42
				c-0.347,0.411,0.095,1.831,0.095,1.831s0,0.22,0.348,0.915c0.294,0.612,0.406,0.842,0.701,0.842c0.053,0,0.111-0.007,0.183-0.022
				c0.472-0.095,0.693-1.01,1.261-1.01c0.535,0,0.316,0,0.884,0.409c0.567,0.38,1.009,0.38,1.009,0.38l-0.032,0.094
				c0.694-1.263,2.366-1.482,2.366-1.482s0.565-0.506,1.357-0.948c0.183-0.093,0.282-0.129,0.333-0.129
				c0.181,0-0.257,0.493,0.013,0.982c0.104,0.191,0.147,0.267,0.181,0.267c0.088,0,0.136-0.393,0.86-0.678
				c0.327-0.14,0.441-0.192,0.487-0.192c0.095,0-0.124,0.223,0.65,0.287c1.134,0.093,0,0,0.692,0.726
				c0.293,0.336,0.392,0.42,0.525,0.42c0.071,0,0.147-0.024,0.262-0.043c0.19-0.031,0.442-0.062,0.915-0.062
				c1.39,0.097,1.705,0.219,3.313,0.818c1.61,0.633,0.569,0.222,2.081,1.674c1.08,1.109,1.05,1.137,1.391,1.137h0.063h0.473
				c1.039,0.126,2.648,0.726,3.343,1.481c0.663,0.697,0.442,0.92,0.663,1.645c0.252,0.727,0.82,0.727,1.732,1.544
				c0.918,0.852,1.14,0.314,2.274,0.948c1.138,0.63,0.822,0.313,2.433,0.725c1.573,0.409,0.881,0.316,2.267,1.04
				c1.388,0.728,1.041,0.631,2.523,1.138c1.486,0.533,0.351,0.944,0.219,2.082c-0.124,1.162-2.173,2.928-2.742,4.065
				c-0.565,1.136-0.126,1.643-0.126,2.587c0,0.943,0,1.04-0.439,2.081c-0.475,1.04-0.569,1.04-0.917,1.547
				c-0.347,0.534-1.038,1.355-1.734,1.355c-0.66,0-0.913,0-2.178,0.944c-1.263,0.947-1.138,1.358-1.01,2.272
				c0.095,0.944,0,0.411-0.128,0.854c-0.125,0.41,0,0-0.563,0.501c-0.568,0.539,0,0.446-0.13,0.822
				c-0.092,0.441-0.314,0.63-0.438,0.943c-0.13,0.32-0.567,0.727-0.79,1.045c-0.252,0.315-0.82,1.264-1.736,1.449
				c-0.912,0.221-1.607-0.093-1.829,0.444c-0.22,0.504,0,0,0.347,0.504c0.349,0.536,0.128,0.317,0.223,1.135
				c0.126,0.853,0,0.411-0.917,1.264c-0.303,0.273-0.505,0.363-0.668,0.363c-0.321,0-0.477-0.363-0.939-0.363
				c-0.663,0-0.566,0.411-0.566,0.725c0,0.315,0,0.411-0.349,0.504c-0.347,0.126-0.442,0.126-0.789,0.634
				c-0.139,0.212-0.174,0.263-0.142,0.263c0.006,0,0.023-0.004,0.049-0.013c0.023,0,0.048-0.004,0.081-0.004
				c0.092,0,0.221,0.021,0.358,0.161c0.35,0.411,0.35,0.223,0.35,0.853c0,0.599-0.126,0.41-0.254,1.01c-0.096,0.629,0,0-0.661,0.755
				c-0.277,0.278-0.338,0.356-0.319,0.356c0.011,0,0.034-0.02,0.067-0.042c0.037-0.013,0.088-0.023,0.131-0.023
				c0.063,0,0.121,0.023,0.121,0.12c0,0.411,0.093,0.314,0.441,0.821c0.348,0.533,0.566,0.411,0.694,0.818
				c0.124,0.441,0,0-0.128,1.041c-0.039,0.387-0.052,0.488-0.066,0.488c-0.011,0-0.014-0.042-0.026-0.078
				c0-0.034-0.021-0.065-0.046-0.065c-0.022,0-0.055,0.023-0.08,0.097c-0.224,0.411-0.348,0.313-0.348,0.725s0,0,0.22,0.727
				c0.079,0.271,0.095,0.356,0.06,0.356c-0.016,0-0.063-0.035-0.122-0.073c-0.047-0.013-0.135-0.044-0.231-0.044
				c-0.081,0-0.17,0.02-0.274,0.075c-0.566,0.288,0,0.41,0,0.41l0.473,0.192c0.135,0.065,0.187,0.089,0.208,0.089
				c0.048,0-0.073-0.147,0.234-0.281c0.07-0.03,0.128-0.043,0.175-0.043c0.274,0,0.245,0.481,0.646,0.646
				c0.442,0.219,0.347,0.316,0.693,0.533c0.314,0.219,0.314,0.219,0.663,0.411c0.345,0.219,0.221,0.315-0.097,0.411
				c-0.113,0.03-0.19,0.042-0.287,0.042c-0.184,0-0.438-0.042-1.195-0.042h-0.504h-0.063h-0.251c-0.789,0-0.224-0.096-0.224-0.096
				s-0.473-0.191-1.387-0.63c-0.478-0.179-0.473-0.191-0.444-0.191c-0.033-0.017-0.097-0.055-0.217-0.122
				c-0.695-0.316-0.347-0.191-0.599-0.727c-0.097-0.188-0.116-0.235-0.113-0.235c0,0,0.007,0.003,0.017,0.013c0,0,0,0,0.003,0
				c0.008,0,0.022-0.017-0.003-0.188c-0.085-0.281-0.174-0.328-0.218-0.328c-0.021,0-0.033,0.014-0.033,0.014l-0.665-0.41
				c0,0-0.218-0.097-0.817-0.727c-0.241-0.239-0.277-0.302-0.27-0.302c0.003,0,0.009,0.008,0.016,0.019c0.013,0,0.024,0,0.038,0
				c0.043,0,0.071-0.019-0.007-0.223c-0.221-0.535-0.123-0.316-0.565-1.26c-0.088-0.171-0.143-0.281-0.174-0.344
				c0.002,0.008,0.013,0.016,0.015,0.028c0.017,0.034,0.038,0.072,0.043,0.072c0.006,0,0.003-0.021-0.012-0.072
				c-0.095-0.314,0.347-0.411,0.347-0.822c0-0.138-0.013-0.177-0.05-0.177c-0.016,0-0.041,0.007-0.076,0.021
				c-0.021,0.015-0.061,0.019-0.107,0.019c-0.078,0-0.193-0.022-0.335-0.081c-0.566-0.191,0,0-0.092-0.317l-0.475-1.543
				c0,0-0.129-0.315-0.348-1.041c-0.073-0.242-0.099-0.323-0.084-0.323c0.025,0,0.201,0.323,0.432,0.323
				c0.27,0,0.406,0.575,0.496,0.575c0.025,0,0.051-0.047,0.07-0.164c0.127-0.508-0.092-0.508-0.472-1.137
				c-0.315-0.633-0.315-0.314-0.442-1.137c-0.124-0.852-0.221-0.852-0.441-2.176c-0.252-1.356,0.221-1.671,0.317-2.808
				c0.124-1.171-0.569-1.672-0.569-3.217c0-1.577,0-1.897,0.128-3.252c0.124-1.354-0.224-3.628-0.349-4.668
				c-0.127-1.041-0.916-1.26-2.618-2.178c-1.736-0.944-1.83-1.039-2.429-1.766c-0.567-0.725-2.05-3.941-2.839-5.298
				c-0.819-1.354-1.734-2.081-1.387-2.903c0.346-0.849,0.471-1.26,0.346-1.984c-0.094-0.725-0.094-0.821,0.82-1.264
				c0.882-0.41,0.789-0.725,1.48-2.176c0.665-1.453,0.096-1.642,0.413-3.691c-0.223,0.695-0.317,1.01-0.317,1.01
				s-0.346-0.506-0.787-0.917c-0.31-0.288-0.635-0.621-0.876-0.621c-0.106,0-0.194,0.059-0.262,0.21
				c-0.187,0.427,0.036,0.861-0.168,0.861c-0.035,0-0.08-0.013-0.146-0.04c-0.475-0.223-0.127-0.223-0.789-0.63
				c-0.693-0.411-0.473-0.285-0.916-0.821c-0.441-0.504,0.789-0.504-0.441-0.504c-0.57,0-0.902,0.069-1.106,0.069
				c-0.23,0-0.294-0.093-0.343-0.48c-0.124-0.693,0.222-1.197-0.348-1.42c-0.109-0.023-0.193-0.038-0.263-0.038
				c-0.098,0-0.168,0.021-0.241,0.038c-0.076,0.024-0.146,0.048-0.233,0.048c-0.124,0-0.267-0.052-0.493-0.236
				c-0.693-0.537-0.219-0.316-1.356-0.821c-1.133-0.504-1.229-0.314-2.364-1.229c-0.847-0.701-1.375-0.993-1.736-0.993
				c-0.111,0-0.202,0.027-0.282,0.076c-0.148,0.088-0.68,0.256-1.388,0.256c-0.8,0-1.824-0.208-2.777-0.982
				c-1.766-1.417-2.112-1.103-2.112-1.924c0-0.818,1.008-0.407,0.22-1.734c-0.787-1.324-1.701-2.553-2.364-3.659
				c-0.662-1.134-1.23-1.229-1.23-2.144c0-0.948,0.221-1.23-0.349-1.449c-0.363-0.132-0.695-0.548-0.902-0.548
				c-0.098,0-0.168,0.091-0.201,0.356c-0.124,0.819-0.221,1.009,0.096,1.641c0.346,0.601,0.346,0.915,0.693,1.514
				c0.314,0.63,0.095,0.821,0.442,1.325c0.347,0.505,1.01,0.913,0.789,1.546c-0.11,0.301-0.198,0.424-0.299,0.424
				c-0.104,0-0.221-0.123-0.396-0.331c-0.315-0.407-0.536-0.316-0.755-0.818c-0.253-0.508,0.439,0,0.219-0.508
				c-0.219-0.504,0.221-0.411-0.472-0.818c-0.15-0.086-0.26-0.113-0.335-0.113c-0.059,0-0.09,0.02-0.106,0.047
				c-0.021,0.022-0.033,0.049-0.047,0.049c-0.021,0-0.053-0.082-0.175-0.395c-0.348-0.821,0.125-0.41,0.125-1.009
				c0-0.63-0.221-0.504-0.567-1.009c-0.347-0.537-0.124-0.853-0.221-1.766c-0.126-0.915-0.126-0.789-0.915-1.61
				c-0.577-0.603-0.897-1.368-0.945-2.987v-0.838c0.011-0.387,0.03-0.816,0.062-1.283c0.223-3.157,1.896-3.975,2.462-4.608
				c0.566-0.599,0.916-1.197,0.222-1.827c-0.664-0.599-1.105-0.599-1.011-1.01c0.063-0.196,0.319-0.297,0.606-0.297
				c0.32,0,0.675,0.127,0.846,0.394c0.345,0.503,0.253,1.324,0.786,1.324c0.569,0,1.138-0.507,0.569-1.009
				c-0.569-0.507-1.231-0.599-1.452-1.421c-0.14-0.482-0.289-0.678-0.364-0.944c0.798-1.071,1.64-2.104,2.508-3.113
				c-8.414,9.749-13.516,22.438-13.516,36.327c0,30.731,24.914,55.644,55.644,55.644c20.99,0,39.259-11.627,48.736-28.786
				C261.288,111.346,261.189,110.423,261.189,109.768z M244.536,53.043c0.046-0.322,0.286-0.401,0.286-0.873
				c0-0.538-0.223-0.538-0.064-0.884c0.157-0.315-0.222-0.253,0.38-0.537c0.595-0.284,0.661-0.345,1.136-0.345
				c0.314,0,0.321,0.147,0.504,0.147c0.071,0,0.164-0.02,0.313-0.086l0.634,0.096c-0.383,0.095-0.505,0.062-0.567,0.537
				c-0.066,0.534,0.281,0.757-0.066,1.291c-0.379,0.537-0.249,0.602-1.04,0.664c-0.552,0.041-0.997,0.342-1.256,0.411h-0.157
				c-0.051-0.02-0.089-0.082-0.102-0.188V53.043z M197.21,37.09c-0.452,0-1.168-0.282-1.628-0.282c-0.695,0-1.044,0.315-1.957,0.534
				c-0.069,0.021-0.137,0.027-0.201,0.035h-0.444c-0.497-0.076-0.782-0.391-0.963-0.76V36.48c0.181-0.397,1.955-0.397,1.955-0.397
				s0.566,0.219,1.388,0.219c0.789,0,0.662-0.219,1.264-0.219c0.566,0,1.133,0.127,1.008,0.726
				C197.598,37.018,197.438,37.09,197.21,37.09z M204.159,44.411c-0.106,0.018-0.184,0.024-0.249,0.024
				c-0.27,0-0.226-0.144-0.792-0.246c-0.171-0.024-0.306-0.038-0.427-0.038c-0.321,0-0.483,0.096-0.833,0.26
				c-0.443,0.188-0.443,0.315-0.788,0.315c0,0-0.072-0.127-0.098-0.297v-0.254c0.025-0.164,0.11-0.342,0.316-0.489
				c0.373-0.288,0.554-0.562,0.854-0.63h0.311c0.095,0.013,0.196,0.047,0.317,0.092C203.592,43.462,204.729,44.315,204.159,44.411z
				 M193.877,78.626c-0.021,0.051-0.06,0.105-0.123,0.164c-0.111,0.104-0.202,0.148-0.293,0.159h-0.078
				c-0.176-0.022-0.378-0.163-0.767-0.347c-0.696-0.314,0.788-0.442,0.788-0.442c0.205,0.077,0.413,0.171,0.473,0.308V78.626z
				 M194.631,77.205c-0.263,0-0.451-0.167-1.101-0.368c-0.914-0.316-0.914-0.63-1.514-0.948c-0.37-0.207-0.692-0.36-1.258-0.36
				c-0.3,0-0.664,0.041-1.139,0.141c-0.548,0.126-0.86,0.188-1.021,0.188c-0.236,0-0.142-0.133,0.008-0.376
				c0.224-0.411,1.483-0.634,1.483-0.634s1.012,0,1.829,0.223c0.788,0.188,0.788,0.411,1.61,0.913
				c0.788,0.537,0.914,0.223,1.482,0.442c0.233,0.082,0.369,0.175,0.409,0.278v0.14c-0.04,0.102-0.176,0.197-0.409,0.276
				C194.852,77.181,194.734,77.205,194.631,77.205z M200.438,77.945c-0.022,0.065-0.109,0.137-0.284,0.215
				c-0.913,0.442-1.482,0.219-2.051,0.442c-0.568,0.188-0.691,0.316-1.736,0.316c-0.811,0-1.194-0.141-1.197-0.363v-0.011
				c0.003-0.051,0.021-0.106,0.063-0.164c0,0,0.32,0.257,0.615,0.257c0.172,0,0.336-0.082,0.426-0.349
				c0.221-0.725-0.568-0.442,0.221-0.725c0.526-0.213,1.11-0.421,1.646-0.443h0.197c0.193,0.011,0.384,0.049,0.554,0.127
				c0.519,0.232,1.466,0.398,1.546,0.637V77.945z M201.513,78.79h-0.792c-0.346-0.092-0.092-0.411-0.092-0.411
				s0.441-0.219,0.884-0.219C201.982,78.16,201.762,78.476,201.513,78.79z"/>
			
				<radialGradient id="SVGID_2_" cx="-2.395" cy="185.4248" r="95.6572" gradientTransform="matrix(1 0 0 1 187.1313 -131.7876)" gradientUnits="userSpaceOnUse">
				<stop  offset="0.25" style="stop-color:#DCDDDE"/>
				<stop  offset="0.4109" style="stop-color:#D7D8D9"/>
				<stop  offset="0.5999" style="stop-color:#C9CACC"/>
				<stop  offset="0.8021" style="stop-color:#B1B3B5"/>
				<stop  offset="1" style="stop-color:#939598"/>
			</radialGradient>
			<path fill="url(#SVGID_2_)" d="M192.017,36.617V36.48c0.181-0.397,1.955-0.397,1.955-0.397s0.566,0.219,1.388,0.219
				c0.789,0,0.662-0.219,1.264-0.219c0.566,0,1.133,0.127,1.008,0.726c-0.033,0.209-0.193,0.282-0.421,0.282
				c-0.452,0-1.168-0.282-1.628-0.282c-0.695,0-1.044,0.315-1.957,0.534c-0.069,0.021-0.137,0.027-0.201,0.035h-0.444
				C192.482,37.302,192.197,36.987,192.017,36.617z M245.356,63.683c0.442,0.093,0.22,0.188,0.917,0.504
				c0.237,0.113,0.398,0.157,0.54,0.157c0.251,0,0.419-0.145,0.782-0.283c0.062-0.019,0.109-0.027,0.164-0.027
				c0.103,0,0.189,0.037,0.28,0.061c0.07,0.023,0.143,0.051,0.253,0.051c0.179,0,0.431-0.075,0.884-0.369
				c1.131-0.725,1.354,0,1.447-1.131c0.126-1.107-0.66-0.411,0.126-1.107c0.789-0.725,1.01-0.41,1.451-1.04
				c0.439-0.599,0.219-0.696,0.787-1.105c0.569-0.409,0-0.315,1.136-0.409c1.104-0.095,0.883,0,1.802-0.411
				c0.371-0.17,0.568-0.256,0.739-0.256c0.223,0,0.38,0.153,0.835,0.445c0.759,0.537,0.315,0.725,1.45,1.231
				c1.106,0.504,1.233,0.504,1.892,0.819c0.695,0.314,1.138,0.411,1.012,1.008c-0.096,0.632,0.22,1.042-0.756,1.042
				c-1.041,0-1.797,0-1.137,0.409c0.469,0.293,0.556,0.566,0.805,0.566c0.102,0,0.231-0.042,0.424-0.155
				c0.664-0.411,1.231-0.537,1.231-1.135c0-0.599-0.219-0.915,0.127-1.01l0.157-0.062c0.087-0.035,0.175-0.063,0.251-0.098
				c-0.091-0.188-0.178-0.383-0.271-0.571l-0.389-0.212c-0.223-0.128-0.442-0.254-0.978-0.508c-1.038-0.376-1.262-0.285-1.703-1.009
				c-0.445-0.725-0.884-1.01-0.445-1.417c0.103-0.096,0.204-0.137,0.309-0.137c0.35,0,0.735,0.469,1.272,0.955l0.997,0.476
				c-1.791-3.369-3.913-6.534-6.332-9.445c0.063,0.389,0.461,0.865,0.57,1.306c0.158,0.63-0.157,0.284-0.979,0.63
				c-0.82,0.315-1.102,0.253-1.861,0.822c-0.752,0.533-0.817,0.882-1.417,1.132c-0.091,0.048-0.157,0.065-0.205,0.065
				c-0.254,0,0.138-0.599,0.267-0.948c0.157-0.407-0.376-0.533-0.978-0.756c-0.596-0.188-0.125-0.411-0.505-0.726
				c-0.379-0.346-0.598-0.472-0.912-0.882c-0.284-0.411-0.063-0.757,0.219-1.167c0.314-0.411-0.124-0.538-0.438-0.883
				c-0.09-0.11-0.175-0.154-0.281-0.154c-0.239,0-0.581,0.223-1.362,0.5c-1.136,0.411-0.285,0.253-0.442,0.886
				c-0.156,0.6,0.157,0.346,0.505,0.945l0.157,0.254l0.157-0.066c0.13-0.047,0.195-0.071,0.226-0.071
				c0.099,0-0.051,0.202,0.438,0.578c0.694,0.473,0,0,0.22,0.473c0.223,0.472-0.124,0.253-0.818,0.822c-0.66,0.533,0,0-0.156,0.725
				c-0.129,0.757-0.065,0.285-0.065,1.103c0,0.263,0.027,0.359,0.091,0.359c0.135,0,0.416-0.428,0.887-0.578
				c0.665-0.192,0.603-0.192,1.106-0.192c0.537,0,0.537,0,0.976,0.127c0.444,0.126-0.376,0.411-0.976,0.756
				c-0.569,0.35-0.949,0.253-1.64,0.538c-0.664,0.284-0.379,0.472,0.092,0.822c0.441,0.345,0.441,0.188,1.201,0.598
				c0.727,0.411,0.347,0.757,0.347,1.513c0,0.726-0.66,1.041-0.66,1.041h-1.675c-0.695,0-1.926-0.093-2.27-0.093
				c-0.317,0-0.539,0.19-0.539,0.727c0,0.502,0.444,0.502,0.094,1.323c-0.226,0.566-0.464,0.727-0.503,1.036v0.184
				c0.011,0.089,0.028,0.181,0.062,0.294C244.568,63.271,244.915,63.557,245.356,63.683z M202.454,43.056h-0.311
				c-0.301,0.068-0.481,0.342-0.854,0.63c-0.206,0.146-0.291,0.325-0.316,0.489v0.254c0.025,0.17,0.098,0.297,0.098,0.297
				c0.345,0,0.345-0.127,0.788-0.315c0.35-0.164,0.512-0.26,0.833-0.26c0.121,0,0.256,0.014,0.427,0.038
				c0.566,0.103,0.522,0.246,0.792,0.246c0.065,0,0.143-0.006,0.249-0.024c0.57-0.096-0.567-0.948-1.388-1.263
				C202.65,43.103,202.549,43.069,202.454,43.056z M244.795,53.463c0.259-0.068,0.704-0.37,1.256-0.411
				c0.791-0.062,0.661-0.127,1.04-0.664c0.348-0.534,0-0.757,0.066-1.291c0.063-0.475,0.185-0.442,0.567-0.537l-0.634-0.096
				c-0.149,0.066-0.242,0.086-0.313,0.086c-0.183,0-0.189-0.147-0.504-0.147c-0.475,0-0.541,0.061-1.136,0.345
				c-0.602,0.284-0.223,0.222-0.38,0.537c-0.158,0.346,0.064,0.346,0.064,0.884c0,0.472-0.24,0.551-0.286,0.873v0.232
				c0.013,0.106,0.051,0.168,0.102,0.188H244.795z M224.19,96.871c-1.482-0.507-1.136-0.41-2.523-1.138
				c-1.386-0.724-0.693-0.631-2.267-1.04c-1.61-0.411-1.295-0.095-2.433-0.725c-1.135-0.634-1.356-0.097-2.274-0.948
				c-0.912-0.817-1.48-0.817-1.732-1.544c-0.221-0.725,0-0.947-0.663-1.645c-0.694-0.756-2.304-1.355-3.343-1.481h-0.473h-0.063
				c-0.341,0-0.311-0.027-1.391-1.137c-1.512-1.452-0.471-1.041-2.081-1.674c-1.607-0.599-1.923-0.721-3.313-0.818
				c-0.473,0-0.725,0.031-0.915,0.062c-0.114,0.02-0.19,0.043-0.262,0.043c-0.134,0-0.232-0.083-0.525-0.42
				c-0.692-0.726,0.441-0.633-0.692-0.726c-0.774-0.064-0.556-0.287-0.65-0.287c-0.046,0-0.16,0.052-0.487,0.192
				c-0.725,0.285-0.772,0.678-0.86,0.678c-0.033,0-0.076-0.075-0.181-0.267c-0.27-0.49,0.168-0.982-0.013-0.982
				c-0.051,0-0.15,0.037-0.333,0.129c-0.792,0.442-1.357,0.948-1.357,0.948s-1.672,0.219-2.366,1.482l0.032-0.094
				c0,0-0.441,0-1.009-0.38c-0.567-0.409-0.349-0.409-0.884-0.409c-0.567,0-0.789,0.915-1.261,1.01
				c-0.071,0.015-0.13,0.022-0.183,0.022c-0.295,0-0.407-0.23-0.701-0.842c-0.348-0.695-0.348-0.915-0.348-0.915
				s-0.441-1.42-0.095-1.831c0.315-0.411-0.128-1.041-0.221-1.42c-0.108-0.345-0.687-0.555-1.472-0.555
				c-0.147,0-0.293,0.004-0.45,0.022c-0.472,0.057-0.797,0.149-1.041,0.149c-0.284,0-0.464-0.122-0.632-0.56
				c-0.348-0.789,0.789-1.61,1.449-2.523c0.663-0.947,0.442-1.041-0.441-1.041c-0.914,0-1.482,0.407-1.924,1.041
				c-0.442,0.599-0.661,1.01-1.671,1.103c-0.422,0.037-0.782,0.064-1.115,0.064c-0.466,0-0.862-0.051-1.251-0.157
				c-0.663-0.192-0.884-1.546-1.133-2.652c-0.224-1.132,0.343-1.64,0.784-2.364c0.475-0.696,0.224-0.915,0.569-1.924
				c0.348-1.01,0.914-1.01,2.681-1.608c0.586-0.203,0.876-0.274,1.023-0.274c0.319,0-0.03,0.333,0.333,0.462
				c0.568,0.191,0.789,0.317,1.355,0.41c0.061,0.011,0.109,0.015,0.157,0.015c0.413,0,0.413-0.329,0.413-0.329V69.17
				c0-0.175,0.097-0.213,0.318-0.213c0.175,0,0.434,0.023,0.784,0.023c0.789,0,1.262,0.097,1.925,0.19
				c0.66,0.095,1.449,0.317,1.449,0.317s0.128,0.599,0.128,1.828c0,0.993,0.511,1.51,1.056,1.51c0.131,0,0.267-0.031,0.396-0.089
				c0.663-0.285,0.126-1.01,0.126-2.02s-0.126-1.451,0.096-2.364c0.219-0.919,0.566-0.792,1.574-1.421
				c1.011-0.6,1.011-0.727,1.799-1.106c0.788-0.407,1.23-0.533,1.451-1.04c0.221-0.502,0-0.725-0.092-1.103
				c-0.129-0.411-0.129-0.537,0-1.039c0.028-0.163,0.072-0.223,0.138-0.223c0.13,0,0.357,0.263,0.745,0.349
				c0.12,0.02,0.189,0.031,0.234,0.031c0.142,0-0.092-0.148,0.427-0.568c0.693-0.508,0.788-0.915,1.577-1.517
				c0.789-0.63,1.008-0.723,2.049-1.324c0.978-0.63,1.2-1.23,1.893-1.326c0.126-0.016,0.225-0.023,0.307-0.023
				c0.338,0,0.345,0.137,0.703,0.215c0.183,0.039,0.41,0.062,0.668,0.062c0.361,0,0.796-0.049,1.256-0.159
				c0.099-0.016,0.193-0.027,0.285-0.027c0.205,0,0.396,0.038,0.565,0.058c0.178,0.035,0.365,0.078,0.583,0.078
				c0.168,0,0.361-0.023,0.586-0.109c0.883-0.314,1.23-0.82,1.799-1.228c0.328-0.25-0.084-0.418-0.554-0.418
				c-0.307,0-0.629,0.065-0.804,0.226c-0.128,0.116-0.328,0.168-0.554,0.168c-0.571,0-1.308-0.312-1.466-0.671
				c-0.219-0.506,0.316-0.633,0.884-1.041c0.329-0.236-0.091-0.339-0.612-0.339c-0.381,0-0.822,0.055-1.061,0.147
				c-0.254,0.086-0.528,0.133-0.74,0.133c-0.266,0-0.447-0.068-0.395-0.225c0.129-0.315,1.135-0.726,1.924-1.137
				c0.264-0.137,0.473-0.182,0.676-0.182c0.4,0,0.765,0.182,1.439,0.182c1.008,0,1.135,0.096,2.017,0.096
				c0.915,0,0.695-0.411,1.357-0.822c0.193-0.106,0.328-0.15,0.429-0.15c0.267,0,0.267,0.325,0.267,0.78
				c0,0.599-0.474,0.695-1.138,1.232c-0.661,0.503-0.789,0.599-0.915,1.01c-0.044,0.198,0.246,0.246,0.682,0.246
				c0.473,0,1.113-0.059,1.687-0.059c0.985,0,0.854,0.239,1.176,0.239c0.046,0,0.102-0.003,0.179-0.02
				c0.57-0.093,0.22-0.818-0.219-1.325c-0.445-0.503-0.917-0.503-0.917-0.914s-0.219-1.42,0.566-1.735
				c0.789-0.315,0-0.818-0.314-1.417c-0.349-0.633-1.701-0.633-2.144-1.328c-0.441-0.725,0.096-0.534,0.22-1.355
				c0.126-0.787-0.22-0.914-0.565-1.42c-0.099-0.141-0.194-0.206-0.3-0.206c-0.264,0-0.584,0.414-1.154,0.931
				c-0.514,0.458-0.788,0.571-1.109,0.571c-0.168,0-0.354-0.034-0.592-0.065c-0.663-0.096,0-0.315,0.345-1.009
				c0.349-0.726-0.662-1.639-2.018-1.831c-0.676-0.106-1.093-0.209-1.401-0.209c-0.313,0-0.504,0.103-0.745,0.401
				c-0.439,0.598-0.533,1.009-1.323,1.827c-0.789,0.821,0,0.599-0.566,2.146c-0.323,0.832-0.641,0.955-0.999,0.955
				c-0.066,0-0.135-0.004-0.2-0.01c-0.252,0-0.537,0-0.82,0.192c-0.79,0.502-0.441,1.009-1.009,2.143
				c-0.233,0.461-0.53,0.622-0.827,0.622c-0.422,0-0.838-0.325-1.098-0.622c-0.441-0.534,0.347-1.64,0.693-2.27
				c0.19-0.38-0.127-0.38-0.693-0.38c-0.105,0.014-0.219,0.02-0.34,0.02c-0.175,0-0.357-0.014-0.543-0.051
				c-1.008-0.096-1.45-0.694-2.146-0.914c-0.663-0.191-1.011-0.411-1.452-1.01c-0.441-0.599-0.124-0.506,0.221-1.324
				c0.35-0.821,0.568-0.507,1.673-1.232c1.138-0.691,1.577-0.503,3.029-1.01c1.482-0.503,1.924-1.132,2.932-1.543
				c1.012-0.411,0.349-0.411,0.223-0.914c-0.095-0.506,0.126-0.506,0.789-1.009c0.66-0.507-0.128-0.633-0.663-0.633
				c-0.568,0-0.473-0.092-0.695-0.787c-0.219-0.726,0-0.63,0.569-1.041c0.567-0.41,0.567-0.188,1.672-0.598
				c0.311-0.113,0.452-0.165,0.497-0.165c0.115,0-0.428,0.353-0.246,0.859c0.221,0.722,0,0,0.221,0.945
				c0.077,0.404,0.15,0.486,0.197,0.486c0.011,0,0.018-0.006,0.023-0.014c0.033,0,0.033,0,0,0.315
				c-0.126,0.726-0.441,0.411-1.134,0.821c-0.663,0.411-0.317,0.315-0.663,1.041c-0.116,0.232-0.107,0.307-0.013,0.307
				c0.176,0,0.676-0.307,1.117-0.307c0.692,0,0.566,0,1.135-0.127c0.567-0.093,0.439-0.376,0.788-0.599
				c0.35-0.188,0.221-0.599,0.221-1.136c0-0.264,0.137-0.329,0.398-0.329c0.223,0,0.544,0.044,0.958,0.044
				c0.884,0,1.104,0,1.894,0.192c0.789,0.219,1.01,0.503,1.482,1.325c0.441,0.818-0.569,0.503-1.577,1.136
				c-0.396,0.239-0.586,0.308-0.727,0.308c-0.096,0-0.164-0.034-0.253-0.059c-0.1-0.023-0.244-0.071-0.449-0.071
				c-0.043,0-0.097,0.003-0.149,0.01c-0.884,0.127-1.103,0.411-1.009,0.914c0.041,0.178,0.119,0.24,0.242,0.24
				c0.252,0,0.694-0.24,1.43-0.24c1.134,0,0.567,0.126,1.01,0.315c0.472,0.222,0.472,0.314,0.913,0.726
				c0.222,0.208,0.333,0.284,0.525,0.284c0.201,0,0.485-0.075,1.052-0.188c1.106-0.188,0,0,0.223-0.821
				c0.072-0.271,0.097-0.36,0.109-0.36c0.025,0,0,0.394,0.237,0.455c0.314,0.127,0.661,0.219,1.325,0.219
				c0.692,0,0.57-0.407,0.692-0.817c0.097-0.411-0.789-0.411-1.23-1.137c-0.128-0.188-0.112-0.26-0.006-0.26
				c0.276,0,1.161,0.482,1.552,0.482c0.566,0,0.693,0,1.23-0.223c0.569-0.188,0-0.503-0.313-1.103
				c-0.191-0.328-0.38-0.349-0.669-0.349c-0.051,0-0.099,0-0.152,0c-0.09,0-0.188,0.007-0.299,0.007
				c-0.156,0-0.345-0.014-0.552-0.068c-1.041-0.223-0.129-0.507-0.129-1.136c0-0.599-0.662-0.599-1.229-1.229
				c-0.567-0.603-1.483-0.506-2.809-0.886c-1.355-0.407-0.914-0.407-1.798-0.407c-0.914,0-2.365,0.188-3.026,0.407
				c-0.065,0.02-0.124,0.027-0.175,0.027c-0.254,0-0.422-0.162-0.552-0.342c-0.135-0.158-0.263-0.336-0.431-0.336
				c-0.031,0-0.068,0.004-0.106,0.021c-0.442,0.222-0.536,0.222-1.103,0.506c-0.569,0.315-0.789,0.315-1.451,0.315
				c-0.696,0,0,0-0.222-0.599c-0.079-0.206-0.109-0.278-0.137-0.278c-0.052,0-0.089,0.308-0.557,0.37c-0.662,0.096,0,0-1.011,0.096
				c-1.008,0.096-1.008,0.315-1.355,0.726c-0.313,0.379,0.129,0.379,0.693,0.503c0.096,0.017,0.188,0.024,0.278,0.024
				c0.431,0,0.834-0.147,1.3-0.147c0.537,0,0.095,0.407-0.471,0.63c-0.569,0.188-0.097,0.315-0.097,1.229
				c0,0.917-0.79,0.599-1.483,1.01c-0.156,0.1-0.27,0.141-0.352,0.141c-0.242,0-0.131-0.408,0.037-0.644
				c0.223-0.315,0.314-0.411,0.441-0.917c0.03-0.124,0.018-0.182-0.03-0.182c-0.142,0-0.611,0.51-1.201,1.191
				c-0.281,0.338-0.365,0.427-0.398,0.427c-0.024,0-0.035-0.041-0.076-0.079c-0.04-0.045-0.116-0.096-0.284-0.096
				c-0.095,0-0.219,0.018-0.376,0.065c-0.53,0.151-0.736,0.203-0.937,0.203c-0.221,0-0.444-0.062-1.081-0.11
				c-1.23-0.093-0.663-0.315-0.567-1.01c0.04-0.284,0.16-0.359,0.361-0.359c0.102,0,0.237,0.023,0.394,0.045
				c0.154,0.018,0.331,0.047,0.53,0.047c0.129,0,0.27-0.01,0.416-0.047c0.338-0.063,0.522-0.083,0.65-0.083
				c0.256,0,0.276,0.083,0.802,0.083c0.79,0,0.566-0.411-0.442-0.599c-1.01-0.223-0.44-0.315-0.567-1.041
				c-0.127-0.694,0.916-0.283,1.576-0.79c0.216-0.171,0.224-0.233,0.1-0.233c-0.252,0-1.06,0.267-1.676,0.329
				c-0.914,0.096-0.348,0.096-1.231,0.096c-0.912,0-1.008,0-3.154,0.188c-0.661,0.072-0.962,0.096-1.084,0.096
				c-0.278,0,0.313-0.124-0.146-0.192c-0.661-0.092,0.127-0.407,1.137-0.913c0.703-0.353,0.148-0.456-0.637-0.456
				c-0.341,0-0.724,0.017-1.066,0.045c-1.104,0.096-1.229,0.096-2.366,0.506c-1.103,0.411-0.662,0.411-1.229,1.229
				c-0.176,0.267-0.162,0.362-0.041,0.362c0.249,0,0.953-0.393,1.399-0.455c0.66-0.095,0.439-0.222,1.796-0.318
				c0.304-0.021,0.467-0.031,0.551-0.031c0.283,0-0.503,0.145-0.332,0.537c0.223,0.503,0,0.315-0.219,1.041
				c-0.223,0.695,0.126,0.284,0.565,0.787c0.442,0.538,0.665,0.222,2.368,0.411c1.672,0.223,0.222,0.315-0.347,0.633
				c-0.221,0.12-0.438,0.165-0.736,0.165c-0.47,0-1.133-0.11-2.293-0.165c-1.924-0.095-1.482-0.633-2.366-0.917
				c-0.883-0.314-2.019-0.411-3.373-0.726c-0.352-0.079-0.608-0.109-0.819-0.109c-0.363,0-0.63,0.084-1.074,0.175
				c-0.086,0.061-0.173,0.122-0.258,0.184c-1.029,0.751-2.034,1.533-3.01,2.35c-0.128,0.108-0.25,0.22-0.378,0.328
				c-0.944,0.809-1.862,1.643-2.752,2.511c-0.07,0.069-0.145,0.136-0.215,0.206c-0.935,0.923-1.835,1.884-2.702,2.872
				c-0.114,0.13-0.227,0.261-0.34,0.392c-0.868,1.008-1.71,2.042-2.508,3.113c0.075,0.267,0.225,0.462,0.364,0.944
				c0.221,0.822,0.883,0.914,1.452,1.421c0.568,0.502,0,1.009-0.569,1.009c-0.533,0-0.441-0.821-0.786-1.324
				c-0.171-0.267-0.525-0.394-0.846-0.394c-0.287,0-0.544,0.102-0.606,0.297c-0.095,0.411,0.347,0.411,1.011,1.01
				c0.694,0.63,0.345,1.229-0.222,1.827c-0.566,0.634-2.239,1.451-2.462,4.608c-0.031,0.467-0.051,0.896-0.062,1.283v0.838
				c0.048,1.62,0.368,2.384,0.945,2.987c0.789,0.821,0.789,0.695,0.915,1.61c0.097,0.913-0.126,1.229,0.221,1.766
				c0.347,0.505,0.567,0.379,0.567,1.009c0,0.599-0.473,0.188-0.125,1.009c0.122,0.313,0.154,0.395,0.175,0.395
				c0.014,0,0.025-0.027,0.047-0.049c0.017-0.027,0.048-0.047,0.106-0.047c0.075,0,0.185,0.027,0.335,0.113
				c0.692,0.407,0.253,0.314,0.472,0.818c0.221,0.508-0.472,0-0.219,0.508c0.219,0.501,0.439,0.411,0.755,0.818
				c0.176,0.208,0.292,0.331,0.396,0.331c0.101,0,0.188-0.123,0.299-0.424c0.221-0.633-0.442-1.041-0.789-1.546
				c-0.348-0.504-0.128-0.695-0.442-1.325c-0.348-0.599-0.348-0.913-0.693-1.514c-0.316-0.632-0.22-0.822-0.096-1.641
				c0.033-0.265,0.104-0.356,0.201-0.356c0.207,0,0.539,0.417,0.902,0.548c0.569,0.219,0.349,0.501,0.349,1.449
				c0,0.915,0.568,1.01,1.23,2.144c0.663,1.106,1.577,2.335,2.364,3.659c0.788,1.327-0.22,0.916-0.22,1.734
				c0,0.822,0.347,0.508,2.112,1.924c0.953,0.774,1.978,0.982,2.777,0.982c0.708,0,1.239-0.168,1.388-0.256
				c0.08-0.049,0.171-0.076,0.282-0.076c0.361,0,0.89,0.292,1.736,0.993c1.136,0.915,1.231,0.725,2.364,1.229
				c1.138,0.505,0.663,0.285,1.356,0.821c0.227,0.184,0.369,0.236,0.493,0.236c0.088,0,0.157-0.024,0.233-0.048
				c0.073-0.017,0.144-0.038,0.241-0.038c0.069,0,0.153,0.015,0.263,0.038c0.569,0.223,0.224,0.727,0.348,1.42
				c0.049,0.387,0.112,0.48,0.343,0.48c0.204,0,0.536-0.069,1.106-0.069c1.23,0,0,0,0.441,0.504
				c0.443,0.536,0.223,0.411,0.916,0.821c0.662,0.407,0.314,0.407,0.789,0.63c0.066,0.027,0.111,0.04,0.146,0.04
				c0.204,0-0.019-0.435,0.168-0.861c0.067-0.152,0.155-0.21,0.262-0.21c0.241,0,0.566,0.333,0.876,0.621
				c0.441,0.411,0.787,0.917,0.787,0.917s0.095-0.314,0.317-1.01c-0.317,2.05,0.252,2.238-0.413,3.691
				c-0.691,1.451-0.599,1.766-1.48,2.176c-0.914,0.442-0.914,0.539-0.82,1.264c0.125,0.725,0,1.136-0.346,1.984
				c-0.348,0.822,0.567,1.549,1.387,2.903c0.789,1.356,2.271,4.573,2.839,5.298c0.599,0.727,0.692,0.821,2.429,1.766
				c1.702,0.918,2.491,1.137,2.618,2.178c0.125,1.04,0.473,3.313,0.349,4.668c-0.128,1.354-0.128,1.675-0.128,3.252
				c0,1.545,0.693,2.046,0.569,3.217c-0.097,1.137-0.569,1.451-0.317,2.808c0.221,1.324,0.317,1.324,0.441,2.176
				c0.127,0.822,0.127,0.504,0.442,1.137c0.38,0.629,0.599,0.629,0.472,1.137c-0.02,0.117-0.045,0.164-0.07,0.164
				c-0.09,0-0.227-0.575-0.496-0.575c-0.23,0-0.406-0.323-0.432-0.323c-0.015,0,0.011,0.081,0.084,0.323
				c0.219,0.726,0.348,1.041,0.348,1.041l0.475,1.543c0.092,0.317-0.475,0.126,0.092,0.317c0.142,0.059,0.257,0.081,0.335,0.081
				c0.047,0,0.087-0.004,0.107-0.019c0.035-0.014,0.061-0.021,0.076-0.021c0.037,0,0.05,0.039,0.05,0.177
				c0,0.411-0.441,0.508-0.347,0.822c0.015,0.051,0.018,0.072,0.012,0.072c-0.005,0-0.026-0.038-0.043-0.072
				c-0.002-0.013-0.013-0.021-0.015-0.028c0.031,0.063,0.086,0.173,0.174,0.344c0.442,0.943,0.345,0.725,0.565,1.26
				c0.078,0.204,0.05,0.223,0.007,0.223c-0.014,0-0.025,0-0.038,0c-0.007-0.011-0.013-0.019-0.016-0.019
				c-0.008,0,0.028,0.063,0.27,0.302c0.6,0.63,0.817,0.727,0.817,0.727l0.665,0.41c0,0,0.013-0.014,0.033-0.014
				c0.044,0,0.133,0.047,0.218,0.328c0.025,0.172,0.011,0.188,0.003,0.188c-0.003,0-0.003,0-0.003,0
				c-0.01-0.01-0.017-0.013-0.017-0.013c-0.003,0,0.017,0.047,0.113,0.235c0.252,0.535-0.097,0.41,0.599,0.727
				c0.12,0.067,0.184,0.105,0.217,0.122c-0.028,0-0.033,0.013,0.444,0.191c0.914,0.438,1.387,0.63,1.387,0.63
				s-0.565,0.096,0.224,0.096h0.251h0.063h0.504c0.758,0,1.012,0.042,1.195,0.042c0.097,0,0.174-0.012,0.287-0.042
				c0.317-0.096,0.441-0.192,0.097-0.411c-0.349-0.192-0.349-0.192-0.663-0.411c-0.347-0.217-0.251-0.314-0.693-0.533
				c-0.401-0.164-0.372-0.646-0.646-0.646c-0.047,0-0.104,0.013-0.175,0.043c-0.308,0.134-0.187,0.281-0.234,0.281
				c-0.021,0-0.073-0.023-0.208-0.089l-0.473-0.192c0,0-0.566-0.122,0-0.41c0.104-0.056,0.193-0.075,0.274-0.075
				c0.097,0,0.185,0.031,0.231,0.044c0.059,0.038,0.106,0.073,0.122,0.073c0.035,0,0.02-0.086-0.06-0.356
				c-0.22-0.727-0.22-0.315-0.22-0.727s0.124-0.313,0.348-0.725c0.025-0.073,0.058-0.097,0.08-0.097
				c0.025,0,0.046,0.031,0.046,0.065c0.013,0.036,0.016,0.078,0.026,0.078c0.015,0,0.027-0.102,0.066-0.488
				c0.128-1.041,0.252-0.6,0.128-1.041c-0.128-0.407-0.347-0.285-0.694-0.818c-0.349-0.507-0.441-0.41-0.441-0.821
				c0-0.097-0.059-0.12-0.121-0.12c-0.043,0-0.094,0.011-0.131,0.023c-0.033,0.022-0.057,0.042-0.067,0.042
				c-0.019,0,0.042-0.078,0.319-0.356c0.661-0.755,0.565-0.126,0.661-0.755c0.128-0.6,0.254-0.411,0.254-1.01
				c0-0.63,0-0.441-0.35-0.853c-0.138-0.141-0.267-0.161-0.358-0.161c-0.033,0-0.058,0.004-0.081,0.004
				c-0.025,0.009-0.043,0.013-0.049,0.013c-0.032,0,0.003-0.051,0.142-0.263c0.347-0.508,0.442-0.508,0.789-0.634
				c0.349-0.093,0.349-0.188,0.349-0.504c0-0.313-0.097-0.725,0.566-0.725c0.463,0,0.618,0.363,0.939,0.363
				c0.163,0,0.365-0.09,0.668-0.363c0.917-0.853,1.043-0.411,0.917-1.264c-0.095-0.817,0.126-0.599-0.223-1.135
				c-0.347-0.504-0.566,0-0.347-0.504c0.222-0.537,0.917-0.224,1.829-0.444c0.916-0.186,1.484-1.134,1.736-1.449
				c0.223-0.318,0.66-0.725,0.79-1.045c0.124-0.313,0.347-0.502,0.438-0.943c0.13-0.376-0.438-0.283,0.13-0.822
				c0.563-0.501,0.438-0.091,0.563-0.501c0.128-0.442,0.223,0.091,0.128-0.854c-0.128-0.914-0.253-1.325,1.01-2.272
				c1.265-0.944,1.518-0.944,2.178-0.944c0.696,0,1.388-0.821,1.734-1.355c0.348-0.507,0.442-0.507,0.917-1.547
				c0.439-1.041,0.439-1.138,0.439-2.081c0-0.944-0.439-1.451,0.126-2.587c0.569-1.138,2.618-2.903,2.742-4.065
				C224.541,97.815,225.677,97.404,224.19,96.871z M239.617,38.479c0.531-0.774,1.105-0.971,1.504-1.217
				c-3.647-2.181-7.562-3.958-11.688-5.266c-0.84,0.109-1.957,0.278-2.625,0.459c-1.922,0.503-2.268,0.726-3.09,0.726
				c-0.632,0-1.259,0.403-1.731,0.403c-0.117,0-0.227-0.023-0.32-0.088c-0.475-0.314-0.913-0.538,0.128-0.629
				c1.006-0.096,1.482-0.411,0.096-0.507c-0.972-0.089-1.089-0.164-1.782-0.164c-0.271,0-0.638,0.014-1.186,0.037
				c-0.516,0.042-0.947,0.055-1.341,0.055c-0.281,0-0.543-0.007-0.808-0.021c-0.784,0-1.573,0-2.771,0.093
				c-2.179,0.192-2.399,0.411-3.438,0.507c-1.041,0.092-2.397,0.315-2.397,0.315c-0.472-0.065-1.102-0.274-1.597-0.274
				c-0.235,0-0.439,0.045-0.582,0.178c-0.471,0.411-1.701,0.821-0.913,1.136c0.453,0.178,0.688,0.291,0.978,0.291
				c0.213,0,0.457-0.059,0.853-0.195c0.912-0.284,0.787-0.505,1.608-0.505c0.342,0,0.903-0.059,1.33-0.059
				c0.548,0,0.862,0.102,0.15,0.564c-1.26,0.853-1.48,1.167-2.618,1.451c-0.938,0.25-1.041,0.446-1.519,0.446
				c-0.117,0-0.256-0.011-0.437-0.039c-0.612-0.061-1.232-0.411-1.465-0.411c-0.107,0-0.13,0.082-0.016,0.318
				c0.347,0.726-0.128,0.853,1.041,0.853c1.135,0,1.135,0.093,2.271,0.093c0.545,0,0.746,0.048,0.928,0.048
				c0.193,0,0.357-0.055,0.899-0.268c1.043-0.41,0.444-0.314,1.957-0.917c1.484-0.63,1.925-0.849,2.837-1.04
				c0.917-0.219,1.484-0.534,2.872-0.818c0.977-0.243,1.548-0.52,2.114-0.52c0.244,0,0.489,0.052,0.76,0.172
				c0.913,0.44,1.703,0.852,0.219,0.947c-0.212,0.025-0.431,0.038-0.65,0.038c-0.303,0-0.603-0.021-0.895-0.038
				c-0.34-0.017-0.668-0.041-0.964-0.041c-0.605,0-1.065,0.089-1.15,0.452c-0.222,0.849-2.397,1.041,0.789,1.133
				c0.409,0.028,0.789,0.041,1.125,0.041c0.464,0,0.861-0.02,1.211-0.041c0.345-0.01,0.64-0.017,0.889-0.017
				c0.727,0,1.103,0.085,1.475,0.555c0.696,0.948,1.041,0.725,0.696,1.451c-0.349,0.726,0,0.726,0.345,1.262
				c0.347,0.504,1.577,0.819,0.442,1.229c-1.136,0.41-2.049-0.504-2.049,1.577c0,2.082,0.343,3.406,2.049,3.944
				c0.711,0.205,1.087,0.362,1.349,0.41h0.243c0.223-0.052,0.401-0.263,0.803-0.726c0.918-1.04,0.351-1.988,2.65-2.587
				c2.271-0.63,2.744-0.63,4.009-1.263c1.263-0.63,0.914-1.04,3.185-1.259c2.301-0.191,1.83,0.219,2.871-0.821
				C239.298,38.89,238.702,39.835,239.617,38.479z M265.698,68.369c-0.043,0.455-0.205,0.962-0.487,0.962
				c-0.078,0-0.172-0.022-0.297-0.066c-0.915-0.285-1.041-0.411-1.925-0.913c-0.916-0.508-0.665-0.696-1.577-0.792
				c-0.884-0.126-2.462-0.126-3.031-0.628c-0.565-0.503-0.438-0.316-0.343-1.422c0.117-1.053,0.92-1.84-0.452-1.84
				c-0.099,0-0.208,0.004-0.34,0.013c-0.329,0.018-0.616,0.024-0.883,0.024c-0.268,0-0.503-0.006-0.725-0.024
				c-0.251-0.009-0.484-0.02-0.706-0.02c-0.451,0-0.87,0.042-1.375,0.208c-1.229,0.413-1.798,0.508-2.808,0.915
				c-0.813,0.332-0.909,0.54-1.502,0.54c-0.142,0-0.305-0.009-0.518-0.033c-0.767-0.065-1.059-0.401-1.444-0.401
				c-0.188,0-0.396,0.079-0.698,0.305c-0.882,0.725-0.882,1.136-1.801,1.64c-0.883,0.505-0.883,0.191-1.227,1.009
				c-0.347,0.821,0.344,2.147-0.883,2.649c-1.265,0.507-1.013,0.126-2.021,1.33c-1.04,1.228-1.481,2.05-2.052,2.963
				c-0.566,0.915-1.008,1.734-0.663,2.238c0.35,0.505,1.014-0.314,0.568,1.325c-0.472,1.639-0.665,2.24-0.568,3.06
				s1.452,2.87,1.923,3.566c0.446,0.725,2.02,1.325,2.589,2.365c0.536,1.01,0.884,1.735,2.019,1.735
				c1.104,0,0.665-0.314,2.021-0.411c0.069-0.004,0.14-0.008,0.211-0.008c0.46,0,0.898,0.086,1.336,0.195
				c0.396,0.094,0.8,0.185,1.19,0.185c0.295,0,0.574-0.047,0.855-0.185c1.105-0.502,0.884-1.102,2.464-1.229
				c0.048-0.004,0.098-0.004,0.145-0.004c1.417,0,1.243,1.37,2.219,1.644c0.171,0.063,0.332,0.086,0.485,0.086
				c0.226,0,0.445-0.044,0.649-0.086c0.208-0.04,0.413-0.082,0.625-0.082c0.278,0,0.581,0.069,0.924,0.301
				c1.008,0.699,0.346,1.11,0,2.433c-0.351,1.329-0.665,1.329-0.219,2.238c0.438,0.918,2.679,1.739,2.679,3.06
				c0,1.327,0.346,1.74,0.564,2.558c0.221,0.819,1.137,1.323,0.477,2.146c-0.695,0.821-1.577,1.924-1.264,4.573
				c0.35,2.682,1.355,2.05,1.355,3.278c0,0.655,0.099,1.578,0.145,2.128c1.346-2.438,2.517-4.982,3.492-7.624
				c0.021-0.061,0.044-0.121,0.065-0.182c2.165-5.943,3.349-12.358,3.349-19.052C268.24,79.231,267.349,73.633,265.698,68.369z
				 M195.013,77.12c0.233-0.079,0.369-0.174,0.409-0.276v-0.14c-0.04-0.103-0.176-0.196-0.409-0.278
				c-0.568-0.219-0.694,0.095-1.482-0.442c-0.822-0.502-0.822-0.725-1.61-0.913c-0.817-0.223-1.829-0.223-1.829-0.223
				s-1.26,0.223-1.483,0.634c-0.149,0.243-0.244,0.376-0.008,0.376c0.16,0,0.473-0.062,1.021-0.188
				c0.475-0.1,0.839-0.141,1.139-0.141c0.565,0,0.888,0.153,1.258,0.36c0.6,0.317,0.6,0.631,1.514,0.948
				c0.649,0.201,0.838,0.368,1.101,0.368C194.734,77.205,194.852,77.181,195.013,77.12z M200.629,78.379
				c0,0-0.254,0.319,0.092,0.411h0.792c0.249-0.314,0.47-0.63,0-0.63C201.07,78.16,200.629,78.379,200.629,78.379z M196.367,78.918
				c1.045,0,1.168-0.128,1.736-0.316c0.568-0.223,1.138,0,2.051-0.442c0.175-0.079,0.262-0.15,0.284-0.215v-0.061
				c-0.08-0.239-1.027-0.405-1.546-0.637c-0.17-0.079-0.36-0.117-0.554-0.127h-0.197c-0.536,0.022-1.12,0.23-1.646,0.443
				c-0.789,0.283,0,0-0.221,0.725c-0.09,0.267-0.254,0.349-0.426,0.349c-0.295,0-0.615-0.257-0.615-0.257
				c-0.042,0.058-0.061,0.113-0.063,0.164v0.011C195.173,78.777,195.557,78.918,196.367,78.918z M192.616,78.602
				c0.389,0.184,0.591,0.325,0.767,0.347h0.078c0.091-0.011,0.182-0.055,0.293-0.159c0.063-0.059,0.102-0.113,0.123-0.164v-0.158
				c-0.06-0.137-0.268-0.231-0.473-0.308C193.404,78.16,191.92,78.288,192.616,78.602z"/>
		</g>
		<g>
			<g>
				<path fill="#3D871A" d="M201.486,76.057c-1.526,0.232-2.093,0.546-2.093,2.459v9.235c0,1.708-0.463,4.284-1.628,5.588
					c-1.392,1.561-3.801,2.108-5.47,2.108c-1.223,0-3.836-0.172-5.639-1.82c-1.192-1.103-1.916-2.116-1.916-5.243v-9.662
					c0-2.434-0.723-2.496-2.278-2.666v-0.723h9.125v0.723c-1.833,0.084-2.693,0.119-2.693,2.666v9.662
					c0,1.656,0.265,5.646,4.26,5.646c4.888,0,5.13-4.431,5.13-6.279v-8.82c0-1.772-0.519-2.755-2.905-2.874v-0.723h6.107V76.057z"/>
				<path fill="#3D871A" d="M238.643,80.864c-0.5-2.039-1.979-5.393-5.262-5.393c-1.443,0-2.975,0.872-2.975,2.775
					c0,1.572,0.531,2.207,2.861,3.434l4.082,2.132c0.942,0.489,3.055,1.836,3.055,5.021c0,2.562-1.773,5.636-6.888,5.636
					c-2.632,0-3.615-0.986-4.479-0.986c-0.583,0-0.722,0.524-0.835,0.986H227.4l-3.019-7.2h0.583
					c0.752,2.226,4.609,6.242,8.666,6.242c3.334,0,3.471-2.891,3.471-3.267c0-1.951-1.308-2.302-3.11-3.204l-1.858-0.935
					c-4.748-2.394-4.748-4.453-4.748-5.798c0-1.776,0.861-5.736,6.132-5.736c2.227,0,2.248,0.829,3.058,0.829
					c0.841,0,1.095-0.829,1.115-0.888l0.453,0.027l0.881,6.324H238.643z"/>
				<path fill="#3D871A" d="M212.862,94.496h-7.594v-0.521c1.173-0.144,2.021-0.253,2.021-2.006V78.367
					c0-1.866-1.02-1.921-2.021-2.007v-0.955h5.521v16.376c0,1.804,0.88,1.894,2.072,2.007V94.496z"/>
				<path fill="#3D871A" d="M211.705,75.413c0,0,7.708-0.756,7.708,4.871c0,1.792-0.021,2.939-3.164,4.445
					c0,0,4.04,3.786,6.668,8.268c2.841,4.838,9.666,16.195,25.613,20.603c0,0-12.292,3.649-25.018-12.187
					c-4.158-4.863-7.718-14.318-11.808-15.808v-0.435c0,0,4.078,0.427,4.078-4.887c0-4.857-4.078-4.207-4.078-4.207V75.413z"/>
				<path fill="#3D871A" d="M263.779,85.132c0-11.833-22.734-21.435-50.785-21.435c-28.048,0-50.783,9.602-50.783,21.435
					s22.735,21.431,50.783,21.431c3.775,0,7.45-0.179,10.992-0.507l-1.439-1.875c-3.093,0.328-6.313,0.507-9.617,0.507
					c-23.589,0-42.715-8.79-42.715-19.616c0-10.841,19.126-19.623,42.715-19.623c23.593,0,42.717,8.781,42.717,19.623
					c0,7.386-8.895,13.814-22.028,17.163l1.928,2.098C252.28,100.827,263.779,93.55,263.779,85.132"/>
			</g>
		</g>
	</g>
	<g>
		<path fill="#3D871A" d="M181.188,143.153l2.948,1.501l-4.849,9.524l-2.949-1.502L181.188,143.153z"/>
		<path fill="#3D871A" d="M182.51,151.941l3.014,0.911c-0.114,0.503-0.12,0.915-0.018,1.238c0.168,0.524,0.549,0.896,1.141,1.116
			c0.441,0.165,0.821,0.188,1.137,0.069c0.316-0.118,0.525-0.314,0.627-0.588c0.097-0.26,0.069-0.534-0.082-0.823
			c-0.152-0.29-0.608-0.681-1.369-1.171c-1.244-0.81-2.061-1.575-2.451-2.297c-0.396-0.723-0.447-1.476-0.156-2.259
			c0.192-0.515,0.522-0.944,0.991-1.292c0.469-0.347,1.051-0.539,1.748-0.579c0.696-0.039,1.565,0.137,2.609,0.524
			c1.279,0.476,2.166,1.077,2.661,1.803c0.495,0.727,0.613,1.633,0.354,2.719l-2.981-0.915c0.091-0.479,0.05-0.868-0.122-1.166
			c-0.173-0.297-0.478-0.526-0.914-0.689c-0.36-0.135-0.66-0.159-0.898-0.074c-0.239,0.085-0.399,0.236-0.48,0.455
			c-0.06,0.159-0.037,0.331,0.065,0.515c0.097,0.187,0.397,0.438,0.901,0.755c1.244,0.796,2.104,1.451,2.577,1.967
			c0.475,0.516,0.763,1.045,0.865,1.586s0.052,1.084-0.151,1.631c-0.24,0.643-0.638,1.169-1.194,1.578
			c-0.558,0.41-1.207,0.637-1.948,0.679c-0.742,0.043-1.599-0.115-2.568-0.477c-1.704-0.634-2.762-1.4-3.173-2.301
			C182.281,153.957,182.22,152.985,182.51,151.941z"/>
		<path fill="#3D871A" d="M193.352,154.013c0.335-1.713,1.073-2.952,2.214-3.72c1.141-0.767,2.563-0.983,4.266-0.65
			c1.745,0.343,2.999,1.074,3.759,2.196c0.761,1.123,0.977,2.528,0.645,4.217c-0.239,1.225-0.643,2.189-1.209,2.894
			s-1.282,1.198-2.147,1.481s-1.88,0.312-3.044,0.083c-1.183-0.231-2.125-0.612-2.825-1.141c-0.701-0.528-1.213-1.247-1.535-2.157
			S193.111,155.238,193.352,154.013z M196.59,154.662c-0.209,1.058-0.161,1.857,0.143,2.397c0.303,0.54,0.793,0.876,1.47,1.008
			c0.696,0.137,1.28,0.016,1.75-0.363c0.471-0.377,0.82-1.153,1.051-2.326c0.193-0.987,0.136-1.748-0.174-2.281
			s-0.805-0.868-1.486-1.001c-0.654-0.128-1.224,0.001-1.71,0.386S196.799,153.594,196.59,154.662z"/>
		<path fill="#3D871A" d="M210.382,159.436l2.941-0.45c0.089,0.411,0.227,0.699,0.416,0.864s0.417,0.244,0.685,0.236
			c0.477-0.013,0.841-0.264,1.097-0.751c0.185-0.36,0.31-1.115,0.376-2.264c-0.345,0.374-0.702,0.65-1.071,0.831
			c-0.369,0.18-0.8,0.276-1.29,0.29c-0.957,0.025-1.774-0.294-2.451-0.956s-1.028-1.514-1.056-2.553
			c-0.02-0.71,0.131-1.36,0.45-1.952c0.319-0.593,0.77-1.046,1.35-1.36c0.58-0.313,1.314-0.483,2.204-0.507
			c1.068-0.029,1.931,0.132,2.587,0.481c0.655,0.35,1.188,0.919,1.595,1.707c0.408,0.789,0.63,1.839,0.664,3.151
			c0.052,1.929-0.316,3.352-1.104,4.271c-0.787,0.918-1.899,1.396-3.338,1.435c-0.851,0.022-1.523-0.058-2.02-0.241
			c-0.496-0.185-0.912-0.461-1.247-0.831C210.834,160.467,210.571,160,210.382,159.436z M215.72,154.523
			c-0.016-0.578-0.174-1.027-0.475-1.348c-0.3-0.32-0.659-0.475-1.077-0.463c-0.394,0.011-0.716,0.168-0.968,0.471
			c-0.252,0.304-0.37,0.752-0.354,1.345c0.016,0.597,0.162,1.05,0.44,1.358s0.618,0.458,1.021,0.446
			c0.418-0.011,0.762-0.173,1.03-0.487C215.608,155.532,215.735,155.092,215.72,154.523z"/>
		<path fill="#3D871A" d="M219.993,156.117c-0.331-2.005-0.202-3.468,0.387-4.387c0.591-0.92,1.624-1.502,3.101-1.746
			c0.71-0.117,1.307-0.126,1.791-0.026c0.484,0.101,0.894,0.267,1.228,0.499c0.334,0.233,0.609,0.49,0.826,0.772
			s0.408,0.622,0.577,1.018c0.327,0.754,0.561,1.558,0.702,2.411c0.315,1.913,0.223,3.367-0.277,4.361
			c-0.502,0.994-1.543,1.62-3.126,1.882c-0.887,0.147-1.627,0.123-2.221-0.069c-0.593-0.192-1.11-0.533-1.551-1.021
			c-0.317-0.347-0.603-0.845-0.855-1.495S220.128,156.933,219.993,156.117z M222.899,155.644c0.223,1.343,0.492,2.24,0.812,2.692
			c0.318,0.453,0.703,0.643,1.153,0.567c0.298-0.049,0.538-0.196,0.722-0.44c0.184-0.245,0.29-0.601,0.318-1.068
			s-0.036-1.179-0.192-2.134c-0.231-1.399-0.506-2.321-0.823-2.764s-0.713-0.625-1.188-0.547c-0.484,0.08-0.794,0.384-0.929,0.91
			C222.639,153.388,222.681,154.315,222.899,155.644z"/>
		<path fill="#3D871A" d="M229.67,154.441c-0.605-1.939-0.679-3.405-0.222-4.398c0.457-0.992,1.399-1.712,2.828-2.156
			c0.688-0.214,1.278-0.306,1.771-0.273c0.494,0.032,0.922,0.14,1.284,0.324c0.363,0.186,0.671,0.403,0.925,0.652
			c0.253,0.249,0.491,0.559,0.713,0.927c0.428,0.702,0.771,1.466,1.026,2.291c0.578,1.852,0.688,3.304,0.327,4.357
			c-0.358,1.054-1.303,1.819-2.834,2.297c-0.858,0.267-1.595,0.347-2.209,0.237c-0.614-0.108-1.174-0.374-1.677-0.798
			c-0.363-0.3-0.715-0.754-1.056-1.363C230.208,155.929,229.916,155.23,229.67,154.441z M232.483,153.572
			c0.405,1.299,0.796,2.15,1.174,2.555c0.378,0.403,0.785,0.538,1.222,0.401c0.287-0.09,0.505-0.269,0.653-0.535
			c0.148-0.268,0.205-0.635,0.169-1.103c-0.036-0.467-0.198-1.162-0.486-2.086c-0.422-1.355-0.82-2.229-1.195-2.625
			c-0.376-0.395-0.793-0.52-1.252-0.377c-0.469,0.146-0.733,0.49-0.794,1.03C231.913,151.374,232.083,152.287,232.483,153.572z"/>
		<path fill="#3D871A" d="M242.804,143.603l4.641,9.829l-2.716,1.282l-3.042-6.44c-0.281,0.542-0.579,1.013-0.893,1.413
			c-0.313,0.401-0.734,0.843-1.265,1.324l-1.041-2.203c0.775-0.726,1.318-1.414,1.629-2.065c0.311-0.652,0.465-1.349,0.464-2.09
			L242.804,143.603z"/>
	</g>
	<g>
		<g>
			<path fill="#3D871A" d="M155.236,127.574c0.521-0.415,1.113-0.586,1.777-0.513c0.664,0.075,1.205,0.374,1.623,0.898
				c0.417,0.524,0.588,1.118,0.511,1.782s-0.376,1.203-0.896,1.618c-0.524,0.418-1.117,0.588-1.78,0.514
				c-0.662-0.075-1.202-0.375-1.62-0.899s-0.589-1.118-0.515-1.78C154.411,128.532,154.712,127.992,155.236,127.574z"/>
			<path fill="#3D871A" d="M138.939,106.902l-1.011-3.135l6.058-1.955c0.601-0.194,1.198-0.283,1.792-0.269
				c0.595,0.016,1.156,0.159,1.686,0.43c0.528,0.271,0.944,0.6,1.248,0.987c0.424,0.537,0.773,1.233,1.049,2.089
				c0.16,0.495,0.3,1.046,0.419,1.653c0.12,0.607,0.141,1.141,0.062,1.601c-0.079,0.459-0.256,0.913-0.529,1.361
				c-0.273,0.447-0.592,0.797-0.955,1.047c-0.584,0.403-1.126,0.686-1.625,0.847l-6.06,1.954l-1.011-3.135l6.203-2.001
				c0.555-0.18,0.938-0.473,1.15-0.881s0.23-0.885,0.055-1.432c-0.175-0.541-0.466-0.915-0.872-1.124
				c-0.405-0.208-0.891-0.221-1.455-0.039L138.939,106.902z"/>
			<path fill="#3D871A" d="M137.184,100.477l-0.414-3.056l5.32-4.779l-5.859,0.792l-0.417-3.084l10.59-1.432l0.417,3.084
				l-5.278,4.752l5.814-0.786l0.416,3.077L137.184,100.477z"/>
			<path fill="#3D871A" d="M135.834,87.33l-0.052-3.309l10.684-0.17l0.053,3.309L135.834,87.33z"/>
			<path fill="#3D871A" d="M135.711,81.689l1.083-9.979l2.623,0.285l-0.363,3.348l8,0.868l-0.356,3.283l-8-0.869l-0.363,3.348
				L135.711,81.689z"/>
			<path fill="#3D871A" d="M137.29,69.337l2.282-8.549l2.205,0.589l-1.431,5.352l1.642,0.438l1.325-4.965l2.105,0.563l-1.325,4.964
				l2.035,0.544l1.47-5.507l2.339,0.624l-2.324,8.704L137.29,69.337z"/>
			<path fill="#3D871A" d="M140.561,57.97l2.004-4.478c0.396-0.882,0.834-1.541,1.316-1.978s1.027-0.731,1.634-0.886
				c0.606-0.155,1.243-0.179,1.908-0.072c0.666,0.105,1.332,0.308,1.997,0.605c1.043,0.466,1.798,0.946,2.267,1.44
				c0.468,0.494,0.802,1.039,1.001,1.635c0.2,0.595,0.256,1.163,0.168,1.704c-0.118,0.74-0.297,1.379-0.537,1.915l-2.004,4.478
				L140.561,57.97z M144.118,55.944l5.329,2.385l0.331-0.739c0.282-0.63,0.412-1.108,0.392-1.438
				c-0.021-0.328-0.171-0.646-0.452-0.952c-0.281-0.307-0.812-0.635-1.593-0.984c-1.032-0.462-1.815-0.61-2.348-0.443
				c-0.532,0.166-0.974,0.64-1.322,1.42L144.118,55.944z"/>
			<path fill="#3D871A" d="M157.243,48.587l-8.483-6.497l3.346-4.369c0.621-0.81,1.164-1.376,1.631-1.697
				c0.467-0.322,0.988-0.47,1.565-0.444s1.136,0.245,1.676,0.659c0.472,0.36,0.801,0.771,0.988,1.233s0.252,0.95,0.195,1.464
				c-0.036,0.327-0.159,0.72-0.369,1.178c0.344-0.232,0.622-0.379,0.836-0.442c0.143-0.043,0.398-0.069,0.767-0.078
				s0.638,0.004,0.809,0.036l3.431,0.613l-2.27,2.963l-3.665-0.585c-0.472-0.079-0.811-0.088-1.018-0.025
				c-0.275,0.088-0.505,0.252-0.688,0.491l-0.177,0.231l3.443,2.637L157.243,48.587z M154.214,42.09l0.846-1.105
				c0.092-0.119,0.23-0.381,0.416-0.783c0.099-0.2,0.118-0.41,0.06-0.629c-0.059-0.22-0.181-0.399-0.365-0.542
				c-0.274-0.209-0.551-0.283-0.831-0.223c-0.279,0.062-0.602,0.331-0.968,0.81l-0.882,1.151L154.214,42.09z"/>
			<path fill="#3D871A" d="M156.609,32.306l6.417-6.093l1.57,1.654l-4.018,3.814l1.17,1.231l3.727-3.538l1.5,1.58l-3.727,3.538
				l1.451,1.528l4.133-3.925l1.667,1.755l-6.534,6.202L156.609,32.306z"/>
			<path fill="#3D871A" d="M173.601,26.926l-1.247-1.84l4.225-2.861l2.555,3.771c-0.436,1.1-0.896,1.959-1.383,2.579
				s-1.156,1.22-2.009,1.797c-1.051,0.712-2.028,1.112-2.933,1.202c-0.904,0.091-1.778-0.095-2.622-0.557
				c-0.843-0.461-1.575-1.15-2.197-2.068c-0.654-0.965-1.024-1.939-1.108-2.924c-0.086-0.983,0.13-1.921,0.647-2.812
				c0.406-0.691,1.116-1.381,2.13-2.067c0.978-0.662,1.769-1.069,2.373-1.221s1.193-0.149,1.765,0.006
				c0.572,0.156,1.132,0.465,1.681,0.927l-2.319,2.257c-0.335-0.26-0.69-0.391-1.07-0.392c-0.379-0.002-0.771,0.134-1.173,0.406
				c-0.6,0.406-0.937,0.938-1.01,1.596c-0.074,0.657,0.194,1.438,0.804,2.338c0.649,0.958,1.293,1.52,1.931,1.687
				c0.638,0.166,1.279,0.031,1.923-0.404c0.306-0.208,0.567-0.449,0.784-0.727c0.218-0.276,0.434-0.643,0.647-1.098l-0.563-0.833
				L173.601,26.926z"/>
			<path fill="#3D871A" d="M176.56,17.191l2.955-1.49l4.812,9.541l-2.956,1.489L176.56,17.191z"/>
			<path fill="#3D871A" d="M184.141,21.271l2.883-1.262c0.239,0.456,0.502,0.773,0.79,0.953c0.468,0.289,0.999,0.326,1.592,0.109
				c0.443-0.161,0.746-0.39,0.91-0.686c0.164-0.295,0.195-0.579,0.096-0.854c-0.095-0.26-0.294-0.451-0.598-0.573
				c-0.303-0.122-0.902-0.123-1.801-0.002c-1.472,0.19-2.59,0.138-3.354-0.156c-0.77-0.294-1.298-0.833-1.585-1.618
				c-0.188-0.516-0.217-1.058-0.085-1.626c0.131-0.567,0.45-1.092,0.954-1.573c0.505-0.482,1.279-0.914,2.324-1.295
				c1.283-0.469,2.348-0.587,3.195-0.356c0.848,0.232,1.525,0.845,2.033,1.838l-2.862,1.239c-0.242-0.424-0.524-0.692-0.849-0.808
				c-0.323-0.114-0.704-0.092-1.143,0.068c-0.36,0.132-0.605,0.308-0.731,0.527c-0.127,0.219-0.15,0.438-0.07,0.657
				c0.059,0.16,0.187,0.276,0.384,0.349c0.194,0.079,0.586,0.076,1.175-0.01c1.463-0.203,2.542-0.262,3.237-0.177
				s1.258,0.3,1.687,0.646c0.429,0.345,0.743,0.791,0.943,1.339c0.235,0.644,0.273,1.303,0.115,1.976
				c-0.157,0.673-0.505,1.267-1.041,1.78c-0.536,0.515-1.291,0.948-2.264,1.304c-1.707,0.623-3.009,0.726-3.906,0.309
				S184.597,22.252,184.141,21.271z"/>
			<path fill="#3D871A" d="M192.58,10.712l9.843-1.96l0.515,2.587l-3.303,0.658l1.571,7.892l-3.237,0.645l-1.571-7.892l-3.303,0.657
				L192.58,10.712z"/>
			<path fill="#3D871A" d="M205.366,19.159L204.959,8.48l5.499-0.21c1.02-0.038,1.803,0.02,2.349,0.173
				c0.545,0.155,0.992,0.462,1.341,0.923s0.535,1.031,0.561,1.711c0.022,0.593-0.084,1.108-0.32,1.548
				c-0.235,0.439-0.569,0.801-1.002,1.085c-0.274,0.181-0.655,0.336-1.143,0.467c0.398,0.116,0.689,0.236,0.874,0.361
				c0.125,0.083,0.309,0.263,0.549,0.541c0.241,0.277,0.404,0.493,0.487,0.646l1.717,3.033l-3.729,0.142l-1.889-3.195
				c-0.239-0.414-0.449-0.681-0.628-0.8c-0.244-0.156-0.517-0.229-0.817-0.217l-0.292,0.011l0.165,4.334L205.366,19.159z
				 M208.438,12.681l1.392-0.053c0.15-0.006,0.439-0.065,0.868-0.18c0.217-0.052,0.391-0.17,0.522-0.354
				c0.131-0.186,0.192-0.395,0.184-0.627c-0.014-0.345-0.132-0.605-0.357-0.782c-0.226-0.176-0.64-0.253-1.241-0.229l-1.449,0.056
				L208.438,12.681z"/>
			<path fill="#3D871A" d="M222.965,17.93l-3.72-0.466l-0.736,1.685l-3.345-0.419l5.313-10.103l3.574,0.447l2.654,11.103
				l-3.431-0.431L222.965,17.93z M222.572,15.552l-0.692-3.958l-1.636,3.666L222.572,15.552z"/>
			<path fill="#3D871A" d="M227.068,20.351l3.058-10.239l5.272,1.575c0.978,0.291,1.7,0.599,2.167,0.921
				c0.467,0.321,0.791,0.757,0.972,1.306c0.182,0.548,0.174,1.148-0.021,1.801c-0.17,0.567-0.438,1.021-0.803,1.361
				s-0.798,0.574-1.298,0.703c-0.319,0.083-0.729,0.107-1.232,0.073c0.34,0.239,0.576,0.446,0.711,0.624
				c0.092,0.118,0.207,0.348,0.345,0.689c0.139,0.341,0.224,0.597,0.254,0.769l0.646,3.424l-3.574-1.067l-0.757-3.634
				c-0.093-0.469-0.205-0.789-0.337-0.961c-0.181-0.226-0.416-0.382-0.704-0.469l-0.279-0.083l-1.241,4.155L227.068,20.351z
				 M232.064,15.209l1.334,0.398c0.144,0.043,0.438,0.08,0.88,0.11c0.222,0.021,0.425-0.035,0.609-0.168
				c0.184-0.132,0.309-0.311,0.376-0.534c0.1-0.33,0.07-0.615-0.087-0.854c-0.156-0.24-0.523-0.445-1.101-0.618l-1.39-0.415
				L232.064,15.209z"/>
			<path fill="#3D871A" d="M243.888,20.559c0.882-1.505,1.988-2.431,3.318-2.778c1.329-0.347,2.742-0.082,4.239,0.795
				c1.534,0.899,2.475,2.004,2.823,3.314c0.347,1.311,0.085,2.707-0.784,4.191c-0.632,1.077-1.331,1.854-2.098,2.332
				c-0.767,0.477-1.604,0.706-2.515,0.688c-0.91-0.019-1.877-0.327-2.9-0.927c-1.04-0.608-1.804-1.279-2.29-2.009
				c-0.487-0.73-0.732-1.578-0.736-2.543C242.942,22.657,243.257,21.637,243.888,20.559z M246.729,22.241
				c-0.546,0.93-0.765,1.7-0.657,2.31s0.459,1.089,1.055,1.438c0.612,0.358,1.202,0.438,1.771,0.235
				c0.568-0.202,1.155-0.818,1.759-1.85c0.509-0.868,0.705-1.604,0.591-2.21c-0.116-0.605-0.474-1.084-1.073-1.436
				c-0.574-0.337-1.155-0.403-1.741-0.2C247.848,20.73,247.279,21.302,246.729,22.241z"/>
			<path fill="#3D871A" d="M258.362,23.25l6.305,5.186l-1.458,1.773l-3.744-3.079l-1.185,1.441l3.197,2.629l-1.371,1.667
				l-3.196-2.63l-2.773,3.371l-2.563-2.106L258.362,23.25z"/>
			<path fill="#3D871A" d="M264.227,38.05l2.104,2.342c-0.358,0.369-0.577,0.719-0.657,1.049c-0.128,0.535,0.003,1.05,0.396,1.546
				c0.292,0.369,0.604,0.586,0.936,0.648c0.332,0.063,0.612,0.004,0.841-0.177c0.217-0.172,0.336-0.421,0.356-0.747
				c0.021-0.326-0.166-0.896-0.563-1.711c-0.643-1.337-0.944-2.415-0.903-3.234c0.037-0.822,0.383-1.492,1.038-2.011
				c0.431-0.341,0.937-0.538,1.517-0.591c0.581-0.054,1.179,0.084,1.794,0.411c0.616,0.328,1.27,0.929,1.96,1.802
				c0.846,1.07,1.293,2.045,1.34,2.922c0.046,0.877-0.323,1.713-1.108,2.507l-2.073-2.328c0.326-0.363,0.493-0.717,0.5-1.06
				c0.007-0.344-0.134-0.698-0.423-1.064c-0.238-0.301-0.481-0.478-0.729-0.528c-0.248-0.052-0.464-0.005-0.646,0.14
				c-0.134,0.105-0.204,0.264-0.212,0.474c-0.014,0.209,0.112,0.58,0.379,1.113c0.651,1.324,1.046,2.33,1.184,3.018
				s0.109,1.288-0.083,1.804c-0.193,0.516-0.519,0.954-0.977,1.315c-0.537,0.425-1.15,0.669-1.84,0.73
				c-0.688,0.061-1.36-0.083-2.017-0.431c-0.656-0.349-1.306-0.928-1.947-1.74c-1.128-1.425-1.634-2.629-1.52-3.612
				C262.986,39.653,263.438,38.791,264.227,38.05z"/>
			<path fill="#3D871A" d="M276.803,42.504l1.793,3.2l-2.093,3.64l4.199,0.12l1.783,3.183l-7.448-0.59l-3.905,2.188l-1.617-2.887
				l3.905-2.188L276.803,42.504z"/>
			<path fill="#3D871A" d="M276.058,55.903l1.293,2.87c-0.454,0.243-0.769,0.511-0.944,0.8c-0.285,0.472-0.315,1.002-0.092,1.594
				c0.166,0.44,0.396,0.741,0.693,0.901c0.297,0.161,0.582,0.19,0.854,0.087c0.26-0.098,0.448-0.299,0.568-0.604
				c0.118-0.305,0.112-0.904-0.018-1.801c-0.207-1.47-0.166-2.588,0.12-3.356c0.285-0.772,0.818-1.306,1.601-1.601
				c0.514-0.194,1.055-0.229,1.624-0.103c0.569,0.125,1.098,0.438,1.585,0.937c0.486,0.499,0.927,1.27,1.319,2.311
				c0.482,1.277,0.612,2.341,0.391,3.191c-0.223,0.85-0.828,1.534-1.816,2.052l-1.27-2.847c0.421-0.248,0.688-0.534,0.798-0.858
				c0.111-0.325,0.085-0.706-0.08-1.143c-0.136-0.359-0.313-0.601-0.534-0.725c-0.221-0.125-0.44-0.146-0.658-0.063
				c-0.159,0.06-0.274,0.188-0.346,0.387c-0.077,0.195-0.069,0.587,0.022,1.176c0.219,1.46,0.29,2.539,0.212,3.234
				c-0.077,0.697-0.286,1.262-0.627,1.694c-0.34,0.432-0.783,0.751-1.329,0.957c-0.641,0.241-1.299,0.287-1.974,0.137
				s-1.271-0.491-1.792-1.021c-0.52-0.531-0.963-1.281-1.328-2.249c-0.641-1.701-0.758-3.002-0.351-3.903
				C274.389,57.055,275.081,56.37,276.058,55.903z"/>
			<path fill="#3D871A" d="M286.712,64.243l2.063,9.822l-2.582,0.543l-0.692-3.296l-7.875,1.655l-0.68-3.231l7.876-1.655
				l-0.692-3.295L286.712,64.243z"/>
			<path fill="#3D871A" d="M289.039,76.481l0.484,8.836l-2.277,0.124l-0.304-5.531l-1.695,0.094l0.282,5.131l-2.177,0.119
				l-0.281-5.131l-2.104,0.115l0.312,5.691l-2.416,0.133l-0.493-8.995L289.039,76.481z"/>
			<path fill="#3D871A" d="M289.553,88.371l-0.52,4.311l-6.656,0.885l6.257,2.429l-0.52,4.309l-10.608-1.278l0.323-2.685l8.09,0.975
				l-7.841-3.044l0.294-2.43l8.339-1.09l-8.091-0.976l0.324-2.685L289.553,88.371z"/>
			<path fill="#3D871A" d="M280.626,100.8l-0.731,3.062c-0.508-0.085-0.92-0.066-1.236,0.056c-0.514,0.198-0.862,0.6-1.048,1.204
				c-0.138,0.45-0.139,0.829-0.002,1.138s0.345,0.506,0.623,0.592c0.266,0.081,0.538,0.037,0.818-0.131
				c0.279-0.169,0.642-0.647,1.087-1.436c0.735-1.289,1.451-2.149,2.147-2.582c0.698-0.437,1.446-0.532,2.245-0.288
				c0.525,0.16,0.975,0.465,1.349,0.912s0.602,1.018,0.681,1.71c0.08,0.693-0.043,1.571-0.368,2.635
				c-0.4,1.305-0.948,2.227-1.644,2.764s-1.592,0.709-2.691,0.513l0.737-3.028c0.484,0.063,0.87-0.002,1.156-0.191
				s0.498-0.507,0.635-0.952c0.112-0.367,0.119-0.668,0.021-0.901c-0.1-0.233-0.26-0.385-0.483-0.453
				c-0.162-0.049-0.332-0.018-0.509,0.096c-0.181,0.107-0.414,0.423-0.701,0.944c-0.72,1.289-1.323,2.186-1.811,2.689
				s-0.998,0.822-1.531,0.957c-0.534,0.133-1.08,0.114-1.638-0.056c-0.655-0.201-1.203-0.566-1.646-1.1
				c-0.441-0.531-0.706-1.166-0.792-1.904c-0.087-0.737,0.021-1.602,0.325-2.591c0.531-1.737,1.234-2.839,2.107-3.303
				C278.602,100.69,279.568,100.572,280.626,100.8z"/>
			<path fill="#3D871A" d="M266.743,131.591c-0.52-0.418-0.815-0.958-0.89-1.622s0.098-1.258,0.519-1.78
				c0.42-0.522,0.962-0.819,1.627-0.891c0.664-0.07,1.256,0.103,1.775,0.52c0.521,0.42,0.819,0.961,0.892,1.624
				s-0.101,1.255-0.521,1.777c-0.42,0.523-0.961,0.821-1.624,0.894S267.267,132.011,266.743,131.591z"/>
		</g>
	</g>
</g>
<path fill="#FFFFFF" d="M182.697,164.637H0v-7.527h167.538C172.298,160.097,177.368,162.629,182.697,164.637z M182.695,5.442H0
	v7.525h167.541C172.3,9.981,177.369,7.45,182.695,5.442z"/>
</svg>
