<?xml version="1.0" encoding="UTF-8"?>
<!DOCTYPE svg PUBLIC "-//W3C//DTD SVG 1.1//EN" "http://www.w3.org/Graphics/SVG/1.1/DTD/svg11.dtd">
<!-- Creator: CorelDRAW 2018 (64-Bit) -->
<svg xmlns="http://www.w3.org/2000/svg" xml:space="preserve" width="100px" height="100px" version="1.1" style="shape-rendering:geometricPrecision; text-rendering:geometricPrecision; image-rendering:optimizeQuality; fill-rule:evenodd; clip-rule:evenodd"
viewBox="0 0 29.41 29.41"
 xmlns:xlink="http://www.w3.org/1999/xlink">
 <defs>
  <style type="text/css">
   <![CDATA[
    .fil8 {fill:none}
    .fil7 {fill:#112E03}
    .fil6 {fill:#194603}
    .fil0 {fill:#30520B}
    .fil5 {fill:#5A9E13}
    .fil4 {fill:#71AF2C}
    .fil3 {fill:#BCBEC0}
    .fil1 {fill:#D1D3D4}
    .fil2 {fill:#F1F2F2}
   ]]>
  </style>
   <clipPath id="id0">
    <path d="M0 0l29.41 0 0 29.41 -29.41 0 0 -29.41z"/>
   </clipPath>
     <clipPath id="id1">
      <path d="M28.84 0l0.21 29.41 -28.28 0 -0.21 -29.41 28.28 0z"/>
     </clipPath>
     <clipPath id="id2">
      <path d="M0 0l29.41 0 0 29.41 -29.41 0 0 -29.41z"/>
     </clipPath>
 </defs>
 <g id="Layer_x0020_1">
  <metadata id="CorelCorpID_0Corel-Layer"/>
  <g>
  </g>
  <g style="clip-path:url(#id0)">
   <g>
    <g id="_2970730758464">
    </g>
    <g style="clip-path:url(#id1)">
     <image x="0.53" y="-3.74" width="28.55" height="37.4" xlink:href="noobjection_Images\noobjection_ImgID1.png"/>
    </g>
    <g style="clip-path:url(#id2)">
    </g>
    <g id="_2970730756576">
     <path class="fil0" d="M15.18 28.01l-0.18 0c-1.76,0 -3.4,-0.51 -4.77,-1.4 -0.69,-0.44 -1.31,-0.97 -1.85,-1.58 0.34,0.3 0.7,0.57 1.08,0.82l0 0c1.38,0.88 3.02,1.4 4.77,1.4l0.18 0c0.04,0 0.07,0 0.11,0l0 0c4.79,-0.06 8.67,-3.93 8.72,-8.73l0 0c0,-0.03 0,-0.07 0,-0.1l0 -5.07c0,-0.37 -0.09,-0.72 -0.24,-1.03 -0.03,-0.05 -0.05,-0.1 -0.08,-0.14 0.36,0.22 0.65,0.53 0.84,0.9 0.16,0.31 0.25,0.66 0.25,1.03l0 5.07c0,0.04 0,0.07 0,0.11 -0.06,4.79 -3.93,8.66 -8.73,8.72 -0.03,0 -0.07,0 -0.1,0zm-4.39 -16.92l-1.75 0 0 -3.11c0,-3.31 2.68,-5.99 5.99,-5.99l0.12 0c3.31,0 5.99,2.68 5.99,5.99l0 0.87 -0.38 0 0 0.62 0.38 0 0 0.95 -1.76 0 0 -0.95 0.38 0 0 -0.62 -0.38 0 0 -0.87c0,-2.34 -1.9,-4.24 -4.23,-4.24l-0.12 0c-2.34,0 -4.24,1.9 -4.24,4.24l0 3.11z"/>
     <path class="fil1" d="M20 8.08l0 0.63 0.38 0 0 0.95 -1.76 0 0 -0.95 0.38 0 0 -0.63 -0.38 0 0 -0.86c0,-2.34 -1.9,-4.24 -4.24,-4.24l-0.12 0c-2.33,0 -4.23,1.9 -4.23,4.24l0 5.52 -1.76 0 0 -5.52c0,-3.31 2.69,-5.99 5.99,-5.99l0.12 0c3.31,0 6,2.68 6,5.99l0 0.86 -0.38 0z"/>
     <path class="fil2" d="M20 7.09l0 2.57 -1 0 0 -2.57c0,-2.54 -2.07,-4.61 -4.62,-4.61l-0.12 0c-2.54,0 -4.61,2.07 -4.61,4.61l0 5.15 -1 0 0 -5.15c0,-3.1 2.52,-5.61 5.61,-5.61l0.12 0c3.1,0 5.62,2.51 5.62,5.61z"/>
     <polygon class="fil3" points="20,8.08 20,8.71 19,8.71 19,8.08 "/>
     <path class="fil4" d="M23.24 13.35l0 5.07c0,0.03 0,0.07 0,0.1 -0.05,4.8 -3.93,8.67 -8.72,8.73 -0.04,0 -0.07,0 -0.11,0l-0.18 0c-1.75,0 -3.39,-0.52 -4.77,-1.4 -1.22,-0.79 -2.23,-1.87 -2.94,-3.14 -0.51,-0.91 -0.86,-1.92 -1.02,-2.99 -0.06,-0.43 -0.1,-0.86 -0.1,-1.3l0 -5.07c0,-1.25 1.01,-2.26 2.26,-2.26l13.33 0c0.87,0 1.63,0.5 2.01,1.23 0.15,0.31 0.24,0.66 0.24,1.03z"/>
     <path class="fil5" d="M6.52 22.71l0 0c-0.51,-0.91 -0.86,-1.92 -1.02,-2.99l8.63 -8.63 4.01 0 -11.62 11.62z"/>
     <path class="fil5" d="M14.41 27.25l-0.18 0c-1.75,0 -3.39,-0.52 -4.77,-1.4l13.54 -13.53c0.15,0.31 0.24,0.66 0.24,1.03l0 5.07c0,0.03 0,0.07 0,0.1l0 0 -8.72 8.73c-0.04,0 -0.07,0 -0.11,0z"/>
     <path class="fil6" d="M16.15 17.42c0,-1.05 -0.89,-1.9 -1.96,-1.82 -0.9,0.06 -1.63,0.79 -1.68,1.7 -0.06,0.78 0.39,1.46 1.05,1.77l-0.42 3.35c-0.02,0.17 0.12,0.32 0.29,0.32l0.89 0 0.9 0c0.17,0 0.3,-0.15 0.28,-0.32l-0.41 -3.35c0.62,-0.29 1.06,-0.92 1.06,-1.65z"/>
     <path class="fil7" d="M13.43 22.74c-0.02,0 -0.04,-0.01 -0.04,-0.01 -0.01,-0.01 -0.02,-0.03 -0.02,-0.05l0.44 -3.52 -0.16 -0.07c-0.6,-0.28 -0.96,-0.89 -0.91,-1.55 0.05,-0.79 0.68,-1.42 1.47,-1.48 0.04,0 0.08,0 0.11,0 0.88,0 1.6,0.71 1.6,1.59 0,0.61 -0.37,1.18 -0.93,1.44l-0.15 0.07 0.44 3.52c0,0.02 -0.01,0.04 -0.02,0.05 -0.01,0 -0.02,0.01 -0.04,0.01l-1.79 0z"/>
     <path class="fil5" d="M14.41 26.41l-0.18 0c-4.87,0 -8.83,-3.95 -8.83,-8.83l0 0.84c0,4.87 3.96,8.83 8.83,8.83l0.18 0c4.88,0 8.83,-3.96 8.83,-8.83l0 -0.84c0,4.88 -3.95,8.83 -8.83,8.83z"/>
    </g>
   </g>
  </g>
  <polygon class="fil8" points="0,0 29.41,0 29.41,29.41 0,29.41 "/>
 </g>
</svg>
