<?xml version="1.0" encoding="UTF-8"?>
<!DOCTYPE svg PUBLIC "-//W3C//DTD SVG 1.1//EN" "http://www.w3.org/Graphics/SVG/1.1/DTD/svg11.dtd">
<!-- Creator: CorelDRAW 2018 (64-Bit) -->
<svg xmlns="http://www.w3.org/2000/svg" xml:space="preserve" width="84.6666mm" height="84.6666mm" version="1.1" style="shape-rendering:geometricPrecision; text-rendering:geometricPrecision; image-rendering:optimizeQuality; fill-rule:evenodd; clip-rule:evenodd"
viewBox="0 0 8440.68 8440.68"
 xmlns:xlink="http://www.w3.org/1999/xlink">
 <defs>
  <style type="text/css">
   <![CDATA[
    .fil1 {fill:#DEEBBA}
    .fil0 {fill:#DEEBBA;fill-rule:nonzero}
   ]]>
  </style>
 </defs>
 <g id="Layer_x0020_1">
  <metadata id="CorelCorpID_0Corel-Layer"/>
  <g id="_2191823113520">
   <path class="fil0" d="M4220.34 0c1165.37,0 2220.46,472.39 2984.19,1236.13 763.75,763.75 1236.15,1818.84 1236.15,2984.21 0,1165.37 -472.4,2220.46 -1236.15,2984.19 -763.74,763.75 -1818.82,1236.15 -2984.19,1236.15 -1165.37,0 -2220.47,-472.4 -2984.21,-1236.15 -763.74,-763.74 -1236.13,-1818.82 -1236.13,-2984.19 0,-1165.37 472.39,-2220.47 1236.13,-2984.21 763.75,-763.74 1818.84,-1236.13 2984.21,-1236.13zm2404.13 1816.2c-615.24,-615.24 -1465.24,-995.79 -2404.13,-995.79 -938.89,0 -1788.9,380.55 -2404.14,995.79 -615.24,615.24 -995.79,1465.25 -995.79,2404.14 0,938.89 380.55,1788.89 995.79,2404.13 615.24,615.24 1465.25,995.79 2404.14,995.79 938.89,0 1788.89,-380.56 2404.13,-995.79 615.24,-615.24 995.79,-1465.24 995.79,-2404.13 0,-938.89 -380.56,-1788.9 -995.79,-2404.14z"/>
   <path class="fil1" d="M3176.5 2141.62l3034.01 1807.05c229.73,141.98 234.97,465.41 -6.06,596.96l-3065.96 1790.38c-233.6,130.83 -514.18,-17.89 -514.18,-282.07l0 -3658.55c0,-277.98 319.2,-423.59 552.19,-253.77z"/>
  </g>
 </g>
</svg>
