<?xml version="1.0" encoding="utf-8"?>
<!-- Generator: Adobe Illustrator 16.0.0, SVG Export Plug-In . SVG Version: 6.00 Build 0)  -->
<!DOCTYPE svg PUBLIC "-//W3C//DTD SVG 1.0//EN" "http://www.w3.org/TR/2001/REC-SVG-20010904/DTD/svg10.dtd">
<svg version="1.0" id="Layer_1" xmlns="http://www.w3.org/2000/svg" xmlns:xlink="http://www.w3.org/1999/xlink" x="0px" y="0px"
	 width="70px" height="70px" viewBox="0 0 70 70" enable-background="new 0 0 70 70" xml:space="preserve">
<g id="Layer_x0020_1_6_">
	<g>
		<g id="_2112205030384_9_">
			<g>
				<g id="_282543952_9_">
					<path fill="#373636" d="M62.608,56.204H7.392c-3.692,0-6.694-3.003-6.694-6.691V6.692C0.697,3.002,3.699,0,7.392,0h55.217
						c3.691,0,6.694,3.002,6.694,6.692v40.624v0.007v0.008v2.182C69.303,53.201,66.3,56.204,62.608,56.204z M2.383,48.174v1.339
						c0,2.758,2.25,5.003,5.009,5.003h55.217c2.76,0,5.005-2.245,5.005-5.003v-1.339H2.383z M2.383,46.486h65.23V6.692
						c0-2.758-2.245-5.005-5.005-5.005H7.392c-2.759,0-5.009,2.247-5.009,5.005V46.486z"/>
				</g>
				<g id="_282545008_9_">
					<path fill="#373636" d="M39.845,64.276h-9.688c-0.471,0-0.848-0.378-0.848-0.844V55.36c0-0.466,0.377-0.845,0.848-0.845h9.688
						c0.466,0,0.847,0.379,0.847,0.845v8.072C40.691,63.898,40.311,64.276,39.845,64.276L39.845,64.276z M30.998,62.588h8.004
						v-6.384h-8.004V62.588z"/>
				</g>
				<g id="_282545416_9_">
					<path fill="#373636" d="M57.521,70H12.479c-0.467,0-0.843-0.381-0.843-0.845v-1.831c0-2.613,2.122-4.736,4.736-4.736h37.26
						c2.61,0,4.733,2.123,4.733,4.736v1.831C58.365,69.619,57.987,70,57.521,70z M13.325,68.311h43.35v-0.986
						c0-1.682-1.365-3.048-3.043-3.048h-37.26c-1.683,0-3.047,1.366-3.047,3.048V68.311z"/>
				</g>
				<g id="_282545536_9_">
					<path fill="#373636" d="M43.138,52.266H26.863c-0.467,0-0.844-0.38-0.844-0.846s0.377-0.844,0.844-0.844h16.274
						c0.466,0,0.843,0.378,0.843,0.844S43.604,52.266,43.138,52.266z"/>
				</g>
				<g>
					<g>
						<g id="_282545104_9_">
							<path fill="#373636" d="M36.074,36.236c-0.172,0-0.347-0.053-0.496-0.16l-9.901-7.214c-0.22-0.159-0.347-0.412-0.347-0.684
								c0-0.27,0.127-0.523,0.347-0.683l9.901-7.21c0.377-0.276,0.906-0.192,1.178,0.184c0.277,0.377,0.194,0.906-0.183,1.182
								l-8.965,6.527l8.965,6.532c0.377,0.272,0.46,0.802,0.183,1.178C36.593,36.115,36.335,36.236,36.074,36.236L36.074,36.236z"/>
						</g>
						<g id="_282544936_9_">
							<path fill="#373636" d="M48.03,36.236c-0.261,0-0.519-0.121-0.687-0.348c-0.271-0.376-0.189-0.905,0.187-1.182l8.965-6.528
								l-8.965-6.527c-0.376-0.275-0.458-0.805-0.187-1.183c0.276-0.375,0.806-0.459,1.183-0.183l9.901,7.21
								c0.217,0.159,0.347,0.413,0.347,0.683c0,0.271-0.13,0.524-0.347,0.684l-9.901,7.212
								C48.377,36.184,48.202,36.236,48.03,36.236L48.03,36.236z"/>
						</g>
						<g id="_282545224_9_">
							<path fill="#373636" d="M39.736,36.813c-0.07,0-0.146-0.008-0.216-0.028c-0.452-0.119-0.72-0.581-0.602-1.033l4.625-17.25
								c0.123-0.451,0.586-0.717,1.033-0.598c0.451,0.121,0.72,0.584,0.601,1.035l-4.625,17.251
								C40.452,36.564,40.109,36.813,39.736,36.813z"/>
						</g>
					</g>
					<g>
						<g id="_282545128_9_">
							<path fill="#373636" d="M21.385,38.86c-0.023,0-0.041-0.002-0.068-0.002l-3.154-0.238c-0.242-0.02-0.467-0.143-0.611-0.336
								c-0.086-0.12-0.143-0.256-0.161-0.403l-0.529-4.218c-0.358-0.152-0.708-0.33-1.052-0.525l-3.595,2.211
								c-0.354,0.218-0.813,0.146-1.085-0.168l-2.164-2.52c-0.26-0.303-0.271-0.75-0.025-1.068l2.611-3.354
								c-0.15-0.365-0.273-0.739-0.374-1.115L7.07,26.146c-0.406-0.098-0.678-0.473-0.648-0.887l0.25-3.311
								c0.033-0.402,0.34-0.725,0.738-0.775l4.218-0.525c0.153-0.361,0.329-0.713,0.526-1.053l-2.212-3.598
								c-0.216-0.353-0.146-0.811,0.168-1.084l2.521-2.162c0.303-0.264,0.75-0.274,1.066-0.027l3.357,2.609
								c0.361-0.145,0.734-0.27,1.115-0.373l0.98-4.107c0.094-0.404,0.47-0.677,0.884-0.646l1.406,0.106
								c0.462,0.035,0.81,0.44,0.775,0.904c-0.034,0.469-0.44,0.816-0.906,0.779l-0.687-0.052l-0.932,3.912
								c-0.074,0.317-0.328,0.563-0.646,0.628c-0.608,0.129-1.197,0.326-1.761,0.588c-0.287,0.135-0.622,0.097-0.872-0.099
								l-3.207-2.493l-1.447,1.244l2.103,3.425c0.176,0.279,0.168,0.632-0.006,0.904c-0.344,0.519-0.62,1.077-0.832,1.657
								c-0.108,0.297-0.377,0.512-0.69,0.549l-4.027,0.504L8.16,24.669l3.912,0.934c0.316,0.074,0.563,0.326,0.631,0.646
								c0.126,0.602,0.324,1.193,0.588,1.758c0.131,0.285,0.094,0.623-0.1,0.873l-2.496,3.203l1.246,1.451l3.428-2.107
								c0.275-0.169,0.63-0.165,0.902,0.014c0.518,0.338,1.078,0.615,1.656,0.83c0.253,0.091,0.447,0.3,0.525,0.559
								c0.008,0.043,0.018,0.086,0.025,0.129l0.5,4.028l2.469,0.188c0.467,0.035,0.813,0.441,0.775,0.906
								C22.189,38.522,21.82,38.86,21.385,38.86L21.385,38.86z"/>
						</g>
						<g id="_282546040_9_">
							<path fill="#373636" d="M20.746,30.505c-1.454,0-2.842-0.522-3.938-1.492c-1.197-1.054-1.91-2.51-2.011-4.101
								c-0.097-1.591,0.426-3.126,1.481-4.32c1.055-1.195,2.51-1.909,4.102-2.009c0.361-0.021,0.727-0.013,1.089,0.03
								c0.462,0.054,0.791,0.476,0.739,0.939c-0.057,0.463-0.478,0.794-0.94,0.737c-0.257-0.03-0.522-0.037-0.783-0.022
								c-1.142,0.072-2.186,0.583-2.938,1.44c-0.758,0.856-1.134,1.959-1.063,3.098c0.07,1.14,0.581,2.184,1.439,2.939
								c0.857,0.757,1.957,1.135,3.099,1.063c0.082-0.006,0.164-0.014,0.246-0.022c0.463-0.056,0.884,0.276,0.94,0.738
								c0.052,0.464-0.277,0.882-0.742,0.938c-0.116,0.012-0.229,0.023-0.34,0.031C21,30.503,20.873,30.505,20.746,30.505
								L20.746,30.505z"/>
						</g>
					</g>
					<g id="_282545872_9_">
						<path fill="#373636" d="M60.031,41.284H24.073c-1.958,0-3.55-1.591-3.55-3.547V11.339c0-1.955,1.592-3.547,3.55-3.547h14.966
							c0.228,0,0.447,0.094,0.607,0.26l5.158,5.354l15.23,0.078c1.954,0.01,3.547,1.6,3.547,3.547v20.707
							C63.578,39.693,61.989,41.284,60.031,41.284L60.031,41.284z M24.073,9.481c-1.026,0-1.86,0.832-1.86,1.857v26.398
							c0,1.024,0.834,1.858,1.86,1.858h35.958c1.007,0,1.857-0.85,1.857-1.858V17.03c0-1.02-0.835-1.854-1.861-1.859l-15.589-0.078
							c-0.228,0-0.447-0.096-0.604-0.258l-5.154-5.354H24.073z"/>
					</g>
				</g>
			</g>
		</g>
	</g>
</g>
</svg>
