<?xml version="1.0" encoding="utf-8"?>
<!-- Generator: Adobe Illustrator 16.0.0, SVG Export Plug-In . SVG Version: 6.00 Build 0)  -->
<!DOCTYPE svg PUBLIC "-//W3C//DTD SVG 1.0//EN" "http://www.w3.org/TR/2001/REC-SVG-20010904/DTD/svg10.dtd">
<svg version="1.0" id="Layer_1" xmlns="http://www.w3.org/2000/svg" xmlns:xlink="http://www.w3.org/1999/xlink" x="0px" y="0px"
	 width="70px" height="70px" viewBox="0 0 70 70" enable-background="new 0 0 70 70" xml:space="preserve">
<g>
	<g>
		<path fill="#363636" d="M60.498,49.084H9.5c-0.414,0-0.75-0.336-0.75-0.75v-34c0-0.414,0.336-0.75,0.75-0.75h50.999
			c0.414,0,0.75,0.336,0.75,0.75v10.514c0,0.414-0.336,0.75-0.75,0.75s-0.75-0.336-0.75-0.75v-9.764H10.25v32.5h49.499V29.32
			c0-0.414,0.336-0.75,0.75-0.75s0.75,0.336,0.75,0.75v19.014C61.248,48.748,60.912,49.084,60.498,49.084z"/>
	</g>
	<g>
		<path fill="#363636" d="M44.355,57.584H25.643c-1.067,0-2.028-0.594-2.507-1.549l-1.558-3.115
			c-0.116-0.232-0.104-0.508,0.032-0.73c0.137-0.221,0.379-0.355,0.639-0.355h25.5c0.26,0,0.5,0.135,0.637,0.355
			c0.137,0.223,0.15,0.498,0.033,0.73l-1.557,3.115C46.383,56.99,45.422,57.584,44.355,57.584z M23.462,53.334l1.016,2.031
			c0.223,0.443,0.668,0.719,1.165,0.719h18.712c0.496,0,0.943-0.277,1.166-0.721l1.014-2.029H23.462z"/>
	</g>
	<g>
		<path fill="#363636" d="M64.75,53.334H5.25c-0.414,0-0.75-0.336-0.75-0.75V12.136c0-1.545,1.256-2.802,2.802-2.802h16.832
			c0.414,0,0.75,0.336,0.75,0.75s-0.336,0.75-0.75,0.75H7.301C6.583,10.834,6,11.418,6,12.136v39.698h58V12.136
			c0-0.718-0.584-1.302-1.303-1.302H28.606c-0.414,0-0.75-0.336-0.75-0.75s0.336-0.75,0.75-0.75h34.091
			c1.545,0,2.803,1.257,2.803,2.802v40.448C65.5,52.998,65.164,53.334,64.75,53.334z"/>
	</g>
	<g>
		<path fill="#363636" d="M66.947,61.834H37.236c-0.414,0-0.75-0.336-0.75-0.75s0.336-0.75,0.75-0.75h29.711
			c0.719,0,1.303-0.584,1.303-1.303v-5.697H1.75v5.697c0,0.719,0.584,1.303,1.303,1.303h29.711c0.414,0,0.75,0.336,0.75,0.75
			s-0.336,0.75-0.75,0.75H3.052c-1.546,0-2.803-1.258-2.803-2.803v-6.447c0-0.414,0.336-0.75,0.75-0.75h68
			c0.414,0,0.75,0.336,0.75,0.75v6.447C69.75,60.576,68.492,61.834,66.947,61.834z"/>
	</g>
	<g>
		<g>
			<path fill="#363636" d="M28.625,32.084c-0.191,0-0.384-0.074-0.53-0.221l-4.25-4.25c-0.293-0.293-0.293-0.768,0-1.061l4.25-4.25
				c0.293-0.293,0.768-0.293,1.061,0s0.293,0.768,0,1.061l-3.72,3.721l3.72,3.719c0.293,0.293,0.293,0.768,0,1.061
				C29.008,32.01,28.816,32.084,28.625,32.084z"/>
		</g>
		<g>
			<path fill="#363636" d="M32.875,32.084c-0.113,0-0.228-0.025-0.336-0.08c-0.37-0.186-0.52-0.635-0.335-1.006l4.25-8.5
				c0.188-0.369,0.637-0.52,1.006-0.336c0.371,0.186,0.521,0.637,0.336,1.007l-4.25,8.5C33.414,31.932,33.149,32.084,32.875,32.084z
				"/>
		</g>
		<g>
			<path fill="#363636" d="M41.375,32.084c-0.193,0-0.385-0.074-0.531-0.221c-0.293-0.293-0.293-0.768,0-1.061l3.721-3.719
				l-3.721-3.721c-0.293-0.293-0.293-0.768,0-1.061s0.768-0.293,1.061,0l4.25,4.25c0.293,0.293,0.293,0.768,0,1.061l-4.25,4.25
				C41.758,32.01,41.566,32.084,41.375,32.084z"/>
		</g>
	</g>
	<g>
		<path fill="#363636" d="M60.5,19.334h-51c-0.414,0-0.75-0.336-0.75-0.75s0.336-0.75,0.75-0.75h51c0.414,0,0.75,0.336,0.75,0.75
			S60.914,19.334,60.5,19.334z"/>
	</g>
	<g>
		<path fill="#363636" d="M60.5,36.334h-51c-0.414,0-0.75-0.336-0.75-0.75s0.336-0.75,0.75-0.75h51c0.414,0,0.75,0.336,0.75,0.75
			S60.914,36.334,60.5,36.334z"/>
	</g>
	<g>
		<path fill="#363636" d="M26.5,49.084c-0.414,0-0.75-0.336-0.75-0.75v-12.75c0-0.414,0.336-0.75,0.75-0.75s0.75,0.336,0.75,0.75
			v12.75C27.25,48.748,26.914,49.084,26.5,49.084z"/>
	</g>
	<g>
		<path fill="#363636" d="M43.5,49.084c-0.414,0-0.75-0.336-0.75-0.75v-12.75c0-0.414,0.336-0.75,0.75-0.75s0.75,0.336,0.75,0.75
			v12.75C44.25,48.748,43.914,49.084,43.5,49.084z"/>
	</g>
	<g>
		<path fill="#363636" d="M22.25,40.584h-8.5c-0.414,0-0.75-0.336-0.75-0.75s0.336-0.75,0.75-0.75h8.5c0.414,0,0.75,0.336,0.75,0.75
			S22.664,40.584,22.25,40.584z"/>
	</g>
	<g>
		<path fill="#363636" d="M20.125,44.834h-4.25c-0.414,0-0.75-0.336-0.75-0.75s0.336-0.75,0.75-0.75h4.25
			c0.414,0,0.75,0.336,0.75,0.75S20.539,44.834,20.125,44.834z"/>
	</g>
	<g>
		<path fill="#363636" d="M39.25,40.584h-8.5c-0.414,0-0.75-0.336-0.75-0.75s0.336-0.75,0.75-0.75h8.5c0.414,0,0.75,0.336,0.75,0.75
			S39.664,40.584,39.25,40.584z"/>
	</g>
	<g>
		<path fill="#363636" d="M37.125,44.834h-4.25c-0.414,0-0.75-0.336-0.75-0.75s0.336-0.75,0.75-0.75h4.25
			c0.414,0,0.75,0.336,0.75,0.75S37.539,44.834,37.125,44.834z"/>
	</g>
	<g>
		<path fill="#363636" d="M56.25,40.584h-8.5c-0.414,0-0.75-0.336-0.75-0.75s0.336-0.75,0.75-0.75h8.5c0.414,0,0.75,0.336,0.75,0.75
			S56.664,40.584,56.25,40.584z"/>
	</g>
	<g>
		<path fill="#363636" d="M54.125,44.834h-4.25c-0.414,0-0.75-0.336-0.75-0.75s0.336-0.75,0.75-0.75h4.25
			c0.414,0,0.75,0.336,0.75,0.75S54.539,44.834,54.125,44.834z"/>
	</g>
</g>
</svg>
