<?xml version="1.0" encoding="utf-8"?>
<!-- Generator: Adobe Illustrator 16.0.0, SVG Export Plug-In . SVG Version: 6.00 Build 0)  -->
<!DOCTYPE svg PUBLIC "-//W3C//DTD SVG 1.0//EN" "http://www.w3.org/TR/2001/REC-SVG-20010904/DTD/svg10.dtd">
<svg version="1.0" id="Layer_1" xmlns="http://www.w3.org/2000/svg" xmlns:xlink="http://www.w3.org/1999/xlink" x="0px" y="0px"
	 width="70px" height="70px" viewBox="0 0 70 70" enable-background="new 0 0 70 70" xml:space="preserve">
<g id="g19">
	<g id="g25" transform="translate(245.6504,191.9551)">
		<g id="path27">
			<path fill="#363636" d="M-195.548-134.84c-0.414,0-0.75-0.336-0.75-0.75v-1.941c0-3.229-1.906-6.165-4.856-7.479
				c-2.91-1.296-8.668-2.142-11.008-2.445c-0.41-0.054-0.7-0.43-0.646-0.841c0.053-0.411,0.427-0.698,0.84-0.647
				c2.987,0.388,8.444,1.236,11.424,2.563c3.491,1.555,5.747,5.028,5.747,8.85v1.941
				C-194.798-135.176-195.134-134.84-195.548-134.84z"/>
		</g>
	</g>
	<g id="g29" transform="translate(66.146,7.5)">
		<g id="path31">
			<path fill="#363636" d="M-57.103,62.225c-0.414,0-0.75-0.336-0.75-0.75v-6.616c0-0.414,0.336-0.75,0.75-0.75
				s0.75,0.336,0.75,0.75v6.616C-56.353,61.889-56.689,62.225-57.103,62.225z"/>
		</g>
	</g>
	<g id="g33" transform="translate(307.8398,7.5)">
		<g id="path35">
			<path fill="#363636" d="M-265.752,62.225c-0.414,0-0.75-0.336-0.75-0.75v-6.616c0-0.414,0.336-0.75,0.75-0.75
				s0.75,0.336,0.75,0.75v6.616C-265.002,61.889-265.338,62.225-265.752,62.225z"/>
		</g>
	</g>
	<g id="g37" transform="translate(91.064,372.8086)">
		<g id="path39">
			<path fill="#363636" d="M-56.566-348.709c-0.9,0-1.631-0.729-1.631-1.626v-4.796c0-1.379-1.121-2.501-2.5-2.501
				c-0.498,0-0.953,0.07-1.393,0.208c-1.099,0.347-2.178,0.522-3.209,0.522H-65.7c-1.03,0-2.11-0.176-3.209-0.522
				c-0.439-0.138-0.895-0.208-1.353-0.208c-1.418,0-2.54,1.122-2.54,2.501v5.171c0,0.453-0.27,0.858-0.687,1.033
				c-0.418,0.175-0.898,0.083-1.222-0.237c-0.617-0.608-2.633-0.859-3.895-0.849c-0.188,0.006-0.393-0.076-0.536-0.217
				c-0.142-0.141-0.223-0.333-0.223-0.533v-3.015c0-0.414,0.336-0.75,0.75-0.75s0.75,0.336,0.75,0.75v2.283
				c0.933,0.048,2.49,0.217,3.563,0.799v-4.435c0-2.206,1.795-4.001,4.001-4.001c0.65,0,1.257,0.093,1.843,0.278
				c0.954,0.301,1.881,0.453,2.758,0.453h0.401c0.877,0,1.805-0.152,2.758-0.453c0.586-0.185,1.193-0.278,1.805-0.278
				c2.245,0,4.039,1.795,4.039,4.001v4.796c0,0.07,0.058,0.126,0.127,0.126c0.59,0,1.187-0.169,1.73-0.489
				c0.614-0.36,1.248-0.567,1.706-0.682v-5.759c0-4.373-3.558-7.93-7.931-7.93h-8.952c-1.271,0-2.406,0.806-2.825,2.004
				c-0.295,0.845-1.1,1.412-2.001,1.412c-1.667,0-3.022,1.356-3.022,3.022c0,0.414-0.336,0.75-0.75,0.75s-0.75-0.336-0.75-0.75
				c0-2.494,2.029-4.522,4.522-4.522c0.265,0,0.5-0.164,0.585-0.407c0.628-1.8,2.333-3.01,4.241-3.01h8.952
				c5.2,0,9.431,4.23,9.431,9.43v6.375c0,0.381-0.285,0.701-0.664,0.745c-0.007,0.001-0.938,0.118-1.782,0.614
				C-54.854-348.95-55.713-348.709-56.566-348.709z"/>
		</g>
	</g>
	<g id="g41" transform="translate(91.0825,350.7583)">
		<g id="path43">
			<path fill="#363636" d="M-65.508-310.977c-3.106-0.035-5.89-1.101-8.292-3.168c-2.199-1.894-3.566-4.648-3.814-7.645h-0.068
				c-1.55,0-2.811-1.261-2.811-2.811v-2.284c0-1.053,0.582-2.009,1.518-2.495c0.367-0.191,0.821-0.047,1.011,0.32
				c0.191,0.368,0.048,0.82-0.32,1.011c-0.438,0.227-0.709,0.673-0.709,1.164v2.284c0,0.723,0.588,1.311,1.311,1.311h0.779
				c0.408,0,0.741,0.326,0.75,0.734c0.062,2.852,1.276,5.503,3.332,7.274c2.126,1.83,4.587,2.774,7.313,2.805
				c2.709-0.03,5.168-0.975,7.295-2.805c2.057-1.771,3.271-4.422,3.332-7.274c0.009-0.408,0.342-0.734,0.75-0.734h0.779
				c0.723,0,1.311-0.588,1.311-1.311v-2.284c0-0.49-0.271-0.936-0.708-1.163c-0.368-0.191-0.511-0.644-0.319-1.012
				c0.189-0.366,0.645-0.51,1.011-0.319c0.936,0.486,1.517,1.442,1.517,2.494v2.284c0,1.55-1.261,2.811-2.811,2.811h-0.067
				c-0.249,2.995-1.615,5.75-3.815,7.645C-59.636-312.078-62.42-311.012-65.508-310.977z"/>
		</g>
	</g>
	<g id="g45" transform="translate(117.1475,190.4111)">
		<g id="path47">
			<path fill="#363636" d="M-96.249-137.967c-0.615,0-1.228-0.216-1.723-0.642l-4.608-3.954c-0.796-0.684-1.109-1.734-0.817-2.743
				c0.292-1.008,1.119-1.729,2.158-1.881c0.412-0.052,0.791,0.224,0.851,0.634c0.06,0.409-0.224,0.79-0.634,0.851
				c-0.456,0.066-0.805,0.371-0.934,0.814s0.004,0.887,0.354,1.187l4.609,3.955c0.403,0.347,0.983,0.371,1.414,0.062l3.56-2.563
				c0.338-0.242,0.806-0.165,1.047,0.17c0.242,0.336,0.166,0.805-0.17,1.047l-3.56,2.563
				C-95.169-138.133-95.71-137.967-96.249-137.967z"/>
		</g>
	</g>
	<g id="g49" transform="translate(186.9932,155.2676)">
		<g id="path51">
			<path fill="#363636" d="M-156.761-102.824c-0.539,0-1.08-0.165-1.545-0.5l-3.561-2.563c-0.336-0.242-0.412-0.711-0.17-1.047
				c0.242-0.335,0.711-0.412,1.047-0.17l3.56,2.563c0.43,0.311,1.011,0.284,1.413-0.061l4.609-3.956
				c0.35-0.3,0.482-0.743,0.354-1.187c-0.129-0.443-0.478-0.748-0.935-0.814l-1.523-0.21c-0.41-0.057-0.697-0.436-0.641-0.846
				s0.436-0.702,0.846-0.641l1.529,0.211c1.045,0.153,1.872,0.874,2.164,1.883c0.292,1.008-0.021,2.059-0.818,2.742l-4.609,3.955
				C-155.534-103.039-156.147-102.824-156.761-102.824z"/>
		</g>
	</g>
	<g id="g53" transform="translate(140.0498,240.7749)">
		<g id="path55">
			<path fill="#363636" d="M-122.505-196.269c-0.371,0-0.693-0.275-0.743-0.653c-0.054-0.411,0.236-0.787,0.647-0.841
				c0.541-0.07,0.948-0.533,0.948-1.077v-4.854c0-0.414,0.336-0.75,0.75-0.75s0.75,0.336,0.75,0.75v4.854
				c0,1.295-0.969,2.397-2.255,2.565C-122.44-196.271-122.473-196.269-122.505-196.269z"/>
		</g>
	</g>
	<g id="g57" transform="translate(245.6499,191.9551)">
		<g id="path59">
			<path fill="#363636" d="M-212.064-147.449c-0.033,0-0.065-0.002-0.098-0.006c-1.285-0.168-2.255-1.271-2.255-2.565v-4.853
				c0-0.414,0.336-0.75,0.75-0.75s0.75,0.336,0.75,0.75v4.853c0,0.544,0.407,1.007,0.948,1.077c0.41,0.054,0.7,0.431,0.646,0.841
				C-211.371-147.725-211.693-147.449-212.064-147.449z"/>
		</g>
	</g>
	<g id="g61" transform="translate(366.4653,64.6826)">
		<g id="path63">
			<path fill="#363636" d="M-320.718,5.042h-40.364c-2.815,0-5.105-2.29-5.105-5.105v-10.195c0-3.821,2.256-7.295,5.747-8.85
				c2.979-1.326,8.437-2.175,11.424-2.563c0.174-0.021,0.347,0.017,0.494,0.108l7.623,4.767l7.622-4.767
				c0.35-0.219,0.813-0.113,1.033,0.238c0.22,0.351,0.113,0.813-0.238,1.033l-8.02,5.016c-0.243,0.152-0.552,0.152-0.795,0
				l-7.792-4.873c-2.485,0.331-7.936,1.162-10.741,2.411c-2.951,1.313-4.857,4.249-4.857,7.479v10.195
				c0,1.988,1.617,3.605,3.605,3.605h40.364c1.988,0,3.605-1.617,3.605-3.605v-3.463c0-0.414,0.336-0.75,0.75-0.75
				s0.75,0.336,0.75,0.75v3.463C-315.613,2.752-317.903,5.042-320.718,5.042z"/>
		</g>
	</g>
	<g id="g65" transform="translate(200.7153,119.2207)">
		<g id="path67">
			<path fill="#363636" d="M-173.274-64.771c-0.15,0-0.303-0.045-0.436-0.139c-0.337-0.24-0.416-0.709-0.176-1.046l1.684-2.365
				c0.24-0.339,0.709-0.417,1.047-0.177c0.337,0.24,0.416,0.709,0.176,1.046l-1.684,2.365
				C-172.809-64.88-173.04-64.771-173.274-64.771z"/>
		</g>
	</g>
	<g id="g69" transform="translate(160.9551,136.5205)">
		<g id="path71">
			<path fill="#363636" d="M-137.266-82.07c-0.234,0-0.465-0.109-0.611-0.315l-1.684-2.365c-0.24-0.337-0.162-0.806,0.176-1.046
				c0.337-0.24,0.806-0.162,1.046,0.177l1.684,2.365c0.24,0.337,0.161,0.806-0.176,1.046
				C-136.963-82.115-137.115-82.07-137.266-82.07z"/>
		</g>
	</g>
	<g id="g73" transform="translate(215.8311,7.5)">
		<g id="path75">
			<path fill="#363636" d="M-186.324,62.225c-0.37,0-0.691-0.273-0.742-0.649l-1.979-14.626h-2.442l-1.978,14.626
				c-0.055,0.41-0.43,0.703-0.844,0.643c-0.411-0.056-0.698-0.434-0.643-0.844l2.066-15.275c0.05-0.372,0.368-0.649,0.743-0.649
				h3.752c0.375,0,0.693,0.277,0.743,0.649l2.066,15.275c0.056,0.41-0.231,0.788-0.643,0.844
				C-186.257,62.223-186.29,62.225-186.324,62.225z"/>
		</g>
	</g>
	<g id="g77" transform="translate(426.8643,364.1792)">
		<g id="path79">
			<path fill="#363636" d="M-375.748-325.083h-1.61c-2.067,0-3.749-1.682-3.749-3.749c0-0.952-0.616-1.546-1.193-1.785
				c-0.573-0.238-1.432-0.255-2.105,0.419c-1.416,1.418-3.888,1.415-5.303,0l-1.139-1.139c-0.149-0.149-0.28-0.31-0.399-0.476
				c-0.241-0.336-0.164-0.805,0.172-1.047c0.338-0.24,0.806-0.165,1.047,0.172c0.072,0.101,0.15,0.199,0.241,0.29l1.139,1.139
				c0.85,0.849,2.331,0.85,3.182,0c1-1,2.435-1.286,3.74-0.744c1.308,0.541,2.119,1.756,2.119,3.171c0,1.24,1.009,2.249,2.249,2.249
				h1.61c1.24,0,2.249-1.009,2.249-2.249c0-1.415,0.812-2.63,2.119-3.171c1.307-0.542,2.74-0.256,3.74,0.744
				c0.85,0.85,2.332,0.848,3.182,0l1.139-1.139c0.425-0.425,0.659-0.99,0.659-1.591s-0.234-1.166-0.659-1.591
				c-0.998-0.998-1.284-2.429-0.747-3.734c0.538-1.306,1.749-2.12,3.16-2.125c1.27-0.004,2.264-0.964,2.264-2.184v-1.741
				c0-1.22-0.994-2.18-2.264-2.185c-1.411-0.005-2.622-0.819-3.16-2.125c-0.537-1.306-0.251-2.736,0.747-3.735
				c0.425-0.425,0.659-0.99,0.659-1.591c0-0.601-0.234-1.166-0.659-1.59l-1.185-1.185c-0.863-0.861-2.244-0.838-3.146,0.056
				c-1.002,0.994-2.434,1.274-3.736,0.732c-1.304-0.543-2.113-1.757-2.113-3.168c0-1.241-1.009-2.25-2.249-2.25h-1.61
				c-1.24,0-2.249,1.009-2.249,2.25c0,1.415-0.812,2.63-2.119,3.171c-1.306,0.542-2.739,0.256-3.74-0.744
				c-0.851-0.851-2.333-0.849-3.182,0l-1.139,1.139c-0.407,0.407-0.641,0.951-0.655,1.531c-0.011,0.415-0.366,0.766-0.77,0.73
				c-0.414-0.011-0.741-0.355-0.73-0.769c0.025-0.967,0.414-1.874,1.095-2.553l1.139-1.138c1.415-1.416,3.887-1.417,5.303,0
				c0.674,0.672,1.53,0.657,2.105,0.419c0.577-0.239,1.193-0.833,1.193-1.785c0-2.068,1.682-3.75,3.749-3.75h1.61
				c2.067,0,3.749,1.682,3.749,3.75c0,0.95,0.614,1.544,1.189,1.784c0.577,0.238,1.431,0.255,2.104-0.412
				c1.495-1.484,3.807-1.506,5.263-0.053l1.185,1.186c0.708,0.708,1.099,1.649,1.099,2.651c0,1.002-0.391,1.943-1.099,2.651
				c-0.672,0.672-0.658,1.527-0.421,2.103c0.237,0.576,0.83,1.193,1.779,1.196c2.107,0.008,3.758,1.626,3.758,3.685v1.741
				c0,2.059-1.65,3.677-3.758,3.684c-0.95,0.004-1.542,0.621-1.779,1.197c-0.237,0.576-0.251,1.43,0.421,2.102
				c0.708,0.708,1.099,1.65,1.099,2.651s-0.391,1.943-1.099,2.651l-1.139,1.139c-1.415,1.415-3.886,1.418-5.303,0
				c-0.674-0.673-1.531-0.658-2.105-0.419c-0.577,0.239-1.193,0.833-1.193,1.785C-371.999-326.765-373.681-325.083-375.748-325.083z
				 M-376.542-335.678c-2.337,0-4.588-0.924-6.245-2.582c-1.79-1.79-2.725-4.27-2.563-6.805c0.278-4.411,3.815-7.948,8.227-8.226
				c2.526-0.156,5.016,0.774,6.805,2.564c1.79,1.79,2.725,4.27,2.563,6.805l0,0c-0.278,4.412-3.815,7.948-8.227,8.227
				C-376.169-335.684-376.355-335.678-376.542-335.678z M-376.564-351.809c-0.155,0-0.31,0.005-0.466,0.015
				c-3.658,0.231-6.593,3.165-6.824,6.824c-0.133,2.105,0.643,4.165,2.128,5.65s3.539,2.255,5.65,2.127
				c3.658-0.231,6.593-3.165,6.824-6.824c0.133-2.105-0.643-4.164-2.128-5.649C-372.755-351.042-374.623-351.809-376.564-351.809z"
				/>
		</g>
	</g>
</g>
</svg>
