<?xml version="1.0" encoding="utf-8"?>
<!-- Generator: Adobe Illustrator 16.0.0, SVG Export Plug-In . SVG Version: 6.00 Build 0)  -->
<!DOCTYPE svg PUBLIC "-//W3C//DTD SVG 1.0//EN" "http://www.w3.org/TR/2001/REC-SVG-20010904/DTD/svg10.dtd">
<svg version="1.0" id="Layer_1" xmlns="http://www.w3.org/2000/svg" xmlns:xlink="http://www.w3.org/1999/xlink" x="0px" y="0px"
	 width="70px" height="70px" viewBox="0 0 70 70" enable-background="new 0 0 70 70" xml:space="preserve">
<g>
	<path fill="#363636" d="M38.304,14.095c-0.17-0.396-0.56-0.653-0.991-0.652H33c-0.432-0.001-0.822,0.256-0.993,0.652l-9.702,22.638
		c-0.12,0.275-0.12,0.588,0,0.862l4.15,9.319L24.43,52.99c-0.188,0.563,0.118,1.174,0.683,1.362c0.11,0.035,0.226,0.055,0.341,0.055
		h19.404c0.595,0,1.078-0.481,1.079-1.077c0-0.115-0.019-0.23-0.055-0.34l-2.026-6.076l4.145-9.319c0.12-0.274,0.12-0.587,0-0.862
		L38.304,14.095z M35.156,33.386c1.785,0,3.234,1.448,3.234,3.234c0,1.785-1.449,3.233-3.234,3.233
		c-1.786,0-3.234-1.448-3.234-3.233C31.922,34.833,33.37,33.386,35.156,33.386z M26.947,52.251l1.439-4.313h13.541l1.438,4.313
		H26.947z M42.001,45.783h-13.69l-3.838-8.625l9.239-21.56h0.366v15.739c-2.916,0.595-4.798,3.442-4.203,6.358
		c0.595,2.917,3.443,4.799,6.359,4.204c2.917-0.597,4.799-3.442,4.203-6.36c-0.432-2.116-2.086-3.771-4.203-4.202V15.599h0.366
		l9.239,21.56L42.001,45.783z"/>
	<path fill="#363636" d="M68.036,31.229h-2.465c-1.554-10.925-8.84-20.181-19.097-24.255h8.286c0.595,1.684,2.442,2.567,4.126,1.972
		c1.685-0.596,2.567-2.443,1.972-4.128c-0.597-1.684-2.443-2.566-4.127-1.971c-0.922,0.326-1.646,1.05-1.971,1.971H40.438
		c-0.593-2.917-3.438-4.801-6.354-4.209c-2.122,0.431-3.779,2.089-4.21,4.209H15.563c-0.595-1.684-2.443-2.566-4.127-1.971
		S8.87,5.291,9.465,6.974c0.596,1.684,2.443,2.567,4.127,1.972c0.921-0.326,1.646-1.051,1.971-1.972h8.274
		C13.582,11.049,6.294,20.304,4.74,31.229H2.277c-0.595,0-1.078,0.483-1.078,1.078v6.468c0,0.596,0.483,1.078,1.078,1.078H4.74
		C6.611,53.42,17.277,64.086,30.844,65.957v2.465c0,0.595,0.483,1.078,1.078,1.078h6.469c0.595,0,1.077-0.483,1.077-1.078v-2.465
		c13.567-1.871,24.233-12.537,26.104-26.104h2.465c0.596,0,1.078-0.482,1.078-1.078v-6.468
		C69.114,31.712,68.632,31.229,68.036,31.229z M57.794,4.818c0.597,0,1.079,0.483,1.079,1.079c0,0.595-0.482,1.078-1.079,1.078
		c-0.595,0-1.077-0.482-1.077-1.078C56.717,5.301,57.199,4.818,57.794,4.818z M35.156,2.662c1.785,0,3.234,1.448,3.234,3.234
		c0,1.786-1.449,3.233-3.234,3.233c-1.786,0-3.234-1.448-3.234-3.233C31.922,4.11,33.37,2.662,35.156,2.662z M12.518,6.974
		c-0.595,0-1.078-0.482-1.078-1.078c0-0.596,0.483-1.079,1.078-1.079c0.596,0,1.078,0.483,1.078,1.079
		C13.596,6.492,13.113,6.974,12.518,6.974z M3.354,33.386h4.312v4.313H3.354V33.386z M37.313,67.343H33v-4.312h4.312V67.343z
		 M39.468,63.781v-1.828c0-0.595-0.482-1.077-1.077-1.077h-6.469c-0.595,0-1.078,0.482-1.078,1.077v1.828
		C18.472,61.94,8.758,52.226,6.918,39.854h1.827c0.596,0,1.078-0.482,1.078-1.078v-6.468c0-0.595-0.482-1.078-1.078-1.078H6.918
		C8.763,19.197,18.022,9.652,29.992,7.443c0.854,2.853,3.858,4.472,6.71,3.618c1.738-0.52,3.098-1.879,3.617-3.618
		c11.972,2.209,21.23,11.754,23.076,23.787h-1.827c-0.596,0-1.078,0.483-1.078,1.078v6.468c0,0.596,0.482,1.078,1.078,1.078h1.827
		C61.557,52.227,51.841,61.941,39.468,63.781z M66.957,37.698h-4.312v-4.313h4.312V37.698z"/>
</g>
</svg>
