<?xml version="1.0" encoding="utf-8"?>
<!-- Generator: Adobe Illustrator 16.0.0, SVG Export Plug-In . SVG Version: 6.00 Build 0)  -->
<!DOCTYPE svg PUBLIC "-//W3C//DTD SVG 1.0//EN" "http://www.w3.org/TR/2001/REC-SVG-20010904/DTD/svg10.dtd">
<svg version="1.0" id="Layer_1" xmlns="http://www.w3.org/2000/svg" xmlns:xlink="http://www.w3.org/1999/xlink" x="0px" y="0px"
	 width="70px" height="70px" viewBox="0 0 70 70" enable-background="new 0 0 70 70" xml:space="preserve">
<g>
	<g>
		<g>
			<path fill="#363636" d="M34.376,58.955c-0.251-0.25-0.599-0.395-0.953-0.395s-0.702,0.145-0.953,0.395
				c-0.25,0.252-0.395,0.6-0.395,0.953c0,0.356,0.145,0.703,0.395,0.953c0.25,0.252,0.598,0.395,0.953,0.395
				s0.702-0.143,0.953-0.395c0.25-0.25,0.395-0.599,0.395-0.953C34.771,59.555,34.626,59.207,34.376,58.955z"/>
		</g>
	</g>
	<g>
		<g>
			<path fill="#363636" d="M40.793,46.524v-9.917c0-0.447-0.224-0.866-0.594-1.117c-0.371-0.25-0.843-0.301-1.258-0.133
				L15.719,44.71H8.24c-4.268,0-7.74,3.472-7.74,7.74s3.472,7.739,7.74,7.739h0.891v8.094c0,0.744,0.603,1.348,1.348,1.348h5.501
				c0.744,0,1.348-0.604,1.348-1.348V60.84l21.613,8.693c0.163,0.064,0.334,0.098,0.504,0.098c0.265,0,0.527-0.079,0.755-0.231
				c0.369-0.25,0.593-0.669,0.593-1.116v-9.917c2.702-0.614,4.727-3.035,4.727-5.921S43.495,47.139,40.793,46.524z M14.633,66.936
				h-2.806v-6.746h2.806V66.936L14.633,66.936z M14.633,57.494H8.24c-2.782,0-5.045-2.262-5.045-5.044s2.263-5.045,5.045-5.045
				h6.394L14.633,57.494z M38.098,66.289L38.098,66.289l-20.769-8.354V46.967l14.747-5.939v13.375c0,0.744,0.604,1.348,1.348,1.348
				c0.745,0,1.348-0.604,1.348-1.348v-14.46l3.327-1.34V66.289z M40.793,55.543v-6.195c1.193,0.521,2.031,1.714,2.031,3.098
				C42.824,53.83,41.986,55.021,40.793,55.543z"/>
		</g>
	</g>
	<g>
		<g>
			<path fill="#363636" d="M58.376,51.137h-7.631c-0.744,0-1.348,0.604-1.348,1.348c0,0.745,0.604,1.348,1.348,1.348h7.631
				c0.743,0,1.348-0.603,1.348-1.348C59.724,51.741,59.119,51.137,58.376,51.137z"/>
		</g>
	</g>
	<g>
		<g>
			<path fill="#363636" d="M52.117,41.263c-0.525-0.526-1.379-0.526-1.906,0l-2.632,2.632c-0.525,0.525-0.525,1.379,0,1.906
				c0.264,0.263,0.608,0.395,0.953,0.395c0.346,0,0.69-0.132,0.953-0.395l2.632-2.632C52.645,42.643,52.645,41.788,52.117,41.263z"
				/>
		</g>
	</g>
	<g>
		<g>
			<path fill="#363636" d="M52.217,61.676l-2.72-2.72c-0.526-0.526-1.381-0.526-1.906,0c-0.526,0.527-0.526,1.38,0,1.906l2.721,2.72
				c0.263,0.264,0.607,0.395,0.953,0.395c0.345,0,0.688-0.131,0.952-0.395C52.743,63.057,52.743,62.203,52.217,61.676z"/>
		</g>
	</g>
	<g>
		<g>
			<path fill="#363636" d="M64.109,0.631H39.043c-2.973,0-5.391,2.418-5.391,5.391v0.539H11.012c-1.783,0-3.234,1.451-3.234,3.234
				v21.293c0,1.783,1.451,3.234,3.234,3.234h1.393v4.134c0,0.545,0.328,1.035,0.832,1.244c0.167,0.068,0.342,0.104,0.516,0.104
				c0.35,0,0.695-0.138,0.953-0.396l5.086-5.086H46.56c1.784,0,3.234-1.451,3.234-3.234v-4.043h14.315
				c2.973,0,5.391-2.418,5.391-5.391V6.021C69.5,3.049,67.082,0.631,64.109,0.631z M47.099,31.088c0,0.297-0.241,0.539-0.539,0.539
				H19.232c-0.357,0-0.7,0.142-0.953,0.395l-3.179,3.18v-2.227c0-0.744-0.604-1.348-1.348-1.348h-2.741
				c-0.297,0-0.539-0.242-0.539-0.539V9.795c0-0.297,0.242-0.539,0.539-0.539h22.641v12.398c0,2.973,2.418,5.391,5.391,5.391h8.056
				V31.088z M66.805,21.654c0,1.486-1.209,2.695-2.695,2.695H39.043c-1.486,0-2.695-1.209-2.695-2.695V6.021
				c0-1.486,1.209-2.695,2.695-2.695h25.066c1.486,0,2.695,1.209,2.695,2.695V21.654z"/>
		</g>
	</g>
	<g>
		<g>
			<path fill="#363636" d="M56.99,12.671l-9.223-5.325c-0.417-0.241-0.932-0.241-1.348,0c-0.417,0.241-0.674,0.686-0.674,1.167
				v10.65c0,0.481,0.257,0.926,0.674,1.167c0.208,0.121,0.44,0.181,0.674,0.181c0.231,0,0.465-0.06,0.674-0.181l9.223-5.325
				c0.417-0.24,0.674-0.685,0.674-1.167S57.407,12.911,56.99,12.671z M48.441,16.829v-5.981l5.18,2.991L48.441,16.829z"/>
		</g>
	</g>
	<g>
		<g>
			<path fill="#363636" d="M29.409,14.781H15.932c-0.744,0-1.348,0.604-1.348,1.348s0.604,1.348,1.348,1.348h13.477
				c0.745,0,1.348-0.604,1.348-1.348S30.153,14.781,29.409,14.781z"/>
		</g>
	</g>
	<g>
		<g>
			<path fill="#363636" d="M30.362,22.723c-0.251-0.25-0.599-0.395-0.953-0.395c-0.354,0-0.702,0.144-0.953,0.395
				c-0.25,0.251-0.395,0.599-0.395,0.953s0.145,0.702,0.395,0.953c0.251,0.25,0.599,0.395,0.953,0.395
				c0.355,0,0.702-0.145,0.953-0.395c0.25-0.25,0.395-0.599,0.395-0.953S30.612,22.974,30.362,22.723z"/>
		</g>
	</g>
	<g>
		<g>
			<path fill="#363636" d="M24.354,22.328h-8.421c-0.744,0-1.348,0.604-1.348,1.348s0.604,1.348,1.348,1.348h8.421
				c0.745,0,1.348-0.604,1.348-1.348S25.098,22.328,24.354,22.328z"/>
		</g>
	</g>
</g>
</svg>
