<?xml version="1.0" encoding="utf-8"?>
<!-- Generator: Adobe Illustrator 19.0.0, SVG Export Plug-In . SVG Version: 6.00 Build 0)  -->
<svg version="1.1" id="Layer_1"
	 xmlns="http://www.w3.org/2000/svg" xmlns:xlink="http://www.w3.org/1999/xlink" x="0px" y="0px" viewBox="292 -321 800 810"
	 style="enable-background:new 292 -321 800 810;" xml:space="preserve">
<style type="text/css">
	.st0{fill:#01C28D;}
	.st1{fill:#CCF2E8;}
	.st2{fill:#4DD4AF;}
	.st3{fill:#5E6061;}
	.st4{fill:#66DABA;}
	.st5{fill:#9E9FA0;}
	.st6{fill:#9E9FA0;stroke:#9E9FA0;stroke-width:3.000000e-002;stroke-miterlimit:22.9256;}
	.st7{fill:#414140;}
	.st8{fill:#7E7F80;}
	.st9{fill:#CECFCF;}
	.st10{fill:#414140;stroke:#CCF2E8;stroke-width:3.000000e-002;stroke-miterlimit:22.9256;}
	.st11{fill:#2B2A29;}
	.st12{fill:#CECFCF;stroke:#CECFCF;stroke-width:3.000000e-002;stroke-miterlimit:22.9256;}
</style>
<g>
	<polygon class="st0" points="801.6,216.6 776.5,231.4 751.8,246 751.8,186.9 	"/>
	<polygon class="st1" points="803.9,153.2 803.9,182.6 803.9,212 753.7,182.6 	"/>
	<polygon class="st2" points="746.8,178.3 696.6,148.9 721.7,134 746.8,119.2 	"/>
	<polygon class="st0" points="751.8,119.2 776.5,134 801.6,148.6 751.8,177.9 	"/>
	<polygon class="st3" points="632.6,51.1 632.6,80.5 632.6,109.9 582.4,80.5 	"/>
	<polygon class="st0" points="690,143.9 665.3,129.4 639.8,114.2 690,84.8 	"/>
	<polygon class="st4" points="745.2,114.5 720.1,129.4 695,143.9 695,85.2 	"/>
	<polygon class="st0" points="687.7,80.5 637.8,109.9 637.8,80.5 637.8,51.1 	"/>
	<polygon class="st0" points="918.9,356.6 918.9,386.3 918.9,415.7 868.7,386.3 	"/>
	<polygon class="st0" points="861.4,382 811.5,352.3 836.6,337.4 861.4,322.9 	"/>
	<polygon class="st5" points="866.3,322.9 891.4,337.4 916.2,352.3 866.3,381.7 	"/>
	<polygon class="st3" points="976.3,449.7 951.5,434.8 926.1,420 976.3,390.3 	"/>
	<polygon class="st1" points="1031.1,420 1006.4,434.8 981.3,449.7 981.3,390.6 	"/>
	<polygon class="st0" points="973.7,386.3 924.1,415.4 924.1,386.3 924.1,356.9 	"/>
	<polygon class="st6" points="1091.2,449.7 1066.1,434.8 1041,420 1091.2,390.3 	"/>
	<polygon class="st4" points="859.7,318 835,332.8 809.9,347.7 809.9,288.6 	"/>
	<polygon class="st0" points="862.1,254.6 862.1,284.3 862.1,313.7 812.2,284.3 	"/>
	<polygon class="st5" points="804.9,280 755.1,250.6 780.2,235.4 804.9,220.9 	"/>
	<polygon class="st0" points="809.9,220.9 835,235.4 859.7,250.3 809.9,279.6 	"/>
	<polygon class="st4" points="1034.4,483.4 984.6,454 1009.7,439.1 1034.4,424.3 	"/>
	<polygon class="st0" points="1039.7,424.3 1064.5,439.1 1089.2,454 1039.7,483.4 	"/>
	<path class="st4" d="M1064.5,366.2c1,0,2.3,0,3.3,0.3c4.3,0,13.5-0.3,23.4-0.3V382L1064.5,366.2z"/>
	<path class="st2" d="M1038.7,363.9c5,1,9.9,1.3,15.2,1.7l34.7,20.8l-49.9,29.1v-29.1L1038.7,363.9L1038.7,363.9z"/>
	<path class="st0" d="M1025.2,361.5c3,0.7,5.6,1,8.3,1.7v23.1v29.4l-49.9-29.4L1025.2,361.5z"/>
	<path class="st0" d="M981.3,345.7c11.2,5.9,23.4,10.6,37,14.2l-37,21.8V345.7z"/>
	<path class="st5" d="M960.1,332.5c5,3.6,10.6,7.3,16.2,10.6v39l-49.9-29.7l25.1-14.9L960.1,332.5z"/>
	<path class="st0" d="M924.8,299.1c9.2,11.2,19.5,21.1,31,30l-6.3,3.6l-24.8,14.9V299.1L924.8,299.1z"/>
	<path class="st0" d="M917.2,289.9c1,1,1.7,2.3,2.6,3.3v54.5l-25.1-14.9L869.7,318L917.2,289.9L917.2,289.9z"/>
	<path class="st4" d="M909.6,279.6c1.7,2,3,4.3,4.6,6.3l-46.9,27.4v-29.1v-29.4L909.6,279.6L909.6,279.6z"/>
	<path class="st0" d="M884.8,241.3c5.9,9.9,11.9,19.5,18.2,28.7l-33.4-19.5L884.8,241.3L884.8,241.3z"/>
	<path class="st0" d="M866.3,209.6c1.7,2.6,3,5,4.6,7.6c3.6,6.6,7.3,13.2,11.2,19.5l-15.8,9.2V209.6z"/>
	<path class="st3" d="M855.1,190.5c2.3,3.6,4.3,7.3,6.3,10.9V246l-24.8-14.5l-25.4-15.2L855.1,190.5L855.1,190.5z"/>
	<path class="st0" d="M845.9,175c2.3,3.6,4.6,7.6,6.9,11.2L809.2,212v-29.4v-29.4L845.9,175z"/>
	<path class="st0" d="M824.4,141.3c5.3,7.9,10.6,16.2,15.8,24.4l-28.7-16.8L824.4,141.3z"/>
	<path class="st0" d="M809.9,121.5c4,5,7.9,10.2,11.6,15.8l-11.6,6.6V121.5L809.9,121.5z"/>
	<path class="st4" d="M787.8,94.7c5.9,6.6,11.9,13.2,17.2,20.1v29.1l-24.8-14.5l-25.4-15.2L787.8,94.7z"/>
	<path class="st0" d="M752.8,61.7c11.2,9.2,21.8,19.2,31.7,29.4l-31.7,18.8V80.5V61.7z"/>
	<path class="st0" d="M742.2,54.1c2,1,3.6,2.3,5.3,3.6v22.8v29.4l-50.2-29.4L742.2,54.1L742.2,54.1z"/>
	<path class="st5" d="M695,27c15.8,6.9,30,14.9,42.9,23.8L695,76.2V27L695,27z"/>
	<path class="st2" d="M682.4,21.8c2.6,1,5.3,2,7.6,3v51.5l-49.9-29.4L665.3,32L682.4,21.8z"/>
	<path class="st0" d="M636.9,8.2c13.9,3,27.1,6.6,39.3,11.2L662,27.7l-25.1,14.9V8.2L636.9,8.2z"/>
	<path class="st0" d="M582.4,6.6V0.3c3.3,0.3,6.3,0.7,9.2,1L582.4,6.6z"/>
	<path class="st0" d="M582.4,13.2v-1l17.5-10.2c11.2,1.3,21.8,3,32,5v35.7l-24.8-14.9L582.4,13.2z"/>
	<polygon class="st0" points="582.4,74.9 582.4,18.5 605.2,32 630.3,46.9 	"/>
	<path class="st0" d="M607.8,127.8c-8.3-2-16.5-3.3-25.4-4.6v-37l47.9,28.4L607.8,127.8L607.8,127.8z"/>
	<path class="st4" d="M631.9,135.7c-5.6-2.3-11.6-4.3-17.5-5.9l17.5-10.6V135.7z"/>
	<path class="st0" d="M671.5,157.8c-10.6-7.9-22.1-14.5-34.7-20.1v-18.5L662,134l24.8,14.5L671.5,157.8L671.5,157.8z"/>
	<path class="st4" d="M689,172.3c-4.3-4-8.6-7.9-13.2-11.6l13.2-7.6V172.3z"/>
	<path class="st3" d="M714.5,200.1c-6.3-7.9-12.9-15.5-20.1-22.8v-24.1l49.9,29.4L714.5,200.1L714.5,200.1z"/>
	<path class="st1" d="M745.8,245.3c-8.9-14.2-18.2-28.4-28.1-41.3l29.1-17.2V246L745.8,245.3L745.8,245.3z"/>
	<path class="st4" d="M777.2,299.1c-4.3-6.9-8.3-13.9-12.2-20.8c-4-6.9-8.3-14.2-12.2-21.1v-2.3l49.5,29.4L777.2,299.1L777.2,299.1z
		"/>
	<path class="st5" d="M804.9,344.7c-8.9-13.5-17.2-27.4-25.4-41.3l25.4-15.2L804.9,344.7L804.9,344.7z"/>
	<path class="st4" d="M843.2,395.6c-9.6-11.2-18.8-22.8-27.1-34.7l42.9,25.4L843.2,395.6L843.2,395.6z"/>
	<path class="st0" d="M861.4,414.7c-5-5-9.9-10.2-14.9-15.5l14.9-8.9V414.7z"/>
	<path class="st1" d="M887.8,436.8c-7.3-5.3-14.5-11.2-21.5-17.5v-28.7l50.2,29.4l-25.1,14.9L887.8,436.8L887.8,436.8z"/>
	<path class="st0" d="M919.8,457c-9.6-5-18.5-10.6-27.1-16.5l2-1.3l25.1-14.9V457L919.8,457z"/>
	<path class="st4" d="M947.9,469.5c-7.9-3-15.8-6.3-23.1-9.9v-35.3l24.8,14.9l25.1,14.9L947.9,469.5L947.9,469.5z"/>
	<path class="st0" d="M977,478.8c-7.9-2-15.5-4.3-23.1-6.9l23.1-13.5V478.8L977,478.8z"/>
	<path class="st0" d="M1031.8,487.7c-17.5-1.3-34-4-49.5-7.6v-21.5l49.9,29.1H1031.8z"/>
	<path class="st0" d="M1091.9,488.3c-7.9,0.3-15.5,0.7-20.8,0.7c-9.6,0.3-18.8,0-28.1-0.3l-1.3-1l50.2-29.4V488.3z"/>
</g>
<polygon class="st3" points="342,-190.6 316.9,-175.7 292.1,-160.8 292.1,-220 "/>
<polygon class="st1" points="344.3,-254 344.3,-224.2 344.3,-194.9 294.4,-224.6 "/>
<polygon class="st5" points="292.1,-287.6 316.9,-273.1 342,-258.3 292.1,-228.9 "/>
<polygon class="st1" points="399.4,-224.6 349.6,-195.2 349.6,-224.2 349.6,-253.6 "/>
<polygon class="st3" points="402.1,-228.5 351.9,-258.3 377,-273.1 402.1,-287.6 "/>
<polygon class="st0" points="407,-287.6 431.8,-273.1 456.9,-258.3 407,-228.9 "/>
<polygon class="st7" points="516.7,-228.5 466.8,-258.3 491.9,-273.1 516.7,-287.6 "/>
<polygon class="st0" points="521.6,-287.6 546.7,-273.1 571.5,-258.3 521.6,-228.9 "/>
<polygon class="st1" points="631.6,-228.5 581.4,-258.3 606.8,-273.1 631.6,-287.6 "/>
<polygon class="st8" points="636.5,-287.6 661.3,-273.1 686.4,-258.3 636.5,-228.9 "/>
<polygon class="st7" points="746.5,-228.5 696.3,-258.3 721.4,-273.1 746.5,-287.6 "/>
<polygon class="st8" points="751.4,-287.6 776.2,-273.1 801.3,-258.3 751.4,-228.9 "/>
<polygon class="st8" points="916.2,-190.6 891.1,-175.7 866,-160.8 866,-220 "/>
<polygon class="st8" points="861.1,-228.5 811.2,-258.3 836.3,-273.1 861.1,-287.6 "/>
<polygon class="st3" points="342,13.2 316.9,28 292.1,42.6 292.1,-16.2 "/>
<polygon class="st0" points="344.3,-50.2 344.3,-20.8 344.3,8.5 294.4,-20.8 "/>
<polygon class="st3" points="292.1,-84.2 316.9,-69.4 342,-54.5 292.1,-25.1 "/>
<polygon class="st7" points="399.4,-20.8 349.6,8.5 349.6,-20.8 349.6,-50.2 "/>
<polygon class="st8" points="916.2,13.2 891.1,28 866,42.6 866,-16.2 "/>
<polygon class="st0" points="918.5,-50.2 918.5,-20.8 918.5,8.5 868.3,-20.8 "/>
<polygon class="st8" points="866,-84.2 891.1,-69.4 915.9,-54.5 866,-25.1 "/>
<polygon class="st3" points="345.3,-59.1 320.5,-74 295.1,-89.2 345.3,-118.6 "/>
<polygon class="st5" points="400.4,-88.9 375.3,-74 350.2,-59.1 350.2,-118.3 "/>
<polygon class="st0" points="342.6,-122.9 293.1,-93.5 293.1,-122.9 293.1,-152.3 "/>
<polygon class="st0" points="345.3,-127.2 295.4,-156.6 320.5,-171.4 345.3,-186.3 "/>
<polygon class="st3" points="350.2,-186.3 375.3,-171.4 400.1,-156.6 350.2,-127.2 "/>
<polygon class="st2" points="919.5,-59.1 894.4,-74 869.3,-89.2 919.5,-118.6 "/>
<polygon class="st8" points="916.9,-122.9 867,-93.5 867,-122.9 867,-152.3 "/>
<polygon class="st7" points="919.5,-127.2 869.3,-156.6 894.4,-171.4 919.5,-186.3 "/>
<polygon class="st8" points="402.1,246.3 377,231.4 351.9,216.6 402.1,186.9 "/>
<polygon class="st9" points="456.9,216.6 431.8,231.4 407,246.3 407,187.2 "/>
<polygon class="st0" points="399.4,182.9 349.6,212 349.6,182.9 349.6,153.5 "/>
<polygon class="st5" points="402.1,178.6 351.9,149.2 377,134 402.1,119.5 "/>
<polygon class="st0" points="516.7,246.3 491.9,231.4 466.5,216.6 516.7,186.9 "/>
<polygon class="st5" points="571.8,216.6 546.7,231.4 521.6,246.3 521.6,187.2 "/>
<polygon class="st5" points="631.6,246.3 606.8,231.4 581.4,216.6 631.6,186.9 "/>
<polygon class="st1" points="686.4,216.6 661.3,231.4 636.5,246.3 636.5,187.2 "/>
<path class="st10" d="M746.5,246.3l-25.1-14.9l-25.1-14.9l21.5-12.5c9.9,12.9,19.2,27.1,28.1,41.3l0.7,0.7V246.3L746.5,246.3z"/>
<polygon class="st3" points="345.3,144.3 320.5,129.4 295.1,114.5 345.3,84.8 "/>
<polygon class="st9" points="400.4,114.5 375.3,129.4 350.2,144.3 350.2,85.2 "/>
<polygon class="st0" points="342.6,80.9 293.1,109.9 293.1,80.9 293.1,51.5 "/>
<polygon class="st8" points="345.3,76.6 295.4,47.2 320.5,32 345.3,17.5 "/>
<polygon class="st3" points="350.2,17.5 375.3,32 400.1,46.9 350.2,76.2 "/>
<polygon class="st1" points="919.5,76.6 869.3,47.2 894.4,32 919.5,17.5 "/>
<polygon class="st7" points="465.1,220.9 489.9,235.7 515,250.6 465.1,280 "/>
<polygon class="st0" points="580.1,220.9 604.8,235.7 629.9,250.6 580.1,280 "/>
<polygon class="st5" points="694.6,220.9 719.7,235.7 744.5,250.6 694.6,280 "/>
<polygon class="st9" points="343.3,-321 345.3,-321 345.3,-262.9 320.5,-277.7 295.1,-292.6 "/>
<polygon class="st3" points="293.1,-321 333.7,-321 293.1,-297.2 "/>
<path class="st5" d="M305,170.7c-6.6-15.8-10.9-33-12.5-51.2l24.4,14.5l25.1,14.9L305,170.7L305,170.7z"/>
<path class="st7" d="M318.9,197.4c-4.3-7.3-8.3-14.5-11.9-22.1l37.3-22.1v29.7v29.4C344.3,212.3,318.9,197.4,318.9,197.4z"/>
<path class="st11" d="M336.4,220.2c-3.6-4.3-7.3-8.6-10.6-13.2l16.2,9.6L336.4,220.2L336.4,220.2z"/>
<path class="st11" d="M345.3,229.5c-0.7-1-1.7-1.7-2.6-2.6c-0.7-1-1.7-1.7-2.6-2.6l5.3-3.3C345.3,220.9,345.3,229.5,345.3,229.5z"/>
<path class="st3" d="M386.2,258.8c-13.2-6.9-25.1-15.2-36-24.8v-13.2l25.1,14.9l24.8,14.9L386.2,258.8L386.2,258.8z"/>
<path class="st8" d="M402.7,266.4c-4-1.3-7.6-3.3-11.2-5l11.2-6.6V266.4z"/>
<path class="st9" d="M447.6,278.3c-13.9-1.7-27.1-5-39.6-9.6v-13.5L447.6,278.3z"/>
<path class="st5" d="M460.2,279.6c-0.3,0-0.7,0-1,0L410,250.6l25.4-14.9l24.8-14.9V279.6z"/>
<polygon class="st9" points="517.3,280 474.7,280 517.3,254.9 "/>
<polygon class="st8" points="565.2,280 522.6,280 522.6,255.2 "/>
<polygon class="st3" points="575.1,280 574.8,280 524.9,250.6 550,235.7 575.1,220.9 "/>
<polygon class="st3" points="632.2,280 589.3,280 632.2,254.9 "/>
<polygon class="st5" points="680.1,280 637.5,280 637.5,255.2 "/>
<polygon class="st8" points="689.7,280 689.7,280 639.8,250.6 664.9,235.7 689.7,220.9 "/>
<polygon class="st8" points="747.1,280 704.2,280 747.1,254.9 "/>
<path class="st8" d="M766,280h-13.5v-24.1C756.7,263.5,761.3,271.4,766,280z"/>
<path class="st8" d="M694,182.6h5.6c0,0,5.6,5.6,14.9,17.5L694,212v-29.1V182.6L694,182.6z"/>
<polygon class="st3" points="639.2,182.6 688.7,182.6 688.7,182.9 688.7,212.3 638.8,182.9 "/>
<polygon class="st8" points="579.4,182.6 628.6,182.6 628.9,182.9 579.4,212 579.4,182.9 "/>
<polygon class="st3" points="524.3,182.6 574.1,182.6 574.1,182.9 574.1,212.3 523.9,182.9 "/>
<path class="st5" d="M464.5,182.2c2.6,0.3,5.3,0.3,7.9,0.3H514v0.3L464.5,212v-29.1L464.5,182.2L464.5,182.2z"/>
<path class="st3" d="M432.5,169c7.9,5.9,17.2,10.2,26.7,12.2v1.7v29.4L409,182.9L432.5,169L432.5,169z"/>
<path class="st9" d="M407,135c4,10.2,9.9,19.5,17.5,27.1c1.3,1.3,2.3,2.3,4,3.6L407,178.3V135L407,135z"/>
<path class="st5" d="M401.4,51.8v53.8c0,1.3,0,2.6,0,4l-48.9-28.7L401.4,51.8z"/>
<polygon class="st3" points="401.4,-16.2 401.4,42.6 377,28 351.9,12.8 "/>
<polygon class="st8" points="401.4,-83.9 401.4,-25.5 351.9,-54.5 377,-69.4 "/>
<polygon class="st3" points="401.4,-151.6 401.4,-94.1 352.5,-122.9 "/>
<polygon class="st8" points="401.4,-220 401.4,-161.2 377,-175.7 351.9,-190.6 "/>
<polygon class="st1" points="459.2,-223.6 410.7,-223.6 409,-224.6 459.2,-254 459.2,-224.2 "/>
<polygon class="st8" points="512.7,-223.6 464.5,-223.6 464.5,-224.2 464.5,-253.6 514,-224.6 "/>
<polygon class="st8" points="574.1,-223.6 525.6,-223.6 523.9,-224.6 574.1,-254 574.1,-224.2 "/>
<polygon class="st7" points="627.6,-223.6 579.4,-223.6 579.4,-224.2 579.4,-253.6 628.9,-224.6 "/>
<polygon class="st8" points="688.7,-223.6 640.2,-223.6 638.8,-224.6 688.7,-254 688.7,-224.2 "/>
<polygon class="st8" points="742.2,-223.6 694,-223.6 694,-224.2 694,-253.6 743.8,-224.6 "/>
<path class="st9" d="M803.6-216c-9.2-5-19.5-7.6-30.4-7.6h-18.2l-1.7-1l50.2-29.4v29.7C803.6-224.2,803.6-216,803.6-216z"/>
<path class="st8" d="M821.4-202.5l-0.3-0.7c-3.6-3.6-7.9-6.9-12.2-9.9v-11.2v-29.4l49.9,29.1C858.8-224.6,821.4-202.5,821.4-202.5z"
	/>
<path class="st0" d="M839.6-173.7c-3.3-9.2-8.3-17.8-14.5-25.1l36-21.5v59.4L839.6-173.7L839.6-173.7z"/>
<path class="st8" d="M844.2-147.6c0-6.9-1-13.5-2.6-19.5l17.8,10.6L844.2-147.6L844.2-147.6z"/>
<polygon class="st8" points="844.2,-103.7 844.2,-142 861.7,-152.3 861.7,-122.9 861.7,-93.5 "/>
<polygon class="st8" points="844.2,-79.9 844.2,-98.1 859.4,-88.9 "/>
<polygon class="st1" points="844.2,-35 844.2,-74 861.1,-84.2 861.1,-25.1 "/>
<polygon class="st8" points="844.2,-12.3 844.2,-29.4 858.8,-20.8 "/>
<polygon class="st12" points="844.2,32.7 844.2,-6.6 861.1,-16.5 861.1,42.6 "/>
<polygon class="st8" points="844.2,56.1 844.2,37.9 859.4,46.9 "/>
<path class="st8" d="M861.7,87.1c-5.6-8.6-11.6-16.8-17.5-25.1v-0.3l17.5-10.6v29.7V87.1L861.7,87.1z"/>
<path class="st7" d="M873.9,106c-2.3-3.6-4.6-7.3-6.9-10.6V80.9V51.5l49.9,29.4L873.9,106L873.9,106z"/>
<path class="st0" d="M884.8,123.8c-2.6-4.6-5.6-8.9-8.3-13.5l42.9-25.4v59.4l-25.1-14.9L884.8,123.8L884.8,123.8z"/>
<path class="st8" d="M903.7,156.2c-4.3-7.3-8.6-14.9-12.9-22.1h0.3l24.8,14.9L903.7,156.2z"/>
<path class="st8" d="M918.5,181.6c-4.3-6.9-8.3-14.2-12.2-21.1l12.2-7.3V181.6L918.5,181.6z"/>
<path class="st7" d="M953.5,200.1v33l-0.3-0.3c-5.9-7.3-11.2-14.9-16.5-22.5L953.5,200.1L953.5,200.1z"/>
<path class="st0" d="M953.5,171v23.4L933.7,206c-3.3-5.3-6.6-10.6-9.9-15.8v-7.3v-29.4L953.5,171z"/>
<polygon class="st8" points="953.5,132.7 953.5,165.4 926.1,149.2 951.2,134 "/>
<polygon class="st8" points="953.5,102.3 953.5,127.1 949.2,129.4 924.5,144.3 924.5,85.2 "/>
<polygon class="st3" points="953.5,64.7 953.5,96.7 926.4,80.9 "/>
<polygon class="st9" points="953.5,34.6 953.5,59.1 924.5,76.2 924.5,17.5 949.2,32 "/>
<polygon class="st8" points="953.5,-3.3 953.5,29.4 951.2,28 925.8,12.8 "/>
<polygon class="st8" points="953.5,-32.4 953.5,-9.3 923.8,8.5 923.8,-20.8 923.8,-50.2 "/>
<polygon class="st8" points="953.5,-71 953.5,-38.3 926.1,-54.5 951.2,-69.4 "/>
<polygon class="st8" points="953.5,-101.1 953.5,-76.6 949.2,-74 924.5,-59.1 924.5,-118.3 "/>
<polygon class="st8" points="953.5,-138.7 953.5,-107 926.4,-122.9 "/>
<path class="st8" d="M952.2-169.8c1,7.6,1.3,15.2,1.3,23.1v2l-29.1,17.5v-59.1l24.8,14.9L952.2-169.8L952.2-169.8z"/>
<path class="st8" d="M944.3-201.5c3,8.3,5.3,16.8,6.9,25.8l0,0l-25.4-14.9L944.3-201.5L944.3-201.5z"/>
<path class="st8" d="M923.8-242.7c7.6,11.2,13.9,23.4,18.8,36.3l-18.8,11.2v-29.1V-242.7z"/>
<path class="st5" d="M916.2-252.6c0.7,1,1.7,1.7,2.3,2.6v25.8v29.4l-50.2-29.7C868.3-224.6,916.2-252.6,916.2-252.6z"/>
<path class="st0" d="M906.6-263.9c2.3,2.3,4.3,5,6.6,7.3L866-228.9v-58.8l25.1,14.5L906.6-263.9z"/>
<path class="st8" d="M870.6-293.3c5,3,9.9,6.6,14.9,10.2l-16.2-9.6L870.6-293.3L870.6-293.3z"/>
<path class="st8" d="M846.5-306.1c5.3,2.3,10.2,5,15.2,7.6v1.7C861.7-296.9,846.5-306.1,846.5-306.1z"/>
<path class="st8" d="M809.6-317.4c4.3,0.7,8.6,1.7,12.9,3l37,21.8l-25.1,14.9l-24.8,14.9C809.6-262.9,809.6-317.4,809.6-317.4z"/>
<path class="st8" d="M799.3-319c2,0,3.6,0.3,5.3,0.7v55.5l-24.8-14.9l-25.4-14.9C754.4-292.6,799.3-319,799.3-319z"/>
<path class="st8" d="M752.4-321h20.8c6.3,0,12.2,0.3,18.2,1l-39,22.8C752.4-297.2,752.4-321,752.4-321z"/>
<polygon class="st8" points="706.2,-321 747.1,-321 747.1,-296.9 "/>
<polygon class="st9" points="694.6,-321 696.3,-321 744.8,-292.6 719.7,-277.7 694.6,-262.9 "/>
<polygon class="st8" points="687.7,-321 689.7,-321 689.7,-262.9 664.9,-277.7 639.5,-292.6 "/>
<polygon class="st8" points="637.5,-321 678.1,-321 637.5,-297.2 "/>
<polygon class="st8" points="591.3,-321 632.2,-321 632.2,-296.9 "/>
<polygon class="st8" points="580.1,-321 581.7,-321 629.9,-292.6 604.8,-277.7 580.1,-262.9 "/>
<polygon class="st8" points="572.8,-321 575.1,-321 575.1,-262.9 550,-277.7 524.9,-292.6 "/>
<polygon class="st1" points="522.6,-321 563.2,-321 522.6,-297.2 "/>
<polygon class="st8" points="476.7,-321 517.3,-321 517.3,-296.9 "/>
<polygon class="st1" points="465.1,-321 466.8,-321 515,-292.6 489.9,-277.7 465.1,-262.9 "/>
<polygon class="st5" points="458.2,-321 460.2,-321 460.2,-262.9 435.4,-277.7 410,-292.6 "/>
<polygon class="st3" points="408,-321 448.3,-321 408,-297.2 "/>
<polygon class="st8" points="361.8,-321 402.7,-321 402.7,-296.9 "/>
<polygon class="st7" points="350.2,-321 351.9,-321 400.4,-292.6 375.3,-277.7 350.2,-262.9 "/>
</svg>
