<?xml version="1.0" encoding="UTF-8"?>
<!DOCTYPE svg PUBLIC "-//W3C//DTD SVG 1.1//EN" "http://www.w3.org/Graphics/SVG/1.1/DTD/svg11.dtd">
<!-- Creator: CorelDRAW 2018 (64-Bit) -->
<svg xmlns="http://www.w3.org/2000/svg" xml:space="preserve" width="54px" height="54px" version="1.1" style="shape-rendering:geometricPrecision; text-rendering:geometricPrecision; image-rendering:optimizeQuality; fill-rule:evenodd; clip-rule:evenodd"
viewBox="0 0 54 54"
 xmlns:xlink="http://www.w3.org/1999/xlink">
 <defs>
  <style type="text/css">
    .fil0 {fill:none}
    .fil7 {fill:url(#id0);fill-rule:nonzero}
    .fil10 {fill:url(#id1);fill-rule:nonzero}
    .fil9 {fill:url(#id2);fill-rule:nonzero}
    .fil8 {fill:url(#id3);fill-rule:nonzero}
    .fil1 {fill:url(#id4);fill-rule:nonzero}
    .fil3 {fill:url(#id5);fill-rule:nonzero}
    .fil6 {fill:url(#id6);fill-rule:nonzero}
    .fil5 {fill:url(#id7);fill-rule:nonzero}
    .fil2 {fill:url(#id8);fill-rule:nonzero}
    .fil4 {fill:url(#id9);fill-rule:nonzero}
  </style>
  <linearGradient id="id0" gradientUnits="userSpaceOnUse" x1="29.84" y1="55.42" x2="29.85" y2="0">
   <stop offset="0" style="stop-opacity:1; stop-color:#207B1E"/>
   <stop offset="0.478431" style="stop-opacity:1; stop-color:#3E983B"/>
   <stop offset="1" style="stop-opacity:1; stop-color:#73AB35"/>
  </linearGradient>
  <linearGradient id="id1" gradientUnits="userSpaceOnUse" xlink:href="#id0" x1="29.84" y1="55.42" x2="29.85" y2="0">
  </linearGradient>
  <linearGradient id="id2" gradientUnits="userSpaceOnUse" xlink:href="#id0" x1="29.84" y1="55.42" x2="29.85" y2="0.01">
  </linearGradient>
  <linearGradient id="id3" gradientUnits="userSpaceOnUse" xlink:href="#id0" x1="29.84" y1="55.42" x2="29.85" y2="0.01">
  </linearGradient>
  <linearGradient id="id4" gradientUnits="userSpaceOnUse" xlink:href="#id0" x1="29.84" y1="55.42" x2="29.85" y2="0">
  </linearGradient>
  <linearGradient id="id5" gradientUnits="userSpaceOnUse" xlink:href="#id0" x1="29.84" y1="55.42" x2="29.85" y2="0">
  </linearGradient>
  <linearGradient id="id6" gradientUnits="userSpaceOnUse" xlink:href="#id0" x1="29.84" y1="55.43" x2="29.85" y2="0">
  </linearGradient>
  <linearGradient id="id7" gradientUnits="userSpaceOnUse" xlink:href="#id0" x1="29.84" y1="55.43" x2="29.85" y2="0">
  </linearGradient>
  <linearGradient id="id8" gradientUnits="userSpaceOnUse" xlink:href="#id0" x1="29.84" y1="55.42" x2="29.85" y2="0">
  </linearGradient>
  <linearGradient id="id9" gradientUnits="userSpaceOnUse" xlink:href="#id0" x1="29.84" y1="55.42" x2="29.85" y2="0">
  </linearGradient>
 </defs>
 <g id="Layer_x0020_1">
  <metadata id="CorelCorpID_0Corel-Layer"/>
  <rect class="fil0" width="54" height="54"/>
  <g id="_2007221967520">
   <path class="fil1" d="M12.05 0l29.9 0c1.19,0 2.28,0.49 3.06,1.27 0.78,0.79 1.27,1.87 1.27,3.06l0 39.26 -11.37 10.41 -22.86 0c-1.19,0 -2.28,-0.49 -3.06,-1.27 -0.78,-0.78 -1.27,-1.87 -1.27,-3.05l0 -45.35c0,-1.19 0.49,-2.27 1.27,-3.06 0.78,-0.78 1.87,-1.27 3.06,-1.27zm29.9 2.84l-29.9 0c-0.41,0 -0.78,0.17 -1.05,0.44 -0.27,0.26 -0.44,0.64 -0.44,1.05l0 45.35c0,0.41 0.17,0.78 0.43,1.04 0.28,0.27 0.65,0.44 1.06,0.44l21.78 0 9.61 -8.8 0 -38.03c0,-0.41 -0.17,-0.79 -0.44,-1.05 -0.27,-0.27 -0.64,-0.44 -1.05,-0.44z"/>
   <path class="fil2" d="M19.16 12.51l7.89 -4 8.61 4.41 0 11.94 -8.68 4.19 -8.61 -4.19 0 -11.95 0.79 -0.4zm7.89 -0.82l-5.84 2.96 0 8.44 5.78 2.81 5.83 -2.81 0 -8.45 -5.77 -2.95z"/>
   <polygon class="fil3" points="34.89,15.36 27.02,19.48 19.14,15.36 20.45,12.86 27.02,16.29 33.58,12.86 "/>
   <polygon class="fil4" points="25.12,23.69 25.12,17.89 28.91,17.89 28.91,23.69 "/>
   <polygon class="fil5" points="21.92,5.85 32.54,5.85 32.54,8.69 21.92,8.69 "/>
   <polygon class="fil6" points="16.11,29.08 38.34,29.07 38.34,31.9 16.11,31.91 "/>
   <polygon class="fil7" points="16.11,33.61 38.34,33.6 38.34,36.43 16.11,36.44 "/>
   <polygon class="fil8" points="16.11,38.14 38.34,38.13 38.34,40.96 16.11,40.97 "/>
   <polygon class="fil9" points="16.11,42.48 30.42,42.47 30.42,45.3 16.11,45.31 "/>
   <path class="fil10" d="M32.96 52.57l0 -7.07c0,-1.17 0.48,-2.24 1.25,-3.01 0.77,-0.77 1.83,-1.24 3,-1.24l3.53 0 0 2.84 -3.53 0c-0.38,0 -0.74,0.16 -1,0.42 -0.25,0.25 -0.41,0.6 -0.41,0.99l0 7.07 -2.84 0z"/>
  </g>
 </g>
</svg>
