<?xml version="1.0" encoding="UTF-8"?>
<!DOCTYPE svg PUBLIC "-//W3C//DTD SVG 1.1//EN" "http://www.w3.org/Graphics/SVG/1.1/DTD/svg11.dtd">
<!-- Creator: CorelDRAW 2018 (64-Bit) -->
<svg xmlns="http://www.w3.org/2000/svg" xml:space="preserve" width="54px" height="54px" version="1.1" style="shape-rendering:geometricPrecision; text-rendering:geometricPrecision; image-rendering:optimizeQuality; fill-rule:evenodd; clip-rule:evenodd"
viewBox="0 0 54 54"
 xmlns:xlink="http://www.w3.org/1999/xlink">
 <defs>
  <style type="text/css">
    .fil0 {fill:none}
    .fil3 {fill:url(#id0);fill-rule:nonzero}
    .fil1 {fill:url(#id1);fill-rule:nonzero}
    .fil6 {fill:url(#id2);fill-rule:nonzero}
    .fil8 {fill:url(#id3);fill-rule:nonzero}
    .fil5 {fill:url(#id4);fill-rule:nonzero}
    .fil2 {fill:url(#id5);fill-rule:nonzero}
    .fil4 {fill:url(#id6);fill-rule:nonzero}
    .fil7 {fill:url(#id7);fill-rule:nonzero}
    .fil9 {fill:url(#id8);fill-rule:nonzero}
  </style>
  <linearGradient id="id0" gradientUnits="userSpaceOnUse" x1="25.96" y1="50.66" x2="26.06" y2="-4.69">
   <stop offset="0" style="stop-opacity:1; stop-color:#207B1E"/>
   <stop offset="0.478431" style="stop-opacity:1; stop-color:#3E983B"/>
   <stop offset="1" style="stop-opacity:1; stop-color:#73AB35"/>
  </linearGradient>
  <linearGradient id="id1" gradientUnits="userSpaceOnUse" xlink:href="#id0" x1="25.96" y1="50.66" x2="26.06" y2="-4.69">
  </linearGradient>
  <linearGradient id="id2" gradientUnits="userSpaceOnUse" xlink:href="#id0" x1="25.96" y1="50.65" x2="26.06" y2="-4.69">
  </linearGradient>
  <linearGradient id="id3" gradientUnits="userSpaceOnUse" xlink:href="#id0" x1="25.95" y1="50.65" x2="26.06" y2="-4.69">
  </linearGradient>
  <linearGradient id="id4" gradientUnits="userSpaceOnUse" xlink:href="#id0" x1="25.96" y1="50.66" x2="26.06" y2="-4.69">
  </linearGradient>
  <linearGradient id="id5" gradientUnits="userSpaceOnUse" xlink:href="#id0" x1="25.96" y1="50.66" x2="26.06" y2="-4.69">
  </linearGradient>
  <linearGradient id="id6" gradientUnits="userSpaceOnUse" xlink:href="#id0" x1="25.96" y1="50.67" x2="26.06" y2="-4.69">
  </linearGradient>
  <linearGradient id="id7" gradientUnits="userSpaceOnUse" xlink:href="#id0" x1="25.96" y1="50.65" x2="26.06" y2="-4.69">
  </linearGradient>
  <linearGradient id="id8" gradientUnits="userSpaceOnUse" xlink:href="#id0" x1="25.96" y1="50.65" x2="26.06" y2="-4.69">
  </linearGradient>
 </defs>
 <g id="Layer_x0020_1">
  <metadata id="CorelCorpID_0Corel-Layer"/>
  <g id="_2007226082896">
   <rect class="fil0" width="54" height="54"/>
   <g>
    <path class="fil1" d="M27.02 2.05c4.5,0 8.6,1.85 11.57,4.82 2.98,2.97 4.82,7.07 4.82,11.58l0 20.6c0,1.16 -0.47,2.21 -1.24,2.98 -0.76,0.76 -1.81,1.24 -2.97,1.24l-0.93 0 0 5.45c0,1.45 -0.59,2.77 -1.55,3.73 -0.95,0.96 -2.28,1.55 -3.73,1.55 -1.45,0 -2.78,-0.59 -3.74,-1.55 -0.95,-0.96 -1.55,-2.28 -1.55,-3.73l0 -5.45 -1.37 0 0 5.45c0,1.45 -0.6,2.77 -1.55,3.73 -0.96,0.96 -2.28,1.55 -3.74,1.55 -1.45,0 -2.78,-0.59 -3.73,-1.55 -0.96,-0.96 -1.55,-2.28 -1.55,-3.73l0 -5.45 -0.93 0c-1.16,0 -2.21,-0.48 -2.98,-1.24 -0.76,-0.77 -1.23,-1.82 -1.23,-2.98l0 -20.6c0,-4.5 1.84,-8.6 4.81,-11.58 2.98,-2.98 7.08,-4.82 11.59,-4.82zm8.91 7.49c-2.29,-2.28 -5.44,-3.7 -8.91,-3.7 -3.48,0 -6.63,1.41 -8.91,3.7 -2.29,2.28 -3.71,5.44 -3.71,8.91l0 20.6c0,0.12 0.05,0.23 0.12,0.3 0.09,0.08 0.2,0.13 0.31,0.13l4.71 0 0 9.24c0,0.41 0.17,0.78 0.44,1.05 0.28,0.27 0.65,0.44 1.06,0.44 0.41,0 0.79,-0.17 1.06,-0.44 0.27,-0.27 0.44,-0.64 0.44,-1.05l0 -9.24 8.95 0 0 9.24c0,0.41 0.17,0.78 0.44,1.05 0.27,0.27 0.65,0.44 1.06,0.44 0.41,0 0.78,-0.17 1.06,-0.44 0.27,-0.27 0.44,-0.64 0.44,-1.05l0 -9.24 4.71 0c0.11,0 0.22,-0.05 0.3,-0.13 0.08,-0.07 0.13,-0.18 0.13,-0.3l0 -20.6c0,-3.47 -1.42,-6.63 -3.7,-8.91z"/>
    <path class="fil2" d="M9.11 15.58c1.45,0 2.78,0.59 3.73,1.55 0.96,0.95 1.56,2.27 1.56,3.73l0 12.92c0,1.46 -0.6,2.78 -1.56,3.74 -0.95,0.95 -2.28,1.55 -3.73,1.55 -1.46,0 -2.78,-0.6 -3.73,-1.55 -0.96,-0.96 -1.55,-2.28 -1.55,-3.74l0 -12.92c0,-1.46 0.59,-2.78 1.55,-3.73 0.95,-0.96 2.27,-1.55 3.73,-1.55zm1.06 4.22c-0.27,-0.27 -0.65,-0.44 -1.06,-0.44 -0.41,0 -0.79,0.17 -1.06,0.44 -0.27,0.27 -0.44,0.65 -0.44,1.06l0 12.92c0,0.41 0.17,0.79 0.44,1.06 0.27,0.27 0.65,0.44 1.06,0.44 0.41,0 0.79,-0.17 1.06,-0.44 0.27,-0.27 0.44,-0.65 0.44,-1.06l0 -12.92c0,-0.41 -0.17,-0.79 -0.44,-1.06z"/>
    <path class="fil3" d="M44.89 15.58c1.46,0 2.78,0.59 3.73,1.55 0.96,0.95 1.56,2.27 1.56,3.73l0 12.92c0,1.46 -0.6,2.78 -1.56,3.74 -0.95,0.95 -2.27,1.55 -3.73,1.55 -1.45,0 -2.78,-0.6 -3.73,-1.55 -0.96,-0.96 -1.55,-2.28 -1.55,-3.74l0 -12.92c0,-1.46 0.59,-2.78 1.55,-3.73 0.95,-0.96 2.28,-1.55 3.73,-1.55zm1.06 4.22c-0.27,-0.27 -0.65,-0.44 -1.06,-0.44 -0.41,0 -0.79,0.17 -1.06,0.44 -0.27,0.27 -0.44,0.65 -0.44,1.06l0 12.92c0,0.41 0.17,0.79 0.44,1.06 0.27,0.27 0.65,0.44 1.06,0.44 0.41,0 0.79,-0.17 1.06,-0.44 0.27,-0.27 0.44,-0.65 0.44,-1.06l0 -12.92c0,-0.41 -0.17,-0.79 -0.44,-1.06z"/>
    <rect class="fil4" x="13" y="16.65" width="28.52" height="2.11"/>
    <path class="fil5" d="M13 15.7l29.47 0 0 4.01 -30.42 0 0 -4.01 0.95 0zm27.57 1.9l-26.63 0 0 0.22 26.63 0 0 -0.22z"/>
    <rect class="fil6" x="19.94" y="10.68" width="2.26" height="2.26"/>
    <rect class="fil7" x="31.56" y="10.68" width="2.26" height="2.26"/>
    <polygon class="fil8" points="38.02,1.98 35.22,6.53 32.01,4.55 34.81,0 "/>
    <polygon class="fil9" points="18.64,0 21.44,4.55 18.23,6.53 15.43,1.98 "/>
   </g>
  </g>
 </g>
</svg>
