<?xml version="1.0" encoding="UTF-8"?>
<!DOCTYPE svg PUBLIC "-//W3C//DTD SVG 1.1//EN" "http://www.w3.org/Graphics/SVG/1.1/DTD/svg11.dtd">
<!-- Creator: CorelDRAW 2018 (64-Bit) -->
<svg xmlns="http://www.w3.org/2000/svg" xml:space="preserve" width="54px" height="54px" version="1.1" style="shape-rendering:geometricPrecision; text-rendering:geometricPrecision; image-rendering:optimizeQuality; fill-rule:evenodd; clip-rule:evenodd"
viewBox="0 0 54 54"
 xmlns:xlink="http://www.w3.org/1999/xlink">
 <defs>
  <style type="text/css">
    .fil0 {fill:none}
    .fil9 {fill:url(#id0);fill-rule:nonzero}
    .fil3 {fill:url(#id1);fill-rule:nonzero}
    .fil2 {fill:url(#id2);fill-rule:nonzero}
    .fil6 {fill:url(#id3);fill-rule:nonzero}
    .fil5 {fill:url(#id4);fill-rule:nonzero}
    .fil1 {fill:url(#id5);fill-rule:nonzero}
    .fil10 {fill:url(#id6);fill-rule:nonzero}
    .fil8 {fill:url(#id7);fill-rule:nonzero}
    .fil7 {fill:url(#id8);fill-rule:nonzero}
    .fil4 {fill:url(#id9);fill-rule:nonzero}
  </style>
  <linearGradient id="id0" gradientUnits="userSpaceOnUse" x1="26.7" y1="53.98" x2="26.7" y2="-6.25">
   <stop offset="0" style="stop-opacity:1; stop-color:#207B1E"/>
   <stop offset="0.439216" style="stop-opacity:1; stop-color:#3E983B"/>
   <stop offset="1" style="stop-opacity:1; stop-color:#73AB35"/>
  </linearGradient>
  <linearGradient id="id1" gradientUnits="userSpaceOnUse" xlink:href="#id0" x1="26.7" y1="54" x2="26.7" y2="-6.25">
  </linearGradient>
  <linearGradient id="id2" gradientUnits="userSpaceOnUse" xlink:href="#id0" x1="26.7" y1="53.99" x2="26.7" y2="-6.25">
  </linearGradient>
  <linearGradient id="id3" gradientUnits="userSpaceOnUse" xlink:href="#id0" x1="26.7" y1="54" x2="26.7" y2="-6.25">
  </linearGradient>
  <linearGradient id="id4" gradientUnits="userSpaceOnUse" xlink:href="#id0" x1="26.7" y1="54" x2="26.7" y2="-6.26">
  </linearGradient>
  <linearGradient id="id5" gradientUnits="userSpaceOnUse" xlink:href="#id0" x1="26.7" y1="54" x2="26.7" y2="-6.25">
  </linearGradient>
  <linearGradient id="id6" gradientUnits="userSpaceOnUse" xlink:href="#id0" x1="26.7" y1="54" x2="26.7" y2="-6.24">
  </linearGradient>
  <linearGradient id="id7" gradientUnits="userSpaceOnUse" xlink:href="#id0" x1="26.7" y1="54" x2="26.7" y2="-6.25">
  </linearGradient>
  <linearGradient id="id8" gradientUnits="userSpaceOnUse" xlink:href="#id0" x1="26.7" y1="54" x2="26.7" y2="-6.25">
  </linearGradient>
  <linearGradient id="id9" gradientUnits="userSpaceOnUse" xlink:href="#id0" x1="26.7" y1="54" x2="26.7" y2="-6.26">
  </linearGradient>
 </defs>
 <g id="Layer_x0020_1">
  <metadata id="CorelCorpID_0Corel-Layer"/>
  <rect class="fil0" width="54" height="54"/>
  <g id="_2007355190464">
   <path class="fil1" d="M34.5 44.45c0,-1.02 0.83,-1.85 1.85,-1.85 1.02,0 1.84,0.83 1.84,1.85l0 6.1c0,0.95 -0.39,1.81 -1.01,2.44 -0.62,0.62 -1.49,1.01 -2.44,1.01l-24.44 0c-0.95,0 -1.81,-0.39 -2.44,-1.01 -0.63,-0.63 -1.02,-1.49 -1.02,-2.44l0 -6.99c0,-0.3 0.07,-0.58 0.2,-0.83l3.3 0c0.12,0.25 0.19,0.53 0.19,0.83l0 6.75 23.97 0 0 -5.86zm-23.97 -7.56c0,1.02 -0.82,1.84 -1.84,1.84 -1.02,0 -1.85,-0.82 -1.85,-1.84l0 -33.44c0,-0.94 0.39,-1.8 1.02,-2.43 0.62,-0.63 1.48,-1.02 2.44,-1.02l24.44 0c0.95,0 1.82,0.39 2.44,1.01l0.14 0.16c0.54,0.61 0.87,1.41 0.87,2.28l0 13.14c0,1.01 -0.82,1.84 -1.84,1.84 -1.02,0 -1.85,-0.83 -1.85,-1.84l0 -12.9 -23.97 0 0 33.2z"/>
   <polygon class="fil2" points="8.69,6.84 36.35,6.84 36.35,9.61 8.69,9.61 "/>
   <polygon class="fil3" points="8.69,42.73 36.35,42.73 36.35,45.5 8.69,45.5 "/>
   <path class="fil4" d="M17.8 19.8c0.55,0.54 0.56,1.41 0.03,1.96 -0.53,0.54 -1.41,0.55 -1.95,0.02l-3.49 -3.37c-0.54,-0.53 -0.56,-1.41 -0.03,-1.95 1.15,-1.15 2.35,-2.27 3.52,-3.4 0.54,-0.53 1.42,-0.52 1.95,0.02 0.53,0.55 0.52,1.42 -0.03,1.95l-2.46 2.39 2.46 2.38z"/>
   <path class="fil5" d="M29.4 21.78c-0.55,0.53 -1.43,0.52 -1.96,-0.02 -0.53,-0.55 -0.52,-1.42 0.03,-1.96l2.47 -2.38 -2.47 -2.39c-0.55,-0.53 -0.56,-1.4 -0.03,-1.95 0.53,-0.54 1.41,-0.55 1.96,-0.02 1.16,1.13 2.36,2.25 3.51,3.4 0.53,0.54 0.52,1.42 -0.03,1.95l-3.48 3.37z"/>
   <path class="fil6" d="M23.16 11.05c0.28,-0.71 1.08,-1.06 1.79,-0.78 0.71,0.28 1.06,1.09 0.78,1.8l-4.82 12.21c-0.28,0.71 -1.09,1.06 -1.8,0.78 -0.7,-0.29 -1.05,-1.09 -0.77,-1.8l4.82 -12.21z"/>
   <path class="fil7" d="M36.67 26.58c1.12,0 2.14,0.46 2.88,1.19 0.74,0.74 1.2,1.76 1.2,2.89 0,1.13 -0.46,2.15 -1.19,2.89 -0.75,0.74 -1.77,1.2 -2.89,1.2 -1.13,0 -2.15,-0.46 -2.89,-1.2 -0.74,-0.74 -1.2,-1.76 -1.2,-2.89 0,-1.13 0.46,-2.15 1.2,-2.89 0.74,-0.73 1.76,-1.19 2.89,-1.19zm1.26 2.82c-0.32,-0.32 -0.77,-0.52 -1.26,-0.52 -0.5,0 -0.94,0.2 -1.27,0.52 -0.32,0.32 -0.52,0.77 -0.52,1.26 0,0.5 0.2,0.95 0.52,1.27 0.33,0.32 0.77,0.52 1.27,0.52 0.49,0 0.94,-0.2 1.26,-0.52 0.32,-0.32 0.52,-0.77 0.52,-1.27 0,-0.49 -0.2,-0.94 -0.52,-1.26z"/>
   <path class="fil8" d="M39.48 23.08l0.74 0.32 0.73 -0.73c0.31,-0.32 0.73,-0.48 1.14,-0.48 0.42,0 0.83,0.16 1.15,0.48l1.69 1.69c0.31,0.31 0.47,0.73 0.47,1.14 0,0.42 -0.16,0.84 -0.47,1.15l-0.83 0.83 0.24 0.63 1.19 0c0.45,0 0.86,0.19 1.15,0.48 0.29,0.29 0.48,0.7 0.48,1.15l0 2.38c0,0.45 -0.19,0.86 -0.48,1.15 -0.29,0.29 -0.7,0.48 -1.15,0.48l-1.39 0 -0.21 0.46 1 1c0.31,0.31 0.47,0.73 0.47,1.14 0,0.42 -0.16,0.84 -0.47,1.15l-1.69 1.69c-0.32,0.32 -0.73,0.47 -1.15,0.47 -0.41,0 -0.83,-0.15 -1.14,-0.47l-1.1 -1.1 -0.37 0.15 0 1.56c0,0.44 -0.18,0.85 -0.47,1.14 -0.29,0.29 -0.7,0.48 -1.15,0.48l-2.39 0c-0.44,0 -0.85,-0.19 -1.14,-0.48 -0.3,-0.29 -0.48,-0.7 -0.48,-1.14l0 -1.56 -0.36 -0.15 -1.1 1.1c-0.32,0.32 -0.73,0.47 -1.15,0.47 -0.41,0 -0.83,-0.15 -1.15,-0.47l-1.68 -1.69c-0.32,-0.31 -0.48,-0.73 -0.48,-1.15 0,-0.41 0.16,-0.83 0.48,-1.14l0.99 -1 -0.21 -0.46 -1.39 0c-0.44,0 -0.85,-0.19 -1.15,-0.48 -0.29,-0.29 -0.47,-0.7 -0.47,-1.15l0 -2.38c0,-0.45 0.18,-0.86 0.47,-1.15 0.3,-0.29 0.7,-0.48 1.15,-0.48l1.19 0 0.24 -0.63 -0.82 -0.83c-0.32,-0.31 -0.48,-0.73 -0.48,-1.15 0,-0.41 0.16,-0.83 0.48,-1.14l1.68 -1.69c0.32,-0.32 0.74,-0.48 1.15,-0.48 0.42,0 0.83,0.16 1.15,0.48l0.72 0.73 0.36 -0.17 0.38 -0.15 0 -1.02c0,-0.45 0.18,-0.85 0.48,-1.15 0.29,-0.29 0.7,-0.47 1.14,-0.47l2.39 0c0.45,0 0.86,0.18 1.15,0.47 0.29,0.3 0.47,0.7 0.47,1.15l0 1.02zm-0.52 2.26c-0.28,-0.12 -0.58,-0.22 -0.9,-0.3l-0.87 -0.22 0 -2.08 -1.04 0 0 2.08 -0.88 0.22c-0.32,0.08 -0.62,0.18 -0.9,0.3 -0.29,0.13 -0.57,0.28 -0.83,0.45l-0.78 0.5 -1.52 -1.52 -0.73 0.73 1.54 1.55 -0.43 0.76c-0.14,0.25 -0.27,0.53 -0.38,0.82 -0.1,0.27 -0.19,0.56 -0.25,0.86l-0.19 0.92 -2.32 0 0 1.04 2.38 0 0.24 0.83c0.08,0.26 0.18,0.52 0.29,0.78 0.11,0.25 0.25,0.49 0.4,0.73l0.5 0.78 -1.78 1.78 0.73 0.74 1.82 -1.82 0.76 0.44c0.23,0.13 0.47,0.24 0.7,0.34 0.26,0.09 0.51,0.18 0.75,0.24l0.88 0.21 0 2.62 1.04 0 0 -2.62 0.87 -0.21c0.25,-0.06 0.5,-0.15 0.75,-0.25 0.24,-0.09 0.47,-0.2 0.71,-0.33l0.75 -0.44 1.82 1.82 0.74 -0.74 -1.79 -1.78 0.5 -0.78c0.16,-0.24 0.29,-0.48 0.4,-0.73 0.12,-0.26 0.22,-0.52 0.29,-0.78l0.24 -0.83 2.39 0 0 -1.04 -2.33 0 -0.19 -0.92c-0.06,-0.3 -0.14,-0.59 -0.24,-0.86 -0.12,-0.29 -0.25,-0.57 -0.39,-0.82l-0.43 -0.76 1.55 -1.55 -0.74 -0.73 -1.52 1.52 -0.77 -0.5c-0.26,-0.17 -0.55,-0.32 -0.84,-0.45z"/>
   <path class="fil9" d="M20.95 6.05c-0.57,0 -1.02,-0.34 -1.02,-0.76 0,-0.42 0.45,-0.76 1.02,-0.76l3.14 0c0.56,0 1.02,0.34 1.02,0.76 0,0.42 -0.46,0.76 -1.02,0.76l-3.14 0z"/>
   <path class="fil10" d="M19.69 48.87c-0.57,0 -1.02,-0.34 -1.02,-0.76 0,-0.41 0.45,-0.75 1.02,-0.75l5.66 0c0.56,0 1.02,0.34 1.02,0.75 0,0.42 -0.46,0.76 -1.02,0.76l-5.66 0z"/>
  </g>
 </g>
</svg>
