<?xml version="1.0" encoding="UTF-8"?>
<!DOCTYPE svg PUBLIC "-//W3C//DTD SVG 1.1//EN" "http://www.w3.org/Graphics/SVG/1.1/DTD/svg11.dtd">
<!-- Creator: CorelDRAW 2018 (64-Bit) -->
<svg xmlns="http://www.w3.org/2000/svg" xml:space="preserve" width="54px" height="54px" version="1.1" style="shape-rendering:geometricPrecision; text-rendering:geometricPrecision; image-rendering:optimizeQuality; fill-rule:evenodd; clip-rule:evenodd"
viewBox="0 0 54 54"
 xmlns:xlink="http://www.w3.org/1999/xlink">
 <defs>
  <style type="text/css">
    .fil0 {fill:none}
    .fil1 {fill:url(#id0);fill-rule:nonzero}
    .fil2 {fill:url(#id1);fill-rule:nonzero}
    .fil3 {fill:url(#id2);fill-rule:nonzero}
  </style>
  <linearGradient id="id0" gradientUnits="userSpaceOnUse" x1="27.93" y1="49.35" x2="27.94" y2="1.85">
   <stop offset="0" style="stop-opacity:1; stop-color:#207B1E"/>
   <stop offset="0.478431" style="stop-opacity:1; stop-color:#3E983B"/>
   <stop offset="1" style="stop-opacity:1; stop-color:#73AB35"/>
  </linearGradient>
  <linearGradient id="id1" gradientUnits="userSpaceOnUse" xlink:href="#id0" x1="27.93" y1="49.35" x2="27.94" y2="1.85">
  </linearGradient>
  <linearGradient id="id2" gradientUnits="userSpaceOnUse" xlink:href="#id0" x1="27.93" y1="49.35" x2="27.94" y2="1.85">
  </linearGradient>
 </defs>
 <g id="Layer_x0020_1">
  <metadata id="CorelCorpID_0Corel-Layer"/>
  <g id="_1971994065872">
   <rect class="fil0" width="54" height="54"/>
   <g>
    <path class="fil1" d="M20.42 1.57l6.65 4.44 6.76 -4.45c0.86,-0.56 2.01,-0.32 2.57,0.53 0.08,0.12 0.14,0.25 0.19,0.38l2.81 7.59 8.08 0.37c1.02,0.05 1.81,0.91 1.77,1.94 -0.01,0.14 -0.03,0.28 -0.07,0.42l-2.19 7.8 6.31 5.05c0.8,0.64 0.93,1.8 0.29,2.6 -0.09,0.11 -0.19,0.22 -0.3,0.3l-6.35 5.02 2.14 7.8c0.27,0.99 -0.31,2.01 -1.3,2.28 -0.14,0.04 -0.28,0.06 -0.41,0.06l-8.09 0.32 -2.85 7.58c-0.36,0.96 -1.44,1.44 -2.4,1.08 -0.16,-0.06 -0.32,-0.14 -0.45,-0.25l-6.65 -4.44 -6.76 4.45c-0.86,0.56 -2.01,0.32 -2.57,-0.53 -0.08,-0.12 -0.14,-0.25 -0.19,-0.38l-2.81 -7.59 -8.08 -0.37c-1.02,-0.05 -1.81,-0.91 -1.77,-1.94 0.01,-0.14 0.03,-0.28 0.07,-0.42l2.19 -7.8 -6.31 -5.05c-0.8,-0.64 -0.93,-1.8 -0.29,-2.6 0.09,-0.11 0.19,-0.22 0.3,-0.3l6.35 -5.02 -2.14 -7.8c-0.27,-0.99 0.31,-2.01 1.3,-2.28 0.14,-0.04 0.28,-0.06 0.41,-0.06l8.09 -0.32 2.85 -7.58c0.36,-0.96 1.44,-1.44 2.4,-1.08 0.16,0.06 0.32,0.14 0.45,0.25zm5.61 8.21l-5.8 -3.88 -2.47 6.54c-0.25,0.67 -0.9,1.17 -1.66,1.2l-6.99 0.27 1.82 6.61c0.26,0.73 0.04,1.58 -0.61,2.08l-5.48 4.33 5.34 4.27c0.64,0.43 0.97,1.25 0.75,2.04l-1.9 6.72 6.87 0.32c0.76,-0.01 1.49,0.46 1.77,1.22l2.41 6.55 5.77 -3.79c0.61,-0.44 1.46,-0.48 2.12,-0.04l5.8 3.88 2.47 -6.54c0.25,-0.67 0.9,-1.17 1.66,-1.2l6.99 -0.27 -1.82 -6.61c-0.26,-0.73 -0.04,-1.58 0.61,-2.08l5.48 -4.33 -5.34 -4.27c-0.64,-0.43 -0.97,-1.25 -0.75,-2.04l1.9 -6.72 -6.87 -0.32c-0.76,0.01 -1.49,-0.46 -1.77,-1.22l-2.41 -6.55 -5.77 3.79c-0.61,0.44 -1.46,0.48 -2.12,0.04z"/>
    <path class="fil2" d="M26.86 11.91c4.13,0 7.87,1.67 10.58,4.38 2.7,2.7 4.38,6.44 4.38,10.57 0,4.13 -1.68,7.87 -4.38,10.58 -2.71,2.7 -6.45,4.38 -10.58,4.38 -4.13,0 -7.87,-1.68 -10.57,-4.38 -2.71,-2.71 -4.38,-6.45 -4.38,-10.58 0,-4.13 1.67,-7.87 4.38,-10.57 2.7,-2.71 6.44,-4.38 10.57,-4.38zm7.94 7.01c-2.03,-2.03 -4.84,-3.29 -7.94,-3.29 -3.1,0 -5.91,1.26 -7.94,3.29 -2.03,2.03 -3.29,4.84 -3.29,7.94 0,3.1 1.26,5.91 3.29,7.94 2.03,2.03 4.84,3.29 7.94,3.29 3.1,0 5.91,-1.26 7.94,-3.29 2.03,-2.03 3.29,-4.84 3.29,-7.94 0,-3.1 -1.26,-5.91 -3.29,-7.94z"/>
    <path class="fil3" d="M19.49 27.58c-0.73,-0.73 -0.73,-1.91 0,-2.64 0.72,-0.72 1.9,-0.72 2.63,0l2.68 2.69 6.38 -6.38c0.73,-0.73 1.91,-0.73 2.63,0 0.73,0.73 0.73,1.91 0,2.63l-7.69 7.7c-0.73,0.73 -1.91,0.73 -2.63,0l-4 -4z"/>
   </g>
  </g>
 </g>
</svg>
