<?xml version="1.0" encoding="UTF-8"?>
<!DOCTYPE svg PUBLIC "-//W3C//DTD SVG 1.1//EN" "http://www.w3.org/Graphics/SVG/1.1/DTD/svg11.dtd">
<!-- Creator: CorelDRAW 2018 (64-Bit) -->
<svg xmlns="http://www.w3.org/2000/svg" xml:space="preserve" width="55px" height="54px" version="1.1" style="shape-rendering:geometricPrecision; text-rendering:geometricPrecision; image-rendering:optimizeQuality; fill-rule:evenodd; clip-rule:evenodd"
viewBox="0 0 55 53.72"
 xmlns:xlink="http://www.w3.org/1999/xlink">
 <defs>
  <style type="text/css">
    .fil0 {fill:none}
    .fil2 {fill:#262020}
    .fil1 {fill:url(#id0)}
    .fil22 {fill:url(#id1)}
    .fil18 {fill:url(#id2);fill-rule:nonzero}
    .fil15 {fill:url(#id3);fill-rule:nonzero}
    .fil11 {fill:url(#id4);fill-rule:nonzero}
    .fil6 {fill:url(#id5);fill-rule:nonzero}
    .fil14 {fill:url(#id6);fill-rule:nonzero}
    .fil21 {fill:url(#id7);fill-rule:nonzero}
    .fil3 {fill:url(#id8);fill-rule:nonzero}
    .fil13 {fill:url(#id9);fill-rule:nonzero}
    .fil4 {fill:url(#id10);fill-rule:nonzero}
    .fil5 {fill:url(#id11);fill-rule:nonzero}
    .fil12 {fill:url(#id12);fill-rule:nonzero}
    .fil9 {fill:url(#id13);fill-rule:nonzero}
    .fil8 {fill:url(#id14);fill-rule:nonzero}
    .fil7 {fill:url(#id15);fill-rule:nonzero}
    .fil20 {fill:url(#id16);fill-rule:nonzero}
    .fil19 {fill:url(#id17);fill-rule:nonzero}
    .fil17 {fill:url(#id18);fill-rule:nonzero}
    .fil16 {fill:url(#id19);fill-rule:nonzero}
    .fil10 {fill:url(#id20);fill-rule:nonzero}
  </style>
  <linearGradient id="id0" gradientUnits="userSpaceOnUse" x1="37" y1="40.62" x2="37.03" y2="-4.01">
   <stop offset="0" style="stop-opacity:1; stop-color:#207B1E"/>
   <stop offset="0.478431" style="stop-opacity:1; stop-color:#3E983B"/>
   <stop offset="1" style="stop-opacity:1; stop-color:#73AB35"/>
  </linearGradient>
  <linearGradient id="id1" gradientUnits="userSpaceOnUse" xlink:href="#id0" x1="28.28" y1="48.59" x2="28.28" y2="40.34">
  </linearGradient>
  <linearGradient id="id2" gradientUnits="userSpaceOnUse" xlink:href="#id0" x1="28.43" y1="52.8" x2="28.43" y2="-2.78">
  </linearGradient>
  <linearGradient id="id3" gradientUnits="userSpaceOnUse" xlink:href="#id0" x1="28.43" y1="52.8" x2="28.43" y2="-2.78">
  </linearGradient>
  <linearGradient id="id4" gradientUnits="userSpaceOnUse" xlink:href="#id0" x1="28.43" y1="52.8" x2="28.43" y2="-2.78">
  </linearGradient>
  <linearGradient id="id5" gradientUnits="userSpaceOnUse" xlink:href="#id0" x1="28.43" y1="52.8" x2="28.43" y2="-2.78">
  </linearGradient>
  <linearGradient id="id6" gradientUnits="userSpaceOnUse" xlink:href="#id0" x1="28.43" y1="52.8" x2="28.43" y2="-2.78">
  </linearGradient>
  <linearGradient id="id7" gradientUnits="userSpaceOnUse" xlink:href="#id0" x1="28.43" y1="52.8" x2="28.43" y2="-2.8">
  </linearGradient>
  <linearGradient id="id8" gradientUnits="userSpaceOnUse" xlink:href="#id0" x1="28.43" y1="52.8" x2="28.43" y2="-2.78">
  </linearGradient>
  <linearGradient id="id9" gradientUnits="userSpaceOnUse" xlink:href="#id0" x1="28.43" y1="52.8" x2="28.43" y2="-2.78">
  </linearGradient>
  <linearGradient id="id10" gradientUnits="userSpaceOnUse" xlink:href="#id0" x1="28.43" y1="52.79" x2="28.43" y2="-2.78">
  </linearGradient>
  <linearGradient id="id11" gradientUnits="userSpaceOnUse" xlink:href="#id0" x1="28.43" y1="52.8" x2="28.43" y2="-2.78">
  </linearGradient>
  <linearGradient id="id12" gradientUnits="userSpaceOnUse" xlink:href="#id0" x1="28.43" y1="52.8" x2="28.43" y2="-2.78">
  </linearGradient>
  <linearGradient id="id13" gradientUnits="userSpaceOnUse" xlink:href="#id0" x1="28.43" y1="52.8" x2="28.43" y2="-2.78">
  </linearGradient>
  <linearGradient id="id14" gradientUnits="userSpaceOnUse" xlink:href="#id0" x1="28.43" y1="52.8" x2="28.43" y2="-2.78">
  </linearGradient>
  <linearGradient id="id15" gradientUnits="userSpaceOnUse" xlink:href="#id0" x1="28.43" y1="52.8" x2="28.43" y2="-2.78">
  </linearGradient>
  <linearGradient id="id16" gradientUnits="userSpaceOnUse" xlink:href="#id0" x1="28.43" y1="52.8" x2="28.43" y2="-2.78">
  </linearGradient>
  <linearGradient id="id17" gradientUnits="userSpaceOnUse" xlink:href="#id0" x1="28.43" y1="52.8" x2="28.43" y2="-2.78">
  </linearGradient>
  <linearGradient id="id18" gradientUnits="userSpaceOnUse" xlink:href="#id0" x1="28.43" y1="52.8" x2="28.43" y2="-2.78">
  </linearGradient>
  <linearGradient id="id19" gradientUnits="userSpaceOnUse" xlink:href="#id0" x1="28.43" y1="52.79" x2="28.43" y2="-2.76">
  </linearGradient>
  <linearGradient id="id20" gradientUnits="userSpaceOnUse" xlink:href="#id0" x1="28.43" y1="52.8" x2="28.43" y2="-2.78">
  </linearGradient>
 </defs>
 <g id="Layer_x0020_1">
  <metadata id="CorelCorpID_0Corel-Layer"/>
  <rect class="fil0" x="0.64" width="53.72" height="53.72"/>
  <circle class="fil1" cx="36.79" cy="6.49" r="1.01"/>
  <circle class="fil2" cx="44.1" cy="32.69" r="0.5"/>
  <g id="_2007231788752">
   <path class="fil3" d="M7.41 9.28c-0.77,0 -1.39,-0.62 -1.39,-1.39 0,-0.77 0.62,-1.39 1.39,-1.39l23.25 0c0.77,0 1.39,0.62 1.39,1.39 0,0.77 -0.62,1.39 -1.39,1.39l-23.25 0z"/>
   <path class="fil4" d="M45.9 3.98c0.81,0 1.55,0.33 2.08,0.86 0.53,0.52 0.86,1.26 0.86,2.07 0,0.81 -0.33,1.54 -0.86,2.07 -0.54,0.53 -1.27,0.86 -2.08,0.86 -0.8,0 -1.54,-0.33 -2.07,-0.86 -0.53,-0.53 -0.86,-1.26 -0.86,-2.07 0,-0.81 0.33,-1.54 0.86,-2.07 0.54,-0.53 1.27,-0.86 2.07,-0.86zm0.77 2.17c-0.2,-0.2 -0.47,-0.32 -0.77,-0.32 -0.3,0 -0.57,0.12 -0.76,0.31 -0.2,0.2 -0.31,0.47 -0.31,0.77 0,0.3 0.12,0.57 0.31,0.76 0.19,0.2 0.46,0.32 0.76,0.32 0.3,0 0.57,-0.12 0.77,-0.31 0.19,-0.2 0.31,-0.47 0.31,-0.77 0,-0.3 -0.12,-0.57 -0.31,-0.76z"/>
   <path class="fil5" d="M46.55 8.98c-0.37,-0.36 -0.37,-0.95 0,-1.31 0.36,-0.36 0.94,-0.36 1.31,0l1.36 1.37c0.36,0.36 0.36,0.95 0,1.31 -0.36,0.36 -0.95,0.36 -1.31,0l-1.36 -1.37z"/>
   <path class="fil6" d="M38.84 15.8l14.31 0c1.02,0 1.85,0.83 1.85,1.86l0 18.52c0,1.02 -0.83,1.85 -1.85,1.85l-14.31 0c-1.02,0 -1.85,-0.83 -1.85,-1.85l0 -18.52c0,-1.03 0.83,-1.86 1.85,-1.86zm12.46 3.71l-10.61 0 0 14.82 10.61 0 0 -14.82z"/>
   <path class="fil7" d="M42.63 22.16c-0.51,0 -0.92,-0.42 -0.92,-0.93 0,-0.51 0.41,-0.92 0.92,-0.92l6.64 0c0.51,0 0.93,0.41 0.93,0.92 0,0.51 -0.42,0.93 -0.93,0.93l-6.64 0z"/>
   <path class="fil8" d="M42.63 25.74c-0.51,0 -0.92,-0.42 -0.92,-0.93 0,-0.51 0.41,-0.93 0.92,-0.93l6.64 0c0.51,0 0.93,0.42 0.93,0.93 0,0.51 -0.42,0.93 -0.93,0.93l-6.64 0z"/>
   <path class="fil9" d="M42.63 29.57c-0.51,0 -0.92,-0.42 -0.92,-0.93 0,-0.51 0.41,-0.92 0.92,-0.92l6.64 0c0.51,0 0.93,0.41 0.93,0.92 0,0.51 -0.42,0.93 -0.93,0.93l-6.64 0z"/>
   <path class="fil10" d="M45.63 33.27c-0.51,0 -0.93,-0.42 -0.93,-0.93 0,-0.51 0.42,-0.92 0.93,-0.92l3.64 0c0.51,0 0.93,0.41 0.93,0.92 0,0.51 -0.42,0.93 -0.93,0.93l-3.64 0z"/>
   <path class="fil11" d="M42.96 30.9c0.38,0 0.73,0.15 0.98,0.4 0.25,0.26 0.41,0.61 0.41,0.98 0,0.38 -0.16,0.73 -0.41,0.98 -0.25,0.26 -0.6,0.41 -0.98,0.41 -0.39,0 -0.73,-0.15 -0.98,-0.4 -0.25,-0.26 -0.41,-0.61 -0.41,-0.99 0,-0.37 0.16,-0.72 0.41,-0.98 0.25,-0.25 0.59,-0.4 0.98,-0.4zm0.3 1.08l-0.3 0.3 0.3 -0.3 -0.3 0.3 0 -0.43c-0.06,0.04 -0.23,0.11 -0.3,0.12l0.3 0.31 -0.3 -0.3 0.6 0.62 -0.3 -0.31 0.3 0.3 -0.29 -0.31 0.29 -0.3zm-0.3 0.31l-0.3 0.3 0.3 -0.3 0 0.43c0.06,-0.04 0.23,-0.11 0.3,-0.12l-0.3 -0.31zm-0.3 0.31c0.07,0.01 0.24,0.08 0.3,0.12l-0.3 -0.12zm0.74 -0.32l-0.43 0 0.43 0zm-0.45 0l-0.43 0c0.04,0.06 0.12,0.23 0.14,0.31l0.29 -0.31zm-0.29 0.31l0.3 -0.3 -0.31 -0.31c-0.01,0.08 -0.09,0.25 -0.13,0.3l0.14 0.31zm0.6 -0.62c-0.07,-0.01 -0.24,-0.08 -0.3,-0.12l0.3 0.12zm0.14 0.31c-0.04,-0.05 -0.12,-0.22 -0.14,-0.3l0.14 0.3zm-0.14 0.31c0.02,-0.08 0.1,-0.25 0.14,-0.31l-0.14 0.31z"/>
   <path class="fil12" d="M1.85 15.78l31.68 0c1.02,0 1.85,0.83 1.85,1.85l0 18.47c0,1.02 -0.83,1.85 -1.85,1.85l-31.68 0c-1.02,0 -1.85,-0.83 -1.85,-1.85l0 -18.47c0,-1.02 0.83,-1.85 1.85,-1.85zm29.83 3.7l-27.98 0 0 14.76 27.98 0 0 -14.76z"/>
   <path class="fil13" d="M2.81 37.09c-0.55,0.53 -1.43,0.52 -1.96,-0.03 -0.53,-0.55 -0.51,-1.43 0.04,-1.96l8.87 -8.53c0.54,-0.53 1.42,-0.52 1.95,0.02l5.23 5.35c0.54,0.55 0.52,1.43 -0.02,1.96 -0.55,0.54 -1.43,0.53 -1.96,-0.02l-4.28 -4.36 -7.87 7.57z"/>
   <path class="fil14" d="M14.59 36.9c-0.51,0.56 -1.39,0.61 -1.96,0.1 -0.57,-0.51 -0.61,-1.39 -0.1,-1.96l10 -11.08c0.51,-0.57 1.39,-0.61 1.96,-0.1l10.08 11.31c0.51,0.58 0.46,1.45 -0.12,1.96 -0.57,0.51 -1.45,0.46 -1.96,-0.11l-8.94 -10.05 -8.96 9.93z"/>
   <polygon class="fil15" points="19.67,28.27 26.85,28.27 26.85,30.13 19.67,30.13 "/>
   <path class="fil16" d="M17.67 32.95c-0.51,0 -0.92,-0.42 -0.92,-0.93 0,-0.51 0.41,-0.93 0.92,-0.93l5.47 0c0.51,0 0.93,0.42 0.93,0.93 0,0.51 -0.42,0.93 -0.93,0.93l-5.47 0z"/>
   <path class="fil17" d="M15.08 19.74c0.89,0 1.7,0.36 2.29,0.95 0.58,0.58 0.95,1.39 0.95,2.29 0,0.89 -0.37,1.7 -0.95,2.29 -0.59,0.58 -1.4,0.95 -2.29,0.95 -0.9,0 -1.71,-0.37 -2.3,-0.95 -0.58,-0.59 -0.95,-1.4 -0.95,-2.29 0,-0.9 0.37,-1.71 0.95,-2.29 0.59,-0.59 1.4,-0.95 2.3,-0.95zm0.98 2.26c-0.25,-0.25 -0.6,-0.41 -0.98,-0.41 -0.39,0 -0.74,0.16 -0.99,0.41 -0.25,0.25 -0.4,0.6 -0.4,0.98 0,0.38 0.15,0.73 0.4,0.98 0.25,0.25 0.6,0.41 0.99,0.41 0.38,0 0.73,-0.16 0.98,-0.41 0.25,-0.25 0.4,-0.6 0.4,-0.98 0,-0.38 -0.15,-0.73 -0.4,-0.98z"/>
   <path class="fil18" d="M1.85 0l51.3 0c1.02,0 1.85,0.83 1.85,1.85l0 11.34c0,1.02 -0.83,1.85 -1.85,1.85l-51.3 0c-1.02,0 -1.85,-0.83 -1.85,-1.85l0 -11.34c0,-1.02 0.83,-1.85 1.85,-1.85zm49.45 3.7l-47.6 0 0 7.63 47.6 0 0 -7.63z"/>
   <path class="fil19" d="M1.85 38.69l16.28 0c1.02,0 1.85,0.83 1.85,1.85l0 11.33c0,1.02 -0.83,1.85 -1.85,1.85l-16.28 0c-1.02,0 -1.85,-0.83 -1.85,-1.85l0 -11.33c0,-1.02 0.83,-1.85 1.85,-1.85zm14.42 3.7l-12.57 0 0 7.63 12.57 0 0 -7.63z"/>
   <path class="fil20" d="M23.8 38.69l29.35 0c1.02,0 1.85,0.83 1.85,1.85l0 11.33c0,1.02 -0.83,1.85 -1.85,1.85l-29.35 0c-1.03,0 -1.86,-0.83 -1.86,-1.85l0 -11.33c0,-1.02 0.83,-1.85 1.86,-1.85zm27.5 3.7l-25.65 0 0 7.63 25.65 0 0 -7.63z"/>
   <path class="fil21" d="M33.36 47.48c-0.77,0 -1.39,-0.62 -1.39,-1.39 0,-0.76 0.62,-1.39 1.39,-1.39l15.35 0c0.77,0 1.39,0.63 1.39,1.39 0,0.77 -0.62,1.39 -1.39,1.39l-15.35 0z"/>
  </g>
  <circle class="fil22" cx="29.3" cy="47.45" r="1.01"/>
 </g>
</svg>
