<?xml version="1.0" encoding="utf-8"?>
<!-- Generator: Adobe Illustrator 16.0.0, SVG Export Plug-In . SVG Version: 6.00 Build 0)  -->
<!DOCTYPE svg PUBLIC "-//W3C//DTD SVG 1.1//EN" "http://www.w3.org/Graphics/SVG/1.1/DTD/svg11.dtd">
<svg version="1.1" id="Layer_1" xmlns="http://www.w3.org/2000/svg" xmlns:xlink="http://www.w3.org/1999/xlink" x="0px" y="0px"
	 width="100px" height="100px" viewBox="0 0 100 100" enable-background="new 0 0 100 100" xml:space="preserve">
<g>
	<g>
		<g>
			<g>
				<path fill="#0054A6" d="M88.014,44.3c-0.741-1.942-2.261-3.676-4.11-4.924c-5.338-3.39-13.472-3.632-18.971-0.569
					c-2.999,1.53-4.97,4.559-5.585,7.673c-1.111,5.12-0.826,11.212,3.119,15.049c4.601,4.032,11.294,4.923,17.247,3.268
					c0.281-0.054,1.18-0.279,1.798-0.607l0.176-0.075c1.848-0.769,3.611-2.021,4.927-3.716C89.653,55.96,89.861,49.302,88.014,44.3z
					 M78.319,55.798c-0.206,0.97-0.861,1.978-1.891,2.342c-1.643,0.723-3.858,0.522-5.378-0.321
					c-1.273-0.892-1.438-2.381-1.603-3.794c-0.124-2.781-0.325-5.728,0.455-8.273c0.61-1.577,2.295-1.98,3.818-2.099
					c1.601,0,3.158,0.244,4.147,1.535c0.614,0.926,0.576,2.138,0.696,3.229C78.522,50.714,78.73,53.456,78.319,55.798z"/>
				<path fill="#0054A6" d="M29.654,58.305c-1.355-0.082-2.875,0.036-4.187-0.124l0.04-14.167l0.082-0.119l4.065-0.039
					c0.043-2.299,0.082-4.767-0.042-6.862l-15.479-0.043l-2.549,0.043c-0.039,2.138-0.039,4.637,0,6.818
					c1.398,0.043,2.71,0,4.065,0.125v13.719l-0.039,0.565l-4.065,0.082c-0.086,2.255-0.086,4.438,0,6.657h18.109V58.305z"/>
				<path fill="#0054A6" d="M75.237,67.987c-1.724,2.463-3.9,4.845-6.278,6.696c-0.086,0.124-0.333,0.078-0.411-0.039
					c-1.029-0.644-2.139-1.169-3.126-1.813c1.316-1.573,2.59-3.146,3.575-4.888h-1.275c-1.023,1.498-2.091,3.071-3.447,4.4
					c-1.808-0.726-3.449-1.371-5.298-1.858l-0.204-0.153c0.286-0.815,0.818-1.581,0.982-2.389h-1.108l-1.107,2.181
					c-2.42-0.525-5.091-0.808-7.555-0.969c-0.125-0.361,0.039-0.887-0.125-1.212h-1.066c-0.085,0.486,0.122,0.851-0.125,1.256
					c-2.545,0.117-5.009,0.399-7.391,0.89l-1.112-2.146c-0.407,0-0.861-0.079-1.147,0.043l1.026,2.381l-0.122,0.118
					c-1.852,0.529-3.654,1.177-5.42,1.898l-0.164-0.082c-1.152-1.252-2.26-2.617-3.164-3.99c-0.205-0.689-1.027-0.286-1.477-0.368
					c0.983,1.776,2.299,3.35,3.611,4.966c-1.108,0.647-2.213,1.368-3.368,1.897c-2.463-1.858-4.759-4.279-6.486-6.82
					c-0.494-0.079-0.819-0.043-1.315,0c2.957,4.603,7.558,8.634,12.363,11.016c0,0,0-0.036,0.043-0.036
					c0.036,0,0.118,0.074,0.036,0.118c3.247,1.573,6.696,2.702,10.351,3.189c12.607,1.652,24.642-3.711,31.621-14.287
					C76.189,67.944,75.649,67.944,75.237,67.987z M58.114,71.619l0.122-0.082c1.77,0.404,3.45,0.969,5.013,1.734
					c-1.315,1.49-3,2.786-4.559,3.873c-0.944,0.563-1.893,1.175-2.879,1.654l-1.763-0.765l0.122-0.279
					C55.651,75.778,56.967,73.758,58.114,71.619z M50.023,70.407c2.342,0.043,4.684,0.285,6.859,0.809l0.042,0.121
					c-1.147,2.178-2.587,4.279-4.148,6.254c-0.699,0.081-1.354-0.196-2.051-0.239l-0.701-0.083
					C49.941,74.888,49.898,72.79,50.023,70.407z M42.1,71.133c2.134-0.403,4.352-0.726,6.65-0.726l0.042,6.826
					c-0.864,0.196-1.809,0.196-2.631,0.404c-1.685-1.985-3.079-4.123-4.269-6.344L42.1,71.133z M35.485,73.314
					c1.606-0.77,3.286-1.337,5.009-1.777l0.168,0.042c1.188,2.222,2.667,4.316,4.144,6.415c-0.572,0.325-1.273,0.521-1.845,0.848
					c-2.71-1.331-5.299-3.189-7.477-5.409V73.314z M40.785,80.215c-3.451-0.892-6.655-2.423-9.611-4.521V75.57
					c0.987-0.602,1.973-1.247,3.039-1.694c2.342,2.306,4.763,4.04,7.394,5.691C41.399,79.811,41.07,80.054,40.785,80.215z
					 M56.02,80.737c-4.352,0.933-9.2,0.969-13.552-0.079c-0.082-0.2,0.204-0.242,0.329-0.36c3.818-2.463,9.772-2.463,13.512,0.195
					C56.431,80.737,56.102,80.658,56.02,80.737z M59.963,79.611l-1.931,0.604c-0.329-0.161-0.615-0.404-0.904-0.647l0.082-0.121
					c2.627-1.53,5.009-3.389,7.27-5.61c1.108,0.442,2.176,1.052,3.164,1.734C65.344,77.395,62.674,78.6,59.963,79.611z"/>
				<path fill="#0054A6" d="M23.372,33.885c0.987-1.373,2.095-2.703,3.326-3.994c1.065-1.008,2.052-1.978,3.204-2.707
					c1.068,0.687,2.26,1.258,3.285,1.902c-1.273,1.566-2.585,3.146-3.532,4.838c0.286,0.125,0.823,0.085,1.234,0
					c1.025-1.491,2.135-2.985,3.45-4.316c1.762,0.648,3.49,1.331,5.298,1.816l0.161,0.161l-1.026,2.338
					c0.455,0.085,0.741,0.042,1.191,0c0.368-0.683,0.654-1.448,1.065-2.138c2.385,0.529,4.892,0.808,7.438,0.887
					c0.328,0.286,0.082,0.89,0.204,1.251h1.108c0.122-0.397-0.039-0.848,0.122-1.206c2.384-0.125,4.887-0.368,7.194-0.933l0.2,0.042
					l1.109,2.096c0.371,0,0.86,0.085,1.15-0.083l-1.03-2.334l0.086-0.083c1.885-0.486,3.654-1.212,5.46-1.934
					c1.276,1.33,2.464,2.903,3.537,4.434c0.45,0,0.9,0.042,1.229-0.083c-0.494-0.883-1.112-1.769-1.767-2.542
					c-0.536-0.766-1.109-1.448-1.81-2.173v-0.208l2.875-1.652l0.415-0.161c2.503,1.895,4.719,4.194,6.485,6.736
					c0.493,0,0.905,0.168,1.316-0.035c-5.506-8.23-14.582-13.523-24.392-14.285l-0.043,0.079l-0.082-0.079
					c-1.109-0.118-2.468-0.165-3.659-0.046c-0.45-0.036-0.983,0-1.52,0.046c-9.854,0.762-18.928,5.81-24.599,14.402
					C22.467,33.885,22.96,34.049,23.372,33.885z M40.416,30.337l-0.164,0.036c-1.684-0.44-3.329-0.97-4.888-1.652l0.079-0.243
					c2.26-2.138,4.641-3.915,7.269-5.284c0.618,0.243,1.233,0.443,1.849,0.729l-0.122,0.314
					C42.875,26.179,41.646,28.274,40.416,30.337z M48.586,31.424c-1.147,0.161-2.174-0.036-3.329-0.125
					c-1.105-0.161-2.503-0.279-3.611-0.647c1.19-2.209,2.588-4.351,4.273-6.325l2.627,0.357
					C48.668,26.78,48.586,29.204,48.586,31.424z M49.859,31.468c-0.083-2.146-0.04-4.523,0-6.744
					c0.822-0.118,1.723-0.243,2.545-0.36c1.602,2.013,3.165,4.079,4.233,6.289C54.418,31.182,52.157,31.468,49.859,31.468z
					 M62.963,28.639c-1.605,0.683-3.25,1.33-5.013,1.698c-1.272-2.138-2.668-4.276-4.234-6.343c0.575-0.314,1.278-0.558,1.893-0.879
					c2.674,1.33,5.259,3.225,7.433,5.399L62.963,28.639z M57.703,21.738c3.449,0.891,6.693,2.421,9.65,4.52l-0.082,0.161
					l-2.832,1.574h-0.207c-2.174-2.174-4.72-4.069-7.309-5.567C57.006,22.143,57.417,21.939,57.703,21.738z M56.062,21.334v0.083
					c-3.574,2.578-9.363,2.821-13.139,0.44c-0.211-0.161-0.619-0.24-0.662-0.523C46.615,20.33,51.746,20.248,56.062,21.334z
					 M31.009,26.34c2.589-1.895,5.463-3.307,8.503-4.276c0.125-0.125,0.204-0.243,0.368-0.243v0.082
					c0.329,0.079,0.576-0.286,0.861-0.046c0.247,0.207,0.536,0.368,0.74,0.568c-2.546,1.569-5.052,3.428-7.352,5.685
					c-1.107-0.397-2.134-1.004-3.121-1.691V26.34z"/>
				<path fill="#0054A6" d="M48.629,58.619c-3.862,1.051-8.052,0.25-10.845-2.659c-0.325-0.405-0.533-0.884-0.861-1.289
					l-5.542,0.041c-0.085,3.267-0.125,7.021,0,10.25l6.157-0.038l0.083-1.938c0.701,0.321,1.398,0.726,2.096,1.085
					c4.272,1.778,9.771,2.183,14,0c3.082-1.689,4.728-4.957,4.272-8.477c-0.449-3.425-3.735-6.535-7.061-7.379l-9.939-2.867
					l-0.737-0.365c-0.329-0.279-0.536-0.64-0.455-1.087c0.78-1.33,2.589-0.926,3.944-0.891c2.875,0.405,5.832,1.374,7.516,3.999
					c1.806,0,3.9,0.036,5.871-0.043c0.082-3.308-0.036-6.211-0.083-9.561c-1.848-0.043-4.107-0.043-5.953,0.043
					c-0.082,0.479,0.079,1.162-0.125,1.648l-1.888-1.008c-4.519-1.894-10.844-2.095-14.949,0.852
					c-2.671,1.934-3.489,5.409-2.792,8.474c0.533,2.903,3.326,5.042,5.997,6.049c3.654,1.291,7.473,2.225,11.173,3.471
					c0.369,0.165,0.858,0.53,0.78,0.973C49.287,58.259,48.915,58.466,48.629,58.619z"/>
			</g>
			<g>
				<path fill="#0054A6" d="M9.807,67.915l0.2,0.461c0.036,0.086-0.011,0.187-0.104,0.227l-5.918,2.556
					C3.9,71.193,3.8,71.17,3.76,71.076l-0.2-0.461c-0.036-0.087,0-0.183,0.093-0.222l5.921-2.556
					C9.656,67.8,9.767,67.822,9.807,67.915z"/>
				<path fill="#0054A6" d="M8.054,63.136l0.14,0.413c0.032,0.097-0.018,0.201-0.115,0.232l-2.861,0.967
					c-0.875,0.297-1.043,0.683-0.822,1.345c0.122,0.363,0.4,0.725,0.733,1.058l3.668-1.237c0.085-0.032,0.2,0.019,0.232,0.114
					l0.144,0.426c0.027,0.085-0.022,0.189-0.119,0.221l-4.43,1.5c-0.097,0.031-0.197-0.012-0.229-0.108L4.25,67.633
					c-0.031-0.097,0.022-0.192,0.118-0.226l0.165-0.057c-0.433-0.386-0.694-0.731-0.866-1.245c-0.353-1.044,0.14-1.73,1.294-2.123
					l2.861-0.962C7.915,62.988,8.022,63.039,8.054,63.136z"/>
				<path fill="#0054A6" d="M7.243,59.713c0.068,0.172,0.143,0.401,0.182,0.569c0.193,0.821,0.075,1.262-0.904,1.497L3.41,62.52
					l0.107,0.887c0.015,0.101-0.021,0.186-0.122,0.208l-0.24,0.058c-0.096,0.024-0.175-0.033-0.2-0.129l-0.207-0.865l-0.873,0.208
					c-0.089,0.021-0.175-0.026-0.214-0.119l-0.183-0.447c-0.003-0.007-0.003-0.017-0.007-0.024c-0.018-0.071,0.032-0.15,0.121-0.171
					l0.97-0.229L2.334,60.93c-0.021-0.097,0.04-0.196,0.136-0.22l0.304-0.07c0.097-0.025,0.197,0.035,0.222,0.136l0.228,0.962
					l3.107-0.744c0.49-0.113,0.533-0.256,0.447-0.613L6.66,59.882c-0.028-0.126-0.007-0.196,0.083-0.219l0.311-0.074
					C7.132,59.57,7.196,59.602,7.243,59.713z"/>
				<path fill="#0054A6" d="M4.311,55.594l0.418,3.04l0.129-0.018c1.08-0.15,1.419-0.628,1.304-1.466
					c-0.071-0.526-0.203-1.194-0.321-1.603c-0.003-0.018-0.008-0.029-0.008-0.046c-0.011-0.071,0.014-0.151,0.107-0.161l0.308-0.044
					c0.118-0.017,0.186,0.011,0.232,0.151c0.172,0.504,0.297,0.997,0.383,1.604c0.143,1.043-0.207,2.128-1.895,2.364L4.15,59.526
					c-1.298,0.184-2.22-0.42-2.403-1.719c-0.182-1.327,0.558-2.113,1.848-2.293l0.49-0.066C4.204,55.434,4.293,55.484,4.311,55.594z
					 M3.707,56.324c-1.026,0.143-1.369,0.587-1.259,1.386c0.107,0.781,0.611,1.156,1.591,1.021l0.082-0.011l-0.332-2.406
					L3.707,56.324z"/>
				<path fill="#0054A6" d="M1.991,52.433c0.021,0.422,0.15,0.799,0.447,1.242l3.829-0.2c0.09-0.004,0.187,0.074,0.189,0.175
					l0.025,0.447c0.004,0.093-0.074,0.178-0.174,0.182l-4.659,0.244c-0.1,0.003-0.187-0.064-0.19-0.165l-0.021-0.43
					c-0.006-0.099,0.072-0.178,0.172-0.183l0.193-0.01c-0.343-0.439-0.486-0.854-0.507-1.266c-0.003-0.129,0.046-0.193,0.158-0.201
					l0.372-0.016C1.922,52.245,1.983,52.306,1.991,52.433z"/>
				<path fill="#0054A6" d="M6.492,47.664l-0.018,0.44c-0.004,0.1-0.09,0.179-0.19,0.175l-3.007-0.121
					c-0.922-0.036-1.22,0.264-1.244,0.958c-0.018,0.382,0.111,0.818,0.307,1.246l3.854,0.154c0.09,0.004,0.179,0.09,0.176,0.189
					l-0.018,0.447c-0.003,0.094-0.089,0.172-0.19,0.165l-4.658-0.183c-0.1-0.003-0.179-0.082-0.175-0.183l0.017-0.458
					c0.004-0.1,0.089-0.167,0.189-0.163l0.172,0.006c-0.261-0.515-0.382-0.93-0.361-1.47c0.043-1.098,0.747-1.562,1.963-1.512
					l3.003,0.118C6.417,47.479,6.496,47.563,6.492,47.664z"/>
				<path fill="#0054A6" d="M7.089,43.185l-0.065,0.418c-0.014,0.101-0.106,0.168-0.207,0.153l-0.2-0.028
					c0.189,0.472,0.314,0.951,0.239,1.459c-0.114,0.769-0.554,1.423-1.684,1.258l-0.111-0.017c-0.976-0.143-1.379-0.788-1.144-2.399
					l0.1-0.669l-0.361-0.054c-0.761-0.11-1.062,0.111-1.166,0.816C2.402,44.71,2.377,45.15,2.359,45.52
					c-0.004,0.018-0.004,0.024-0.007,0.042c-0.014,0.083-0.054,0.161-0.168,0.144l-0.318-0.047c-0.1-0.014-0.143-0.085-0.143-0.214
					c-0.011-0.383-0.004-0.808,0.089-1.423c0.186-1.255,0.894-1.67,1.962-1.512l3.157,0.468C7.032,42.991,7.103,43.084,7.089,43.185
					z M4.59,43.445l-0.1,0.668c-0.162,1.095,0.039,1.42,0.683,1.516l0.107,0.015c0.651,0.096,0.869-0.183,0.948-0.708
					c0.061-0.418-0.011-0.808-0.183-1.277L4.59,43.445z"/>
				<path fill="#0054A6" d="M7.894,39.805c-0.014,0.183-0.054,0.418-0.093,0.59c-0.197,0.819-0.504,1.159-1.484,0.926l-3.111-0.74
					l-0.304,0.84c-0.031,0.096-0.099,0.154-0.199,0.132l-0.24-0.057c-0.1-0.025-0.143-0.111-0.122-0.208l0.208-0.865l-0.873-0.208
					c-0.089-0.021-0.146-0.104-0.14-0.204l0.036-0.479c0.004-0.01,0.007-0.018,0.007-0.028c0.018-0.072,0.096-0.118,0.182-0.097
					l0.972,0.229l0.229-0.961c0.025-0.097,0.125-0.158,0.222-0.136l0.304,0.074c0.097,0.022,0.157,0.123,0.135,0.219l-0.229,0.961
					l3.107,0.744c0.49,0.114,0.593,0.007,0.676-0.351L7.3,39.691c0.029-0.125,0.079-0.179,0.168-0.158l0.312,0.076
					C7.861,39.626,7.904,39.684,7.894,39.805z"/>
				<path fill="#0054A6" d="M2.763,36.584L2.627,37.03c-0.032,0.097-0.132,0.151-0.229,0.122l-0.7-0.215
					c-0.096-0.028-0.15-0.132-0.122-0.229l0.135-0.447c0.033-0.097,0.132-0.15,0.229-0.122l0.701,0.215
					C2.738,36.387,2.792,36.487,2.763,36.584z M8.333,38.314l-0.129,0.418c-0.028,0.096-0.132,0.15-0.229,0.121l-4.459-1.365
					c-0.097-0.033-0.15-0.133-0.122-0.229l0.129-0.422c0.032-0.096,0.132-0.15,0.229-0.121l4.458,1.369
					C8.309,38.114,8.366,38.218,8.333,38.314z"/>
				<path fill="#0054A6" d="M9.46,35.336c-0.498,1.248-1.574,1.555-2.821,1.058L5.995,36.14c-1.251-0.497-1.82-1.462-1.323-2.71
					c0.497-1.248,1.577-1.566,2.825-1.069l0.647,0.257C9.392,33.116,9.957,34.088,9.46,35.336z M7.2,33.108
					c-0.865-0.347-1.555-0.218-1.873,0.58c-0.315,0.79,0.089,1.354,0.965,1.705l0.644,0.254c0.865,0.347,1.555,0.225,1.874-0.572
					c0.311-0.791-0.089-1.362-0.965-1.709L7.2,33.108z"/>
				<path fill="#0054A6" d="M12.259,29.408l-0.208,0.386c-0.046,0.089-0.161,0.121-0.247,0.075l-2.656-1.423
					c-0.815-0.44-1.212-0.297-1.541,0.315c-0.183,0.34-0.258,0.79-0.272,1.258l3.407,1.828c0.078,0.042,0.122,0.16,0.075,0.25
					l-0.215,0.394c-0.042,0.082-0.153,0.114-0.243,0.068l-4.115-2.21c-0.089-0.046-0.129-0.15-0.079-0.239l0.215-0.404
					c0.049-0.085,0.157-0.114,0.242-0.064l0.154,0.082c-0.01-0.579,0.065-1.008,0.318-1.484c0.519-0.969,1.358-1.08,2.431-0.504
					l2.657,1.423C12.273,29.207,12.306,29.318,12.259,29.408z"/>
				<path fill="#0054A6" d="M14.729,25.682l-0.239,0.347c-0.057,0.082-0.171,0.104-0.254,0.046l-0.165-0.111
					c-0.036,0.504-0.136,0.99-0.425,1.412c-0.44,0.644-1.123,1.041-2.067,0.394l-0.089-0.062c-0.815-0.557-0.897-1.312,0.025-2.656
					l0.382-0.557l-0.304-0.208c-0.632-0.433-1.001-0.364-1.405,0.225c-0.336,0.49-0.554,0.873-0.729,1.194
					c-0.011,0.015-0.014,0.021-0.025,0.036c-0.046,0.068-0.118,0.122-0.214,0.054l-0.265-0.179
					c-0.083-0.058-0.093-0.143-0.036-0.258c0.161-0.347,0.354-0.722,0.704-1.237c0.718-1.048,1.534-1.108,2.424-0.497l2.635,1.801
					C14.765,25.486,14.787,25.601,14.729,25.682z M12.37,24.82l-0.382,0.559c-0.623,0.912-0.587,1.294-0.05,1.663l0.089,0.061
					c0.543,0.372,0.862,0.214,1.162-0.226c0.24-0.346,0.347-0.726,0.397-1.222L12.37,24.82z"/>
				<path fill="#0054A6" d="M15.949,24.152l-0.3,0.371c-0.057,0.072-0.164,0.079-0.243,0.015l-5.098-4.083
					c-0.072-0.057-0.097-0.157-0.036-0.235l0.3-0.373c0.057-0.071,0.157-0.082,0.236-0.021l5.099,4.083
					C15.978,23.966,16.01,24.073,15.949,24.152z"/>
				<path fill="#0054A6" d="M19.943,19.961c-1.048,0.98-2.384,1.08-3.772-0.4l-0.808-0.862c-1.391-1.483-1.205-2.81-0.157-3.793
					c1.051-0.983,2.38-1.076,3.768,0.407l0.809,0.862C21.169,17.656,20.991,18.979,19.943,19.961z M18.359,15.889
					c-1.051-1.123-1.906-1.123-2.639-0.437c-0.73,0.684-0.794,1.548,0.257,2.671l0.805,0.861c1.051,1.119,1.913,1.116,2.649,0.426
					c0.726-0.68,0.787-1.541-0.265-2.66L18.359,15.889z"/>
				<path fill="#0054A6" d="M21.445,12.911c-0.336,0.258-0.573,0.576-0.769,1.072l2.328,3.043c0.057,0.072,0.046,0.197-0.032,0.257
					l-0.358,0.272c-0.071,0.057-0.186,0.039-0.25-0.04l-2.832-3.704c-0.064-0.079-0.054-0.19,0.025-0.25l0.339-0.261
					c0.083-0.061,0.189-0.043,0.25,0.039l0.118,0.15c0.168-0.529,0.43-0.88,0.758-1.129c0.1-0.079,0.186-0.076,0.25,0.013
					l0.229,0.297C21.563,12.75,21.545,12.832,21.445,12.911z"/>
				<path fill="#0054A6" d="M25.596,10.154l-0.243,0.229c0.232,0.061,0.5,0.211,0.768,0.63l0.041,0.06
					c0.54,0.848,0.314,1.652-0.873,2.411c-0.407,0.261-0.711,0.364-0.993,0.414c-0.09,0.146-0.097,0.272-0.026,0.387
					c0.086,0.132,0.189,0.161,0.397,0.092l1.337-0.436c0.876-0.289,1.741-0.536,2.203,0.19l0.04,0.061
					c0.471,0.74,0.268,1.508-0.998,2.313c-1.216,0.779-2.074,0.662-2.553-0.094l-0.046-0.071c-0.274-0.429-0.268-0.933-0.136-1.287
					l-0.071,0.011c-0.315,0.05-0.583-0.136-0.736-0.375l-0.004-0.007c-0.135-0.208-0.175-0.497-0.039-0.758
					c-0.383-0.068-0.676-0.271-0.926-0.666l-0.039-0.064c-0.437-0.687-0.483-1.609,0.843-2.457l1.688-1.076
					c0.093-0.058,0.225-0.036,0.286,0.057l0.125,0.2C25.703,10.018,25.671,10.083,25.596,10.154z M25.45,11.438
					c-0.293-0.461-0.733-0.69-1.567-0.161c-0.865,0.551-0.79,1.059-0.514,1.492l0.039,0.061c0.214,0.34,0.654,0.687,1.541,0.122
					c0.833-0.529,0.836-0.987,0.54-1.448L25.45,11.438z M27.526,14.563c-0.193-0.304-0.518-0.268-1.322-0.003l-1.016,0.332
					c-0.1,0.336-0.132,0.626,0.125,1.026l0.042,0.072c0.275,0.429,0.701,0.537,1.559-0.007c0.879-0.561,0.922-0.937,0.65-1.359
					L27.526,14.563z"/>
				<path fill="#0054A6" d="M31.699,12.01l-0.379,0.186c-0.089,0.043-0.2,0.008-0.243-0.085l-0.089-0.18
					c-0.283,0.422-0.607,0.798-1.069,1.027c-0.697,0.343-1.487,0.354-1.992-0.672l-0.049-0.096c-0.437-0.887-0.14-1.588,1.322-2.307
					l0.608-0.3l-0.162-0.329c-0.342-0.689-0.697-0.812-1.337-0.493c-0.533,0.261-0.911,0.49-1.222,0.683
					c-0.018,0.01-0.025,0.014-0.043,0.021c-0.075,0.036-0.161,0.051-0.211-0.057l-0.143-0.29c-0.046-0.089-0.011-0.167,0.097-0.239
					c0.308-0.226,0.661-0.461,1.219-0.736c1.141-0.562,1.884-0.214,2.364,0.754l1.412,2.868
					C31.828,11.852,31.788,11.963,31.699,12.01z M30.061,10.101l-0.608,0.297c-0.994,0.49-1.144,0.843-0.858,1.426l0.05,0.097
					c0.289,0.593,0.647,0.612,1.123,0.375c0.379-0.185,0.659-0.468,0.948-0.875L30.061,10.101z"/>
				<path fill="#0054A6" d="M36.243,10.265l-0.415,0.15c-0.092,0.032-0.2-0.014-0.232-0.11l-1.03-2.829
					c-0.314-0.869-0.705-1.03-1.359-0.793c-0.361,0.132-0.715,0.418-1.04,0.758l1.32,3.632c0.031,0.086-0.015,0.2-0.108,0.233
					l-0.422,0.153c-0.085,0.032-0.193-0.018-0.225-0.111l-1.598-4.391c-0.032-0.093,0.007-0.196,0.1-0.229l0.432-0.157
					c0.093-0.036,0.189,0.018,0.226,0.111l0.061,0.164c0.376-0.439,0.715-0.708,1.223-0.894c1.033-0.375,1.73,0.104,2.148,1.248
					l1.03,2.829C36.386,10.126,36.336,10.229,36.243,10.265z"/>
				<path fill="#0054A6" d="M36.619,4.119L36.168,4.24c-0.096,0.025-0.2-0.032-0.225-0.129L35.75,3.404
					c-0.025-0.097,0.033-0.197,0.129-0.222l0.45-0.125c0.096-0.025,0.201,0.032,0.226,0.129l0.193,0.708
					C36.772,3.99,36.715,4.09,36.619,4.119z M38.135,9.754l-0.426,0.114c-0.096,0.029-0.197-0.032-0.225-0.128l-1.223-4.502
					c-0.029-0.097,0.028-0.197,0.128-0.226l0.422-0.114c0.097-0.025,0.197,0.033,0.226,0.129l1.223,4.501
					C38.289,9.625,38.231,9.729,38.135,9.754z"/>
				<path fill="#0054A6" d="M42.508,8.799l-2.717,0.532c-0.387,0.075-0.598-0.136-0.647-0.39L39.111,8.77
					c-0.05-0.25-0.021-0.396,0.093-0.622l1.756-3.343c0.01-0.029,0.025-0.062,0.021-0.086c-0.007-0.039-0.032-0.061-0.104-0.046
					l-2.185,0.425c-0.1,0.021-0.196-0.043-0.218-0.143l-0.057-0.308c-0.022-0.096,0.046-0.193,0.143-0.214l2.646-0.515
					c0.369-0.074,0.536,0.072,0.59,0.34l0.043,0.218c0.036,0.187,0,0.336-0.111,0.533L39.94,8.431
					c-0.028,0.043-0.032,0.083-0.025,0.11c0.008,0.044,0.022,0.069,0.087,0.057l2.374-0.464c0.101-0.021,0.197,0.046,0.214,0.144
					l0.061,0.308C42.668,8.681,42.604,8.781,42.508,8.799z"/>
				<path fill="#0054A6" d="M46.791,8.348l-0.422,0.04C46.269,8.395,46.18,8.32,46.172,8.22L46.154,8.02
					c-0.414,0.297-0.851,0.529-1.362,0.576c-0.776,0.071-1.516-0.2-1.619-1.337l-0.011-0.111c-0.089-0.983,0.437-1.526,2.06-1.677
					l0.672-0.061l-0.032-0.365c-0.072-0.765-0.358-1.004-1.069-0.941c-0.593,0.054-1.026,0.133-1.387,0.201
					c-0.018,0.004-0.029,0.004-0.047,0.007c-0.082,0.007-0.164-0.014-0.175-0.133l-0.028-0.318
					c-0.011-0.101,0.046-0.161,0.175-0.189c0.365-0.101,0.779-0.193,1.398-0.25c1.266-0.114,1.834,0.476,1.935,1.548l0.293,3.179
					C46.962,8.248,46.891,8.338,46.791,8.348z M45.947,5.982l-0.671,0.064c-1.105,0.1-1.374,0.372-1.313,1.02l0.011,0.11
					c0.061,0.654,0.386,0.798,0.913,0.751c0.418-0.041,0.783-0.201,1.197-0.479L45.947,5.982z"/>
				<path fill="#0054A6" d="M50.298,8.309c-0.186,0.029-0.421,0.054-0.597,0.054c-0.843,0.014-1.247-0.2-1.265-1.208l-0.047-3.196
					l-0.891-0.086c-0.1-0.011-0.175-0.064-0.179-0.164l-0.003-0.247c0-0.1,0.071-0.166,0.171-0.168l0.89-0.015l-0.014-0.897
					c0-0.09,0.061-0.165,0.161-0.187L49,2.117c0.011,0,0.021,0,0.029,0c0.075-0.003,0.139,0.061,0.139,0.154l0.015,0.998l0.99-0.015
					c0.101-0.004,0.187,0.079,0.187,0.179l0.007,0.311c0,0.101-0.082,0.187-0.182,0.187l-0.991,0.018l0.05,3.196
					c0.007,0.504,0.136,0.576,0.504,0.568l0.511-0.007c0.129-0.003,0.193,0.032,0.197,0.125l0.003,0.322
					C50.459,8.234,50.417,8.288,50.298,8.309z"/>
				<path fill="#0054A6" d="M51.893,8.395l-0.438-0.029c-0.102-0.003-0.176-0.093-0.173-0.193l0.271-4.659
					c0.009-0.1,0.094-0.175,0.193-0.171l0.44,0.025c0.1,0.006,0.176,0.093,0.171,0.196L52.086,8.22
					C52.08,8.323,51.993,8.398,51.893,8.395z M52.25,2.567l-0.468-0.029c-0.099-0.003-0.175-0.093-0.171-0.193l0.042-0.729
					c0.008-0.101,0.093-0.179,0.192-0.172l0.47,0.025c0.101,0.008,0.175,0.093,0.172,0.193l-0.044,0.733
					C52.437,2.496,52.352,2.574,52.25,2.567z"/>
				<path fill="#0054A6" d="M55.047,8.767c-1.338-0.182-1.898-1.155-1.717-2.488l0.093-0.69c0.179-1.333,0.979-2.124,2.314-1.942
					c1.338,0.183,1.904,1.155,1.727,2.489l-0.093,0.689C57.188,8.159,56.381,8.95,55.047,8.767z M56.662,6.028
					c0.126-0.926-0.163-1.566-1.019-1.684c-0.843-0.111-1.294,0.418-1.422,1.352l-0.094,0.689c-0.125,0.926,0.157,1.566,1.012,1.684
					c0.844,0.11,1.306-0.418,1.43-1.352L56.662,6.028z"/>
				<path fill="#0054A6" d="M61.468,10.058L61.044,9.95c-0.102-0.025-0.157-0.125-0.134-0.225l0.743-2.921
					c0.229-0.897-0.003-1.248-0.679-1.423c-0.371-0.092-0.826-0.057-1.288,0.044l-0.952,3.747c-0.022,0.089-0.127,0.157-0.224,0.132
					l-0.435-0.11c-0.091-0.021-0.147-0.122-0.126-0.218l1.154-4.53c0.026-0.1,0.118-0.162,0.216-0.136l0.442,0.114
					c0.101,0.021,0.15,0.122,0.125,0.218l-0.042,0.168c0.557-0.15,0.989-0.183,1.515-0.047c1.067,0.272,1.378,1.058,1.076,2.242
					l-0.746,2.92C61.665,10.021,61.564,10.083,61.468,10.058z"/>
				<path fill="#0054A6" d="M69.227,6.214l-0.408-0.168c-0.396-0.165-0.563-0.097-0.753,0.368l-0.254,0.611l0.89,0.365
					c0.094,0.04,0.133,0.136,0.098,0.222l-0.138,0.329c-0.035,0.086-0.124,0.114-0.217,0.079l-0.891-0.368l-1.592,3.861
					c-0.036,0.083-0.146,0.136-0.232,0.1l-0.414-0.171c-0.093-0.036-0.133-0.154-0.1-0.236l1.594-3.862l-0.782-0.432
					c-0.09-0.047-0.132-0.132-0.102-0.218l0.098-0.229c0.035-0.083,0.129-0.122,0.223-0.086l0.821,0.34l0.25-0.608
					c0.375-0.908,0.926-0.998,1.67-0.69c0.229,0.096,0.354,0.175,0.454,0.247c0.083,0.064,0.137,0.125,0.106,0.204l-0.117,0.279
					C69.394,6.242,69.319,6.25,69.227,6.214z"/>
				<path fill="#0054A6" d="M69.002,13.229c-1.19-0.626-1.387-1.73-0.762-2.921l0.321-0.615c0.626-1.19,1.645-1.659,2.836-1.032
					c1.19,0.622,1.395,1.73,0.769,2.92l-0.322,0.619C71.219,13.39,70.192,13.851,69.002,13.229z M71.454,11.209
					c0.434-0.826,0.376-1.526-0.386-1.927c-0.75-0.394-1.354-0.05-1.795,0.783l-0.322,0.619c-0.433,0.825-0.383,1.523,0.38,1.919
					c0.75,0.397,1.362,0.054,1.802-0.779L71.454,11.209z"/>
				<path fill="#0054A6" d="M75.681,12.017c-0.354-0.225-0.733-0.343-1.266-0.358l-2.074,3.219c-0.05,0.075-0.168,0.11-0.251,0.054
					l-0.378-0.24c-0.074-0.05-0.101-0.165-0.047-0.25l2.521-3.916c0.056-0.086,0.16-0.114,0.247-0.061l0.359,0.232
					c0.087,0.054,0.102,0.165,0.048,0.247l-0.104,0.162c0.558-0.022,0.977,0.107,1.319,0.329c0.107,0.068,0.134,0.15,0.075,0.243
					l-0.203,0.315C75.874,12.078,75.787,12.089,75.681,12.017z"/>
				<path fill="#0054A6" d="M76.925,18.585c-0.482-0.419-0.802-0.78-1.065-1.091c-0.099-0.122-0.089-0.161-0.024-0.239l0.239-0.276
					c0.067-0.075,0.15-0.064,0.214-0.01c0.008,0.006,0.015,0.014,0.021,0.018c0.292,0.305,0.787,0.754,1.105,1.03
					c0.833,0.719,1.34,0.575,1.759,0.089c0.301-0.343,0.265-0.712-0.029-1.645l-0.321-0.987c-0.301-0.94-0.314-1.566,0.165-2.121
					c0.722-0.84,1.658-0.708,2.713,0.2c0.407,0.354,0.905,0.854,1.134,1.123c0.058,0.076,0.075,0.15,0.015,0.222l-0.258,0.297
					c-0.058,0.067-0.143,0.067-0.212,0.01c-0.006-0.007-0.006-0.007-0.013-0.014c-0.29-0.282-0.755-0.722-1.155-1.069
					c-0.715-0.615-1.151-0.727-1.587-0.221c-0.283,0.329-0.223,0.718,0.032,1.49l0.308,0.933c0.389,1.169,0.347,1.795-0.134,2.349
					C79.26,19.339,78.291,19.762,76.925,18.585z"/>
				<path fill="#0054A6" d="M80.779,22.204c-0.146-0.111-0.325-0.268-0.448-0.394c-0.589-0.601-0.71-1.04,0.008-1.745l2.282-2.235
					l-0.551-0.705c-0.064-0.075-0.076-0.168-0.004-0.239l0.178-0.172c0.072-0.071,0.169-0.061,0.236,0.011l0.623,0.633l0.641-0.626
					c0.063-0.064,0.164-0.072,0.246-0.01l0.386,0.289c0.004,0.004,0.011,0.011,0.018,0.018c0.05,0.054,0.05,0.143-0.014,0.208
					l-0.716,0.697l0.694,0.705c0.068,0.071,0.068,0.189-0.004,0.261l-0.222,0.217c-0.072,0.068-0.188,0.068-0.261-0.003l-0.69-0.708
					l-2.28,2.234c-0.357,0.351-0.322,0.494-0.064,0.755l0.358,0.364c0.088,0.093,0.106,0.165,0.042,0.229l-0.229,0.225
					C80.947,22.271,80.875,22.275,80.779,22.204z"/>
				<path fill="#0054A6" d="M83.436,25.356l-0.265-0.329c-0.063-0.079-0.054-0.193,0.025-0.257l0.158-0.125
					c-0.478-0.178-0.916-0.415-1.237-0.812c-0.494-0.601-0.683-1.37,0.204-2.091l0.085-0.072c0.768-0.622,1.516-0.49,2.542,0.776
					l0.429,0.525l0.287-0.232c0.592-0.486,0.632-0.857,0.182-1.412c-0.376-0.461-0.682-0.779-0.943-1.041
					c-0.011-0.014-0.016-0.021-0.029-0.035c-0.05-0.065-0.083-0.143,0.01-0.218l0.248-0.204c0.078-0.064,0.16-0.05,0.256,0.039
					c0.287,0.25,0.599,0.544,0.991,1.023c0.802,0.986,0.629,1.791-0.207,2.47l-2.478,2.02C83.614,25.446,83.5,25.432,83.436,25.356z
					 M84.931,23.333L84.5,22.811c-0.696-0.862-1.075-0.929-1.575-0.521l-0.087,0.071c-0.511,0.415-0.45,0.765-0.114,1.18
					c0.266,0.325,0.602,0.537,1.066,0.726L84.931,23.333z"/>
				<path fill="#0054A6" d="M86.109,29.347l-0.235-0.369c-0.058-0.082-0.032-0.196,0.054-0.253l2.528-1.634
					c0.775-0.504,0.844-0.918,0.464-1.502c-0.206-0.321-0.563-0.604-0.968-0.843l-3.243,2.099c-0.075,0.049-0.197,0.031-0.255-0.054
					l-0.242-0.376c-0.05-0.079-0.025-0.193,0.062-0.247l3.914-2.534c0.085-0.054,0.196-0.04,0.251,0.046l0.246,0.382
					c0.057,0.086,0.024,0.193-0.058,0.247l-0.146,0.093c0.512,0.269,0.852,0.541,1.145,0.995c0.598,0.922,0.29,1.709-0.732,2.37
					l-2.528,1.637C86.282,29.458,86.168,29.433,86.109,29.347z"/>
				<path fill="#0054A6" d="M88.356,33.48c-0.352-0.457-0.641-0.937-0.892-1.437c-0.607-1.219-0.093-2.177,1.135-2.792l0.589-0.293
					c1.283-0.64,2.3-0.408,2.893,0.786c0.129,0.254,0.297,0.651,0.398,0.998l1.521-0.758c0.083-0.04,0.188-0.01,0.232,0.079
					l0.207,0.417c0.044,0.079,0.008,0.179-0.082,0.222l-5.727,2.857C88.523,33.613,88.456,33.616,88.356,33.48z M91.874,31.045
					c-0.085-0.297-0.29-0.726-0.422-0.987c-0.401-0.805-1.03-0.815-1.907-0.379l-0.586,0.293c-0.893,0.443-1.266,0.947-0.86,1.755
					c0.135,0.278,0.36,0.668,0.524,0.933L91.874,31.045z"/>
				<path fill="#0054A6" d="M89.922,37.75l-0.147-0.394c-0.036-0.096,0.016-0.2,0.107-0.236l0.19-0.072
					c-0.394-0.321-0.732-0.683-0.913-1.162c-0.267-0.729-0.2-1.516,0.873-1.917l0.104-0.036c0.925-0.346,1.587,0.022,2.155,1.549
					l0.236,0.636l0.343-0.128c0.719-0.268,0.877-0.608,0.627-1.276c-0.208-0.558-0.394-0.954-0.555-1.288
					c-0.008-0.018-0.012-0.025-0.019-0.042c-0.028-0.075-0.028-0.165,0.083-0.204l0.3-0.11c0.093-0.036,0.168,0.003,0.229,0.118
					c0.189,0.329,0.391,0.704,0.605,1.288c0.443,1.194,0.02,1.895-0.991,2.27l-2.993,1.112
					C90.065,37.893,89.958,37.842,89.922,37.75z M91.989,36.319l-0.236-0.636c-0.386-1.037-0.719-1.223-1.331-0.997l-0.1,0.035
					c-0.62,0.232-0.673,0.583-0.49,1.08c0.147,0.397,0.396,0.701,0.773,1.03L91.989,36.319z"/>
				<path fill="#0054A6" d="M95.045,39.702c-0.114-0.404-0.321-0.748-0.707-1.115l-3.697,1.019c-0.09,0.025-0.2-0.032-0.225-0.129
					l-0.122-0.432c-0.021-0.09,0.035-0.19,0.132-0.215l4.502-1.241c0.097-0.028,0.196,0.021,0.222,0.118l0.115,0.415
					c0.027,0.096-0.033,0.189-0.131,0.218l-0.185,0.05c0.429,0.357,0.658,0.729,0.765,1.126c0.035,0.125,0,0.201-0.106,0.232
					l-0.362,0.097C95.149,39.873,95.077,39.826,95.045,39.702z"/>
				<path fill="#0054A6" d="M91.694,44.897c-0.21-0.536-0.356-1.076-0.461-1.627c-0.249-1.341,0.509-2.124,1.856-2.375l0.65-0.121
					c1.412-0.261,2.324,0.24,2.567,1.551c0.053,0.279,0.104,0.705,0.107,1.069l1.673-0.311c0.089-0.018,0.183,0.04,0.2,0.14
					l0.086,0.458c0.018,0.089-0.039,0.175-0.14,0.192l-6.297,1.173C91.819,45.068,91.753,45.054,91.694,44.897z M95.749,43.52
					c-0.003-0.307-0.083-0.779-0.135-1.065c-0.165-0.884-0.766-1.07-1.728-0.887l-0.647,0.117c-0.982,0.183-1.476,0.565-1.313,1.456
					c0.059,0.307,0.164,0.744,0.251,1.044L95.749,43.52z"/>
				<path fill="#0054A6" d="M91.802,46.827l-0.043-0.44c-0.01-0.1,0.061-0.189,0.162-0.2l4.643-0.482
					c0.102-0.011,0.189,0.061,0.201,0.161l0.047,0.439c0.011,0.101-0.064,0.19-0.165,0.201l-4.641,0.482
					C91.906,47,91.813,46.927,91.802,46.827z M97.616,46.237l-0.05-0.464c-0.012-0.1,0.063-0.19,0.164-0.2l0.729-0.075
					c0.099-0.011,0.19,0.06,0.2,0.16l0.046,0.465c0.01,0.1-0.06,0.192-0.16,0.204l-0.729,0.076
					C97.716,46.413,97.626,46.337,97.616,46.237z"/>
				<path fill="#0054A6" d="M92.038,51.314l-0.082-2.764c-0.014-0.396,0.229-0.568,0.487-0.575l0.174-0.004
					c0.254-0.011,0.394,0.043,0.601,0.19l3.015,2.273c0.028,0.02,0.054,0.037,0.081,0.037c0.037,0,0.065-0.021,0.063-0.094
					l-0.068-2.228c-0.004-0.101,0.078-0.186,0.18-0.19l0.311-0.007c0.099-0.004,0.185,0.075,0.189,0.174l0.082,2.696
					c0.011,0.375-0.157,0.519-0.434,0.525l-0.221,0.009c-0.193,0.006-0.333-0.055-0.509-0.197l-3.088-2.317
					c-0.04-0.036-0.076-0.043-0.104-0.043c-0.044,0-0.072,0.011-0.072,0.076l0.076,2.42c0.003,0.101-0.076,0.186-0.18,0.189
					l-0.311,0.007C92.128,51.496,92.041,51.419,92.038,51.314z"/>
				<path fill="#0054A6" d="M91.799,55.681l0.032-0.422c0.008-0.102,0.093-0.176,0.193-0.169l0.2,0.015
					c-0.223-0.457-0.383-0.927-0.347-1.438c0.054-0.779,0.442-1.465,1.583-1.388l0.111,0.008c0.986,0.07,1.437,0.68,1.322,2.308
					l-0.046,0.674l0.364,0.026c0.769,0.052,1.052-0.19,1.101-0.906c0.043-0.593,0.037-1.033,0.027-1.4
					c0.003-0.019,0.003-0.029,0.003-0.046c0.007-0.084,0.039-0.162,0.156-0.154l0.322,0.021c0.101,0.007,0.15,0.075,0.157,0.209
					c0.039,0.377,0.063,0.8,0.021,1.421c-0.089,1.27-0.765,1.736-1.845,1.661l-3.187-0.222C91.871,55.87,91.792,55.78,91.799,55.681
					z M94.273,55.229l0.046-0.676c0.078-1.104-0.147-1.415-0.794-1.463l-0.11-0.007c-0.657-0.045-0.854,0.254-0.89,0.783
					c-0.029,0.418,0.07,0.804,0.278,1.259L94.273,55.229z"/>
				<path fill="#0054A6" d="M91.266,59.13c0.003-0.186,0.022-0.425,0.05-0.597c0.13-0.833,0.412-1.197,1.406-1.04l3.157,0.498
					l0.238-0.863c0.026-0.096,0.09-0.161,0.19-0.147l0.242,0.039c0.101,0.017,0.154,0.098,0.138,0.198l-0.138,0.878l0.887,0.142
					c0.09,0.014,0.154,0.089,0.154,0.189v0.481c-0.004,0.013-0.004,0.019-0.004,0.029c-0.013,0.072-0.085,0.126-0.176,0.11
					l-0.985-0.153l-0.154,0.976c-0.019,0.102-0.11,0.169-0.212,0.154l-0.307-0.05c-0.1-0.015-0.168-0.112-0.152-0.211l0.152-0.978
					l-3.157-0.497c-0.496-0.078-0.59,0.037-0.647,0.401l-0.077,0.504c-0.022,0.129-0.069,0.187-0.157,0.171l-0.319-0.05
					C91.315,59.303,91.266,59.248,91.266,59.13z"/>
				<path fill="#0054A6" d="M90.948,60.678l0.092-0.43c0.021-0.099,0.121-0.159,0.219-0.138l4.559,1.013
					c0.1,0.021,0.16,0.117,0.141,0.218l-0.095,0.429c-0.021,0.096-0.121,0.16-0.217,0.14l-4.56-1.014
					C90.987,60.876,90.926,60.775,90.948,60.678z M96.646,61.963l0.101-0.458c0.021-0.097,0.118-0.161,0.219-0.14l0.715,0.16
					c0.096,0.022,0.16,0.119,0.139,0.219l-0.099,0.455c-0.022,0.099-0.123,0.159-0.219,0.139l-0.716-0.158
					C96.688,62.159,96.625,62.06,96.646,61.963z"/>
				<path fill="#0054A6" d="M90.076,63.707c0.393-1.287,1.44-1.681,2.728-1.287l0.664,0.204c1.285,0.393,1.932,1.308,1.538,2.595
					c-0.394,1.285-1.447,1.689-2.731,1.295l-0.665-0.203C90.325,65.916,89.679,64.99,90.076,63.707z M92.51,65.744
					c0.891,0.272,1.57,0.091,1.825-0.732c0.245-0.814-0.201-1.344-1.103-1.619l-0.664-0.203c-0.895-0.276-1.57-0.098-1.82,0.722
					c-0.251,0.814,0.196,1.351,1.097,1.631L92.51,65.744z"/>
				<path fill="#0054A6" d="M87.772,69.8l0.176-0.4c0.042-0.094,0.15-0.137,0.243-0.094l2.757,1.2
					c0.847,0.374,1.229,0.202,1.509-0.435c0.154-0.354,0.189-0.805,0.168-1.276l-3.54-1.544c-0.083-0.036-0.133-0.147-0.093-0.239
					l0.179-0.412c0.036-0.082,0.146-0.125,0.239-0.086l4.272,1.867c0.093,0.038,0.14,0.139,0.097,0.231l-0.182,0.418
					c-0.039,0.094-0.144,0.13-0.236,0.086L93.2,69.049c0.062,0.571,0.021,1.004-0.196,1.501c-0.436,1.006-1.266,1.185-2.378,0.697
					l-2.756-1.204C87.775,70.002,87.733,69.894,87.772,69.8z"/>
			</g>
			<g>
				<g>
					<path fill="#0054A6" d="M38.896,99c-1.051,0-1.82-0.118-2.299-0.231c-0.186-0.047-0.257-0.119-0.257-0.258v-1.016
						c0-0.165,0.083-0.246,0.211-0.246c0.021,0,0.036,0,0.057,0c0.562,0.093,1.437,0.164,2.127,0.164
						c1.026,0,1.459-0.407,1.459-1.705v-0.083c-0.304,0.062-0.887,0.144-1.38,0.144c-1.573,0-2.881-0.668-2.881-2.607v-0.082
						c0-1.774,1.072-2.965,3.082-2.965c1.88,0,3.129,1.109,3.129,3.434v1.788C42.143,97.974,40.881,99,38.896,99z M40.194,93.548
						c0-1.587-0.504-1.913-1.18-1.913c-0.644,0-1.133,0.302-1.133,1.444v0.082c0,0.959,0.562,1.216,1.251,1.216
						c0.3,0,0.793-0.071,1.062-0.117V93.548z"/>
					<path fill="#0054A6" d="M46.44,99c-1.984,0-3.143-1.133-3.143-3.933v-1.004c0-2.804,1.159-3.949,3.143-3.949
						s3.15,1.146,3.15,3.949v1.004C49.591,97.867,48.425,99,46.44,99z M47.595,94.063c0-1.846-0.5-2.29-1.155-2.29
						s-1.144,0.444-1.144,2.29v1.004c0,1.846,0.489,2.274,1.144,2.274s1.155-0.429,1.155-2.274V94.063z"/>
					<path fill="#0054A6" d="M53.852,99c-1.984,0-3.138-1.133-3.138-3.933v-1.004c0-2.804,1.154-3.949,3.138-3.949
						c1.99,0,3.154,1.146,3.154,3.949v1.004C57.006,97.867,55.842,99,53.852,99z M55.011,94.063c0-1.846-0.504-2.29-1.159-2.29
						c-0.649,0-1.143,0.444-1.143,2.29v1.004c0,1.846,0.493,2.274,1.143,2.274c0.655,0,1.159-0.429,1.159-2.274V94.063z"/>
					<path fill="#0054A6" d="M60.474,97.237v-5.02l-1.52,0.654c-0.057,0.022-0.104,0.031-0.139,0.031
						c-0.081,0-0.129-0.057-0.129-0.149v-1.33c0-0.082,0.036-0.129,0.117-0.164l2.113-0.994c0.084-0.032,0.15-0.047,0.269-0.047
						h1.052c0.128,0,0.221,0.098,0.221,0.223v6.796h1.553c0.129,0,0.235,0.093,0.235,0.222v1.201c0,0.129-0.106,0.236-0.235,0.236
						h-5.088c-0.129,0-0.236-0.107-0.236-0.236v-1.201c0-0.129,0.107-0.222,0.236-0.222H60.474z"/>
				</g>
			</g>
		</g>
	</g>
</g>
</svg>
