<?xml version="1.0" encoding="UTF-8"?>
<!DOCTYPE svg PUBLIC "-//W3C//DTD SVG 1.1//EN" "http://www.w3.org/Graphics/SVG/1.1/DTD/svg11.dtd">
<!-- Creator: CorelDRAW 2018 (64-Bit) -->
<svg xmlns="http://www.w3.org/2000/svg" xml:space="preserve" width="37px" height="37px" version="1.1" style="shape-rendering:geometricPrecision; text-rendering:geometricPrecision; image-rendering:optimizeQuality; fill-rule:evenodd; clip-rule:evenodd"
viewBox="0 0 37 37"
 xmlns:xlink="http://www.w3.org/1999/xlink">
 <defs>
  <style type="text/css">
    .fil0 {fill:none}
    .fil1 {fill:white}
  </style>
 </defs>
 <g id="Layer_x0020_1">
  <metadata id="CorelCorpID_0Corel-Layer"/>
  <rect class="fil0" width="37" height="37"/>
  <path class="fil1" d="M13.37 16.69c0,0.72 0.08,0.86 0.51,1.44 0.68,0.89 2,2.45 2.82,3.11 0.18,0.13 0.28,0.26 0.44,0.42l0.95 0.79c1.61,1.31 2.61,2.04 4.35,-0.22 1.67,-2.16 1.95,-1.2 3.99,0.84 0.28,0.28 1.75,1.63 1.75,1.93 0,0.75 -0.14,0.69 -0.74,1.29 -0.31,0.31 -0.56,0.62 -0.93,0.87 -1.71,1.15 -3.09,1.19 -5.02,0.56l-1.67 -0.64c-1.08,-0.51 -1.97,-1.09 -2.91,-1.71 -0.23,-0.16 -0.44,-0.31 -0.67,-0.49 -1.61,-1.34 -1.81,-1.42 -3.29,-3.07 -1.28,-1.45 -1.61,-1.97 -2.63,-3.66 -0.31,-0.51 -0.49,-1 -0.76,-1.55 -1.26,-2.61 -1.04,-4.7 0.94,-6.68 1.67,-1.68 1.22,-1.56 4.73,1.95 1.37,1.37 1.12,1.3 -0.54,2.96 -0.43,0.43 -1.32,1.1 -1.32,1.86zm23.63 1.13l0 1.42c-0.05,1.26 -0.23,2.53 -0.54,3.78 -0.48,1.96 -1.07,3.14 -1.94,4.78 -0.69,1.31 -1.62,2.25 -2.39,3.24 -0.54,0.71 -2.29,2.13 -3.01,2.64 -0.22,0.15 -0.44,0.3 -0.7,0.45 -3.51,2.08 -5.93,2.87 -10.57,2.87 -5.01,0 -10.64,-2.9 -13.54,-6.62 -0.67,-0.85 -1.34,-1.67 -1.85,-2.63 -0.26,-0.48 -0.53,-0.93 -0.77,-1.47 -1.28,-2.76 -1.69,-5.03 -1.69,-8.43 0,-2.54 0.89,-5.52 1.73,-7.23 1.14,-2.3 2.88,-4.75 4.89,-6.31 0.24,-0.19 0.38,-0.33 0.64,-0.52 0.23,-0.17 0.4,-0.32 0.62,-0.47 0.22,-0.15 0.44,-0.3 0.7,-0.45 0.76,-0.45 1.27,-0.78 2.14,-1.18 2.76,-1.28 5.03,-1.69 8.43,-1.69 5.01,0 10.64,2.9 13.54,6.62 0.19,0.24 0.33,0.38 0.52,0.64l0.92 1.32c0.64,1.08 1.04,1.72 1.53,2.95 0.81,2.02 1.26,4.15 1.34,6.29z"/>
 </g>
</svg>
