<?xml version="1.0" encoding="utf-8"?>
<!-- Generator: Adobe Illustrator 19.0.0, SVG Export Plug-In . SVG Version: 6.00 Build 0)  -->
<svg version="1.1" id="Layer_1" xmlns="http://www.w3.org/2000/svg" xmlns:xlink="http://www.w3.org/1999/xlink" x="0px" y="0px"
	 viewBox="0 0 50 50" style="enable-background:new 0 0 50 50;" xml:space="preserve">
<style type="text/css">
	.st0{fill:#33B88B;}
	.st1{fill:none;}
</style>
<path id="XMLID_1_" class="st0" d="M12.5,0.9c1.7,0.5,2.7,1.8,3.7,3.2c1,1.6,2.1,3.2,3,4.9c0.7,1.2,1,2.6,0.7,4
	c-0.2,0.9-0.6,1.7-1.3,2.3c-0.9,0.8-1.9,1.7-2.9,2.4c-2,1.4-2.3,3.1-1.5,5.3c0.7,2,1.9,3.7,3.2,5.4c1.7,2.2,3.5,4.2,5.7,6
	c1.2,1,2.4,1.8,4,2.2c1.4,0.3,2.5,0,3.5-1c1-0.9,1.9-1.9,2.9-2.7c1.7-1.4,3.5-1.5,5.4-0.5c0.6,0.3,1.3,0.7,1.8,1.1
	c2,1.6,4,3.1,5.5,5.1c1.3,1.7,1.2,3.3-0.4,4.7c-1.5,1.4-2.9,2.8-4.7,3.9c-1.8,1-3.8,1.7-5.9,1.9c-0.1,0-0.3,0.1-0.4,0.1
	c-0.8,0-1.6,0-2.5,0c-0.1,0-0.1-0.1-0.2-0.1c-3.5-0.3-6.6-1.6-9.5-3.4c-3.4-2.1-6.3-4.7-9-7.7c-3.5-3.7-6.6-7.7-8.8-12.3
	c-1.9-3.9-3-8-2.5-12.4c0.3-2.7,1.3-5.1,2.9-7.2c1-1.4,2.3-2.4,3.6-3.5c0.8-0.7,1.7-1.5,2.8-1.8C11.8,0.9,12.2,0.9,12.5,0.9z"/>
<rect id="XMLID_2_" y="0" class="st1" width="50" height="50"/>
</svg>
