<?xml version="1.0" encoding="utf-8"?>
<!-- Generator: Adobe Illustrator 16.0.0, SVG Export Plug-In . SVG Version: 6.00 Build 0)  -->
<!DOCTYPE svg PUBLIC "-//W3C//DTD SVG 1.1//EN" "http://www.w3.org/Graphics/SVG/1.1/DTD/svg11.dtd">
<svg version="1.1" id="Layer_1" xmlns="http://www.w3.org/2000/svg" xmlns:xlink="http://www.w3.org/1999/xlink" x="0px" y="0px"
	 width="37px" height="37px" viewBox="0 0 37 37" enable-background="new 0 0 37 37" xml:space="preserve">
<path fill="#18740B" d="M35.66,11.53c-0.49-1.23-0.891-1.87-1.53-2.95l-0.92-1.32c-0.19-0.26-0.33-0.4-0.521-0.64
	C29.79,2.9,24.16,0,19.15,0c-3.4,0-5.67,0.41-8.43,1.69C9.85,2.09,9.34,2.42,8.58,2.871c-0.26,0.15-0.48,0.3-0.7,0.45
	c-0.22,0.15-0.39,0.3-0.62,0.47c-0.26,0.19-0.4,0.33-0.64,0.52c-2.011,1.56-3.75,4.01-4.89,6.31c-0.84,1.71-1.73,4.69-1.73,7.23
	c0,3.399,0.41,5.669,1.689,8.429C1.93,26.82,2.2,27.27,2.46,27.75c0.511,0.961,1.181,1.779,1.851,2.631C7.21,34.1,12.84,37,17.85,37
	c4.641,0,7.061-0.789,10.57-2.869c0.26-0.15,0.48-0.301,0.7-0.451c0.72-0.51,2.47-1.93,3.01-2.639c0.771-0.99,1.7-1.932,2.39-3.24
	c0.871-1.641,1.461-2.82,1.94-4.781c0.31-1.25,0.49-2.52,0.54-3.779v-1.42C36.92,15.681,36.471,13.55,35.66,11.53z M27.439,26.291
	c-0.31,0.309-0.56,0.619-0.93,0.869c-1.71,1.15-3.09,1.189-5.02,0.561l-1.67-0.641c-1.08-0.51-1.971-1.09-2.91-1.709
	c-0.23-0.16-0.439-0.311-0.67-0.49c-1.61-1.34-1.811-1.42-3.29-3.07c-1.28-1.451-1.61-1.971-2.63-3.66c-0.311-0.51-0.49-1-0.76-1.55
	C8.3,13.991,8.52,11.9,10.5,9.92c1.67-1.68,1.221-1.56,4.73,1.95c1.369,1.37,1.119,1.3-0.541,2.96c-0.43,0.43-1.319,1.1-1.319,1.86
	c0,0.72,0.08,0.86,0.51,1.44c0.681,0.889,2,2.449,2.82,3.109c0.18,0.131,0.28,0.26,0.44,0.42l0.949,0.791
	c1.61,1.309,2.61,2.039,4.35-0.221c1.67-2.16,1.951-1.201,3.99,0.84c0.28,0.279,1.75,1.631,1.75,1.93
	C28.18,25.75,28.04,25.689,27.439,26.291z"/>
</svg>
