<?xml version="1.0" encoding="UTF-8"?>
<!DOCTYPE svg PUBLIC "-//W3C//DTD SVG 1.1//EN" "http://www.w3.org/Graphics/SVG/1.1/DTD/svg11.dtd">
<!-- Creator: CorelDRAW 2018 (64-Bit) -->
<svg xmlns="http://www.w3.org/2000/svg" xml:space="preserve" width="42px" height="42px" version="1.1" style="shape-rendering:geometricPrecision; text-rendering:geometricPrecision; image-rendering:optimizeQuality; fill-rule:evenodd; clip-rule:evenodd"
viewBox="0 0 42 42"
 xmlns:xlink="http://www.w3.org/1999/xlink">
 <defs>
  <style type="text/css">
   <![CDATA[
    .fil0 {fill:none}
    .fil1 {fill:white}
   ]]>
  </style>
 </defs>
 <g id="Layer_x0020_1">
  <metadata id="CorelCorpID_0Corel-Layer"/>
  <rect class="fil0" width="42" height="42"/>
  <g id="_1809487704224">
   <path class="fil1" d="M26.94 25.42l-0.03 -0.29c-0.61,-7.37 -8.77,-11.26 -15.42,-9.8 -2.81,0.62 -5.92,2.31 -7.55,4.25 -1.32,1.57 -2.46,3.74 -2.46,5.84 0,1.98 0.13,3.04 1.02,4.81 0.28,0.56 0.56,1.05 0.94,1.55 0.49,0.66 0.99,0.93 1.21,1.81 0.37,1.51 0,3.28 -0.8,4.67 0.67,-0.16 1.39,-0.39 1.66,-0.51 0.65,-0.33 1.14,-0.6 1.72,-1.03 0.41,-0.32 0.64,-0.64 1.2,-0.77 0.5,-0.12 0.85,0.02 1.31,0.16 0.51,0.16 1.03,0.27 1.56,0.36 3.52,0.63 7.04,0.27 10.15,-1.6 1.05,-0.63 2.23,-1.53 3.01,-2.49 0.43,-0.54 0.81,-1.08 1.17,-1.67 0.35,-0.57 0.62,-1.22 0.83,-1.85 0.19,-0.56 0.43,-1.58 0.45,-2.16l0.03 -1.28zm15.06 -11.45l0 1.18c-0.12,2.11 -0.9,4.13 -2.3,6.09 -0.74,1.04 -0.98,0.67 -0.98,1.88 0,3.36 1.64,3.54 1.64,4.35 0,0.5 -0.21,0.9 -0.74,0.9 -2.11,0 -3.61,-0.52 -5.22,-1.59 -1.67,-1.11 -0.43,-1.01 -2.35,-0.56 -0.42,0.1 -0.7,0.16 -1.16,0.23 -0.77,0.13 -1.67,0.28 -2.51,0.28 -0.01,0.73 -0.31,1.99 -0.52,2.6 -0.25,0.77 -0.58,1.51 -0.97,2.14 -0.42,0.7 -0.79,1.22 -1.28,1.84 -0.88,1.09 -2.21,2.11 -3.41,2.83 -3.38,2.03 -7.23,2.49 -11.16,1.78 -2.93,-0.52 -1.81,-0.87 -2.92,-0.03 -0.7,0.54 -1.13,0.77 -1.94,1.17 -0.43,0.22 -4.54,1.69 -4.54,0.06 0,-0.68 0.2,-0.59 0.54,-1.02 0.89,-1.13 1.36,-2.85 1.03,-4.16 -0.1,-0.44 -0.36,-0.49 -0.95,-1.27 -0.45,-0.59 -0.74,-1.09 -1.09,-1.78 -0.96,-1.94 -1.17,-3.15 -1.17,-5.47 0,-2.56 1.35,-5.04 2.81,-6.79 2.33,-2.76 7.14,-5.02 10.81,-5.02 0.04,-1.95 1.02,-4.14 2.1,-5.7 1.03,-1.5 2.47,-2.76 4.01,-3.69 0.6,-0.36 1.36,-0.74 2.03,-1.01 2.37,-0.94 3.79,-1.09 6.38,-1.09 4.71,0 10.31,3.03 12.38,6.89 0.21,0.38 0.4,0.66 0.57,1.08 0.54,1.32 0.84,2.61 0.91,3.88zm-14.44 -10.21c3.15,0 6.27,1.1 8.7,2.95 2.02,1.55 3.52,3.76 3.95,6.31 0.27,1.59 0.14,2.45 -0.24,3.97 -0.2,0.77 -0.58,1.58 -0.93,2.19 -1.33,2.32 -2.04,1.61 -2.04,4.44 0,1.06 0.36,2.16 0.73,2.87 -1.08,-0.26 -2.42,-0.99 -3.17,-1.75 -1.16,-1.16 -0.77,-0.67 -3.39,-0.06 -0.79,0.19 -1.81,0.33 -2.79,0.33 -0.24,-2.88 -1.4,-4.98 -3.18,-6.91 -0.15,-0.17 -0.2,-0.29 -0.38,-0.44 -0.31,-0.26 -0.57,-0.46 -0.78,-0.77l9.1 0c0.48,0 1.02,0.02 1.48,0 0.66,-0.03 0.82,-0.38 0.82,-0.91 0,-0.93 -1.12,-0.73 -2.05,-0.73l-11.24 0c-1.15,0.01 -0.99,-0.22 -2.15,-0.65 -1.21,-0.45 -3.31,-0.99 -4.66,-0.99 0,-1.62 1.03,-3.82 1.88,-4.93l1.33 -1.46c1.36,-1.13 2.31,-1.94 4.28,-2.61 1.49,-0.5 3.11,-0.85 4.73,-0.85z"/>
   <path class="fil1" d="M6.56 29.11c0,0.5 0.22,0.9 0.74,0.9l13.78 0c0.99,0 0.99,-1.64 0,-1.64l-13.78 0c-0.41,0 -0.74,0.34 -0.74,0.74z"/>
   <path class="fil1" d="M23.46 11.06c0,0.5 0.21,0.91 0.74,0.91l10.5 0c0.99,0 0.99,-1.65 0,-1.65l-10.5 0c-0.41,0 -0.74,0.34 -0.74,0.74z"/>
   <path class="fil1" d="M9.84 24.19c0,0.5 0.22,0.9 0.74,0.9l10.5 0c0.99,0 0.99,-1.64 0,-1.64l-10.5 0c-0.4,0 -0.74,0.33 -0.74,0.74z"/>
   <path class="fil1" d="M20.18 11.06c0,1.23 1.64,1.23 1.64,0 0,-0.99 -1.64,-0.99 -1.64,0z"/>
   <path class="fil1" d="M6.56 24.19c0,1.23 1.64,1.23 1.64,0 0,-0.99 -1.64,-0.99 -1.64,0z"/>
  </g>
 </g>
</svg>
