<?xml version="1.0" encoding="utf-8"?>
<!-- Generator: Adobe Illustrator 16.0.0, SVG Export Plug-In . SVG Version: 6.00 Build 0)  -->
<!DOCTYPE svg PUBLIC "-//W3C//DTD SVG 1.1//EN" "http://www.w3.org/Graphics/SVG/1.1/DTD/svg11.dtd">
<svg version="1.1" id="Layer_1" xmlns="http://www.w3.org/2000/svg" xmlns:xlink="http://www.w3.org/1999/xlink" x="0px" y="0px"
	 width="42px" height="42px" viewBox="0 0 42 42" enable-background="new 0 0 42 42" xml:space="preserve">
<g>
	<path fill="#18740B" d="M42,15.15v-1.18c-0.07-1.27-0.369-2.56-0.91-3.88c-0.17-0.42-0.359-0.7-0.57-1.08
		c-2.068-3.86-7.67-6.89-12.379-6.89c-2.59,0-4.01,0.15-6.381,1.09c-0.67,0.27-1.43,0.65-2.03,1.01c-1.54,0.93-2.98,2.19-4.01,3.69
		c-1.08,1.56-2.06,3.75-2.1,5.7c-3.67,0-8.48,2.26-10.81,5.02C1.35,20.38,0,22.859,0,25.42c0,2.32,0.21,3.531,1.17,5.471
		c0.35,0.689,0.64,1.189,1.09,1.779c0.59,0.781,0.85,0.83,0.95,1.27c0.33,1.311-0.14,3.031-1.03,4.16
		c-0.34,0.43-0.54,0.34-0.54,1.021c0,1.629,4.11,0.158,4.54-0.061c0.81-0.4,1.24-0.631,1.94-1.17c1.11-0.84-0.01-0.49,2.92,0.029
		c3.93,0.711,7.78,0.25,11.161-1.779c1.199-0.721,2.529-1.74,3.408-2.83c0.49-0.621,0.861-1.141,1.281-1.84
		c0.389-0.631,0.719-1.371,0.969-2.141c0.211-0.609,0.512-1.869,0.521-2.6c0.84,0,1.74-0.15,2.51-0.279
		c0.459-0.07,0.74-0.131,1.16-0.23c1.92-0.451,0.68-0.551,2.35,0.559c1.609,1.07,3.109,1.592,5.221,1.592
		c0.529,0,0.738-0.4,0.738-0.9c0-0.811-1.639-0.99-1.639-4.35c0-1.211,0.24-0.842,0.98-1.88C41.1,19.281,41.881,17.26,42,15.15z
		 M26.91,26.701c-0.02,0.578-0.26,1.6-0.449,2.158c-0.211,0.631-0.48,1.281-0.83,1.852c-0.361,0.59-0.74,1.129-1.17,1.67
		c-0.781,0.959-1.961,1.859-3.011,2.49c-3.11,1.869-6.63,2.229-10.15,1.6c-0.53-0.09-1.05-0.201-1.56-0.361
		c-0.46-0.139-0.81-0.279-1.31-0.158c-0.56,0.129-0.79,0.449-1.2,0.77c-0.58,0.43-1.07,0.699-1.72,1.029
		c-0.27,0.121-0.99,0.35-1.66,0.51c0.8-1.389,1.17-3.16,0.8-4.67c-0.22-0.879-0.72-1.15-1.21-1.811c-0.38-0.5-0.66-0.988-0.94-1.549
		c-0.89-1.77-1.02-2.83-1.02-4.811c0-2.1,1.14-4.27,2.46-5.839c1.63-1.94,4.74-3.63,7.55-4.25c6.65-1.46,14.811,2.43,15.42,9.8
		l0.029,0.289L26.91,26.701z M37,23.621c0,1.059,0.359,2.158,0.73,2.869c-1.08-0.26-2.42-0.99-3.17-1.75
		c-1.16-1.16-0.77-0.67-3.391-0.061c-0.789,0.191-1.811,0.33-2.789,0.33c-0.24-2.879-1.4-4.979-3.18-6.909
		c-0.15-0.17-0.201-0.29-0.381-0.44c-0.311-0.26-0.57-0.46-0.779-0.77h9.1c0.48,0,1.02,0.02,1.48,0
		c0.658-0.03,0.818-0.38,0.818-0.91c0-0.93-1.119-0.73-2.049-0.73H22.15c-1.15,0.01-0.99-0.22-2.15-0.65
		c-1.21-0.45-3.31-0.99-4.66-0.99c0-1.62,1.03-3.82,1.88-4.93l1.33-1.46c1.36-1.13,2.31-1.94,4.28-2.61
		c1.49-0.5,3.109-0.85,4.73-0.85c3.15,0,6.27,1.1,8.699,2.95c2.02,1.55,3.52,3.76,3.951,6.31c0.27,1.59,0.139,2.45-0.24,3.97
		c-0.201,0.77-0.58,1.579-0.93,2.19C37.711,21.5,37,20.791,37,23.621z"/>
	<path fill="#18740B" d="M21.08,28.371H7.3c-0.41,0-0.74,0.34-0.74,0.738c0,0.5,0.22,0.9,0.74,0.9h13.78
		C22.07,30.01,22.07,28.371,21.08,28.371z"/>
	<path fill="#18740B" d="M34.701,10.32h-10.5c-0.41,0-0.74,0.34-0.74,0.74c0,0.5,0.209,0.91,0.74,0.91h10.5
		C35.689,11.971,35.689,10.32,34.701,10.32z"/>
	<path fill="#18740B" d="M21.08,23.451h-10.5c-0.4,0-0.74,0.328-0.74,0.738c0,0.5,0.22,0.9,0.74,0.9h10.5
		C22.07,25.09,22.07,23.451,21.08,23.451z"/>
	<path fill="#18740B" d="M20.18,11.061c0,1.23,1.64,1.23,1.64,0C21.82,10.07,20.18,10.07,20.18,11.061z"/>
	<path fill="#18740B" d="M8.2,24.189c0-0.988-1.64-0.988-1.64,0C6.56,25.42,8.2,25.42,8.2,24.189z"/>
</g>
</svg>
