<?xml version="1.0" encoding="utf-8"?>
<!-- Generator: Adobe Illustrator 16.0.0, SVG Export Plug-In . SVG Version: 6.00 Build 0)  -->
<!DOCTYPE svg PUBLIC "-//W3C//DTD SVG 1.1//EN" "http://www.w3.org/Graphics/SVG/1.1/DTD/svg11.dtd">
<svg version="1.1" id="Vrstva_1" xmlns="http://www.w3.org/2000/svg" xmlns:xlink="http://www.w3.org/1999/xlink" x="0px" y="0px"
	 width="170.079px" height="297.638px" viewBox="0 0 170.079 297.638" enable-background="new 0 0 170.079 297.638"
	 xml:space="preserve">
<g>
	<g>
		<path fill="#3D871A" d="M170.079,0H0c0,0,0,210.763,0,212.29c0,47.022,38.139,85.31,85.021,85.348h0.002h0.004
			c46.896-0.038,85.052-38.325,85.052-85.348C170.079,210.764,170.079,0,170.079,0z"/>
	</g>
</g>
<g>
	<path fill="#FFFFFF" d="M51.451,35.582c0-1.808-0.055-2.456-0.216-2.969c-0.136-0.486-0.648-0.81-1.242-0.81
		c-0.81,0-1.269,0.459-1.431,1.404c-0.054,0.432-0.081,1.646-0.081,3.833c0,1.917,0.027,6.262,0.055,6.802
		c0.026,1.161,0.566,1.808,1.457,1.808c0.783,0,1.296-0.513,1.403-1.403c0.055-0.297,0.055-0.324,0.081-2.916h2.754
		c-0.055,2.916-0.081,3.186-0.352,4.157c-0.432,1.539-1.916,2.51-3.887,2.51c-1.619,0-2.969-0.675-3.617-1.782
		c-0.54-0.945-0.647-2.24-0.647-7.855c0-5.291,0.135-6.478,0.891-7.477c0.675-0.891,1.917-1.43,3.374-1.43
		c1.971,0,3.455,0.972,3.887,2.537c0.243,0.864,0.297,1.296,0.324,3.59H51.451z"/>
	<path fill="#FFFFFF" d="M63.734,32.154h-4.724v4.994h4.347v2.429h-4.347V45.3h4.724v2.429h-7.477V29.725h7.477V32.154z"/>
	<path fill="#FFFFFF" d="M65.95,29.725h3.563c1.673,0,2.267,0.081,2.969,0.432c1.215,0.594,1.728,1.835,1.728,4.157
		c0,2.132-0.459,3.158-1.674,3.779c1.242,0.594,1.674,1.269,1.674,2.591v5.344c0,0.81,0.081,1.269,0.324,1.701h-2.915
		c-0.136-0.648-0.162-0.891-0.162-1.431v-3.752c0-2.51-0.378-3.05-2.079-3.05h-0.675v8.233H65.95V29.725z M69.378,37.256
		c1.646,0,2.079-0.54,2.079-2.591c0-2.105-0.352-2.51-2.214-2.51h-0.54v5.102H69.378z"/>
	<path fill="#FFFFFF" d="M81.393,47.729H78.64V32.154h-3.05v-2.43h8.88v2.43h-3.077V47.729z"/>
	<path fill="#FFFFFF" d="M88.899,47.729h-2.753V29.725h2.753V47.729z"/>
	<path fill="#FFFFFF" d="M99.077,32.154h-4.724v4.994H98.7v2.429h-4.347v8.152h-2.753V29.725h7.477V32.154z"/>
	<path fill="#FFFFFF" d="M103.426,47.729h-2.753V29.725h2.753V47.729z"/>
	<path fill="#FFFFFF" d="M113.604,32.154h-4.724v4.994h4.347v2.429h-4.347V45.3h4.724v2.429h-7.477V29.725h7.477V32.154z"/>
	<path fill="#FFFFFF" d="M119.005,29.725c2.456,0,3.455,0.297,4.237,1.296c0.837,1.026,1.08,2.699,1.08,7.693
		c0,5.372-0.271,6.964-1.296,7.99c-0.81,0.783-1.781,1.026-4.021,1.026h-3.186V29.725H119.005z M118.572,45.3h0.567
		c2.349,0,2.429-0.243,2.429-6.424c0-6.613-0.026-6.721-2.267-6.721h-0.729V45.3z"/>
	<path fill="#FFFFFF" d="M64.12,67.894l-1.406-1.159c-0.626,0.57-1.311,0.817-2.336,0.817c-1.368,0-2.527-0.684-3.116-1.843
		c-0.551-1.102-0.76-2.47-0.76-4.806c0-2.223,0.209-3.496,0.76-4.56c0.627-1.197,1.768-1.88,3.154-1.88
		c1.311,0,2.432,0.608,3.021,1.652c0.627,1.083,0.874,2.413,0.874,4.598c0,1.292-0.076,2.336-0.267,3.343
		c-0.133,0.76-0.247,1.102-0.607,1.748l1.405,1.234L64.12,67.894z M62.354,64.873c0.342-1.102,0.475-2.298,0.475-4.046
		c0-1.805-0.228-3.287-0.665-4.141c-0.304-0.627-0.969-1.007-1.747-1.007c-1.71,0-2.413,1.558-2.413,5.281
		c0,3.895,0.703,5.396,2.526,5.396c0.494,0,0.894-0.152,1.216-0.475l-1.272-1.007l0.741-0.95L62.354,64.873z"/>
	<path fill="#FFFFFF" d="M73.64,63.334c0,1.481-0.114,2.071-0.514,2.66c-0.646,1.007-1.729,1.52-3.153,1.52
		c-1.576,0-2.755-0.665-3.344-1.862c-0.266-0.57-0.36-1.14-0.36-2.317v-8.663h1.558v8.701c0,1.026,0.076,1.462,0.304,1.88
		c0.342,0.665,0.969,1.007,1.824,1.007c0.931,0,1.596-0.399,1.919-1.178c0.151-0.399,0.208-0.798,0.208-1.709v-8.701h1.559V63.334z"
		/>
	<path fill="#FFFFFF" d="M77.535,63.657l-1.026,3.686h-1.577l3.686-12.671h1.862l3.799,12.671h-1.652l-1.007-3.686H77.535z
		 M79.529,55.85l-1.69,6.516h3.419L79.529,55.85z"/>
	<path fill="#FFFFFF" d="M92.297,65.937v1.406h-6.611V54.672h1.463v11.265H92.297z"/>
	<path fill="#FFFFFF" d="M95.433,67.343h-1.406V54.672h1.406V67.343z"/>
	<path fill="#FFFFFF" d="M101.834,67.343h-1.538V56.04h-3.135v-1.368h7.751v1.368h-3.078V67.343z"/>
	<path fill="#FFFFFF" d="M110.727,67.343h-1.482v-4.863l-3.742-7.808h1.71l2.773,6.193l2.641-6.193h1.69l-3.59,7.712V67.343z"/>
	<path fill="#FFFFFF" d="M40.789,86.957l-2.85-10.714v10.714h-1.481V74.286h2.337l2.717,10.695l2.621-10.695h2.242v12.671h-1.463
		V76.242l-2.793,10.714H40.789z"/>
	<path fill="#FFFFFF" d="M50.386,83.271l-1.026,3.686h-1.577l3.686-12.671h1.862l3.799,12.671h-1.652l-1.007-3.686H50.386z
		 M52.38,75.463l-1.69,6.516h3.419L52.38,75.463z"/>
	<path fill="#FFFFFF" d="M66.097,86.957h-2.014L60.056,76.47v10.486h-1.52V74.286h1.957l4.104,10.372V74.286h1.5V86.957z"/>
	<path fill="#FFFFFF" d="M70.107,83.271l-1.026,3.686h-1.577l3.686-12.671h1.862l3.799,12.671h-1.652l-1.007-3.686H70.107z
		 M72.102,75.463l-1.69,6.516h3.419L72.102,75.463z"/>
	<path fill="#FFFFFF" d="M85.686,86.957h-1.178v-1.368c-0.722,1.064-1.596,1.577-2.735,1.577c-1.463,0-2.603-0.798-3.153-2.185
		c-0.438-1.14-0.646-2.622-0.646-4.673c0-4.236,1.254-6.231,3.914-6.231c1.311,0,2.47,0.589,3.096,1.577
		c0.361,0.589,0.532,1.216,0.57,2.355h-1.596c0-0.627-0.019-0.779-0.133-1.178c-0.304-0.912-0.988-1.444-1.899-1.444
		c-1.634,0-2.395,1.577-2.395,5.034c0,1.748,0.19,3.173,0.552,4.084c0.342,0.874,1.082,1.406,1.938,1.406
		c0.893,0,1.614-0.589,1.976-1.615c0.189-0.532,0.228-0.95,0.247-2.622h-2.584v-1.311h4.027V86.957z"/>
	<path fill="#FFFFFF" d="M89.411,85.608h5.224v1.349H87.91V74.286h6.725v1.425h-5.224V79.7h4.978v1.349h-4.978V85.608z"/>
	<path fill="#FFFFFF" d="M100.886,86.957l-2.85-10.714v10.714h-1.481V74.286h2.337l2.717,10.695l2.621-10.695h2.242v12.671h-1.463
		V76.242l-2.793,10.714H100.886z"/>
	<path fill="#FFFFFF" d="M110.329,85.608h5.224v1.349h-6.725V74.286h6.725v1.425h-5.224V79.7h4.978v1.349h-4.978V85.608z"/>
	<path fill="#FFFFFF" d="M125.033,86.957h-2.014l-4.027-10.486v10.486h-1.52V74.286h1.957l4.104,10.372V74.286h1.5V86.957z"/>
	<path fill="#FFFFFF" d="M131.304,86.957h-1.538V75.653h-3.135v-1.368h7.751v1.368h-3.078V86.957z"/>
	<path fill="#FFFFFF" d="M58.744,102.581c0.038,1.311,0.133,1.767,0.494,2.204c0.418,0.532,1.007,0.779,1.805,0.779
		c1.596,0,2.488-0.874,2.488-2.413c0-1.235-0.532-1.729-2.526-2.394c-1.691-0.551-2.185-0.779-2.66-1.216
		c-0.531-0.494-0.798-1.273-0.798-2.299c0-2.223,1.349-3.552,3.609-3.552c2.128,0,3.515,1.253,3.515,3.21
		c0,0.114,0,0.209-0.019,0.38h-1.463c0.019-0.19,0.038-0.342,0.038-0.437c0-0.494-0.229-1.045-0.608-1.406
		c-0.342-0.323-0.798-0.475-1.463-0.475c-1.387,0-2.146,0.76-2.146,2.147c0,0.608,0.229,1.159,0.57,1.444
		c0.304,0.247,0.702,0.399,1.994,0.835c1.387,0.456,1.919,0.684,2.413,1.083c0.684,0.513,1.025,1.368,1.025,2.508
		c0,2.355-1.501,3.799-3.97,3.799c-1.482,0-2.717-0.608-3.306-1.634c-0.323-0.551-0.456-1.216-0.494-2.564H58.744z"/>
	<path fill="#FFFFFF" d="M71.112,106.57H69.63v-4.863l-3.742-7.808h1.71l2.773,6.193l2.641-6.193h1.69l-3.59,7.712V106.57z"/>
	<path fill="#FFFFFF" d="M76.983,102.581c0.038,1.311,0.133,1.767,0.494,2.204c0.417,0.532,1.007,0.779,1.805,0.779
		c1.596,0,2.488-0.874,2.488-2.413c0-1.235-0.532-1.729-2.526-2.394c-1.691-0.551-2.185-0.779-2.66-1.216
		c-0.531-0.494-0.798-1.273-0.798-2.299c0-2.223,1.349-3.552,3.609-3.552c2.128,0,3.515,1.253,3.515,3.21
		c0,0.114,0,0.209-0.019,0.38h-1.463c0.019-0.19,0.038-0.342,0.038-0.437c0-0.494-0.229-1.045-0.608-1.406
		c-0.342-0.323-0.798-0.475-1.463-0.475c-1.387,0-2.146,0.76-2.146,2.147c0,0.608,0.229,1.159,0.57,1.444
		c0.304,0.247,0.702,0.399,1.994,0.835c1.387,0.456,1.919,0.684,2.413,1.083c0.684,0.513,1.025,1.368,1.025,2.508
		c0,2.355-1.501,3.799-3.97,3.799c-1.482,0-2.717-0.608-3.306-1.634c-0.323-0.551-0.456-1.216-0.494-2.564H76.983z"/>
	<path fill="#FFFFFF" d="M89.047,106.57h-1.538V95.267h-3.135v-1.368h7.751v1.368h-3.078V106.57z"/>
	<path fill="#FFFFFF" d="M95.223,105.221h5.225v1.349h-6.726V93.899h6.726v1.425h-5.225v3.989h4.978v1.349h-4.978V105.221z"/>
	<path fill="#FFFFFF" d="M106.697,106.57l-2.85-10.714v10.714h-1.481V93.899h2.337l2.717,10.695l2.621-10.695h2.242v12.671h-1.463
		V95.855l-2.793,10.714H106.697z"/>
</g>
<g>
	<path fill="#3D871A" d="M85.039,127.559C38.148,127.559,0,165.707,0,212.598s38.148,85.04,85.039,85.04
		c46.892,0,85.04-38.149,85.04-85.04S131.931,127.559,85.039,127.559z"/>
	<g>
		<path fill="#FFFFFF" d="M85.039,133.108c-43.9,0-79.49,35.59-79.49,79.49c0,43.901,35.589,79.491,79.49,79.491
			c43.901,0,79.491-35.59,79.491-79.491C164.53,168.698,128.94,133.108,85.039,133.108z M85.039,275.925
			c-34.973,0-63.325-28.353-63.325-63.327c0-34.974,28.352-63.326,63.325-63.326c34.976,0,63.328,28.353,63.328,63.326
			C148.367,247.572,120.015,275.925,85.039,275.925z"/>
		<g>
			<radialGradient id="SVGID_1_" cx="61.874" cy="180.292" r="90.7827" fx="61.8741" fy="180.2404" gradientUnits="userSpaceOnUse">
				<stop  offset="0.25" style="stop-color:#F6F6F6"/>
				<stop  offset="0.4593" style="stop-color:#F2F4F1"/>
				<stop  offset="0.7051" style="stop-color:#E6ECE3"/>
				<stop  offset="0.9683" style="stop-color:#D2E1CB"/>
				<stop  offset="1" style="stop-color:#CFDFC8"/>
			</radialGradient>
			<path fill="url(#SVGID_1_)" d="M133.631,237.327c0-1.229-1.006-0.597-1.355-3.279c-0.313-2.648,0.568-3.752,1.264-4.573
				c0.66-0.821-0.256-1.325-0.477-2.146c-0.219-0.817-0.563-1.229-0.563-2.558c0-1.319-2.242-2.142-2.68-3.06
				c-0.446-0.909-0.132-0.909,0.219-2.238c0.347-1.321,1.008-1.732,0-2.432c-0.343-0.231-0.645-0.302-0.924-0.302
				c-0.212,0-0.417,0.042-0.625,0.083c-0.204,0.042-0.424,0.085-0.649,0.085c-0.153,0-0.314-0.023-0.485-0.085
				c-0.976-0.274-0.802-1.644-2.219-1.644c-0.047,0-0.097,0-0.145,0.004c-1.58,0.126-1.358,0.727-2.464,1.229
				c-0.281,0.137-0.561,0.185-0.854,0.185c-0.392,0-0.795-0.091-1.191-0.185c-0.438-0.109-0.876-0.195-1.336-0.195
				c-0.07,0-0.142,0.004-0.211,0.007c-1.355,0.097-0.917,0.411-2.021,0.411c-1.135,0-1.482-0.725-2.019-1.734
				c-0.569-1.04-2.143-1.641-2.589-2.366c-0.471-0.695-1.826-2.745-1.922-3.565c-0.098-0.819,0.096-1.42,0.567-3.06
				c0.445-1.64-0.219-0.819-0.567-1.325c-0.346-0.504,0.096-1.324,0.662-2.238c0.57-0.913,1.012-1.735,2.052-2.963
				c1.008-1.203,0.756-0.822,2.021-1.329c1.227-0.503,0.536-1.828,0.883-2.649c0.344-0.817,0.344-0.504,1.227-1.01
				c0.919-0.504,0.919-0.915,1.801-1.64c0.303-0.227,0.511-0.305,0.698-0.305c0.386,0,0.678,0.336,1.444,0.401
				c0.213,0.024,0.376,0.033,0.518,0.033c0.593,0,0.688-0.208,1.502-0.54c1.01-0.407,1.578-0.503,2.808-0.915
				c0.505-0.166,0.924-0.208,1.375-0.208c0.223,0,0.455,0.011,0.707,0.02c0.221,0.019,0.456,0.024,0.724,0.024
				c0.267,0,0.554-0.006,0.883-0.024c0.132-0.009,0.241-0.013,0.34-0.013c1.372,0,0.569,0.787,0.452,1.841
				c-0.095,1.106-0.223,0.918,0.344,1.422c0.568,0.502,2.146,0.502,3.03,0.629c0.912,0.096,0.661,0.284,1.577,0.792
				c0.884,0.502,1.01,0.627,1.925,0.912c0.125,0.044,0.219,0.066,0.297,0.066c0.282,0,0.444-0.507,0.487-0.962
				c-1.03-3.282-2.36-6.429-3.95-9.416l-0.997-0.476c-0.537-0.486-0.923-0.955-1.272-0.955c-0.104,0-0.206,0.041-0.309,0.137
				c-0.438,0.407,0,0.692,0.445,1.417c0.442,0.725,0.665,0.634,1.704,1.01c0.535,0.254,0.754,0.379,0.977,0.507l0.389,0.212
				c0.094,0.188,0.181,0.384,0.271,0.571c-0.076,0.035-0.164,0.064-0.251,0.099l-0.157,0.063c-0.346,0.095-0.127,0.411-0.127,1.01
				s-0.566,0.725-1.231,1.135c-0.192,0.113-0.322,0.155-0.424,0.155c-0.248,0-0.336-0.273-0.805-0.565
				c-0.66-0.409,0.097-0.409,1.137-0.409c0.976,0,0.66-0.41,0.757-1.043c0.125-0.597-0.317-0.693-1.013-1.008
				c-0.658-0.314-0.784-0.314-1.892-0.818c-1.135-0.507-0.691-0.694-1.45-1.231c-0.455-0.292-0.612-0.445-0.835-0.445
				c-0.171,0-0.368,0.086-0.739,0.256c-0.919,0.41-0.698,0.315-1.802,0.41c-1.136,0.094-0.566,0-1.136,0.409
				c-0.568,0.409-0.347,0.506-0.787,1.105c-0.441,0.629-0.662,0.314-1.451,1.04c-0.786,0.695,0,0-0.126,1.106
				c-0.093,1.132-0.316,0.406-1.447,1.132c-0.453,0.294-0.705,0.369-0.884,0.369c-0.11,0-0.183-0.028-0.253-0.052
				c-0.091-0.023-0.178-0.061-0.28-0.061c-0.055,0-0.103,0.01-0.164,0.028c-0.363,0.138-0.531,0.282-0.782,0.282
				c-0.142,0-0.303-0.044-0.54-0.157c-0.697-0.315-0.475-0.41-0.917-0.504c-0.441-0.125-0.788-0.41-1.011-1.135
				c-0.033-0.114-0.051-0.205-0.062-0.294v-0.185c0.039-0.309,0.277-0.47,0.503-1.035c0.351-0.822-0.094-0.822-0.094-1.323
				c0-0.537,0.222-0.728,0.539-0.728c0.344,0,1.574,0.094,2.27,0.094h1.675c0,0,0.661-0.314,0.661-1.041
				c0-0.756,0.379-1.102-0.348-1.513c-0.76-0.41-0.76-0.253-1.201-0.599c-0.471-0.35-0.756-0.538-0.092-0.821
				c0.69-0.284,1.071-0.188,1.641-0.538c0.599-0.345,1.419-0.63,0.975-0.756c-0.438-0.127-0.438-0.127-0.975-0.127
				c-0.505,0-0.442,0-1.107,0.192c-0.47,0.15-0.752,0.577-0.887,0.577c-0.063,0-0.091-0.096-0.091-0.358
				c0-0.818-0.063-0.346,0.065-1.103c0.156-0.725-0.504-0.191,0.156-0.725c0.694-0.569,1.041-0.351,0.819-0.821
				c-0.221-0.474,0.475,0-0.221-0.474c-0.488-0.376-0.339-0.578-0.438-0.578c-0.03,0-0.096,0.024-0.226,0.071l-0.157,0.066
				l-0.157-0.254c-0.348-0.599-0.661-0.346-0.505-0.944c0.157-0.634-0.693-0.477,0.442-0.887c0.781-0.276,1.123-0.5,1.362-0.5
				c0.106,0,0.191,0.045,0.281,0.155c0.313,0.345,0.752,0.472,0.438,0.882c-0.281,0.411-0.503,0.757-0.219,1.168
				c0.314,0.41,0.533,0.537,0.912,0.883c0.381,0.314-0.091,0.538,0.505,0.726c0.602,0.223,1.135,0.349,0.978,0.756
				c-0.129,0.35-0.52,0.948-0.267,0.948c0.048,0,0.114-0.017,0.205-0.064c0.6-0.251,0.665-0.6,1.417-1.133
				c0.76-0.569,1.041-0.507,1.861-0.821c0.822-0.347,1.138,0,0.979-0.63c-0.109-0.442-0.508-0.918-0.57-1.307
				c-4.027-4.847-8.861-8.994-14.295-12.246c-0.397,0.246-0.973,0.443-1.504,1.217c-0.915,1.356-0.319,0.411-1.357,1.451
				c-1.041,1.041-0.57,0.63-2.871,0.822c-2.271,0.219-1.922,0.629-3.185,1.259c-1.265,0.633-1.737,0.633-4.009,1.263
				c-2.3,0.6-1.731,1.548-2.65,2.588c-0.401,0.463-0.58,0.674-0.803,0.726H96.94c-0.262-0.048-0.638-0.205-1.349-0.41
				c-1.706-0.538-2.049-1.862-2.049-3.943s0.913-1.167,2.049-1.577c1.135-0.411-0.096-0.727-0.442-1.23
				c-0.345-0.536-0.693-0.536-0.345-1.262c0.345-0.726,0-0.503-0.696-1.451c-0.372-0.47-0.748-0.555-1.475-0.555
				c-0.249,0-0.544,0.007-0.889,0.017c-0.35,0.021-0.747,0.041-1.211,0.041c-0.336,0-0.716-0.014-1.125-0.041
				c-3.187-0.093-1.011-0.284-0.789-1.133c0.085-0.362,0.545-0.452,1.15-0.452c0.296,0,0.624,0.024,0.964,0.041
				c0.292,0.018,0.592,0.038,0.895,0.038c0.22,0,0.438-0.013,0.65-0.038c1.484-0.096,0.694-0.506-0.219-0.947
				c-0.27-0.119-0.516-0.171-0.76-0.171c-0.566,0-1.138,0.276-2.114,0.52c-1.387,0.284-1.955,0.599-2.872,0.818
				c-0.912,0.191-1.353,0.41-2.836,1.04c-1.513,0.603-0.915,0.507-1.958,0.918c-0.542,0.213-0.706,0.268-0.899,0.268
				c-0.182,0-0.382-0.049-0.928-0.049c-1.136,0-1.136-0.092-2.271-0.092c-1.168,0-0.693-0.127-1.041-0.854
				c-0.114-0.236-0.091-0.317,0.016-0.317c0.233,0,0.853,0.35,1.465,0.41c0.181,0.027,0.319,0.038,0.437,0.038
				c0.478,0,0.581-0.195,1.519-0.445c1.137-0.283,1.358-0.599,2.618-1.451c0.712-0.462,0.398-0.564-0.149-0.564
				c-0.427,0-0.989,0.059-1.331,0.059c-0.821,0-0.695,0.222-1.608,0.506c-0.395,0.137-0.639,0.195-0.853,0.195
				c-0.29,0-0.525-0.113-0.977-0.291c-0.788-0.314,0.441-0.725,0.913-1.136c0.143-0.134,0.346-0.178,0.582-0.178
				c0.495,0,1.125,0.209,1.596,0.273c0,0,1.356-0.223,2.397-0.314c1.04-0.097,1.261-0.315,3.439-0.507
				c1.198-0.094,1.987-0.094,2.771-0.094c0.265,0.015,0.526,0.021,0.808,0.021c0.394,0,0.825-0.014,1.341-0.055
				c0.548-0.023,0.915-0.038,1.186-0.038c0.693,0,0.811,0.075,1.782,0.165c1.387,0.096,0.91,0.41-0.096,0.507
				c-1.041,0.092-0.603,0.314-0.128,0.63c0.094,0.064,0.203,0.088,0.32,0.088c0.473,0,1.101-0.403,1.731-0.403
				c0.822,0,1.168-0.223,3.09-0.726c0.668-0.182,1.785-0.351,2.625-0.459c-5.313-1.686-10.967-2.601-16.836-2.601
				c-12.125,0-23.333,3.89-32.473,10.474c0.444-0.092,0.71-0.176,1.074-0.176c0.211,0,0.468,0.031,0.82,0.109
				c1.354,0.315,2.489,0.411,3.373,0.727c0.884,0.284,0.442,0.821,2.366,0.916c1.16,0.055,1.822,0.165,2.293,0.165
				c0.298,0,0.515-0.044,0.736-0.165c0.568-0.317,2.019-0.41,0.347-0.632c-1.703-0.188-1.926,0.127-2.368-0.411
				c-0.44-0.503-0.789-0.093-0.566-0.787c0.219-0.726,0.441-0.537,0.219-1.041c-0.171-0.393,0.616-0.537,0.333-0.537
				c-0.084,0-0.248,0.01-0.551,0.03c-1.356,0.097-1.135,0.224-1.796,0.319c-0.446,0.062-1.15,0.454-1.399,0.454
				c-0.121,0-0.135-0.096,0.041-0.362c0.567-0.817,0.127-0.817,1.23-1.229c1.136-0.41,1.261-0.41,2.366-0.507
				c0.343-0.027,0.726-0.044,1.066-0.044c0.785,0,1.34,0.103,0.637,0.455c-1.01,0.507-1.798,0.821-1.137,0.913
				c0.458,0.069-0.132,0.192,0.146,0.192c0.122,0,0.423-0.023,1.084-0.096c2.146-0.188,2.242-0.188,3.154-0.188
				c0.884,0,0.318,0,1.231-0.096c0.617-0.063,1.424-0.329,1.676-0.329c0.125,0,0.117,0.063-0.099,0.233
				c-0.661,0.507-1.704,0.096-1.577,0.79c0.127,0.727-0.442,0.818,0.568,1.041c1.009,0.188,1.232,0.599,0.442,0.599
				c-0.525,0-0.546-0.082-0.802-0.082c-0.128,0-0.313,0.021-0.65,0.082c-0.146,0.037-0.287,0.048-0.416,0.048
				c-0.199,0-0.376-0.03-0.53-0.048c-0.157-0.021-0.292-0.044-0.394-0.044c-0.201,0-0.321,0.075-0.361,0.359
				c-0.096,0.694-0.663,0.916,0.567,1.009c0.637,0.048,0.86,0.11,1.081,0.11c0.2,0,0.407-0.052,0.937-0.203
				c0.157-0.047,0.281-0.064,0.376-0.064c0.168,0,0.244,0.051,0.285,0.096c0.04,0.037,0.051,0.078,0.075,0.078
				c0.034,0,0.118-0.089,0.399-0.427c0.589-0.682,1.059-1.191,1.201-1.191c0.048,0,0.061,0.059,0.03,0.182
				c-0.126,0.507-0.219,0.603-0.442,0.917c-0.168,0.236-0.279,0.645-0.037,0.645c0.083,0,0.195-0.041,0.353-0.142
				c0.692-0.41,1.483-0.093,1.483-1.009c0-0.914-0.473-1.041,0.096-1.229c0.566-0.223,1.008-0.63,0.472-0.63
				c-0.466,0-0.87,0.146-1.3,0.146c-0.091,0-0.183-0.006-0.278-0.023c-0.565-0.123-1.007-0.123-0.693-0.503
				c0.347-0.411,0.347-0.63,1.355-0.727c1.011-0.095,0.349,0,1.011-0.095c0.467-0.063,0.504-0.37,0.556-0.37
				c0.028,0,0.058,0.072,0.137,0.277c0.221,0.599-0.475,0.599,0.221,0.599c0.663,0,0.883,0,1.452-0.314
				c0.566-0.284,0.661-0.284,1.103-0.507c0.038-0.018,0.075-0.021,0.106-0.021c0.167,0,0.296,0.178,0.431,0.336
				c0.129,0.181,0.297,0.342,0.551,0.342c0.051,0,0.109-0.007,0.175-0.027c0.661-0.22,2.112-0.407,3.027-0.407
				c0.884,0,0.442,0,1.797,0.407c1.326,0.38,2.242,0.283,2.809,0.887c0.566,0.63,1.229,0.63,1.229,1.229
				c0,0.63-0.913,0.914,0.128,1.136c0.207,0.055,0.396,0.069,0.552,0.069c0.112,0,0.209-0.008,0.299-0.008c0.055,0,0.102,0,0.153,0
				c0.288,0,0.477,0.021,0.668,0.349c0.314,0.6,0.883,0.915,0.314,1.104c-0.538,0.222-0.665,0.222-1.231,0.222
				c-0.391,0-1.275-0.482-1.551-0.482c-0.106,0-0.123,0.072,0.005,0.261c0.441,0.725,1.327,0.725,1.23,1.136
				c-0.122,0.411,0,0.818-0.692,0.818c-0.664,0-1.011-0.093-1.325-0.22c-0.237-0.061-0.211-0.455-0.237-0.455
				c-0.013,0-0.037,0.089-0.109,0.359c-0.223,0.821,0.883,0.634-0.223,0.821c-0.566,0.113-0.851,0.188-1.051,0.188
				c-0.192,0-0.304-0.075-0.526-0.283c-0.442-0.411-0.442-0.504-0.913-0.727c-0.442-0.188,0.124-0.314-1.01-0.314
				c-0.735,0-1.177,0.24-1.429,0.24c-0.124,0-0.201-0.063-0.242-0.24c-0.094-0.503,0.125-0.787,1.009-0.914
				c0.053-0.008,0.106-0.01,0.15-0.01c0.205,0,0.349,0.048,0.449,0.07c0.088,0.025,0.157,0.059,0.252,0.059
				c0.141,0,0.331-0.068,0.727-0.308c1.008-0.633,2.019-0.318,1.577-1.136c-0.473-0.821-0.693-1.105-1.482-1.325
				c-0.789-0.191-1.01-0.191-1.894-0.191c-0.414,0-0.735-0.045-0.958-0.045c-0.261,0-0.398,0.065-0.398,0.329
				c0,0.538,0.128,0.948-0.221,1.136c-0.349,0.224-0.221,0.507-0.788,0.6c-0.568,0.127-0.442,0.127-1.134,0.127
				c-0.442,0-0.942,0.308-1.117,0.308c-0.095,0-0.104-0.075,0.013-0.308c0.345-0.727,0-0.63,0.663-1.041
				c0.692-0.41,1.008-0.096,1.134-0.821c0.033-0.315,0.033-0.315,0-0.315c-0.006,0.008-0.013,0.015-0.024,0.015
				c-0.047,0-0.12-0.083-0.196-0.486c-0.221-0.944,0-0.223-0.221-0.944c-0.182-0.507,0.361-0.859,0.247-0.859
				c-0.046,0-0.187,0.052-0.497,0.164c-1.104,0.411-1.104,0.188-1.673,0.599c-0.569,0.411-0.788,0.315-0.569,1.041
				c0.223,0.694,0.128,0.787,0.696,0.787c0.535,0,1.323,0.127,0.663,0.633c-0.663,0.503-0.883,0.503-0.789,1.01
				c0.126,0.504,0.789,0.504-0.222,0.914c-1.008,0.411-1.45,1.041-2.932,1.544c-1.452,0.506-1.892,0.318-3.029,1.009
				c-1.104,0.727-1.323,0.411-1.672,1.232c-0.345,0.818-0.663,0.727-0.221,1.324c0.442,0.6,0.789,0.819,1.452,1.011
				c0.695,0.219,1.137,0.817,2.145,0.913c0.186,0.038,0.369,0.052,0.543,0.052c0.122,0,0.234-0.007,0.34-0.021
				c0.566,0,0.883,0,0.693,0.38c-0.347,0.63-1.135,1.735-0.693,2.27c0.259,0.297,0.675,0.622,1.097,0.622
				c0.297,0,0.593-0.161,0.827-0.622c0.567-1.134,0.219-1.64,1.009-2.143c0.284-0.192,0.568-0.192,0.82-0.192
				c0.066,0.007,0.134,0.011,0.201,0.011c0.358,0,0.676-0.123,1-0.955c0.566-1.547-0.223-1.325,0.566-2.146
				c0.79-0.817,0.884-1.229,1.323-1.827c0.241-0.298,0.433-0.4,0.745-0.4c0.309,0,0.727,0.103,1.402,0.209
				c1.355,0.191,2.366,1.105,2.018,1.831c-0.345,0.694-1.008,0.914-0.345,1.009c0.238,0.032,0.424,0.065,0.591,0.065
				c0.322,0,0.596-0.113,1.11-0.571c0.57-0.517,0.891-0.931,1.154-0.931c0.105,0,0.201,0.064,0.3,0.205
				c0.346,0.507,0.691,0.634,0.566,1.42c-0.125,0.822-0.662,0.631-0.22,1.355c0.441,0.694,1.794,0.694,2.143,1.328
				c0.314,0.599,1.104,1.102,0.314,1.417c-0.785,0.315-0.566,1.324-0.566,1.735s0.472,0.411,0.917,0.914
				c0.438,0.506,0.789,1.232,0.219,1.324c-0.077,0.018-0.133,0.02-0.179,0.02c-0.322,0-0.19-0.238-1.176-0.238
				c-0.573,0-1.214,0.059-1.687,0.059c-0.435,0-0.725-0.049-0.682-0.247c0.126-0.411,0.254-0.507,0.916-1.009
				c0.664-0.538,1.137-0.635,1.137-1.233c0-0.455,0-0.78-0.267-0.78c-0.101,0-0.235,0.045-0.429,0.151
				c-0.662,0.41-0.442,0.821-1.357,0.821c-0.881,0-1.009-0.097-2.017-0.097c-0.675,0-1.039-0.182-1.439-0.182
				c-0.203,0-0.412,0.045-0.676,0.182c-0.789,0.411-1.796,0.822-1.924,1.138c-0.053,0.156,0.128,0.225,0.395,0.225
				c0.211,0,0.485-0.047,0.74-0.133c0.238-0.092,0.68-0.147,1.06-0.147c0.521,0,0.942,0.103,0.613,0.339
				c-0.568,0.407-1.103,0.534-0.884,1.041c0.157,0.358,0.895,0.67,1.466,0.67c0.225,0,0.426-0.052,0.553-0.167
				c0.175-0.161,0.497-0.227,0.804-0.227c0.47,0,0.882,0.168,0.554,0.418c-0.568,0.407-0.916,0.914-1.799,1.228
				c-0.224,0.086-0.417,0.109-0.585,0.109c-0.218,0-0.406-0.044-0.583-0.078c-0.17-0.021-0.361-0.059-0.566-0.059
				c-0.092,0-0.186,0.011-0.285,0.027c-0.459,0.109-0.894,0.159-1.256,0.159c-0.257,0-0.486-0.023-0.668-0.063
				c-0.358-0.078-0.365-0.215-0.703-0.215c-0.082,0-0.18,0.007-0.306,0.023c-0.692,0.095-0.916,0.695-1.894,1.325
				c-1.041,0.602-1.259,0.694-2.049,1.323c-0.789,0.604-0.883,1.01-1.577,1.518c-0.519,0.42-0.285,0.567-0.427,0.567
				c-0.044,0-0.114-0.011-0.233-0.03c-0.388-0.086-0.616-0.349-0.746-0.349c-0.066,0-0.109,0.061-0.138,0.223
				c-0.128,0.502-0.128,0.628,0,1.038c0.092,0.379,0.313,0.601,0.092,1.104c-0.221,0.507-0.663,0.633-1.451,1.04
				c-0.789,0.38-0.789,0.506-1.799,1.106c-1.008,0.629-1.356,0.502-1.575,1.421c-0.221,0.912-0.096,1.354-0.096,2.363
				c0,1.01,0.538,1.734-0.125,2.02c-0.13,0.059-0.266,0.09-0.396,0.09c-0.545,0-1.056-0.517-1.056-1.51
				c0-1.229-0.127-1.828-0.127-1.828s-0.79-0.223-1.45-0.317c-0.663-0.093-1.135-0.19-1.924-0.19c-0.351,0-0.61-0.023-0.785-0.023
				c-0.221,0-0.317,0.039-0.317,0.214v0.821c0,0,0,0.329-0.413,0.329c-0.048,0-0.097-0.004-0.157-0.015
				c-0.567-0.094-0.788-0.219-1.356-0.411c-0.364-0.129-0.013-0.462-0.333-0.462c-0.148,0-0.438,0.071-1.024,0.274
				c-1.766,0.599-2.333,0.599-2.681,1.608c-0.346,1.01-0.095,1.229-0.569,1.924c-0.441,0.725-1.008,1.232-0.785,2.364
				c0.25,1.106,0.471,2.461,1.133,2.652c0.389,0.106,0.785,0.157,1.251,0.157c0.333,0,0.693-0.027,1.115-0.063
				c1.01-0.094,1.229-0.504,1.67-1.103c0.442-0.634,1.01-1.041,1.924-1.041c0.884,0,1.104,0.094,0.442,1.041
				c-0.661,0.912-1.797,1.733-1.45,2.523c0.168,0.438,0.347,0.56,0.632,0.56c0.244,0,0.569-0.093,1.041-0.149
				c0.157-0.019,0.303-0.021,0.45-0.021c0.785,0,1.364,0.209,1.472,0.555c0.093,0.38,0.537,1.009,0.221,1.42
				c-0.347,0.411,0.094,1.831,0.094,1.831s0,0.22,0.348,0.915c0.294,0.611,0.407,0.842,0.701,0.842c0.053,0,0.112-0.008,0.183-0.021
				c0.473-0.096,0.694-1.011,1.262-1.011c0.534,0,0.315,0,0.884,0.409c0.567,0.38,1.009,0.38,1.009,0.38l-0.033,0.095
				c0.694-1.263,2.366-1.482,2.366-1.482s0.566-0.506,1.357-0.947c0.183-0.093,0.283-0.13,0.333-0.13
				c0.181,0-0.257,0.493,0.013,0.982c0.104,0.192,0.148,0.267,0.181,0.267c0.088,0,0.136-0.393,0.86-0.678
				c0.327-0.14,0.441-0.191,0.487-0.191c0.095,0-0.124,0.223,0.65,0.287c1.134,0.093,0,0,0.692,0.727
				c0.293,0.336,0.392,0.42,0.526,0.42c0.071,0,0.147-0.024,0.262-0.044c0.19-0.031,0.442-0.063,0.915-0.063
				c1.39,0.097,1.706,0.219,3.313,0.818c1.61,0.634,0.569,0.223,2.082,1.674c1.08,1.11,1.049,1.138,1.39,1.138h0.063h0.473
				c1.039,0.126,2.649,0.725,3.343,1.48c0.663,0.697,0.442,0.92,0.663,1.646c0.252,0.726,0.82,0.726,1.732,1.544
				c0.919,0.851,1.14,0.314,2.274,0.947c1.138,0.63,0.822,0.314,2.433,0.726c1.573,0.408,0.881,0.315,2.267,1.04
				c1.388,0.727,1.041,0.63,2.523,1.137c1.486,0.533,0.351,0.944,0.219,2.082c-0.124,1.163-2.173,2.929-2.742,4.065
				c-0.565,1.136-0.126,1.644-0.126,2.587c0,0.944,0,1.041-0.439,2.082c-0.475,1.04-0.569,1.04-0.917,1.546
				c-0.347,0.535-1.038,1.356-1.734,1.356c-0.66,0-0.913,0-2.178,0.944c-1.263,0.947-1.138,1.358-1.01,2.272
				c0.096,0.944,0,0.411-0.128,0.853c-0.125,0.41,0,0-0.563,0.502c-0.568,0.539,0,0.445-0.13,0.821
				c-0.092,0.442-0.314,0.631-0.438,0.944c-0.13,0.319-0.567,0.727-0.79,1.045c-0.252,0.314-0.82,1.263-1.736,1.448
				c-0.913,0.222-1.607-0.093-1.829,0.444c-0.22,0.504,0,0,0.346,0.504c0.35,0.537,0.128,0.317,0.223,1.136
				c0.126,0.853,0,0.411-0.917,1.263c-0.303,0.274-0.505,0.364-0.668,0.364c-0.322,0-0.477-0.364-0.94-0.364
				c-0.663,0-0.566,0.411-0.566,0.725c0,0.316,0,0.411-0.35,0.504c-0.346,0.127-0.442,0.127-0.788,0.634
				c-0.139,0.212-0.174,0.263-0.142,0.263c0.006,0,0.023-0.003,0.049-0.013c0.023,0,0.048-0.004,0.081-0.004
				c0.092,0,0.221,0.021,0.359,0.161c0.35,0.411,0.35,0.224,0.35,0.853c0,0.599-0.126,0.411-0.254,1.01c-0.096,0.63,0,0-0.662,0.756
				c-0.277,0.277-0.338,0.356-0.319,0.356c0.011,0,0.034-0.021,0.067-0.042c0.038-0.013,0.088-0.024,0.132-0.024
				c0.062,0,0.12,0.024,0.12,0.121c0,0.41,0.093,0.313,0.442,0.821c0.347,0.533,0.566,0.411,0.694,0.817
				c0.125,0.442,0,0-0.128,1.041c-0.038,0.387-0.051,0.489-0.066,0.489c-0.011,0-0.014-0.042-0.026-0.078
				c0-0.035-0.021-0.065-0.046-0.065c-0.022,0-0.055,0.023-0.081,0.096c-0.223,0.411-0.347,0.314-0.347,0.726s0,0,0.22,0.727
				c0.08,0.27,0.095,0.355,0.06,0.355c-0.016,0-0.063-0.035-0.122-0.073c-0.047-0.013-0.135-0.043-0.231-0.043
				c-0.081,0-0.17,0.02-0.274,0.074c-0.566,0.289,0,0.411,0,0.411l0.473,0.191c0.135,0.065,0.187,0.09,0.208,0.09
				c0.047,0-0.074-0.148,0.233-0.281c0.071-0.031,0.128-0.044,0.175-0.044c0.274,0,0.245,0.481,0.646,0.646
				c0.442,0.219,0.347,0.315,0.694,0.533c0.314,0.219,0.314,0.219,0.663,0.41c0.345,0.22,0.221,0.316-0.097,0.411
				c-0.113,0.031-0.19,0.042-0.287,0.042c-0.184,0-0.438-0.042-1.196-0.042h-0.503h-0.063H79c-0.789,0-0.223-0.095-0.223-0.095
				s-0.473-0.192-1.387-0.63c-0.477-0.18-0.473-0.192-0.444-0.192c-0.033-0.016-0.097-0.055-0.217-0.122
				c-0.696-0.315-0.347-0.191-0.599-0.727c-0.097-0.188-0.117-0.235-0.114-0.235c0,0,0.007,0.004,0.017,0.013c0,0,0,0,0.003,0
				c0.007,0,0.022-0.017-0.003-0.188c-0.085-0.282-0.174-0.329-0.218-0.329c-0.02,0-0.033,0.015-0.033,0.015l-0.665-0.411
				c0,0-0.219-0.096-0.817-0.727c-0.241-0.239-0.277-0.301-0.27-0.301c0.003,0,0.009,0.007,0.016,0.018c0.013,0,0.024,0,0.038,0
				c0.042,0,0.071-0.018-0.007-0.223c-0.221-0.534-0.123-0.315-0.565-1.259c-0.088-0.172-0.144-0.281-0.174-0.344
				c0.002,0.007,0.013,0.015,0.015,0.027c0.016,0.035,0.039,0.073,0.043,0.073c0.006,0,0.003-0.022-0.012-0.073
				c-0.095-0.313,0.347-0.411,0.347-0.821c0-0.139-0.013-0.178-0.05-0.178c-0.016,0-0.041,0.008-0.076,0.021
				c-0.02,0.015-0.061,0.019-0.107,0.019c-0.079,0-0.193-0.022-0.334-0.081c-0.567-0.191,0,0-0.092-0.317l-0.475-1.542
				c0,0-0.129-0.316-0.348-1.041c-0.073-0.243-0.099-0.323-0.083-0.323c0.025,0,0.201,0.323,0.431,0.323
				c0.27,0,0.407,0.575,0.496,0.575c0.025,0,0.051-0.048,0.071-0.164c0.126-0.508-0.092-0.508-0.473-1.138
				c-0.315-0.632-0.315-0.314-0.442-1.136c-0.124-0.853-0.221-0.853-0.441-2.176c-0.252-1.357,0.221-1.671,0.317-2.809
				c0.124-1.17-0.569-1.672-0.569-3.217c0-1.577,0-1.896,0.127-3.251c0.125-1.354-0.223-3.628-0.348-4.668
				c-0.126-1.041-0.916-1.261-2.618-2.179c-1.736-0.943-1.83-1.038-2.429-1.766c-0.567-0.725-2.05-3.941-2.839-5.298
				c-0.82-1.354-1.734-2.081-1.387-2.902c0.346-0.849,0.47-1.26,0.346-1.985c-0.095-0.725-0.095-0.821,0.82-1.263
				c0.881-0.411,0.789-0.725,1.48-2.176c0.665-1.454,0.096-1.642,0.413-3.692c-0.223,0.696-0.317,1.01-0.317,1.01
				s-0.345-0.505-0.787-0.916c-0.309-0.289-0.635-0.621-0.876-0.621c-0.106,0-0.195,0.059-0.261,0.21
				c-0.187,0.427,0.036,0.862-0.168,0.862c-0.035,0-0.081-0.014-0.146-0.04c-0.475-0.224-0.127-0.224-0.789-0.63
				c-0.694-0.411-0.473-0.285-0.917-0.822c-0.442-0.504,0.789-0.504-0.442-0.504c-0.569,0-0.902,0.069-1.105,0.069
				c-0.23,0-0.294-0.093-0.343-0.479c-0.124-0.694,0.222-1.198-0.347-1.421c-0.109-0.023-0.193-0.038-0.263-0.038
				c-0.098,0-0.168,0.021-0.241,0.038c-0.077,0.023-0.146,0.048-0.234,0.048c-0.123,0-0.267-0.052-0.493-0.236
				c-0.693-0.536-0.219-0.315-1.356-0.821c-1.133-0.504-1.229-0.313-2.364-1.229c-0.847-0.701-1.375-0.993-1.736-0.993
				c-0.112,0-0.203,0.027-0.283,0.077c-0.148,0.087-0.68,0.256-1.388,0.256c-0.8,0-1.824-0.209-2.777-0.982
				c-1.765-1.417-2.112-1.104-2.112-1.925c0-0.817,1.008-0.407,0.22-1.734c-0.787-1.323-1.701-2.553-2.364-3.658
				c-0.663-1.134-1.231-1.229-1.231-2.144c0-0.947,0.221-1.23-0.349-1.449c-0.363-0.132-0.695-0.548-0.902-0.548
				c-0.098,0-0.168,0.091-0.201,0.355c-0.124,0.819-0.221,1.01,0.096,1.642c0.346,0.601,0.346,0.914,0.694,1.514
				c0.314,0.63,0.094,0.821,0.441,1.325c0.347,0.506,1.01,0.913,0.789,1.546c-0.11,0.302-0.197,0.424-0.298,0.424
				c-0.104,0-0.221-0.122-0.396-0.33c-0.315-0.407-0.536-0.316-0.755-0.818c-0.252-0.508,0.44,0,0.219-0.508
				c-0.219-0.504,0.221-0.41-0.472-0.817c-0.151-0.086-0.26-0.113-0.335-0.113c-0.059,0-0.089,0.021-0.106,0.048
				c-0.021,0.021-0.033,0.049-0.047,0.049c-0.02,0-0.053-0.082-0.175-0.395c-0.348-0.821,0.125-0.41,0.125-1.01
				c0-0.629-0.221-0.504-0.567-1.009c-0.348-0.537-0.125-0.853-0.221-1.766c-0.126-0.914-0.126-0.789-0.916-1.61
				c-0.577-0.603-0.897-1.367-0.945-2.986v-0.838c0.011-0.388,0.031-0.816,0.062-1.284c0.223-3.156,1.896-3.975,2.462-4.607
				c0.567-0.6,0.916-1.198,0.222-1.827c-0.664-0.6-1.105-0.6-1.011-1.011c0.063-0.195,0.32-0.297,0.606-0.297
				c0.321,0,0.675,0.127,0.847,0.394c0.344,0.503,0.252,1.324,0.786,1.324c0.569,0,1.138-0.507,0.569-1.01
				c-0.569-0.507-1.231-0.599-1.452-1.42c-0.14-0.483-0.29-0.679-0.364-0.945c0.797-1.07,1.639-2.104,2.507-3.112
				c-8.414,9.749-13.515,22.438-13.515,36.327c0,30.731,24.914,55.644,55.643,55.644c20.991,0,39.259-11.627,48.736-28.787
				C133.729,238.904,133.631,237.982,133.631,237.327z M116.978,180.602c0.046-0.322,0.286-0.4,0.286-0.873
				c0-0.537-0.223-0.537-0.064-0.883c0.157-0.315-0.222-0.253,0.38-0.538c0.595-0.284,0.661-0.345,1.136-0.345
				c0.314,0,0.321,0.147,0.504,0.147c0.071,0,0.164-0.021,0.313-0.087l0.634,0.097c-0.383,0.096-0.505,0.062-0.567,0.537
				c-0.066,0.534,0.281,0.757-0.066,1.291c-0.379,0.537-0.249,0.602-1.04,0.664c-0.552,0.04-0.997,0.342-1.256,0.41h-0.157
				c-0.051-0.021-0.089-0.082-0.102-0.188V180.602z M69.652,164.649c-0.453,0-1.168-0.281-1.628-0.281
				c-0.695,0-1.044,0.314-1.957,0.534c-0.069,0.021-0.137,0.026-0.201,0.034H65.42c-0.497-0.076-0.781-0.391-0.962-0.761v-0.137
				c0.181-0.397,1.955-0.397,1.955-0.397s0.566,0.22,1.387,0.22c0.79,0,0.663-0.22,1.264-0.22c0.566,0,1.133,0.127,1.008,0.727
				C70.039,164.577,69.879,164.649,69.652,164.649z M76.601,171.97c-0.106,0.018-0.184,0.024-0.249,0.024
				c-0.27,0-0.227-0.144-0.792-0.247c-0.171-0.023-0.306-0.037-0.427-0.037c-0.321,0-0.483,0.096-0.833,0.26
				c-0.444,0.188-0.444,0.315-0.788,0.315c0,0-0.072-0.127-0.098-0.298v-0.254c0.025-0.164,0.11-0.343,0.316-0.489
				c0.373-0.287,0.553-0.562,0.854-0.63h0.311c0.094,0.014,0.196,0.048,0.317,0.092C76.033,171.021,77.171,171.874,76.601,171.97z
				 M66.318,206.185c-0.021,0.051-0.06,0.105-0.123,0.164c-0.11,0.104-0.202,0.148-0.292,0.159h-0.079
				c-0.175-0.022-0.378-0.163-0.767-0.347c-0.696-0.314,0.788-0.442,0.788-0.442c0.206,0.077,0.413,0.172,0.473,0.309V206.185z
				 M67.072,204.765c-0.263,0-0.451-0.168-1.101-0.369c-0.914-0.315-0.914-0.63-1.513-0.947c-0.371-0.206-0.692-0.359-1.259-0.359
				c-0.299,0-0.664,0.04-1.138,0.141c-0.548,0.126-0.86,0.188-1.021,0.188c-0.236,0-0.142-0.133,0.008-0.376
				c0.223-0.411,1.482-0.634,1.482-0.634s1.012,0,1.83,0.223c0.788,0.188,0.788,0.411,1.61,0.913
				c0.788,0.537,0.915,0.223,1.483,0.441c0.233,0.083,0.368,0.176,0.409,0.278v0.14c-0.041,0.103-0.175,0.198-0.409,0.276
				C67.293,204.74,67.176,204.765,67.072,204.765z M72.88,205.504c-0.022,0.065-0.109,0.137-0.285,0.215
				c-0.914,0.442-1.483,0.22-2.051,0.442c-0.568,0.188-0.691,0.315-1.736,0.315c-0.811,0-1.194-0.141-1.197-0.363v-0.011
				c0.003-0.051,0.021-0.105,0.064-0.164c0,0,0.32,0.258,0.615,0.258c0.172,0,0.335-0.083,0.426-0.35
				c0.221-0.725-0.568-0.441,0.221-0.725c0.525-0.214,1.11-0.422,1.646-0.443h0.198c0.193,0.011,0.383,0.049,0.553,0.128
				c0.518,0.231,1.465,0.397,1.546,0.637V205.504z M73.954,206.349h-0.792c-0.346-0.091-0.092-0.41-0.092-0.41
				s0.442-0.22,0.884-0.22C74.424,205.719,74.204,206.035,73.954,206.349z"/>
			<radialGradient id="SVGID_2_" cx="57.1777" cy="181.1973" r="95.6566" gradientUnits="userSpaceOnUse">
				<stop  offset="0" style="stop-color:#FFFFFF"/>
				<stop  offset="0.2956" style="stop-color:#D6E6CF"/>
				<stop  offset="0.533" style="stop-color:#C3DAB8"/>
				<stop  offset="1" style="stop-color:#94BD81"/>
			</radialGradient>
			<path fill="url(#SVGID_2_)" d="M64.458,164.176v-0.137c0.181-0.397,1.955-0.397,1.955-0.397s0.566,0.22,1.387,0.22
				c0.79,0,0.663-0.22,1.264-0.22c0.566,0,1.133,0.127,1.008,0.727c-0.033,0.209-0.193,0.281-0.42,0.281
				c-0.453,0-1.168-0.281-1.628-0.281c-0.695,0-1.044,0.314-1.957,0.534c-0.069,0.021-0.137,0.026-0.201,0.034H65.42
				C64.924,164.86,64.639,164.546,64.458,164.176z M117.798,191.241c0.442,0.094,0.22,0.188,0.917,0.504
				c0.237,0.113,0.398,0.157,0.54,0.157c0.251,0,0.419-0.145,0.782-0.282c0.062-0.019,0.109-0.028,0.164-0.028
				c0.103,0,0.189,0.037,0.28,0.061c0.07,0.023,0.143,0.052,0.253,0.052c0.179,0,0.431-0.075,0.884-0.369
				c1.131-0.726,1.354,0,1.447-1.132c0.126-1.106-0.66-0.411,0.126-1.106c0.789-0.726,1.01-0.411,1.451-1.04
				c0.44-0.6,0.219-0.696,0.787-1.105c0.569-0.409,0-0.315,1.136-0.409c1.104-0.095,0.883,0,1.802-0.41
				c0.371-0.17,0.568-0.256,0.739-0.256c0.223,0,0.38,0.153,0.835,0.445c0.759,0.537,0.315,0.725,1.45,1.231
				c1.107,0.504,1.233,0.504,1.892,0.818c0.695,0.314,1.138,0.411,1.013,1.008c-0.097,0.633,0.219,1.043-0.757,1.043
				c-1.04,0-1.797,0-1.137,0.409c0.469,0.292,0.557,0.565,0.805,0.565c0.102,0,0.231-0.042,0.424-0.155
				c0.665-0.41,1.231-0.536,1.231-1.135s-0.219-0.915,0.127-1.01l0.157-0.063c0.087-0.034,0.175-0.063,0.251-0.099
				c-0.091-0.188-0.178-0.383-0.271-0.571l-0.389-0.212c-0.223-0.128-0.441-0.253-0.977-0.507c-1.039-0.376-1.262-0.285-1.704-1.01
				c-0.445-0.725-0.884-1.01-0.445-1.417c0.103-0.096,0.204-0.137,0.309-0.137c0.35,0,0.735,0.469,1.272,0.955l0.997,0.476
				c-1.791-3.369-3.913-6.534-6.332-9.445c0.063,0.389,0.461,0.864,0.57,1.307c0.158,0.63-0.157,0.283-0.979,0.63
				c-0.82,0.314-1.102,0.252-1.861,0.821c-0.752,0.533-0.817,0.882-1.417,1.133c-0.091,0.048-0.157,0.064-0.205,0.064
				c-0.253,0,0.138-0.599,0.267-0.948c0.157-0.407-0.376-0.533-0.978-0.756c-0.596-0.188-0.124-0.411-0.505-0.726
				c-0.379-0.346-0.598-0.473-0.912-0.883c-0.284-0.411-0.063-0.757,0.219-1.168c0.314-0.41-0.124-0.537-0.438-0.882
				c-0.09-0.11-0.175-0.155-0.281-0.155c-0.239,0-0.581,0.224-1.362,0.5c-1.136,0.41-0.285,0.253-0.442,0.887
				c-0.156,0.599,0.157,0.346,0.505,0.944l0.157,0.254l0.157-0.066c0.13-0.047,0.195-0.071,0.226-0.071
				c0.099,0-0.051,0.202,0.438,0.578c0.695,0.474,0,0,0.221,0.474c0.222,0.471-0.125,0.252-0.819,0.821c-0.66,0.533,0,0-0.156,0.725
				c-0.128,0.757-0.065,0.284-0.065,1.103c0,0.263,0.027,0.358,0.091,0.358c0.135,0,0.417-0.427,0.887-0.577
				c0.665-0.192,0.603-0.192,1.107-0.192c0.536,0,0.536,0,0.975,0.127c0.444,0.126-0.376,0.411-0.975,0.756
				c-0.569,0.351-0.95,0.254-1.641,0.538c-0.664,0.283-0.379,0.472,0.092,0.821c0.441,0.346,0.441,0.188,1.201,0.599
				c0.727,0.411,0.348,0.757,0.348,1.513c0,0.727-0.661,1.041-0.661,1.041h-1.675c-0.695,0-1.926-0.094-2.27-0.094
				c-0.317,0-0.539,0.19-0.539,0.728c0,0.501,0.444,0.501,0.094,1.323c-0.226,0.565-0.464,0.727-0.503,1.035v0.185
				c0.011,0.089,0.028,0.18,0.062,0.294C117.01,190.831,117.356,191.116,117.798,191.241z M74.896,170.614h-0.311
				c-0.301,0.068-0.481,0.343-0.854,0.63c-0.206,0.146-0.291,0.325-0.316,0.489v0.254c0.025,0.171,0.098,0.298,0.098,0.298
				c0.344,0,0.344-0.127,0.788-0.315c0.349-0.164,0.512-0.26,0.833-0.26c0.121,0,0.256,0.014,0.427,0.037
				c0.566,0.104,0.522,0.247,0.792,0.247c0.064,0,0.142-0.007,0.249-0.024c0.57-0.096-0.567-0.948-1.387-1.264
				C75.092,170.662,74.99,170.628,74.896,170.614z M117.236,181.022c0.259-0.068,0.704-0.37,1.256-0.41
				c0.791-0.063,0.661-0.127,1.04-0.664c0.348-0.534,0-0.757,0.066-1.291c0.063-0.476,0.185-0.441,0.567-0.537l-0.634-0.097
				c-0.149,0.066-0.242,0.087-0.313,0.087c-0.183,0-0.189-0.147-0.504-0.147c-0.475,0-0.541,0.061-1.136,0.345
				c-0.602,0.285-0.223,0.223-0.38,0.538c-0.158,0.346,0.064,0.346,0.064,0.883c0,0.473-0.24,0.551-0.286,0.873v0.232
				c0.013,0.106,0.051,0.168,0.102,0.188H117.236z M96.632,224.43c-1.482-0.507-1.136-0.41-2.523-1.137
				c-1.386-0.725-0.693-0.632-2.267-1.04c-1.61-0.411-1.295-0.096-2.433-0.726c-1.135-0.633-1.355-0.097-2.274-0.947
				c-0.912-0.818-1.48-0.818-1.732-1.544c-0.221-0.726,0-0.948-0.663-1.646c-0.694-0.756-2.305-1.354-3.343-1.48h-0.473h-0.063
				c-0.341,0-0.31-0.027-1.39-1.138c-1.513-1.451-0.472-1.04-2.082-1.674c-1.607-0.6-1.922-0.722-3.313-0.818
				c-0.473,0-0.725,0.031-0.915,0.063c-0.115,0.02-0.191,0.044-0.262,0.044c-0.134,0-0.232-0.084-0.526-0.42
				c-0.692-0.727,0.442-0.634-0.692-0.727c-0.774-0.064-0.555-0.287-0.65-0.287c-0.046,0-0.16,0.052-0.487,0.191
				c-0.725,0.285-0.772,0.678-0.86,0.678c-0.033,0-0.077-0.074-0.181-0.267c-0.27-0.489,0.168-0.982-0.013-0.982
				c-0.051,0-0.151,0.037-0.333,0.13c-0.791,0.441-1.357,0.947-1.357,0.947s-1.671,0.22-2.366,1.482l0.033-0.095
				c0,0-0.442,0-1.009-0.38c-0.568-0.409-0.35-0.409-0.884-0.409c-0.568,0-0.789,0.915-1.262,1.011
				c-0.071,0.014-0.129,0.021-0.183,0.021c-0.294,0-0.407-0.23-0.701-0.842c-0.348-0.695-0.348-0.915-0.348-0.915
				s-0.441-1.42-0.094-1.831c0.315-0.411-0.128-1.04-0.221-1.42c-0.108-0.346-0.687-0.555-1.472-0.555
				c-0.147,0-0.293,0.003-0.45,0.021c-0.472,0.057-0.797,0.149-1.041,0.149c-0.285,0-0.464-0.122-0.632-0.56
				c-0.347-0.79,0.789-1.611,1.45-2.523c0.663-0.947,0.442-1.041-0.442-1.041c-0.914,0-1.482,0.407-1.924,1.041
				c-0.442,0.599-0.661,1.009-1.67,1.103c-0.422,0.036-0.782,0.063-1.115,0.063c-0.466,0-0.862-0.051-1.251-0.157
				c-0.663-0.191-0.884-1.546-1.133-2.652c-0.223-1.132,0.343-1.64,0.785-2.364c0.475-0.695,0.223-0.914,0.569-1.924
				c0.348-1.01,0.915-1.01,2.681-1.608c0.586-0.203,0.876-0.274,1.024-0.274c0.319,0-0.031,0.333,0.333,0.462
				c0.568,0.192,0.789,0.317,1.356,0.411c0.061,0.011,0.109,0.015,0.157,0.015c0.413,0,0.413-0.329,0.413-0.329v-0.821
				c0-0.175,0.097-0.214,0.317-0.214c0.175,0,0.435,0.023,0.785,0.023c0.789,0,1.261,0.098,1.924,0.19
				c0.66,0.095,1.45,0.317,1.45,0.317s0.127,0.6,0.127,1.828c0,0.993,0.511,1.51,1.056,1.51c0.13,0,0.266-0.031,0.396-0.09
				c0.663-0.285,0.125-1.01,0.125-2.02c0-1.009-0.125-1.451,0.096-2.363c0.219-0.919,0.567-0.792,1.575-1.421
				c1.01-0.601,1.01-0.727,1.799-1.106c0.788-0.407,1.23-0.533,1.451-1.04c0.221-0.503,0-0.725-0.092-1.104
				c-0.128-0.41-0.128-0.536,0-1.038c0.029-0.162,0.072-0.223,0.138-0.223c0.129,0,0.358,0.263,0.746,0.349
				c0.12,0.02,0.189,0.03,0.233,0.03c0.143,0-0.091-0.147,0.427-0.567c0.693-0.508,0.788-0.914,1.577-1.518
				c0.79-0.629,1.008-0.722,2.049-1.323c0.978-0.63,1.201-1.23,1.894-1.325c0.125-0.017,0.224-0.023,0.306-0.023
				c0.338,0,0.345,0.137,0.703,0.215c0.183,0.039,0.411,0.063,0.668,0.063c0.362,0,0.796-0.05,1.256-0.159
				c0.099-0.017,0.193-0.027,0.285-0.027c0.205,0,0.396,0.038,0.566,0.059c0.177,0.034,0.365,0.078,0.583,0.078
				c0.167,0,0.361-0.023,0.585-0.109c0.884-0.313,1.231-0.82,1.799-1.228c0.328-0.25-0.084-0.418-0.554-0.418
				c-0.307,0-0.628,0.065-0.804,0.227c-0.127,0.115-0.328,0.167-0.553,0.167c-0.571,0-1.309-0.312-1.466-0.67
				c-0.219-0.507,0.315-0.634,0.884-1.041c0.329-0.236-0.091-0.339-0.613-0.339c-0.38,0-0.822,0.056-1.06,0.147
				c-0.255,0.086-0.529,0.133-0.74,0.133c-0.267,0-0.448-0.068-0.395-0.225c0.128-0.315,1.135-0.727,1.924-1.138
				c0.264-0.137,0.473-0.182,0.676-0.182c0.4,0,0.764,0.182,1.439,0.182c1.008,0,1.135,0.097,2.017,0.097
				c0.916,0,0.696-0.411,1.357-0.821c0.193-0.106,0.328-0.151,0.429-0.151c0.267,0,0.267,0.325,0.267,0.78
				c0,0.599-0.474,0.695-1.137,1.233c-0.662,0.502-0.789,0.598-0.916,1.009c-0.043,0.198,0.247,0.247,0.682,0.247
				c0.473,0,1.113-0.059,1.687-0.059c0.985,0,0.854,0.238,1.176,0.238c0.046,0,0.102-0.002,0.179-0.02
				c0.57-0.092,0.22-0.818-0.219-1.324c-0.445-0.503-0.917-0.503-0.917-0.914s-0.219-1.42,0.566-1.735
				c0.789-0.315,0-0.818-0.314-1.417c-0.349-0.634-1.702-0.634-2.143-1.328c-0.442-0.725,0.095-0.533,0.22-1.355
				c0.125-0.786-0.22-0.913-0.566-1.42c-0.099-0.141-0.194-0.205-0.3-0.205c-0.263,0-0.584,0.414-1.154,0.931
				c-0.514,0.458-0.788,0.571-1.11,0.571c-0.167,0-0.354-0.033-0.591-0.065c-0.663-0.095,0-0.314,0.345-1.009
				c0.349-0.726-0.663-1.64-2.018-1.831c-0.675-0.106-1.093-0.209-1.402-0.209c-0.312,0-0.503,0.103-0.745,0.4
				c-0.439,0.599-0.533,1.01-1.323,1.827c-0.789,0.821,0,0.6-0.566,2.146c-0.324,0.832-0.642,0.955-1,0.955
				c-0.067,0-0.135-0.004-0.201-0.011c-0.251,0-0.536,0-0.82,0.192c-0.79,0.503-0.442,1.009-1.009,2.143
				c-0.234,0.461-0.53,0.622-0.827,0.622c-0.422,0-0.838-0.325-1.097-0.622c-0.442-0.534,0.346-1.64,0.693-2.27
				c0.19-0.38-0.127-0.38-0.693-0.38c-0.106,0.014-0.219,0.021-0.34,0.021c-0.175,0-0.357-0.014-0.543-0.052
				c-1.008-0.096-1.45-0.694-2.145-0.913c-0.663-0.191-1.01-0.411-1.452-1.011c-0.441-0.598-0.124-0.506,0.221-1.324
				c0.349-0.821,0.568-0.506,1.672-1.232c1.138-0.69,1.577-0.503,3.029-1.009c1.482-0.503,1.924-1.133,2.932-1.544
				c1.011-0.41,0.348-0.41,0.222-0.914c-0.094-0.507,0.126-0.507,0.789-1.01c0.661-0.506-0.127-0.633-0.663-0.633
				c-0.568,0-0.473-0.093-0.696-0.787c-0.218-0.726,0-0.63,0.569-1.041c0.568-0.41,0.568-0.188,1.673-0.599
				c0.31-0.112,0.451-0.164,0.497-0.164c0.115,0-0.428,0.353-0.247,0.859c0.221,0.722,0,0,0.221,0.944
				c0.076,0.403,0.149,0.486,0.196,0.486c0.012,0,0.018-0.007,0.024-0.015c0.033,0,0.033,0,0,0.315
				c-0.126,0.726-0.442,0.411-1.134,0.821c-0.663,0.411-0.317,0.314-0.663,1.041c-0.117,0.232-0.107,0.308-0.013,0.308
				c0.175,0,0.675-0.308,1.117-0.308c0.692,0,0.566,0,1.134-0.127c0.567-0.093,0.439-0.376,0.788-0.6
				c0.349-0.188,0.221-0.598,0.221-1.136c0-0.264,0.137-0.329,0.398-0.329c0.223,0,0.544,0.045,0.958,0.045
				c0.883,0,1.104,0,1.894,0.191c0.789,0.22,1.01,0.504,1.482,1.325c0.442,0.817-0.569,0.503-1.577,1.136
				c-0.396,0.239-0.586,0.308-0.727,0.308c-0.095,0-0.165-0.033-0.252-0.059c-0.1-0.022-0.245-0.07-0.449-0.07
				c-0.044,0-0.097,0.002-0.15,0.01c-0.884,0.127-1.103,0.411-1.009,0.914c0.041,0.178,0.119,0.24,0.242,0.24
				c0.252,0,0.694-0.24,1.429-0.24c1.134,0,0.568,0.127,1.01,0.314c0.471,0.223,0.471,0.315,0.913,0.727
				c0.222,0.208,0.333,0.283,0.526,0.283c0.201,0,0.485-0.075,1.051-0.188c1.106-0.188,0,0,0.223-0.821
				c0.072-0.271,0.097-0.359,0.109-0.359c0.025,0,0,0.395,0.237,0.455c0.314,0.127,0.662,0.22,1.325,0.22
				c0.692,0,0.57-0.407,0.692-0.818c0.097-0.411-0.789-0.411-1.23-1.136c-0.128-0.188-0.112-0.261-0.005-0.261
				c0.276,0,1.161,0.482,1.551,0.482c0.566,0,0.693,0,1.231-0.222c0.568-0.188,0-0.504-0.314-1.104
				c-0.191-0.327-0.38-0.349-0.668-0.349c-0.052,0-0.099,0-0.153,0c-0.09,0-0.187,0.008-0.299,0.008
				c-0.155,0-0.345-0.015-0.552-0.069c-1.041-0.222-0.128-0.506-0.128-1.136c0-0.599-0.663-0.599-1.229-1.229
				c-0.567-0.604-1.483-0.507-2.809-0.887c-1.355-0.407-0.913-0.407-1.797-0.407c-0.915,0-2.366,0.188-3.027,0.407
				c-0.065,0.021-0.124,0.027-0.175,0.027c-0.254,0-0.422-0.161-0.551-0.342c-0.135-0.158-0.264-0.336-0.431-0.336
				c-0.031,0-0.068,0.003-0.106,0.021c-0.442,0.223-0.536,0.223-1.103,0.507c-0.569,0.314-0.789,0.314-1.452,0.314
				c-0.695,0,0,0-0.221-0.599c-0.08-0.205-0.109-0.277-0.137-0.277c-0.052,0-0.089,0.308-0.556,0.37c-0.663,0.095,0,0-1.011,0.095
				c-1.008,0.097-1.008,0.315-1.355,0.727c-0.313,0.38,0.128,0.38,0.693,0.503c0.096,0.018,0.187,0.023,0.278,0.023
				c0.43,0,0.833-0.146,1.3-0.146c0.536,0,0.095,0.407-0.472,0.63c-0.569,0.188-0.096,0.314-0.096,1.229
				c0,0.916-0.791,0.599-1.483,1.009c-0.157,0.101-0.27,0.142-0.353,0.142c-0.242,0-0.131-0.408,0.037-0.645
				c0.223-0.314,0.315-0.41,0.442-0.917c0.031-0.123,0.018-0.182-0.03-0.182c-0.142,0-0.612,0.51-1.201,1.191
				c-0.281,0.338-0.365,0.427-0.399,0.427c-0.024,0-0.035-0.041-0.075-0.078c-0.041-0.045-0.117-0.096-0.285-0.096
				c-0.095,0-0.219,0.018-0.376,0.064c-0.53,0.151-0.736,0.203-0.937,0.203c-0.221,0-0.444-0.063-1.081-0.11
				c-1.23-0.093-0.663-0.314-0.567-1.009c0.041-0.284,0.16-0.359,0.361-0.359c0.102,0,0.237,0.023,0.394,0.044
				c0.154,0.018,0.331,0.048,0.53,0.048c0.129,0,0.27-0.011,0.416-0.048c0.338-0.062,0.522-0.082,0.65-0.082
				c0.256,0,0.277,0.082,0.802,0.082c0.79,0,0.567-0.411-0.442-0.599c-1.01-0.223-0.441-0.314-0.568-1.041
				c-0.126-0.694,0.917-0.283,1.577-0.79c0.215-0.171,0.223-0.233,0.099-0.233c-0.251,0-1.059,0.267-1.676,0.329
				c-0.913,0.096-0.347,0.096-1.231,0.096c-0.912,0-1.008,0-3.154,0.188c-0.662,0.072-0.962,0.096-1.084,0.096
				c-0.278,0,0.312-0.123-0.146-0.192c-0.661-0.092,0.127-0.406,1.137-0.913c0.703-0.353,0.147-0.455-0.637-0.455
				c-0.341,0-0.723,0.017-1.066,0.044c-1.104,0.097-1.229,0.097-2.366,0.507c-1.103,0.411-0.663,0.411-1.23,1.229
				c-0.175,0.267-0.162,0.362-0.041,0.362c0.249,0,0.953-0.393,1.399-0.454c0.661-0.096,0.439-0.223,1.796-0.319
				c0.304-0.021,0.467-0.03,0.551-0.03c0.283,0-0.503,0.145-0.333,0.537c0.223,0.504,0,0.315-0.219,1.041
				c-0.223,0.694,0.126,0.284,0.566,0.787c0.442,0.538,0.665,0.223,2.368,0.411c1.672,0.222,0.221,0.314-0.347,0.632
				c-0.221,0.121-0.438,0.165-0.736,0.165c-0.471,0-1.133-0.11-2.293-0.165c-1.924-0.095-1.482-0.632-2.366-0.916
				c-0.884-0.315-2.019-0.411-3.373-0.727c-0.352-0.078-0.608-0.109-0.82-0.109c-0.363,0-0.63,0.084-1.074,0.176
				c-0.086,0.061-0.173,0.121-0.258,0.184c-1.029,0.751-2.035,1.532-3.01,2.351c-0.128,0.107-0.25,0.219-0.378,0.327
				c-0.944,0.809-1.863,1.643-2.751,2.511c-0.071,0.069-0.145,0.136-0.216,0.206c-0.935,0.923-1.834,1.884-2.702,2.872
				c-0.115,0.129-0.226,0.261-0.34,0.392c-0.869,1.008-1.71,2.042-2.507,3.112c0.074,0.267,0.224,0.462,0.364,0.945
				c0.221,0.821,0.882,0.913,1.452,1.42c0.568,0.503,0,1.01-0.569,1.01c-0.533,0-0.441-0.821-0.786-1.324
				c-0.171-0.267-0.526-0.394-0.847-0.394c-0.287,0-0.543,0.102-0.606,0.297c-0.094,0.411,0.348,0.411,1.011,1.011
				c0.694,0.629,0.345,1.228-0.222,1.827c-0.566,0.633-2.239,1.451-2.462,4.607c-0.031,0.468-0.051,0.896-0.062,1.284v0.838
				c0.047,1.619,0.368,2.384,0.945,2.986c0.789,0.821,0.789,0.696,0.916,1.61c0.097,0.913-0.126,1.229,0.221,1.766
				c0.346,0.505,0.567,0.38,0.567,1.009c0,0.6-0.473,0.188-0.125,1.01c0.122,0.313,0.155,0.395,0.175,0.395
				c0.014,0,0.025-0.027,0.047-0.049c0.017-0.027,0.048-0.048,0.106-0.048c0.075,0,0.185,0.027,0.335,0.113
				c0.692,0.407,0.252,0.313,0.472,0.817c0.221,0.508-0.472,0-0.219,0.508c0.219,0.502,0.44,0.411,0.755,0.818
				c0.175,0.208,0.292,0.33,0.396,0.33c0.101,0,0.188-0.122,0.298-0.424c0.221-0.633-0.442-1.04-0.789-1.546
				c-0.347-0.504-0.127-0.695-0.441-1.325c-0.348-0.6-0.348-0.913-0.694-1.514c-0.316-0.632-0.22-0.822-0.096-1.642
				c0.033-0.265,0.103-0.355,0.201-0.355c0.207,0,0.539,0.416,0.902,0.548c0.569,0.219,0.349,0.502,0.349,1.449
				c0,0.914,0.568,1.01,1.231,2.144c0.663,1.105,1.577,2.335,2.364,3.658c0.788,1.327-0.22,0.917-0.22,1.734
				c0,0.821,0.347,0.508,2.112,1.925c0.954,0.773,1.978,0.982,2.777,0.982c0.708,0,1.239-0.169,1.388-0.256
				c0.08-0.05,0.171-0.077,0.283-0.077c0.361,0,0.889,0.292,1.736,0.993c1.135,0.915,1.231,0.725,2.364,1.229
				c1.137,0.506,0.663,0.285,1.356,0.821c0.226,0.185,0.37,0.236,0.493,0.236c0.088,0,0.157-0.024,0.234-0.048
				c0.073-0.017,0.144-0.038,0.241-0.038c0.07,0,0.154,0.015,0.263,0.038c0.569,0.223,0.223,0.727,0.347,1.421
				c0.049,0.387,0.113,0.479,0.343,0.479c0.204,0,0.536-0.069,1.105-0.069c1.231,0,0,0,0.442,0.504
				c0.444,0.537,0.223,0.411,0.917,0.822c0.662,0.406,0.314,0.406,0.789,0.63c0.066,0.026,0.111,0.04,0.146,0.04
				c0.204,0-0.019-0.436,0.168-0.862c0.066-0.151,0.155-0.21,0.261-0.21c0.241,0,0.567,0.332,0.876,0.621
				c0.442,0.411,0.787,0.916,0.787,0.916s0.094-0.313,0.317-1.01c-0.317,2.051,0.252,2.238-0.413,3.692
				c-0.691,1.451-0.599,1.765-1.48,2.176c-0.915,0.441-0.915,0.538-0.82,1.263c0.124,0.726,0,1.137-0.346,1.985
				c-0.348,0.821,0.567,1.548,1.387,2.902c0.789,1.356,2.271,4.573,2.839,5.298c0.599,0.728,0.692,0.822,2.429,1.766
				c1.703,0.918,2.492,1.138,2.618,2.179c0.125,1.04,0.473,3.313,0.348,4.668c-0.127,1.354-0.127,1.674-0.127,3.251
				c0,1.545,0.693,2.047,0.569,3.217c-0.097,1.138-0.569,1.451-0.317,2.809c0.221,1.323,0.317,1.323,0.441,2.176
				c0.126,0.821,0.126,0.504,0.442,1.136c0.38,0.63,0.599,0.63,0.473,1.138c-0.02,0.116-0.045,0.164-0.071,0.164
				c-0.089,0-0.227-0.575-0.496-0.575c-0.23,0-0.406-0.323-0.431-0.323c-0.015,0,0.01,0.08,0.083,0.323
				c0.219,0.725,0.348,1.041,0.348,1.041l0.475,1.542c0.092,0.317-0.475,0.126,0.092,0.317c0.142,0.059,0.256,0.081,0.334,0.081
				c0.047,0,0.087-0.004,0.107-0.019c0.035-0.013,0.061-0.021,0.076-0.021c0.038,0,0.05,0.039,0.05,0.178
				c0,0.41-0.442,0.508-0.347,0.821c0.015,0.051,0.018,0.073,0.012,0.073c-0.004,0-0.027-0.038-0.043-0.073
				c-0.002-0.013-0.013-0.021-0.015-0.027c0.031,0.063,0.086,0.172,0.174,0.344c0.442,0.943,0.344,0.725,0.565,1.259
				c0.079,0.205,0.05,0.223,0.007,0.223c-0.014,0-0.025,0-0.038,0c-0.007-0.011-0.013-0.018-0.016-0.018
				c-0.007,0,0.029,0.062,0.27,0.301c0.599,0.631,0.817,0.727,0.817,0.727l0.665,0.411c0,0,0.013-0.015,0.033-0.015
				c0.044,0,0.133,0.047,0.218,0.329c0.025,0.171,0.011,0.188,0.003,0.188c-0.003,0-0.003,0-0.003,0
				c-0.01-0.009-0.017-0.013-0.017-0.013c-0.003,0,0.017,0.047,0.114,0.235c0.252,0.535-0.097,0.411,0.599,0.727
				c0.12,0.067,0.184,0.106,0.217,0.122c-0.029,0-0.033,0.013,0.444,0.192c0.914,0.438,1.387,0.63,1.387,0.63
				s-0.566,0.095,0.223,0.095h0.252h0.063h0.503c0.758,0,1.012,0.042,1.196,0.042c0.097,0,0.173-0.011,0.287-0.042
				c0.317-0.095,0.442-0.191,0.097-0.411c-0.348-0.191-0.348-0.191-0.663-0.41c-0.347-0.218-0.252-0.314-0.694-0.533
				c-0.401-0.165-0.373-0.646-0.646-0.646c-0.047,0-0.104,0.013-0.175,0.044c-0.307,0.133-0.186,0.281-0.233,0.281
				c-0.021,0-0.074-0.024-0.208-0.09l-0.473-0.191c0,0-0.566-0.122,0-0.411c0.104-0.055,0.193-0.074,0.274-0.074
				c0.096,0,0.185,0.03,0.231,0.043c0.059,0.038,0.106,0.073,0.122,0.073c0.035,0,0.02-0.086-0.06-0.355
				c-0.22-0.727-0.22-0.315-0.22-0.727s0.124-0.314,0.347-0.726c0.025-0.072,0.059-0.096,0.081-0.096
				c0.025,0,0.046,0.03,0.046,0.065c0.013,0.036,0.016,0.078,0.026,0.078c0.015,0,0.028-0.103,0.066-0.489
				c0.128-1.041,0.253-0.599,0.128-1.041c-0.128-0.406-0.347-0.284-0.694-0.817c-0.349-0.508-0.442-0.411-0.442-0.821
				c0-0.097-0.058-0.121-0.12-0.121c-0.043,0-0.094,0.012-0.132,0.024c-0.033,0.021-0.056,0.042-0.067,0.042
				c-0.019,0,0.042-0.079,0.319-0.356c0.662-0.756,0.566-0.126,0.662-0.756c0.127-0.599,0.254-0.411,0.254-1.01
				c0-0.629,0-0.441-0.35-0.853c-0.138-0.141-0.267-0.161-0.359-0.161c-0.033,0-0.057,0.004-0.081,0.004
				c-0.025,0.01-0.042,0.013-0.049,0.013c-0.032,0,0.003-0.051,0.142-0.263c0.346-0.507,0.442-0.507,0.788-0.634
				c0.35-0.093,0.35-0.188,0.35-0.504c0-0.313-0.097-0.725,0.566-0.725c0.463,0,0.618,0.364,0.94,0.364
				c0.163,0,0.365-0.09,0.668-0.364c0.917-0.852,1.043-0.41,0.917-1.263c-0.095-0.818,0.126-0.599-0.223-1.136
				c-0.346-0.504-0.566,0-0.346-0.504c0.222-0.537,0.917-0.223,1.829-0.444c0.916-0.186,1.484-1.134,1.736-1.448
				c0.223-0.318,0.66-0.726,0.79-1.045c0.124-0.313,0.347-0.502,0.438-0.944c0.13-0.376-0.438-0.282,0.13-0.821
				c0.563-0.502,0.438-0.092,0.563-0.502c0.128-0.441,0.224,0.092,0.128-0.853c-0.128-0.914-0.253-1.325,1.01-2.272
				c1.265-0.944,1.518-0.944,2.178-0.944c0.696,0,1.388-0.821,1.734-1.356c0.348-0.506,0.442-0.506,0.917-1.546
				c0.439-1.041,0.439-1.138,0.439-2.082c0-0.943-0.439-1.451,0.126-2.587c0.569-1.137,2.618-2.902,2.742-4.065
				C96.982,225.374,98.118,224.963,96.632,224.43z M112.059,166.038c0.531-0.773,1.106-0.971,1.504-1.217
				c-3.647-2.182-7.562-3.957-11.688-5.266c-0.84,0.108-1.957,0.277-2.625,0.459c-1.922,0.503-2.268,0.726-3.09,0.726
				c-0.631,0-1.259,0.403-1.731,0.403c-0.117,0-0.227-0.023-0.32-0.088c-0.475-0.315-0.913-0.538,0.128-0.63
				c1.006-0.097,1.482-0.411,0.096-0.507c-0.972-0.09-1.089-0.165-1.782-0.165c-0.271,0-0.638,0.015-1.186,0.038
				c-0.516,0.041-0.947,0.055-1.341,0.055c-0.281,0-0.543-0.007-0.808-0.021c-0.784,0-1.573,0-2.771,0.094
				c-2.178,0.191-2.399,0.41-3.439,0.507c-1.041,0.092-2.397,0.314-2.397,0.314c-0.471-0.064-1.101-0.273-1.596-0.273
				c-0.236,0-0.439,0.044-0.582,0.178c-0.472,0.411-1.701,0.821-0.913,1.136c0.452,0.178,0.687,0.291,0.977,0.291
				c0.213,0,0.458-0.059,0.853-0.195c0.913-0.284,0.787-0.506,1.608-0.506c0.342,0,0.904-0.059,1.331-0.059
				c0.548,0,0.862,0.103,0.149,0.564c-1.259,0.853-1.48,1.168-2.618,1.451c-0.938,0.25-1.041,0.445-1.519,0.445
				c-0.117,0-0.256-0.011-0.437-0.038c-0.612-0.061-1.232-0.41-1.465-0.41c-0.107,0-0.129,0.081-0.016,0.317
				c0.347,0.727-0.127,0.854,1.041,0.854c1.135,0,1.135,0.092,2.271,0.092c0.545,0,0.746,0.049,0.928,0.049
				c0.193,0,0.357-0.055,0.899-0.268c1.043-0.411,0.444-0.315,1.958-0.918c1.484-0.63,1.924-0.849,2.836-1.04
				c0.917-0.22,1.485-0.534,2.872-0.818c0.977-0.243,1.548-0.52,2.114-0.52c0.244,0,0.49,0.052,0.76,0.171
				c0.913,0.441,1.703,0.852,0.219,0.947c-0.212,0.025-0.431,0.038-0.65,0.038c-0.303,0-0.603-0.021-0.895-0.038
				c-0.34-0.017-0.668-0.041-0.964-0.041c-0.605,0-1.065,0.09-1.15,0.452c-0.222,0.849-2.397,1.04,0.789,1.133
				c0.409,0.027,0.789,0.041,1.125,0.041c0.464,0,0.861-0.02,1.211-0.041c0.345-0.01,0.64-0.017,0.889-0.017
				c0.727,0,1.103,0.085,1.475,0.555c0.696,0.948,1.041,0.726,0.696,1.451c-0.349,0.726,0,0.726,0.345,1.262
				c0.347,0.504,1.577,0.819,0.442,1.23c-1.136,0.41-2.049-0.504-2.049,1.577s0.343,3.405,2.049,3.943
				c0.711,0.205,1.087,0.362,1.349,0.41h0.243c0.223-0.052,0.401-0.263,0.803-0.726c0.919-1.04,0.351-1.988,2.65-2.588
				c2.271-0.63,2.744-0.63,4.009-1.263c1.263-0.63,0.914-1.04,3.185-1.259c2.301-0.192,1.83,0.219,2.871-0.822
				C111.739,166.449,111.144,167.395,112.059,166.038z M138.14,195.929c-0.043,0.455-0.205,0.962-0.487,0.962
				c-0.078,0-0.172-0.022-0.297-0.066c-0.915-0.285-1.041-0.41-1.925-0.912c-0.916-0.508-0.665-0.696-1.577-0.792
				c-0.884-0.127-2.462-0.127-3.03-0.629c-0.566-0.504-0.438-0.315-0.344-1.422c0.117-1.054,0.92-1.841-0.452-1.841
				c-0.099,0-0.208,0.004-0.34,0.013c-0.329,0.019-0.616,0.024-0.883,0.024c-0.268,0-0.503-0.006-0.724-0.024
				c-0.252-0.009-0.484-0.02-0.707-0.02c-0.451,0-0.87,0.042-1.375,0.208c-1.229,0.412-1.798,0.508-2.808,0.915
				c-0.813,0.332-0.909,0.54-1.502,0.54c-0.142,0-0.305-0.009-0.518-0.033c-0.767-0.065-1.059-0.401-1.444-0.401
				c-0.188,0-0.396,0.078-0.698,0.305c-0.882,0.725-0.882,1.136-1.801,1.64c-0.883,0.506-0.883,0.192-1.227,1.01
				c-0.347,0.821,0.344,2.146-0.883,2.649c-1.265,0.507-1.013,0.126-2.021,1.329c-1.04,1.228-1.481,2.05-2.052,2.963
				c-0.566,0.914-1.008,1.734-0.662,2.238c0.349,0.506,1.013-0.314,0.567,1.325c-0.472,1.64-0.665,2.24-0.567,3.06
				c0.096,0.82,1.451,2.87,1.922,3.565c0.446,0.726,2.02,1.326,2.589,2.366c0.536,1.01,0.884,1.734,2.019,1.734
				c1.104,0,0.665-0.314,2.021-0.411c0.069-0.003,0.141-0.007,0.211-0.007c0.46,0,0.898,0.086,1.336,0.195
				c0.396,0.094,0.8,0.185,1.191,0.185c0.294,0,0.573-0.048,0.854-0.185c1.105-0.502,0.884-1.103,2.464-1.229
				c0.048-0.004,0.098-0.004,0.145-0.004c1.417,0,1.243,1.369,2.219,1.644c0.171,0.062,0.332,0.085,0.485,0.085
				c0.226,0,0.445-0.043,0.649-0.085c0.208-0.041,0.413-0.083,0.625-0.083c0.279,0,0.581,0.07,0.924,0.302
				c1.008,0.699,0.347,1.11,0,2.432c-0.351,1.329-0.665,1.329-0.219,2.238c0.438,0.918,2.68,1.74,2.68,3.06
				c0,1.328,0.345,1.74,0.563,2.558c0.221,0.82,1.137,1.324,0.477,2.146c-0.695,0.821-1.577,1.925-1.264,4.573
				c0.35,2.683,1.355,2.05,1.355,3.279c0,0.655,0.099,1.577,0.145,2.127c1.346-2.437,2.517-4.981,3.492-7.623
				c0.021-0.062,0.044-0.122,0.065-0.182c2.165-5.943,3.349-12.359,3.349-19.052C140.682,206.79,139.79,201.191,138.14,195.929z
				 M67.455,204.679c0.233-0.078,0.368-0.174,0.409-0.276v-0.14c-0.041-0.103-0.175-0.195-0.409-0.278
				c-0.568-0.219-0.695,0.096-1.483-0.441c-0.822-0.502-0.822-0.725-1.61-0.913c-0.818-0.223-1.83-0.223-1.83-0.223
				s-1.259,0.223-1.482,0.634c-0.15,0.243-0.244,0.376-0.008,0.376c0.16,0,0.473-0.062,1.021-0.188
				c0.475-0.101,0.839-0.141,1.138-0.141c0.566,0,0.888,0.153,1.259,0.359c0.599,0.317,0.599,0.632,1.513,0.947
				c0.65,0.201,0.838,0.369,1.101,0.369C67.176,204.765,67.293,204.74,67.455,204.679z M73.07,205.938c0,0-0.254,0.319,0.092,0.41
				h0.792c0.25-0.313,0.47-0.63,0-0.63C73.512,205.719,73.07,205.938,73.07,205.938z M68.809,206.477
				c1.045,0,1.168-0.128,1.736-0.315c0.568-0.223,1.137,0,2.051-0.442c0.175-0.078,0.262-0.149,0.285-0.215v-0.061
				c-0.081-0.239-1.028-0.405-1.546-0.637c-0.17-0.079-0.36-0.117-0.553-0.128h-0.198c-0.536,0.021-1.121,0.229-1.646,0.443
				c-0.789,0.283,0,0-0.221,0.725c-0.09,0.267-0.253,0.35-0.426,0.35c-0.295,0-0.615-0.258-0.615-0.258
				c-0.042,0.059-0.061,0.113-0.064,0.164v0.011C67.615,206.336,67.998,206.477,68.809,206.477z M65.058,206.161
				c0.389,0.184,0.591,0.324,0.767,0.347h0.079c0.09-0.011,0.182-0.055,0.292-0.159c0.063-0.059,0.102-0.113,0.123-0.164v-0.157
				c-0.06-0.137-0.267-0.231-0.473-0.309C65.845,205.719,64.362,205.847,65.058,206.161z"/>
		</g>
		<g>
			<path fill="#3D871A" d="M73.927,203.616c-1.526,0.231-2.092,0.545-2.092,2.459v9.234c0,1.709-0.463,4.285-1.628,5.589
				c-1.391,1.561-3.801,2.108-5.469,2.108c-1.224,0-3.836-0.173-5.639-1.82c-1.193-1.104-1.916-2.116-1.916-5.243v-9.662
				c0-2.434-0.722-2.495-2.278-2.665v-0.724h9.125v0.724c-1.833,0.084-2.693,0.118-2.693,2.665v9.662
				c0,1.655,0.265,5.646,4.26,5.646c4.888,0,5.13-4.432,5.13-6.28v-8.82c0-1.772-0.519-2.755-2.905-2.873v-0.724h6.106V203.616z"/>
			<path fill="#3D871A" d="M111.084,208.423c-0.5-2.039-1.979-5.393-5.262-5.393c-1.443,0-2.974,0.872-2.974,2.774
				c0,1.572,0.53,2.207,2.86,3.435l4.083,2.133c0.941,0.488,3.054,1.836,3.054,5.02c0,2.562-1.773,5.637-6.888,5.637
				c-2.632,0-3.615-0.986-4.479-0.986c-0.583,0-0.722,0.523-0.835,0.986h-0.803l-3.019-7.201h0.583
				c0.752,2.226,4.609,6.242,8.666,6.242c3.334,0,3.471-2.891,3.471-3.266c0-1.952-1.308-2.303-3.11-3.204l-1.858-0.935
				c-4.747-2.395-4.747-4.453-4.747-5.799c0-1.776,0.86-5.736,6.131-5.736c2.227,0,2.248,0.829,3.058,0.829
				c0.841,0,1.095-0.829,1.115-0.888l0.453,0.027l0.882,6.324H111.084z"/>
			<path fill="#3D871A" d="M85.304,222.055H77.71v-0.52c1.172-0.145,2.02-0.254,2.02-2.007v-13.603c0-1.866-1.02-1.921-2.02-2.007
				v-0.955h5.521v16.377c0,1.804,0.88,1.893,2.072,2.006V222.055z"/>
			<path fill="#3D871A" d="M84.146,202.972c0,0,7.708-0.756,7.708,4.871c0,1.792-0.021,2.938-3.164,4.445
				c0,0,4.04,3.786,6.668,8.269c2.841,4.838,9.666,16.195,25.613,20.603c0,0-12.292,3.649-25.017-12.187
				c-4.159-4.863-7.718-14.318-11.809-15.809v-0.434c0,0,4.079,0.427,4.079-4.888c0-4.856-4.079-4.207-4.079-4.207V202.972z"/>
			<path fill="#3D871A" d="M136.221,212.691c0-11.834-22.734-21.435-50.785-21.435c-28.048,0-50.784,9.601-50.784,21.435
				s22.736,21.432,50.784,21.432c3.775,0,7.45-0.18,10.992-0.508l-1.439-1.875c-3.093,0.328-6.313,0.508-9.617,0.508
				c-23.589,0-42.715-8.791-42.715-19.617c0-10.841,19.126-19.622,42.715-19.622c23.592,0,42.716,8.781,42.716,19.622
				c0,7.387-8.895,13.815-22.028,17.163l1.928,2.098C124.722,228.387,136.221,221.109,136.221,212.691"/>
		</g>
	</g>
	<g>
		<path fill="#3D871A" d="M53.59,270.765l2.948,1.501l-4.849,9.524l-2.949-1.502L53.59,270.765z"/>
		<path fill="#3D871A" d="M54.91,279.553l3.014,0.912c-0.114,0.502-0.12,0.914-0.018,1.237c0.168,0.524,0.549,0.896,1.141,1.116
			c0.441,0.165,0.821,0.188,1.137,0.069c0.316-0.118,0.525-0.314,0.627-0.588c0.097-0.259,0.069-0.534-0.082-0.823
			c-0.151-0.29-0.608-0.68-1.369-1.171c-1.244-0.81-2.061-1.575-2.451-2.297c-0.396-0.723-0.447-1.476-0.155-2.259
			c0.192-0.515,0.521-0.944,0.99-1.292c0.469-0.347,1.052-0.539,1.748-0.579c0.696-0.039,1.566,0.137,2.609,0.524
			c1.28,0.476,2.166,1.077,2.661,1.803c0.495,0.727,0.613,1.633,0.354,2.719l-2.981-0.915c0.091-0.479,0.05-0.868-0.122-1.165
			c-0.173-0.298-0.477-0.527-0.914-0.69c-0.36-0.135-0.659-0.159-0.898-0.074s-0.399,0.236-0.48,0.455
			c-0.06,0.159-0.037,0.331,0.065,0.515c0.097,0.187,0.397,0.438,0.901,0.755c1.244,0.796,2.104,1.451,2.577,1.967
			c0.475,0.517,0.763,1.045,0.865,1.586s0.052,1.085-0.151,1.631c-0.24,0.643-0.638,1.169-1.194,1.579
			c-0.558,0.41-1.207,0.636-1.948,0.678c-0.742,0.043-1.599-0.115-2.568-0.477c-1.704-0.634-2.762-1.4-3.173-2.301
			C54.682,281.568,54.62,280.597,54.91,279.553z"/>
		<path fill="#3D871A" d="M65.752,281.624c0.335-1.713,1.073-2.952,2.214-3.72c1.141-0.767,2.563-0.983,4.266-0.65
			c1.745,0.343,2.999,1.075,3.759,2.197c0.761,1.122,0.977,2.527,0.645,4.215c-0.239,1.227-0.643,2.191-1.209,2.895
			c-0.566,0.704-1.282,1.198-2.147,1.481s-1.88,0.312-3.044,0.084c-1.183-0.231-2.125-0.613-2.825-1.142
			c-0.701-0.528-1.213-1.247-1.535-2.157S65.512,282.85,65.752,281.624z M68.99,282.273c-0.209,1.058-0.161,1.856,0.143,2.397
			c0.303,0.54,0.793,0.876,1.47,1.009c0.696,0.136,1.28,0.015,1.75-0.363c0.471-0.378,0.82-1.154,1.051-2.327
			c0.193-0.987,0.136-1.748-0.174-2.281c-0.309-0.533-0.805-0.868-1.486-1.001c-0.653-0.128-1.224,0.001-1.71,0.386
			S69.199,281.205,68.99,282.273z"/>
		<path fill="#3D871A" d="M82.781,287.047l2.942-0.45c0.089,0.411,0.227,0.699,0.416,0.864s0.417,0.244,0.685,0.236
			c0.477-0.013,0.842-0.263,1.097-0.751c0.185-0.36,0.311-1.114,0.377-2.264c-0.346,0.374-0.702,0.651-1.072,0.831
			c-0.369,0.18-0.8,0.276-1.29,0.29c-0.957,0.025-1.774-0.294-2.45-0.956c-0.677-0.662-1.029-1.514-1.057-2.553
			c-0.019-0.71,0.131-1.36,0.451-1.952c0.319-0.592,0.769-1.046,1.35-1.36c0.58-0.313,1.314-0.482,2.203-0.507
			c1.069-0.028,1.932,0.132,2.588,0.481c0.654,0.35,1.187,0.919,1.595,1.708c0.407,0.788,0.629,1.839,0.663,3.15
			c0.053,1.929-0.316,3.353-1.104,4.271s-1.899,1.396-3.338,1.435c-0.851,0.022-1.523-0.058-2.02-0.241
			c-0.496-0.185-0.911-0.461-1.247-0.831S82.972,287.611,82.781,287.047z M88.12,282.135c-0.016-0.578-0.174-1.027-0.474-1.348
			c-0.301-0.319-0.659-0.474-1.077-0.463c-0.394,0.011-0.717,0.168-0.969,0.471c-0.252,0.304-0.369,0.752-0.354,1.345
			c0.016,0.598,0.162,1.051,0.44,1.358c0.278,0.309,0.619,0.458,1.022,0.447c0.417-0.012,0.761-0.174,1.029-0.487
			S88.136,282.703,88.12,282.135z"/>
		<path fill="#3D871A" d="M92.392,283.729c-0.33-2.005-0.202-3.468,0.388-4.387c0.59-0.92,1.623-1.502,3.1-1.746
			c0.71-0.116,1.308-0.125,1.792-0.025s0.894,0.266,1.228,0.499c0.334,0.232,0.609,0.49,0.826,0.772
			c0.216,0.281,0.408,0.621,0.577,1.017c0.326,0.754,0.561,1.558,0.701,2.411c0.315,1.913,0.224,3.367-0.277,4.361
			c-0.502,0.994-1.543,1.621-3.126,1.883c-0.887,0.146-1.627,0.122-2.221-0.07c-0.593-0.192-1.11-0.533-1.55-1.021
			c-0.319-0.347-0.604-0.845-0.856-1.495S92.526,284.544,92.392,283.729z M95.299,283.255c0.222,1.343,0.492,2.24,0.811,2.692
			c0.318,0.453,0.703,0.643,1.154,0.567c0.297-0.049,0.537-0.195,0.721-0.44c0.184-0.244,0.29-0.601,0.318-1.068
			c0.029-0.468-0.035-1.179-0.192-2.133c-0.231-1.4-0.506-2.322-0.823-2.765c-0.316-0.442-0.713-0.625-1.188-0.547
			c-0.484,0.08-0.793,0.384-0.928,0.91C95.037,280.999,95.08,281.927,95.299,283.255z"/>
		<path fill="#3D871A" d="M102.099,282.048c-0.605-1.938-0.68-3.404-0.224-4.397s1.399-1.713,2.828-2.158
			c0.688-0.214,1.277-0.306,1.771-0.273c0.494,0.031,0.922,0.14,1.284,0.324c0.363,0.186,0.672,0.402,0.926,0.651
			c0.253,0.249,0.491,0.558,0.713,0.927c0.428,0.701,0.771,1.465,1.027,2.29c0.578,1.852,0.688,3.304,0.329,4.357
			c-0.358,1.054-1.303,1.82-2.834,2.298c-0.858,0.268-1.594,0.347-2.209,0.238c-0.614-0.108-1.173-0.374-1.677-0.797
			c-0.363-0.3-0.715-0.754-1.056-1.363S102.345,282.837,102.099,282.048z M104.912,281.178c0.405,1.299,0.797,2.15,1.175,2.555
			c0.378,0.403,0.785,0.537,1.221,0.401c0.288-0.09,0.506-0.269,0.654-0.536c0.147-0.268,0.204-0.635,0.168-1.102
			c-0.036-0.468-0.199-1.163-0.487-2.087c-0.422-1.354-0.821-2.229-1.196-2.624s-0.793-0.52-1.252-0.376
			c-0.469,0.146-0.732,0.489-0.793,1.03S104.511,279.893,104.912,281.178z"/>
		<path fill="#3D871A" d="M115.204,271.215l4.641,9.83l-2.716,1.282l-3.042-6.441c-0.281,0.542-0.579,1.013-0.892,1.413
			c-0.313,0.401-0.735,0.843-1.266,1.324l-1.04-2.203c0.774-0.726,1.318-1.414,1.628-2.065c0.311-0.652,0.465-1.349,0.464-2.09
			L115.204,271.215z"/>
	</g>
	<g>
		<path fill="#3D871A" d="M27.638,255.183c0.521-0.415,1.113-0.586,1.777-0.513c0.664,0.075,1.205,0.374,1.623,0.898
			c0.417,0.524,0.588,1.118,0.511,1.782s-0.376,1.203-0.896,1.618c-0.524,0.418-1.117,0.588-1.78,0.514
			c-0.662-0.075-1.202-0.375-1.62-0.899s-0.589-1.118-0.515-1.78C26.813,256.141,27.113,255.601,27.638,255.183z"/>
		<path fill="#3D871A" d="M11.339,234.512l-1.012-3.136l6.059-1.955c0.601-0.194,1.198-0.283,1.792-0.269
			c0.595,0.015,1.156,0.158,1.685,0.43c0.529,0.271,0.945,0.6,1.249,0.987c0.424,0.537,0.773,1.233,1.049,2.089
			c0.16,0.495,0.3,1.046,0.419,1.653s0.141,1.141,0.062,1.601c-0.08,0.459-0.256,0.913-0.529,1.361
			c-0.273,0.447-0.592,0.797-0.955,1.047c-0.584,0.403-1.126,0.686-1.625,0.847l-6.06,1.955l-1.011-3.136l6.203-2.001
			c0.554-0.179,0.938-0.473,1.15-0.881c0.212-0.408,0.23-0.885,0.054-1.431c-0.175-0.541-0.465-0.916-0.871-1.125
			c-0.407-0.208-0.892-0.222-1.456-0.039L11.339,234.512z"/>
		<path fill="#3D871A" d="M9.583,228.084l-0.414-3.056l5.319-4.779l-5.858,0.793l-0.417-3.084l10.589-1.434l0.417,3.085
			l-5.277,4.752l5.814-0.787l0.416,3.077L9.583,228.084z"/>
		<path fill="#3D871A" d="M8.232,214.964l-0.053-3.309l10.685-0.171l0.053,3.31L8.232,214.964z"/>
		<path fill="#3D871A" d="M8.107,209.327l1.08-9.979l2.623,0.284l-0.362,3.348l8.001,0.865l-0.355,3.283l-8.001-0.866l-0.362,3.348
			L8.107,209.327z"/>
		<path fill="#3D871A" d="M9.688,196.944l2.283-8.549l2.205,0.589l-1.431,5.352l1.641,0.438l1.326-4.964l2.105,0.563l-1.326,4.964
			l2.035,0.544l1.471-5.507l2.339,0.625l-2.325,8.703L9.688,196.944z"/>
		<path fill="#3D871A" d="M12.961,185.578l2.005-4.478c0.395-0.883,0.833-1.542,1.315-1.979s1.027-0.731,1.634-0.886
			s1.243-0.179,1.909-0.072c0.665,0.106,1.331,0.309,1.996,0.605c1.043,0.467,1.798,0.947,2.267,1.441s0.803,1.039,1.001,1.634
			c0.2,0.596,0.256,1.163,0.168,1.704c-0.117,0.74-0.297,1.379-0.538,1.915l-2.003,4.478L12.961,185.578z M16.52,183.553
			l5.328,2.384l0.331-0.738c0.282-0.63,0.412-1.109,0.392-1.438c-0.021-0.329-0.171-0.646-0.452-0.953s-0.812-0.634-1.592-0.983
			c-1.033-0.463-1.816-0.61-2.349-0.444c-0.533,0.167-0.974,0.641-1.322,1.421L16.52,183.553z"/>
		<path fill="#3D871A" d="M29.643,176.195l-8.482-6.497l3.346-4.369c0.62-0.811,1.164-1.376,1.631-1.698s0.988-0.47,1.565-0.444
			c0.577,0.026,1.136,0.245,1.676,0.659c0.471,0.36,0.8,0.772,0.987,1.234c0.188,0.462,0.253,0.95,0.196,1.464
			c-0.036,0.327-0.159,0.72-0.369,1.178c0.343-0.232,0.621-0.38,0.835-0.442c0.144-0.044,0.399-0.069,0.768-0.078
			c0.367-0.009,0.637,0.003,0.808,0.036l3.431,0.613l-2.269,2.962l-3.666-0.584c-0.472-0.08-0.811-0.088-1.018-0.026
			c-0.275,0.088-0.505,0.252-0.688,0.491l-0.177,0.231l3.443,2.638L29.643,176.195z M26.613,169.697l0.847-1.104
			c0.091-0.12,0.229-0.381,0.416-0.783c0.098-0.2,0.117-0.41,0.059-0.63c-0.058-0.219-0.18-0.399-0.365-0.541
			c-0.273-0.21-0.551-0.284-0.83-0.224c-0.279,0.062-0.603,0.332-0.969,0.811l-0.882,1.15L26.613,169.697z"/>
		<path fill="#3D871A" d="M29.01,159.913l6.418-6.092l1.57,1.654l-4.018,3.814l1.169,1.231l3.728-3.538l1.499,1.58l-3.727,3.538
			l1.451,1.528l4.134-3.925l1.666,1.755l-6.534,6.202L29.01,159.913z"/>
		<path fill="#3D871A" d="M46.001,154.535l-1.247-1.841l4.225-2.861l2.555,3.771c-0.436,1.099-0.896,1.959-1.383,2.578
			c-0.486,0.621-1.156,1.22-2.009,1.797c-1.051,0.712-2.028,1.112-2.933,1.203c-0.904,0.09-1.778-0.096-2.622-0.557
			c-0.844-0.462-1.575-1.15-2.197-2.068c-0.654-0.966-1.024-1.94-1.108-2.924c-0.086-0.983,0.13-1.921,0.647-2.812
			c0.406-0.692,1.116-1.381,2.13-2.068c0.978-0.662,1.769-1.068,2.373-1.221c0.604-0.15,1.193-0.148,1.765,0.007
			c0.572,0.155,1.132,0.464,1.681,0.927l-2.319,2.257c-0.335-0.261-0.691-0.391-1.071-0.393c-0.379-0.001-0.771,0.135-1.172,0.407
			c-0.6,0.406-0.937,0.938-1.01,1.595c-0.074,0.658,0.194,1.438,0.804,2.339c0.649,0.957,1.293,1.519,1.931,1.686
			s1.279,0.031,1.923-0.404c0.306-0.207,0.567-0.449,0.784-0.726c0.218-0.276,0.434-0.643,0.647-1.099l-0.563-0.833L46.001,154.535z
			"/>
		<path fill="#3D871A" d="M48.962,144.8l2.955-1.49l4.812,9.541l-2.956,1.49L48.962,144.8z"/>
		<path fill="#3D871A" d="M56.541,148.88l2.883-1.262c0.239,0.456,0.503,0.773,0.79,0.953c0.468,0.289,0.999,0.326,1.592,0.109
			c0.443-0.161,0.746-0.39,0.91-0.686c0.164-0.295,0.195-0.579,0.096-0.854c-0.095-0.26-0.294-0.451-0.598-0.573
			c-0.303-0.122-0.903-0.123-1.801-0.002c-1.472,0.19-2.59,0.139-3.354-0.156c-0.769-0.294-1.297-0.833-1.583-1.618
			c-0.188-0.516-0.218-1.058-0.086-1.626c0.131-0.567,0.45-1.092,0.954-1.573c0.505-0.482,1.279-0.914,2.324-1.295
			c1.283-0.469,2.348-0.587,3.195-0.356c0.848,0.231,1.525,0.844,2.033,1.838l-2.861,1.238c-0.243-0.424-0.525-0.692-0.85-0.808
			c-0.323-0.114-0.704-0.092-1.143,0.068c-0.36,0.132-0.605,0.308-0.731,0.527c-0.127,0.22-0.15,0.438-0.07,0.657
			c0.059,0.16,0.187,0.276,0.384,0.35c0.194,0.079,0.586,0.075,1.176-0.011c1.462-0.203,2.541-0.262,3.236-0.177
			c0.696,0.085,1.258,0.3,1.687,0.646c0.429,0.345,0.743,0.791,0.943,1.339c0.235,0.644,0.273,1.302,0.115,1.976
			c-0.157,0.673-0.505,1.267-1.041,1.78c-0.536,0.515-1.292,0.948-2.264,1.304c-1.707,0.623-3.009,0.726-3.906,0.309
			S56.997,149.861,56.541,148.88z"/>
		<path fill="#3D871A" d="M64.982,138.32l9.843-1.96l0.515,2.587l-3.303,0.658l1.571,7.892l-3.237,0.646L68.8,140.25l-3.303,0.658
			L64.982,138.32z"/>
		<path fill="#3D871A" d="M77.767,146.768l-0.407-10.678l5.499-0.21c1.02-0.039,1.803,0.019,2.349,0.173
			c0.545,0.155,0.992,0.462,1.341,0.923s0.535,1.031,0.561,1.711c0.022,0.592-0.084,1.108-0.32,1.547
			c-0.235,0.439-0.569,0.802-1.002,1.086c-0.274,0.181-0.655,0.336-1.143,0.466c0.398,0.116,0.689,0.236,0.874,0.361
			c0.125,0.083,0.309,0.264,0.549,0.541c0.241,0.278,0.404,0.493,0.487,0.646l1.717,3.033l-3.729,0.143l-1.889-3.195
			c-0.239-0.414-0.449-0.681-0.629-0.801c-0.243-0.155-0.516-0.229-0.816-0.217l-0.292,0.011l0.165,4.334L77.767,146.768z
			 M80.839,140.29l1.392-0.054c0.15-0.006,0.439-0.065,0.868-0.179c0.217-0.052,0.391-0.17,0.522-0.355
			c0.131-0.185,0.192-0.394,0.184-0.627c-0.014-0.344-0.132-0.605-0.357-0.782c-0.226-0.176-0.64-0.252-1.241-0.229l-1.449,0.056
			L80.839,140.29z"/>
		<path fill="#3D871A" d="M95.365,145.539l-3.72-0.467l-0.736,1.686l-3.345-0.419l5.313-10.104l3.574,0.448l2.654,11.102
			l-3.431-0.43L95.365,145.539z M94.973,143.16l-0.692-3.958l-1.636,3.667L94.973,143.16z"/>
		<path fill="#3D871A" d="M99.468,147.959l3.058-10.239l5.272,1.575c0.978,0.292,1.7,0.599,2.167,0.921
			c0.467,0.322,0.791,0.757,0.972,1.306c0.182,0.549,0.174,1.149-0.021,1.801c-0.17,0.567-0.438,1.021-0.803,1.361
			c-0.364,0.34-0.798,0.575-1.298,0.704c-0.319,0.082-0.729,0.106-1.232,0.073c0.34,0.238,0.576,0.446,0.711,0.623
			c0.092,0.119,0.206,0.349,0.345,0.689s0.224,0.597,0.254,0.769l0.646,3.425l-3.574-1.068l-0.757-3.633
			c-0.093-0.47-0.205-0.79-0.337-0.961c-0.181-0.227-0.416-0.383-0.704-0.469l-0.279-0.083l-1.241,4.155L99.468,147.959z
			 M104.464,142.817l1.334,0.398c0.145,0.044,0.438,0.08,0.88,0.11c0.222,0.021,0.425-0.034,0.609-0.167
			c0.184-0.133,0.309-0.311,0.376-0.534c0.1-0.331,0.07-0.616-0.086-0.855c-0.157-0.239-0.524-0.445-1.102-0.618l-1.39-0.414
			L104.464,142.817z"/>
		<path fill="#3D871A" d="M116.286,148.167c0.882-1.505,1.988-2.432,3.317-2.778c1.33-0.348,2.743-0.083,4.24,0.794
			c1.534,0.899,2.475,2.004,2.822,3.314s0.086,2.708-0.783,4.191c-0.632,1.078-1.331,1.855-2.098,2.332
			c-0.767,0.478-1.604,0.707-2.515,0.688c-0.91-0.018-1.877-0.326-2.9-0.926c-1.04-0.609-1.804-1.279-2.29-2.01
			c-0.487-0.73-0.732-1.578-0.736-2.543C115.341,150.266,115.655,149.244,116.286,148.167z M119.128,149.849
			c-0.546,0.931-0.765,1.7-0.657,2.31s0.459,1.089,1.055,1.438c0.612,0.358,1.203,0.438,1.771,0.235
			c0.568-0.201,1.155-0.818,1.759-1.85c0.509-0.867,0.705-1.604,0.591-2.21c-0.116-0.605-0.474-1.084-1.073-1.436
			c-0.574-0.336-1.155-0.403-1.741-0.2C120.246,148.338,119.678,148.909,119.128,149.849z"/>
		<path fill="#3D871A" d="M130.761,150.858l6.305,5.186l-1.458,1.773l-3.744-3.079l-1.185,1.441l3.197,2.629l-1.371,1.667
			l-3.196-2.63l-2.773,3.371l-2.563-2.106L130.761,150.858z"/>
		<path fill="#3D871A" d="M136.625,165.658l2.104,2.342c-0.358,0.369-0.577,0.719-0.657,1.049c-0.128,0.535,0.003,1.05,0.396,1.546
			c0.292,0.369,0.604,0.586,0.936,0.648c0.332,0.063,0.612,0.004,0.841-0.177c0.217-0.172,0.336-0.421,0.356-0.747
			c0.021-0.326-0.166-0.896-0.563-1.711c-0.643-1.337-0.944-2.415-0.903-3.234c0.037-0.822,0.383-1.492,1.038-2.011
			c0.431-0.341,0.937-0.538,1.517-0.591c0.581-0.054,1.179,0.084,1.794,0.411c0.616,0.328,1.27,0.929,1.96,1.802
			c0.846,1.07,1.293,2.045,1.34,2.922c0.046,0.877-0.323,1.713-1.108,2.507l-2.073-2.328c0.326-0.363,0.493-0.717,0.5-1.06
			c0.007-0.344-0.134-0.698-0.424-1.064c-0.237-0.301-0.48-0.478-0.729-0.528c-0.248-0.052-0.464-0.005-0.646,0.14
			c-0.134,0.105-0.204,0.263-0.212,0.474c-0.014,0.209,0.112,0.58,0.379,1.113c0.651,1.324,1.046,2.33,1.184,3.018
			s0.109,1.288-0.083,1.804c-0.193,0.516-0.519,0.954-0.977,1.315c-0.537,0.425-1.15,0.669-1.84,0.73
			c-0.688,0.061-1.36-0.083-2.017-0.431c-0.656-0.349-1.306-0.928-1.947-1.74c-1.128-1.425-1.634-2.629-1.52-3.612
			C135.385,167.262,135.836,166.399,136.625,165.658z"/>
		<path fill="#3D871A" d="M149.201,170.112l1.793,3.2l-2.093,3.64l4.199,0.12l1.783,3.183l-7.448-0.59l-3.905,2.188l-1.617-2.887
			l3.905-2.188L149.201,170.112z"/>
		<path fill="#3D871A" d="M148.456,183.512l1.293,2.87c-0.454,0.243-0.769,0.511-0.944,0.8c-0.285,0.472-0.315,1.002-0.092,1.594
			c0.166,0.44,0.396,0.741,0.693,0.901c0.297,0.161,0.582,0.19,0.854,0.087c0.26-0.098,0.448-0.299,0.568-0.604
			c0.118-0.305,0.112-0.904-0.018-1.801c-0.207-1.47-0.166-2.588,0.12-3.356c0.285-0.772,0.818-1.306,1.601-1.601
			c0.514-0.194,1.055-0.229,1.624-0.103c0.569,0.125,1.098,0.438,1.585,0.937c0.486,0.499,0.927,1.27,1.319,2.311
			c0.482,1.277,0.612,2.341,0.391,3.191c-0.223,0.85-0.828,1.534-1.816,2.052l-1.27-2.847c0.421-0.248,0.688-0.534,0.798-0.858
			c0.111-0.325,0.085-0.706-0.08-1.143c-0.136-0.359-0.313-0.601-0.534-0.725c-0.221-0.125-0.44-0.146-0.658-0.063
			c-0.159,0.06-0.274,0.188-0.346,0.387c-0.077,0.195-0.069,0.587,0.022,1.176c0.219,1.46,0.29,2.539,0.212,3.234
			c-0.077,0.697-0.286,1.262-0.627,1.694c-0.34,0.432-0.783,0.751-1.329,0.957c-0.641,0.241-1.299,0.287-1.974,0.137
			s-1.271-0.491-1.792-1.021c-0.52-0.531-0.963-1.281-1.328-2.249c-0.641-1.701-0.758-3.002-0.351-3.903
			C146.787,184.663,147.479,183.979,148.456,183.512z"/>
		<path fill="#3D871A" d="M159.11,191.852l2.063,9.822l-2.582,0.543l-0.692-3.296l-7.875,1.655l-0.68-3.231l7.876-1.655
			l-0.692-3.295L159.11,191.852z"/>
		<path fill="#3D871A" d="M161.438,204.09l0.484,8.836l-2.277,0.124l-0.304-5.531l-1.695,0.094l0.282,5.131l-2.178,0.119
			l-0.28-5.131l-2.104,0.115l0.312,5.691l-2.416,0.133l-0.493-8.995L161.438,204.09z"/>
		<path fill="#3D871A" d="M161.951,215.979l-0.52,4.311l-6.656,0.885l6.257,2.429l-0.52,4.309l-10.608-1.279l0.323-2.684l8.09,0.975
			l-7.841-3.044l0.294-2.43l8.339-1.09l-8.091-0.976l0.324-2.685L161.951,215.979z"/>
		<path fill="#3D871A" d="M153.024,228.408l-0.731,3.062c-0.508-0.085-0.92-0.066-1.236,0.056c-0.514,0.198-0.862,0.601-1.048,1.204
			c-0.138,0.451-0.139,0.83-0.002,1.139s0.345,0.506,0.623,0.592c0.266,0.081,0.538,0.037,0.818-0.131
			c0.279-0.169,0.642-0.647,1.087-1.436c0.735-1.29,1.451-2.15,2.147-2.582c0.698-0.438,1.446-0.533,2.245-0.289
			c0.525,0.161,0.975,0.466,1.349,0.913s0.602,1.017,0.681,1.71c0.08,0.693-0.043,1.571-0.368,2.634
			c-0.4,1.307-0.948,2.229-1.644,2.766c-0.695,0.535-1.592,0.707-2.691,0.513l0.737-3.028c0.484,0.061,0.87-0.002,1.156-0.191
			s0.498-0.508,0.635-0.953c0.112-0.367,0.119-0.668,0.021-0.901c-0.1-0.233-0.26-0.385-0.483-0.453
			c-0.162-0.049-0.332-0.018-0.509,0.096c-0.181,0.107-0.414,0.423-0.701,0.944c-0.72,1.288-1.323,2.185-1.811,2.688
			s-0.998,0.824-1.531,0.957c-0.534,0.135-1.08,0.114-1.638-0.056c-0.655-0.201-1.203-0.566-1.646-1.098
			c-0.441-0.531-0.706-1.166-0.792-1.905c-0.087-0.737,0.021-1.602,0.325-2.591c0.531-1.738,1.234-2.839,2.107-3.303
			C151,228.299,151.967,228.181,153.024,228.408z"/>
		<path fill="#3D871A" d="M139.142,259.199c-0.52-0.417-0.815-0.957-0.89-1.621s0.098-1.258,0.518-1.78
			c0.421-0.522,0.963-0.819,1.628-0.891c0.664-0.07,1.256,0.103,1.775,0.52c0.521,0.42,0.819,0.961,0.892,1.623
			c0.072,0.664-0.101,1.256-0.521,1.778c-0.42,0.523-0.961,0.821-1.625,0.894C140.257,259.794,139.665,259.62,139.142,259.199z"/>
	</g>
</g>
<path fill="#FFFFFF" d="M157.11,167.537V0h7.527v182.697C162.629,177.368,160.097,172.298,157.11,167.537z M12.967,167.541V0H5.442
	v182.695C7.45,177.369,9.981,172.3,12.967,167.541z"/>
</svg>
