<?xml version="1.0" encoding="utf-8"?>
<!-- Generator: Adobe Illustrator 16.0.0, SVG Export Plug-In . SVG Version: 6.00 Build 0)  -->
<!DOCTYPE svg PUBLIC "-//W3C//DTD SVG 1.0//EN" "http://www.w3.org/TR/2001/REC-SVG-20010904/DTD/svg10.dtd">
<svg version="1.0" id="Layer_1" xmlns="http://www.w3.org/2000/svg" xmlns:xlink="http://www.w3.org/1999/xlink" x="0px" y="0px"
	 width="70px" height="70px" viewBox="25 -5 70 70" enable-background="new 25 -5 70 70" xml:space="preserve">
<g>
	<g>
		<ellipse fill="#00D8FF" cx="-26.265" cy="-74.248" rx="3.802" ry="3.748"/>
		<g>
			<path fill="none" stroke="#00D8FF" d="M-26.265-81.869c5.104,0,9.845,0.722,13.422,1.935c4.306,1.463,6.954,3.68,6.954,5.687
				c0,2.091-2.806,4.446-7.433,5.958c-3.496,1.143-8.099,1.739-12.943,1.739c-4.967,0-9.671-0.56-13.208-1.751
				c-4.474-1.508-7.169-3.893-7.169-5.946c0-1.99,2.528-4.19,6.775-5.65C-36.277-81.13-31.419-81.869-26.265-81.869L-26.265-81.869z
				"/>
			<path fill="none" stroke="#00D8FF" d="M-32.992-78.036c2.549-4.361,5.552-8.049,8.404-10.497
				c3.436-2.949,6.707-4.104,8.469-3.101c1.838,1.044,2.504,4.619,1.521,9.324c-0.743,3.559-2.518,7.787-4.938,11.927
				c-2.481,4.242-5.322,7.98-8.136,10.406c-3.561,3.069-7.002,4.18-8.805,3.154c-1.749-0.993-2.417-4.253-1.578-8.609
				c0.709-3.683,2.487-8.202,5.062-12.604H-32.992z"/>
			<path fill="none" stroke="#00D8FF" d="M-32.986-70.373c-2.557-4.355-4.298-8.764-5.024-12.423
				c-0.875-4.409-0.256-7.78,1.505-8.785c1.835-1.048,5.309,0.167,8.952,3.357c2.754,2.413,5.583,6.041,8.011,10.176
				c2.488,4.24,4.354,8.535,5.079,12.149c0.919,4.572,0.176,8.068-1.625,9.097c-1.748,0.996-4.944-0.062-8.354-2.951
				C-27.322-62.197-30.405-65.974-32.986-70.373L-32.986-70.373z"/>
		</g>
	</g>
	<path fill="#00D8FF" d="M-36.52-39.617l-2.661-4.019c1.345-0.119,2.556-1.093,2.556-2.873c0-1.812-1.286-2.971-3.088-2.971h-3.959
		v9.854h1.226v-3.915h1.965l2.512,3.915L-36.52-39.617z M-39.86-44.61h-2.586v-3.768h2.586c1.167,0,1.965,0.767,1.965,1.876
		C-37.895-45.393-38.693-44.609-39.86-44.61L-39.86-44.61z M-31.955-39.439c1.167,0,2.127-0.386,2.837-1.093l-0.533-0.726
		c-0.561,0.577-1.388,0.902-2.201,0.902c-1.537,0-2.482-1.124-2.572-2.467h5.778v-0.282c0-2.143-1.271-3.827-3.429-3.827
		c-2.04,0-3.516,1.67-3.516,3.738c0,2.232,1.522,3.747,3.634,3.747L-31.955-39.439z M-29.739-43.636h-4.684
		c0.061-1.093,0.813-2.379,2.335-2.379C-30.461-46.015-29.753-44.701-29.739-43.636z M-21.285-39.617v-4.905
		c0-1.729-1.256-2.409-2.764-2.409c-1.168,0-2.083,0.384-2.851,1.182l0.517,0.768c0.635-0.679,1.33-0.989,2.188-0.989
		c1.033,0,1.802,0.545,1.802,1.508v1.285c-0.576-0.665-1.39-0.976-2.364-0.976c-1.212,0-2.498,0.754-2.498,2.349
		c0,1.552,1.286,2.364,2.498,2.364c0.96,0,1.774-0.339,2.364-0.989v0.813L-21.285-39.617z M-24.357-40.237
		c-1.034,0-1.759-0.651-1.759-1.552c0-0.917,0.725-1.566,1.759-1.566c0.782,0,1.535,0.295,1.964,0.887v1.345
		C-22.821-40.534-23.575-40.237-24.357-40.237L-24.357-40.237z M-15.927-39.439c1.3,0,2.067-0.532,2.615-1.241l-0.739-0.68
		c-0.473,0.635-1.079,0.93-1.811,0.93c-1.522,0-2.467-1.182-2.467-2.763c0-1.579,0.944-2.747,2.467-2.747
		c0.739,0,1.346,0.28,1.811,0.93l0.739-0.679c-0.547-0.709-1.315-1.241-2.615-1.241c-2.128,0-3.562,1.626-3.562,3.738
		c0,2.128,1.434,3.746,3.562,3.746V-39.439z M-9.957-39.439c0.649,0,1.049-0.192,1.33-0.458l-0.324-0.828
		C-9.1-40.563-9.391-40.43-9.705-40.43c-0.487,0-0.725-0.383-0.725-0.916v-4.433h1.449v-0.975h-1.449v-1.95h-1.109v1.95h-1.181
		v0.976h1.181v4.669C-11.539-40.043-11.007-39.438-9.957-39.439L-9.957-39.439z"/>
</g>
<g>
	<g>
		<polygon fill="#B52E31" points="-96.297,60.133 -96.297,50.184 -94.999,50.184 -88.834,58.195 -88.834,50.184 -87.601,50.184 
			-87.601,60.133 -88.897,60.133 -95.07,52.041 -95.07,60.133 -96.303,60.133 		"/>
		<path fill="#B52E31" d="M-77.555,59.738c-0.842,0.307-1.73,0.461-2.627,0.457c-3.652,0-5.479-1.723-5.479-5.184
			c0-3.271,1.762-4.914,5.294-4.914c1.009,0,1.952,0.141,2.817,0.41v1.107c-0.865-0.33-1.761-0.49-2.674-0.49
			c-2.756,0-4.133,1.297-4.133,3.857c0,2.764,1.36,4.141,4.068,4.141c0.432,0,0.913-0.064,1.441-0.174v-3.334h1.297v4.125
			L-77.555,59.738z"/>
		<path fill="#B52E31" d="M-75.473,56.293v-6.115h1.297v6.115c0,1.912,0.971,2.867,2.908,2.867c1.922,0,2.91-0.955,2.91-2.867
			v-6.115h1.295v6.115c0,2.607-1.395,3.918-4.197,3.918c-2.805,0-4.197-1.311-4.197-3.918H-75.473z"/>
		<polygon fill="#B52E31" points="-63.458,50.184 -63.458,59.104 -58.165,59.104 -58.165,60.145 -64.749,60.145 -64.749,50.184 
			-63.452,50.184 		"/>
		<polygon fill="#B52E31" points="-56.299,60.139 -57.659,60.139 -52.649,48.879 -47.633,60.145 -49.075,60.145 -50.374,57.018 
			-53.706,57.018 -53.354,55.975 -50.807,55.975 -52.698,51.469 -56.301,60.145 		"/>
		<polygon fill="#B52E31" points="-106.221,60.139 -107.582,60.139 -102.57,48.879 -97.557,60.145 -98.998,60.145 -100.296,57.018 
			-103.629,57.018 -103.276,55.975 -100.729,55.975 -102.618,51.469 -106.224,60.145 		"/>
		<path fill="#B52E31" d="M-46.239,60.139v-9.955h4.307c1.924,0,2.885,0.789,2.885,2.387c0,1.295-0.945,2.258-2.818,2.867
			l3.461,4.693h-1.715l-3.205-4.473v-0.822c1.922-0.301,2.908-1.025,2.908-2.195c0-0.916-0.521-1.377-1.602-1.377h-2.883v8.869
			h-1.33L-46.239,60.139z"/>
	</g>
	<g>
		<path fill="#E23237" d="M-90.099,13.164l16.881-6.019l17.328,5.915l-2.803,22.327l-14.525,8.033l-14.291-7.918L-90.099,13.164z"/>
		<path fill="#B52E31" d="M-55.889,13.059l-17.328-5.915V43.42l14.527-8.035L-55.889,13.059L-55.889,13.059z"/>
		<path fill="#FFFFFF" d="M-73.19,11.384l-10.523,23.388l3.927-0.079l2.12-5.287h9.396l2.316,5.34l3.742,0.078L-73.18,11.371
			L-73.19,11.384z M-73.165,18.896l3.561,7.434h-6.677l3.117-7.432V18.896z"/>
	</g>
</g>
<g>
	<g>
		<polygon fill="#EF533F" points="66.528,39.186 66.528,39.186 66.528,39.186 		"/>
		<path fill="#EF533F" d="M86.521,19.914l-6.541-8.169c-0.2-0.247-0.522-0.357-0.83-0.285l-7.559,1.788
			c-0.098,0.026-0.19,0.069-0.271,0.127c-0.368,0.265-0.451,0.778-0.188,1.146l5.387,7.609l-16.158,4.395L46.472,3.32
			c-0.17-0.281-0.49-0.434-0.816-0.389L34.138,4.479c-0.096,0.013-0.189,0.043-0.275,0.088c-0.4,0.214-0.552,0.712-0.338,1.111
			l13.567,25.5c0.176,0.33,0.553,0.498,0.917,0.411l11.608-3.158l6.207,10.353c0.148,0.248,0.418,0.399,0.706,0.399
			c0.088-0.001,0.177-0.02,0.261-0.051l18.054-6.33c0.072-0.026,0.141-0.061,0.205-0.105c0.368-0.262,0.456-0.774,0.194-1.145
			l-6.016-8.461l6.869-1.875c0.108-0.029,0.21-0.081,0.298-0.151C86.748,20.783,86.805,20.266,86.521,19.914z M48.224,29.832
			L35.528,5.938l9.814-1.309L58.76,26.972L48.224,29.832z M83.281,31.628l-16.396,5.739l-5.626-9.384l16.297-4.428L83.281,31.628z
			 M78.257,21.674l-5.053-7.104l5.867-1.39l5.451,6.79L78.257,21.674z"/>
	</g>
	<g>
		<rect x="32.522" y="42.673" fill="#EF533F" width="1.205" height="12.92"/>
		<path fill="#EF533F" d="M47.744,46.271h1.225v1.362c0.307-0.47,0.702-0.878,1.16-1.202c0.373-0.256,0.815-0.395,1.268-0.4
			c0.377,0.014,0.744,0.124,1.065,0.32l-0.628,1.019c-0.203-0.097-0.424-0.151-0.648-0.162c-0.435,0.014-0.847,0.19-1.159,0.492
			c-0.423,0.418-0.72,0.948-0.853,1.528c-0.141,0.531-0.213,1.605-0.213,3.221v3.155h-1.224L47.744,46.271z"/>
		<polygon fill="#EF533F" points="64.58,46.271 65.859,46.271 68.988,53.066 72.084,46.271 73.363,46.271 69.099,55.594 
			68.887,55.594 		"/>
		<rect x="86.407" y="42.682" fill="#EF533F" width="1.199" height="12.923"/>
		<path fill="#EF533F" d="M44.326,46.27v1.706c-0.421-0.61-0.981-1.112-1.632-1.466c-0.643-0.331-1.355-0.497-2.079-0.488
			c-1.287-0.02-2.523,0.498-3.41,1.431c-0.923,0.906-1.434,2.152-1.414,3.444c-0.025,1.306,0.479,2.566,1.401,3.491
			c1.414,1.456,3.599,1.847,5.431,0.973c0.656-0.334,1.234-0.805,1.693-1.38v1.612h1.183v-9.321L44.326,46.27z M43.911,52.896
			c-0.317,0.564-0.786,1.03-1.354,1.342c-0.568,0.327-1.211,0.496-1.866,0.496c-0.642,0.003-1.273-0.169-1.825-0.499
			c-0.569-0.335-1.037-0.818-1.355-1.398c-0.67-1.165-0.67-2.6,0-3.766c0.643-1.163,1.869-1.882,3.197-1.873v-0.003
			c0.982-0.021,1.931,0.369,2.614,1.077c0.708,0.718,1.093,1.695,1.066,2.704C44.397,51.646,44.236,52.309,43.911,52.896z"/>
		<path fill="#EF533F" d="M61.589,46.27v1.706c-0.421-0.61-0.981-1.112-1.631-1.466c-0.643-0.331-1.355-0.497-2.079-0.488
			c-1.288-0.02-2.523,0.498-3.41,1.431c-0.925,0.905-1.434,2.152-1.416,3.444c-0.026,1.306,0.479,2.566,1.401,3.491
			c1.413,1.456,3.599,1.847,5.43,0.973c0.656-0.334,1.234-0.805,1.693-1.38v1.612h1.183v-9.321L61.589,46.27z M61.174,52.896
			c-0.319,0.564-0.789,1.03-1.357,1.342c-0.567,0.327-1.209,0.496-1.864,0.496c-0.643,0.003-1.274-0.169-1.826-0.499
			c-0.569-0.335-1.037-0.818-1.354-1.398c-0.671-1.165-0.671-2.6,0-3.766c0.64-1.163,1.867-1.882,3.197-1.873l0.002-0.013
			c0.982-0.021,1.929,0.37,2.613,1.077c0.709,0.721,1.094,1.702,1.063,2.714C61.66,51.646,61.496,52.309,61.174,52.896z"/>
		<path fill="#EF533F" d="M83.031,52.52c-0.271,0.494-0.615,0.944-1.021,1.337c-0.34,0.285-0.728,0.508-1.146,0.655
			c-0.442,0.166-0.913,0.249-1.386,0.249c-0.936,0.02-1.836-0.358-2.479-1.039c-0.68-0.718-1.051-1.674-1.036-2.661h8.393
			c-0.006-1.28-0.346-2.346-1.021-3.198c-0.902-1.185-2.321-1.856-3.807-1.808c-1.446-0.048-2.823,0.61-3.696,1.764
			c-0.716,0.889-1.101,2.006-1.088,3.153c-0.007,1.245,0.448,2.448,1.277,3.38c0.861,0.988,2.05,1.482,3.57,1.482
			c0.628,0.01,1.252-0.096,1.843-0.313c0.543-0.208,1.041-0.519,1.467-0.912c0.474-0.453,0.862-0.986,1.148-1.577l-1.021-0.53V52.52
			z M77.183,48.07c0.645-0.584,1.488-0.9,2.358-0.883c0.547,0,1.086,0.121,1.58,0.354c0.469,0.21,0.886,0.526,1.211,0.925
			c0.342,0.454,0.579,0.979,0.699,1.531l-6.938-0.008C76.338,49.142,76.703,48.503,77.183,48.07z"/>
	</g>
</g>
</svg>
