<?xml version="1.0" encoding="utf-8"?>
<!-- Generator: Adobe Illustrator 16.0.0, SVG Export Plug-In . SVG Version: 6.00 Build 0)  -->
<!DOCTYPE svg PUBLIC "-//W3C//DTD SVG 1.1//EN" "http://www.w3.org/Graphics/SVG/1.1/DTD/svg11.dtd">
<svg version="1.1" id="Layer_1" xmlns="http://www.w3.org/2000/svg" xmlns:xlink="http://www.w3.org/1999/xlink" x="0px" y="0px"
	 width="554.7px" height="469.295px" viewBox="28.651 147.353 554.7 469.295" enable-background="new 28.651 147.353 554.7 469.295"
	 xml:space="preserve">
<path fill="#D5FCC0" d="M521.66,181.401c-34.521-31.949-80.25-53-152-9c-76.177,46.714-147,55-165,56s-52-3.091-71-13.42
	s-25.25-14.33-45.25,13.17S42.327,346.068,33.66,408.734c-8.667,62.667-12.667,177.335,45.333,203.335c0,0,29.333,23.332,90-35.334
	s113.333-110,164.667-107.334c51.334,2.668,120.668,16,191.334-20c47.868-24.386,59.943-71.854,58.197-113.523
	C582.358,316.031,568.66,224.901,521.66,181.401z"/>
</svg>
