<?xml version="1.0" encoding="utf-8"?>
<!-- Generator: Adobe Illustrator 16.0.0, SVG Export Plug-In . SVG Version: 6.00 Build 0)  -->
<!DOCTYPE svg PUBLIC "-//W3C//DTD SVG 1.0//EN" "http://www.w3.org/TR/2001/REC-SVG-20010904/DTD/svg10.dtd">
<svg version="1.0" xmlns="http://www.w3.org/2000/svg" xmlns:xlink="http://www.w3.org/1999/xlink" x="0px" y="0px" width="400px"
	 height="72.543px" viewBox="0 0 400 72.543" enable-background="new 0 0 400 72.543" xml:space="preserve">
<g id="Guides_For_Artboard">
</g>
<g id="Layer_1">
	<g>
		<g>
			<path fill-rule="evenodd" clip-rule="evenodd" fill="#515658" d="M68.687,0.917h25.181c2.901,0,5.538,1.137,7.449,2.972
				l-0.007,0.007c1.914,1.839,3.103,4.372,3.103,7.148v19.964c0,2.787-1.186,5.321-3.095,7.154c-1.289,1.24-2.907,2.158-4.714,2.626
				c-0.268-0.411-0.537-0.824-0.805-1.239c-1.209-1.872-2.424-3.75-3.79-5.511h1.86c0.861,0,1.652-0.342,2.223-0.893
				c0.573-0.55,0.93-1.307,0.93-2.137V11.044c0-0.837-0.35-1.595-0.916-2.137h-0.014c-0.571-0.551-1.362-0.893-2.223-0.893H68.687
				c-0.872,0-1.663,0.338-2.227,0.88l-0.014,0.013c-0.562,0.542-0.914,1.3-0.914,2.137v19.964c0,0.831,0.359,1.587,0.928,2.137
				v0.015c0.564,0.539,1.355,0.878,2.227,0.878h4.515h2.774c5.594,0.377,7.596,3.211,9.826,7.097H68.687
				c-2.891,0-5.527-1.141-7.442-2.979l-0.009,0.006c-1.909-1.833-3.093-4.367-3.093-7.154V11.044c0-2.774,1.184-5.303,3.093-7.14
				L61.25,3.89C63.166,2.055,65.798,0.917,68.687,0.917z"/>
			<path fill-rule="evenodd" clip-rule="evenodd" fill="#515658" d="M47.416,41.584l-6.403-10.326H20.8l3.525-5.813H37.43
				l-9.52-15.345L8.521,41.584H0L24.561,2.313c0.432-0.715,0.939-1.279,1.527-1.69C26.673,0.208,27.38,0,28.202,0
				c0.825,0,1.519,0.208,2.085,0.622c0.569,0.412,1.07,0.976,1.5,1.69l24.619,39.271H47.416L47.416,41.584z M150.999,0.564h7.284
				v22.909c0,3.159-0.428,5.913-1.291,8.267c-0.863,2.347-2.212,4.296-4.055,5.839c-1.842,1.541-4.22,2.689-7.137,3.439
				c-2.919,0.755-6.454,1.131-10.606,1.131c-4.114,0-7.627-0.376-10.548-1.131c-2.919-0.75-5.296-1.898-7.139-3.439
				c-1.84-1.543-3.191-3.492-4.053-5.839c-0.861-2.354-1.294-5.108-1.294-8.267V0.564h7.697v22.909c0,2.069,0.265,3.836,0.794,5.302
				c0.53,1.467,1.389,2.671,2.585,3.613c1.195,0.939,2.793,1.626,4.788,2.06c1.998,0.431,4.466,0.649,7.403,0.649
				c2.938,0,5.405-0.218,7.404-0.649c1.998-0.434,3.594-1.12,4.789-2.06c1.195-0.942,2.055-2.146,2.587-3.613
				c0.524-1.465,0.791-3.233,0.791-5.302V0.564L150.999,0.564z M205.935,41.584l-6.404-10.326h-20.209l3.521-5.813h13.103
				l-9.518-15.345l-19.39,31.483h-8.517L183.08,2.313c0.43-0.715,0.938-1.279,1.527-1.69C185.192,0.208,185.899,0,186.723,0
				c0.821,0,1.516,0.208,2.086,0.622c0.568,0.412,1.067,0.976,1.497,1.69l24.617,39.271H205.935L205.935,41.584z M219.507,41.584
				V0.564h7.46v33.854h28.731v7.167H219.507L219.507,41.584z M261.043,41.584V0.564h38.134v7.164h-30.728v26.689h30.789v7.167
				H261.043L261.043,41.584z M273.913,23.753h23.677v-6.036h-23.677V23.753L273.913,23.753z M350.175,41.584l-6.402-10.326h-20.214
				l3.528-5.813h13.101l-9.516-15.345l-19.389,31.483h-8.521l24.56-39.271c0.428-0.715,0.942-1.279,1.528-1.69
				C329.436,0.208,330.143,0,330.964,0s1.518,0.208,2.083,0.622c0.569,0.412,1.069,0.976,1.504,1.69l24.615,39.271H350.175
				L350.175,41.584z M363.75,41.584V0.564H400v7.164h-28.851v33.856H363.75L363.75,41.584z M376.613,24.601h21.624v-6.263h-21.624
				V24.601z"/>
			<path fill-rule="evenodd" clip-rule="evenodd" fill="#27B78A" d="M114.253,56.332c-14.43,0.809-18.965-6.934-23.562-14.792
				c-2.992-5.108-6.021-10.289-13.893-10.55v-9.635c13.536,0.295,17.973,7.875,22.345,15.351c3.113,5.324,6.187,10.571,15.11,9.949
				V56.332z"/>
		</g>
		<g>
			<rect x="122.954" y="47.245" fill="#515658" width="1.242" height="8.879"/>
			<polygon fill="#515658" points="130.081,48.382 134.159,48.382 134.159,56.124 135.401,56.124 135.401,48.382 139.504,48.382 
				139.504,47.245 130.081,47.245 			"/>
			<path fill="#515658" d="M160.991,51.149c-0.521-0.061-0.918-0.096-1.182-0.105c-0.26-0.008-0.557-0.012-0.891-0.012h-2.792
				c-0.488,0-0.861-0.089-1.108-0.264c-0.233-0.166-0.352-0.496-0.352-0.982c0-0.281,0.034-0.522,0.102-0.717
				c0.061-0.177,0.202-0.315,0.43-0.423c0.244-0.115,0.649-0.199,1.201-0.25c0.564-0.052,1.118-0.078,1.646-0.078h0.34
				c0.693,0,1.268,0.03,1.707,0.089c0.427,0.058,0.723,0.13,0.88,0.215c0.135,0.07,0.237,0.19,0.311,0.366
				c0.079,0.187,0.118,0.482,0.118,0.88v0.129h1.242v-0.129c0-0.817-0.169-1.438-0.502-1.845c-0.335-0.411-0.823-0.655-1.449-0.727
				c-0.594-0.067-1.029-0.108-1.293-0.122c-0.271-0.013-0.703-0.021-1.286-0.021c-0.711,0-1.364,0.024-1.938,0.072
				c-0.584,0.049-1.101,0.16-1.534,0.332c-0.455,0.179-0.782,0.485-0.974,0.907c-0.185,0.407-0.278,0.918-0.278,1.52
				c0,0.78,0.226,1.346,0.67,1.68c0.433,0.326,1.05,0.491,1.832,0.491l2.173,0.065h1.854c0.619,0,1.059,0.079,1.307,0.235
				c0.229,0.143,0.346,0.507,0.346,1.083c0,0.459-0.094,0.788-0.279,0.979c-0.188,0.194-0.561,0.331-1.108,0.405
				c-0.569,0.077-1.28,0.116-2.113,0.116c-0.516,0-1.044-0.016-1.571-0.048c-0.521-0.031-0.94-0.097-1.248-0.198
				c-0.282-0.093-0.45-0.228-0.513-0.411c-0.071-0.208-0.108-0.541-0.108-0.988v-0.32h-1.242v0.129c0,0.985,0.139,1.66,0.424,2.065
				c0.288,0.409,0.769,0.664,1.429,0.757c0.623,0.089,1.096,0.142,1.409,0.156c0.312,0.013,0.773,0.021,1.371,0.021h0.644
				c0.613,0,1.191-0.026,1.718-0.079c0.535-0.053,0.999-0.171,1.378-0.354c0.396-0.188,0.68-0.475,0.846-0.851
				c0.16-0.362,0.242-0.82,0.242-1.36c0-0.842-0.169-1.426-0.516-1.785C161.993,51.422,161.542,51.212,160.991,51.149z"/>
			<path fill="#515658" d="M175.963,47.154h-3.581c-0.764,0-1.39,0.137-1.861,0.406c-0.485,0.278-0.794,0.725-0.919,1.331
				c-0.118,0.574-0.186,1.023-0.203,1.335c-0.016,0.302-0.024,0.799-0.024,1.517c0,0.744,0.029,1.398,0.085,1.944
				c0.059,0.562,0.193,1.025,0.399,1.38c0.21,0.364,0.488,0.624,0.824,0.773c0.322,0.143,0.723,0.243,1.191,0.295
				c0.458,0.053,0.943,0.079,1.441,0.079h2.027c0.341,0,0.7-0.005,1.078-0.013c0.38-0.009,0.696-0.027,0.926-0.052
				c0.815,0,1.44-0.199,1.855-0.591c0.414-0.391,0.66-0.951,0.732-1.664c0.069-0.687,0.104-1.349,0.104-1.971v-0.582
				c0-1.802-0.245-2.925-0.748-3.432C178.788,47.401,177.699,47.154,175.963,47.154z M178.76,51.127v1.774
				c0,0.674-0.091,1.183-0.271,1.511c-0.168,0.309-0.526,0.493-1.063,0.548c-0.577,0.06-1.159,0.09-1.728,0.09h-1.007L172.595,55
				c-0.888,0-1.435-0.172-1.629-0.512c-0.207-0.363-0.312-1.086-0.312-2.148v-0.632l0.037-1.301c0-1.131,0.214-1.555,0.393-1.712
				c0.266-0.233,0.85-0.351,1.737-0.351l1.88-0.025l1.906,0.025c0.251,0,0.495,0.011,0.723,0.033
				c0.222,0.021,0.442,0.063,0.656,0.125c0.193,0.056,0.346,0.174,0.468,0.36c0.126,0.193,0.208,0.483,0.247,0.862
				C178.74,50.121,178.76,50.594,178.76,51.127z"/>
			<polygon fill="#515658" points="188.136,47.245 186.894,47.245 186.894,56.124 194.532,56.124 194.532,55 188.136,55 			"/>
			<path fill="#515658" d="M209.206,53.415c0,0.681-0.128,1.114-0.38,1.284c-0.268,0.182-0.774,0.274-1.51,0.274l-1.874,0.065
				l-1.74-0.065c-0.676,0-1.154-0.09-1.421-0.268c-0.252-0.166-0.379-0.573-0.379-1.21v-6.238h-1.243v6.385
				c0,0.884,0.198,1.534,0.59,1.933c0.393,0.398,1.015,0.601,1.845,0.601l2.317,0.039h0.002l1.627-0.039
				c1.309,0,2.181-0.155,2.663-0.472c0.502-0.33,0.745-1.111,0.745-2.389v-6.057h-1.242V53.415z"/>
			<polygon fill="#515658" points="216.259,48.382 220.338,48.382 220.338,56.124 221.58,56.124 221.58,48.382 225.684,48.382 
				225.684,47.245 216.259,47.245 			"/>
			<rect x="231.579" y="47.245" fill="#515658" width="1.242" height="8.879"/>
			<path fill="#515658" d="M246.265,47.154h-3.582c-0.764,0-1.39,0.137-1.859,0.406c-0.486,0.277-0.795,0.725-0.92,1.331
				c-0.118,0.574-0.187,1.023-0.203,1.335c-0.016,0.307-0.023,0.817-0.023,1.517c0,0.744,0.027,1.398,0.085,1.944
				c0.058,0.561,0.192,1.025,0.398,1.38c0.211,0.363,0.488,0.623,0.825,0.773c0.322,0.143,0.724,0.243,1.192,0.295
				c0.457,0.053,0.942,0.079,1.44,0.079h2.026c0.34,0,0.701-0.005,1.078-0.013c0.384-0.009,0.691-0.027,0.926-0.052
				c0.814,0,1.438-0.198,1.854-0.591c0.413-0.391,0.659-0.951,0.73-1.664c0.068-0.687,0.104-1.349,0.104-1.971v-0.582
				c0-1.801-0.245-2.924-0.747-3.432C249.089,47.401,248,47.154,246.265,47.154z M249.061,51.127v1.774
				c0,0.672-0.091,1.18-0.271,1.512c-0.168,0.308-0.525,0.492-1.063,0.547c-0.577,0.06-1.158,0.09-1.727,0.09h-1.007L242.895,55
				c-0.887,0-1.435-0.172-1.629-0.512c-0.206-0.364-0.311-1.086-0.311-2.148v-0.632l0.036-1.301c0-1.13,0.214-1.555,0.393-1.713
				c0.266-0.232,0.85-0.351,1.737-0.351l1.881-0.025l1.905,0.025c0.25,0,0.494,0.011,0.723,0.033
				c0.223,0.021,0.443,0.063,0.655,0.125c0.192,0.056,0.347,0.174,0.468,0.36c0.124,0.192,0.208,0.483,0.248,0.862
				C249.04,50.118,249.061,50.59,249.061,51.127z"/>
			<polygon fill="#515658" points="266.298,54.845 259.056,47.284 259.018,47.245 257.194,47.245 257.194,56.124 258.435,56.124 
				258.435,48.484 265.704,56.084 265.741,56.124 267.541,56.124 267.541,47.245 266.298,47.245 			"/>
			<path fill="#515658" d="M282.097,51.149c-0.521-0.061-0.919-0.096-1.184-0.105c-0.26-0.008-0.557-0.012-0.889-0.012h-2.792
				c-0.489,0-0.862-0.089-1.109-0.264c-0.233-0.166-0.352-0.496-0.352-0.982c0-0.281,0.034-0.522,0.103-0.717
				c0.062-0.177,0.201-0.315,0.43-0.423c0.244-0.115,0.647-0.199,1.201-0.25c0.563-0.052,1.116-0.078,1.645-0.078h0.34
				c0.692,0,1.268,0.03,1.708,0.089c0.426,0.058,0.721,0.13,0.879,0.215c0.135,0.07,0.24,0.194,0.312,0.366
				c0.078,0.187,0.117,0.483,0.117,0.88v0.129h1.241v-0.129c0-0.816-0.169-1.438-0.502-1.845c-0.336-0.411-0.823-0.655-1.45-0.727
				c-0.593-0.067-1.028-0.108-1.293-0.122c-0.27-0.013-0.702-0.021-1.285-0.021c-0.711,0-1.363,0.024-1.938,0.072
				c-0.583,0.049-1.1,0.16-1.533,0.332c-0.454,0.179-0.782,0.484-0.974,0.907c-0.184,0.407-0.277,0.918-0.277,1.52
				c0,0.78,0.225,1.346,0.669,1.681c0.434,0.326,1.051,0.491,1.832,0.491l2.174,0.065h1.854c0.619,0,1.059,0.079,1.307,0.235
				c0.229,0.143,0.346,0.507,0.346,1.083c0,0.458-0.094,0.788-0.278,0.979c-0.19,0.195-0.563,0.332-1.108,0.405
				c-0.57,0.077-1.282,0.116-2.114,0.116c-0.517,0-1.045-0.016-1.569-0.048c-0.522-0.031-0.942-0.097-1.249-0.198
				c-0.282-0.093-0.448-0.227-0.513-0.411c-0.071-0.208-0.107-0.541-0.107-0.988v-0.32h-1.242v0.129c0,0.984,0.138,1.66,0.423,2.065
				c0.287,0.409,0.768,0.664,1.43,0.757c0.624,0.089,1.098,0.142,1.408,0.156c0.312,0.013,0.772,0.021,1.371,0.021h0.645
				c0.613,0,1.191-0.026,1.719-0.079c0.535-0.053,0.999-0.172,1.378-0.354c0.395-0.189,0.679-0.475,0.844-0.851
				c0.162-0.366,0.244-0.823,0.244-1.36c0-0.829-0.174-1.43-0.518-1.785C283.098,51.422,282.646,51.212,282.097,51.149z"/>
			<path fill="#515658" d="M305.698,47.245h-6.843v8.879h1.243V52.75h5.539c0.585,0,1.017-0.051,1.317-0.156
				c0.303-0.105,0.558-0.271,0.762-0.494c0.205-0.224,0.346-0.541,0.416-0.944c0.066-0.385,0.1-0.832,0.1-1.327
				c0-0.97-0.195-1.651-0.581-2.025C307.269,47.433,306.612,47.245,305.698,47.245z M300.099,48.382h5.503
				c0.523,0,0.883,0.107,1.068,0.318c0.188,0.216,0.283,0.614,0.283,1.181c0,0.963-0.196,1.32-0.362,1.449
				c-0.252,0.196-0.772,0.296-1.549,0.296h-4.943V48.382z"/>
			<polygon fill="#515658" points="318.64,54.784 314.748,47.245 313.317,47.245 317.845,56.054 317.882,56.124 319.387,56.124 
				323.914,47.433 324.012,47.245 322.592,47.245 			"/>
			<polygon fill="#515658" points="328.439,48.382 332.519,48.382 332.519,56.124 333.761,56.124 333.761,48.382 337.864,48.382 
				337.864,47.245 328.439,47.245 			"/>
			<rect x="344.319" y="54.457" fill="#515658" width="1.473" height="1.667"/>
			<polygon fill="#515658" points="362.812,47.245 361.569,47.245 361.569,56.124 369.208,56.124 369.208,55 362.812,55 			"/>
			<polygon fill="#515658" points="374.206,48.382 378.285,48.382 378.285,56.124 379.527,56.124 379.527,48.382 383.631,48.382 
				383.631,47.245 374.206,47.245 			"/>
			<path fill="#515658" d="M399.13,48.286c-0.441-0.683-1.35-1.029-2.7-1.029h-6.892v8.866h6.564c0.618,0,1.162-0.046,1.616-0.138
				c0.469-0.095,0.876-0.328,1.21-0.692c0.332-0.362,0.558-0.89,0.675-1.571c0.114-0.663,0.172-1.39,0.172-2.161
				C399.775,50.052,399.559,48.95,399.13,48.286z M390.781,48.382h5.431c0.996,0,1.63,0.232,1.883,0.689
				c0.268,0.485,0.404,1.327,0.404,2.503c0,1.288-0.133,2.199-0.395,2.707c-0.245,0.476-0.915,0.718-1.99,0.718h-5.333V48.382z"/>
		</g>
		<g>
			<polygon fill="#27B78A" points="5.443,67.282 2.095,64.099 0.458,64.099 4.874,68.329 4.874,71.403 6.024,71.403 6.024,68.329 
				10.452,64.099 8.812,64.099 			"/>
			<path fill="#27B78A" d="M22.724,64.025H19.48c-0.694,0-1.262,0.112-1.687,0.333c-0.445,0.227-0.728,0.598-0.844,1.103
				c-0.107,0.47-0.169,0.839-0.184,1.096c-0.015,0.252-0.022,0.658-0.022,1.242c0,0.61,0.026,1.146,0.077,1.595
				c0.055,0.464,0.178,0.848,0.366,1.14c0.194,0.302,0.449,0.517,0.755,0.638c0.294,0.118,0.657,0.199,1.08,0.241
				c0.422,0.043,0.862,0.065,1.306,0.065h1.836c0.31,0,0.636-0.003,0.977-0.011c0.372-0.009,0.642-0.023,0.838-0.042
				c0.741,0,1.307-0.164,1.683-0.485c0.381-0.325,0.607-0.788,0.672-1.378c0.063-0.573,0.095-1.116,0.095-1.615v-0.474
				c0-1.481-0.224-2.406-0.687-2.828C25.284,64.228,24.296,64.025,22.724,64.025z M25.245,67.296v1.45
				c0,0.544-0.081,0.954-0.24,1.219c-0.149,0.248-0.471,0.396-0.955,0.44c-0.523,0.049-1.05,0.074-1.565,0.074l-2.812-0.043
				c-0.792,0-1.3-0.142-1.469-0.411c-0.185-0.292-0.279-0.877-0.279-1.739v-0.515l0.034-1.066c0-0.913,0.188-1.252,0.346-1.377
				c0.24-0.189,0.768-0.285,1.572-0.285l1.703-0.021l1.728,0.021c0.225,0,0.445,0.009,0.655,0.026
				c0.196,0.017,0.396,0.052,0.593,0.104c0.174,0.044,0.311,0.138,0.417,0.288c0.11,0.152,0.184,0.384,0.219,0.69
				C25.228,66.476,25.245,66.86,25.245,67.296z"/>
			<path fill="#27B78A" d="M41.821,69.166c0,0.546-0.112,0.892-0.333,1.026c-0.244,0.148-0.703,0.223-1.368,0.223l-1.696,0.054
				l-1.577-0.054c-0.612,0-1.045-0.073-1.288-0.218c-0.221-0.133-0.333-0.458-0.333-0.967V64.11h-1.148v5.241
				c0,0.731,0.183,1.271,0.542,1.602c0.357,0.327,0.921,0.493,1.674,0.493l2.101,0.032h0.003l1.474-0.032
				c1.185,0,1.974-0.126,2.414-0.387c0.461-0.274,0.686-0.92,0.686-1.975V64.11h-1.151V69.166z"/>
			<polygon fill="#27B78A" points="58.665,65.076 62.36,65.076 62.36,71.403 63.509,71.403 63.509,65.076 67.228,65.076 
				67.228,64.099 58.665,64.099 			"/>
			<polygon fill="#27B78A" points="81.818,67.152 75.235,67.152 75.235,64.099 74.085,64.099 74.085,71.403 75.235,71.403 
				75.235,68.118 81.818,68.118 81.818,71.403 82.956,71.403 82.956,64.099 81.818,64.099 			"/>
			<rect x="90.914" y="64.099" fill="#27B78A" width="1.151" height="7.304"/>
			<polygon fill="#27B78A" points="108.261,70.299 101.713,64.134 101.676,64.099 100.011,64.099 100.011,71.403 101.161,71.403 
				101.161,65.172 107.766,71.403 109.41,71.403 109.41,64.099 108.261,64.099 			"/>
			<polygon fill="#27B78A" points="126.46,64.099 124.457,64.099 119.639,67.152 118.509,67.152 118.509,64.099 117.358,64.099 
				117.358,71.403 118.509,71.403 118.509,68.118 119.639,68.118 124.7,71.382 124.732,71.403 126.824,71.403 120.865,67.64 			"/>
			<path fill="#27B78A" d="M133.792,71.414h0.385c-0.004,0.133-0.061,0.174-0.079,0.187c-0.076,0.053-0.192,0.096-0.345,0.127
				l-0.104,0.021v0.793h0.129c0.897,0,1.372-0.465,1.372-1.343v-1.228h-1.358V71.414z"/>
			<polygon fill="#27B78A" points="162.514,70.193 159.735,64.174 159.7,64.099 158.313,64.099 155.489,70.193 152.481,64.099 
				151.191,64.099 154.782,71.332 154.817,71.403 156.191,71.403 159.012,65.359 161.765,71.328 161.8,71.403 163.196,71.403 
				166.822,64.099 165.543,64.099 			"/>
			<polygon fill="#27B78A" points="174.674,68.118 180.823,68.118 180.823,67.152 174.674,67.152 174.674,65.076 181.053,65.076 
				181.053,64.099 173.523,64.099 173.523,71.403 181.129,71.403 181.129,70.437 174.674,70.437 			"/>
			<polygon fill="#27B78A" points="203.672,70.05 199.399,64.152 199.359,64.099 197.712,64.099 197.712,71.403 198.863,71.403 
				198.863,65.346 203.203,71.35 203.242,71.403 204.092,71.403 208.481,65.265 208.481,71.403 209.632,71.403 209.632,64.099 
				208.007,64.099 			"/>
			<path fill="#27B78A" d="M222.059,64.099h-1.332l-4.492,7.304h1.35l0.936-1.583h5.781l0.957,1.583h1.329l-4.489-7.243
				L222.059,64.099z M223.724,68.853h-4.631l2.301-3.755L223.724,68.853z"/>
			<polygon fill="#27B78A" points="242.29,64.099 240.285,64.099 235.468,67.152 234.339,67.152 234.339,64.099 233.187,64.099 
				233.187,71.403 234.339,71.403 234.339,68.118 235.467,68.118 240.529,71.382 240.561,71.403 242.652,71.403 236.694,67.64 			
				"/>
			<polygon fill="#27B78A" points="250.201,68.118 256.351,68.118 256.351,67.152 250.201,67.152 250.201,65.076 256.58,65.076 
				256.58,64.099 249.05,64.099 249.05,71.403 256.656,71.403 256.656,70.437 250.201,70.437 			"/>
			<rect x="273.227" y="64.099" fill="#27B78A" width="1.151" height="7.304"/>
			<polygon fill="#27B78A" points="281.225,65.076 284.921,65.076 284.921,71.403 286.069,71.403 286.069,65.076 289.789,65.076 
				289.789,64.099 281.225,64.099 			"/>
			<path fill="#27B78A" d="M314.273,66.32c0-0.864-0.213-1.458-0.63-1.768c-0.412-0.305-1.062-0.453-1.986-0.453h-6.102v7.304h1.151
				v-2.852h4.875c0.542,0,0.921,0.077,1.127,0.229c0.195,0.142,0.293,0.455,0.293,0.931v1.692h1.139v-2.041
				c0-0.479-0.134-0.818-0.4-1.008c-0.133-0.096-0.305-0.175-0.515-0.239c0.344-0.099,0.584-0.235,0.727-0.408
				C314.168,67.446,314.273,66.992,314.273,66.32z M306.707,65.076h4.764c0.596,0,1.025,0.078,1.276,0.23
				c0.228,0.138,0.344,0.461,0.344,0.96c0,0.533-0.111,0.888-0.329,1.055c-0.229,0.175-0.655,0.264-1.269,0.264h-4.786V65.076z"/>
			<polygon fill="#27B78A" points="323.086,68.118 329.234,68.118 329.234,67.152 323.086,67.152 323.086,65.076 329.465,65.076 
				329.465,64.099 321.936,64.099 321.936,71.403 329.541,71.403 329.541,70.437 323.086,70.437 			"/>
			<path fill="#27B78A" d="M341.683,64.099h-1.331l-4.492,7.304h1.349l0.937-1.583h5.781l0.956,1.583h1.328l-4.488-7.243
				L341.683,64.099z M343.349,68.853h-4.632l2.301-3.755L343.349,68.853z"/>
			<polygon fill="#27B78A" points="353.963,64.099 352.812,64.099 352.812,71.403 359.758,71.403 359.758,70.437 353.963,70.437 			
				"/>
			<rect x="366.902" y="64.099" fill="#27B78A" width="1.151" height="7.304"/>
			<polygon fill="#27B78A" points="374.901,65.076 378.597,65.076 378.597,71.403 379.746,71.403 379.746,65.076 383.464,65.076 
				383.464,64.099 374.901,64.099 			"/>
			<polygon fill="#27B78A" points="393.872,67.282 390.523,64.099 388.886,64.099 393.303,68.329 393.303,71.403 394.453,71.403 
				394.453,68.329 398.88,64.099 397.241,64.099 			"/>
		</g>
	</g>
</g>
</svg>
