<?xml version="1.0" encoding="UTF-8"?>
<!DOCTYPE svg PUBLIC "-//W3C//DTD SVG 1.1//EN" "http://www.w3.org/Graphics/SVG/1.1/DTD/svg11.dtd">
<!-- Creator: CorelDRAW -->
<svg xmlns="http://www.w3.org/2000/svg" xml:space="preserve" width="800px" height="810px" version="1.1" style="shape-rendering:geometricPrecision; text-rendering:geometricPrecision; image-rendering:optimizeQuality; fill-rule:evenodd; clip-rule:evenodd"
viewBox="0 0 24.22 24.53"
 xmlns:xlink="http://www.w3.org/1999/xlink"
 xmlns:xodm="http://www.corel.com/coreldraw/odm/2003">
 <defs>
  <style type="text/css">
   <![CDATA[
    .str0 {stroke:#9E9FA0;stroke-width:0.03;stroke-miterlimit:22.9256}
    .str1 {stroke:#CCF2E8;stroke-width:0.03;stroke-miterlimit:22.9256}
    .str2 {stroke:#CECFCF;stroke-width:0.03;stroke-miterlimit:22.9256}
    .fil10 {fill:#2B2A29;fill-rule:nonzero}
    .fil6 {fill:#414140;fill-rule:nonzero}
    .fil0 {fill:#01C28D;fill-rule:nonzero}
    .fil2 {fill:#4DD4AF;fill-rule:nonzero}
    .fil8 {fill:#4DD4AF;fill-rule:nonzero}
    .fil3 {fill:#5E6061;fill-rule:nonzero}
    .fil4 {fill:#66DABA;fill-rule:nonzero}
    .fil7 {fill:#7E7F80;fill-rule:nonzero}
    .fil5 {fill:#9E9FA0;fill-rule:nonzero}
    .fil1 {fill:#CCF2E8;fill-rule:nonzero}
    .fil9 {fill:#CECFCF;fill-rule:nonzero}
   ]]>
  </style>
 </defs>
 <g id="Layer_x0020_1">
  <metadata id="CorelCorpID_0Corel-Layer"/>
  <g id="_1559117448400">
   <g>
    <polygon class="fil0" points="15.43,16.28 14.67,16.73 13.92,17.17 13.92,15.38 "/>
    <polygon class="fil1" points="15.5,14.36 15.5,15.25 15.5,16.14 13.98,15.25 "/>
    <polygon class="fil2" points="13.77,15.12 12.25,14.23 13.01,13.78 13.77,13.33 "/>
    <polygon class="fil0" points="13.92,13.33 14.67,13.78 15.43,14.22 13.92,15.11 "/>
    <polygon class="fil3" points="10.31,11.27 10.31,12.16 10.31,13.05 8.79,12.16 "/>
    <polygon class="fil0" points="12.05,14.08 11.3,13.64 10.53,13.18 12.05,12.29 "/>
    <polygon class="fil4" points="13.72,13.19 12.96,13.64 12.2,14.08 12.2,12.3 "/>
    <polygon class="fil0" points="11.98,12.16 10.47,13.05 10.47,12.16 10.47,11.27 "/>
    <polygon class="fil0" points="18.98,20.52 18.98,21.42 18.98,22.31 17.46,21.42 "/>
    <polygon class="fil0" points="17.24,21.29 15.73,20.39 16.49,19.94 17.24,19.5 "/>
    <polygon class="fil5" points="17.39,19.5 18.15,19.94 18.9,20.39 17.39,21.28 "/>
    <polygon class="fil3" points="20.72,23.34 19.97,22.89 19.2,22.44 20.72,21.54 "/>
    <polygon class="fil1" points="22.38,22.44 21.63,22.89 20.87,23.34 20.87,21.55 "/>
    <polygon class="fil0" points="20.64,21.42 19.14,22.3 19.14,21.42 19.14,20.53 "/>
    <polygon class="fil5 str0" points="24.2,23.34 23.44,22.89 22.68,22.44 24.2,21.54 "/>
    <polygon class="fil4" points="17.19,19.35 16.44,19.8 15.68,20.25 15.68,18.46 "/>
    <polygon class="fil0" points="17.26,17.43 17.26,18.33 17.26,19.22 15.75,18.33 "/>
    <polygon class="fil5" points="15.53,18.2 14.02,17.31 14.78,16.85 15.53,16.41 "/>
    <polygon class="fil0" points="15.68,16.41 16.44,16.85 17.19,17.3 15.68,18.19 "/>
    <polygon class="fil4" points="22.48,24.36 20.97,23.47 21.73,23.02 22.48,22.57 "/>
    <polygon class="fil0" points="22.64,22.57 23.39,23.02 24.14,23.47 22.64,24.36 "/>
    <path class="fil4" d="M23.39 20.81c0.03,0 0.07,0 0.1,0.01 0.13,0 0.41,-0.01 0.71,-0.01l0 0.48 -0.81 -0.48z"/>
    <path class="fil2" d="M22.61 20.74c0.15,0.03 0.3,0.04 0.46,0.05l1.05 0.63 -1.51 0.88 0 -0.88 0 -0.68z"/>
    <path class="fil0" d="M22.2 20.67c0.09,0.02 0.17,0.03 0.25,0.05l0 0.7 0 0.89 -1.51 -0.89 1.26 -0.75z"/>
    <path class="fil0" d="M20.87 20.19c0.34,0.18 0.71,0.32 1.12,0.43l-1.12 0.66 0 -1.09z"/>
    <path class="fil5" d="M20.23 19.79c0.15,0.11 0.32,0.22 0.49,0.32l0 1.18 -1.51 -0.9 0.76 -0.45 0.26 -0.15z"/>
    <path class="fil0" d="M19.16 18.78c0.28,0.34 0.59,0.64 0.94,0.91l-0.19 0.11 -0.75 0.45 0 -1.47z"/>
    <path class="fil0" d="M18.93 18.5c0.03,0.03 0.05,0.07 0.08,0.1l0 1.65 -0.76 -0.45 -0.76 -0.45 1.44 -0.85z"/>
    <path class="fil4" d="M18.7 18.19c0.05,0.06 0.09,0.13 0.14,0.19l-1.42 0.83 0 -0.88 0 -0.89 1.28 0.75z"/>
    <path class="fil0" d="M17.95 17.03c0.18,0.3 0.36,0.59 0.55,0.87l-1.01 -0.59 0.46 -0.28z"/>
    <path class="fil0" d="M17.39 16.07c0.05,0.08 0.09,0.15 0.14,0.23 0.11,0.2 0.22,0.4 0.34,0.59l-0.48 0.28 0 -1.1z"/>
    <path class="fil3" d="M17.05 15.49c0.07,0.11 0.13,0.22 0.19,0.33l0 1.35 -0.75 -0.44 -0.77 -0.46 1.33 -0.78z"/>
    <path class="fil0" d="M16.77 15.02c0.07,0.11 0.14,0.23 0.21,0.34l-1.32 0.78 0 -0.89 0 -0.89 1.11 0.66z"/>
    <path class="fil0" d="M16.12 14c0.16,0.24 0.32,0.49 0.48,0.74l-0.87 -0.51 0.39 -0.23z"/>
    <path class="fil0" d="M15.68 13.4c0.12,0.15 0.24,0.31 0.35,0.48l-0.35 0.2 0 -0.68z"/>
    <path class="fil4" d="M15.01 12.59c0.18,0.2 0.36,0.4 0.52,0.61l0 0.88 -0.75 -0.44 -0.77 -0.46 1 -0.59z"/>
    <path class="fil0" d="M13.95 11.59c0.34,0.28 0.66,0.58 0.96,0.89l-0.96 0.57 0 -0.89 0 -0.57z"/>
    <path class="fil0" d="M13.63 11.36c0.06,0.03 0.11,0.07 0.16,0.11l0 0.69 0 0.89 -1.52 -0.89 1.36 -0.8z"/>
    <path class="fil5" d="M12.2 10.54c0.48,0.21 0.91,0.45 1.3,0.72l-1.3 0.77 0 -1.49z"/>
    <path class="fil2" d="M11.82 10.38c0.08,0.03 0.16,0.06 0.23,0.09l0 1.56 -1.51 -0.89 0.76 -0.45 0.52 -0.31z"/>
    <path class="fil0" d="M10.44 9.97c0.42,0.09 0.82,0.2 1.19,0.34l-0.43 0.25 -0.76 0.45 0 -1.04z"/>
    <path class="fil0" d="M8.79 9.92l0 -0.19c0.1,0.01 0.19,0.02 0.28,0.03l-0.28 0.16z"/>
    <path class="fil0" d="M8.79 10.12l0 -0.03 0.53 -0.31c0.34,0.04 0.66,0.09 0.97,0.15l0 1.08 -0.75 -0.45 -0.75 -0.44z"/>
    <polygon class="fil0" points="8.79,11.99 8.79,10.28 9.48,10.69 10.24,11.14 "/>
    <path class="fil0" d="M9.56 13.59c-0.25,-0.06 -0.5,-0.1 -0.77,-0.14l0 -1.12 1.45 0.86 -0.68 0.4z"/>
    <path class="fil4" d="M10.29 13.83c-0.17,-0.07 -0.35,-0.13 -0.53,-0.18l0.53 -0.32 0 0.5z"/>
    <path class="fil0" d="M11.49 14.5c-0.32,-0.24 -0.67,-0.44 -1.05,-0.61l0 -0.56 0.76 0.45 0.75 0.44 -0.46 0.28z"/>
    <path class="fil4" d="M12.02 14.94c-0.13,-0.12 -0.26,-0.24 -0.4,-0.35l0.4 -0.23 0 0.58z"/>
    <path class="fil3" d="M12.79 15.78c-0.19,-0.24 -0.39,-0.47 -0.61,-0.69l0 -0.73 1.51 0.89 -0.9 0.53z"/>
    <path class="fil1" d="M13.74 17.15c-0.27,-0.43 -0.55,-0.86 -0.85,-1.25l0.88 -0.52 0 1.79 -0.03 -0.02z"/>
    <path class="fil4" d="M14.69 18.78c-0.13,-0.21 -0.25,-0.42 -0.37,-0.63 -0.12,-0.21 -0.25,-0.43 -0.37,-0.64l0 -0.07 1.5 0.89 -0.76 0.45z"/>
    <path class="fil5" d="M15.53 20.16c-0.27,-0.41 -0.52,-0.83 -0.77,-1.25l0.77 -0.46 0 1.71z"/>
    <path class="fil4" d="M16.69 21.7c-0.29,-0.34 -0.57,-0.69 -0.82,-1.05l1.3 0.77 -0.48 0.28z"/>
    <path class="fil0" d="M17.24 22.28c-0.15,-0.15 -0.3,-0.31 -0.45,-0.47l0.45 -0.27 0 0.74z"/>
    <path class="fil1" d="M18.04 22.95c-0.22,-0.16 -0.44,-0.34 -0.65,-0.53l0 -0.87 1.52 0.89 -0.76 0.45 -0.11 0.06z"/>
    <path class="fil0" d="M19.01 23.56c-0.29,-0.15 -0.56,-0.32 -0.82,-0.5l0.06 -0.04 0.76 -0.45 0 0.99z"/>
    <path class="fil4" d="M19.86 23.94c-0.24,-0.09 -0.48,-0.19 -0.7,-0.3l0 -1.07 0.75 0.45 0.76 0.45 -0.81 0.47z"/>
    <path class="fil0" d="M20.74 24.22c-0.24,-0.06 -0.47,-0.13 -0.7,-0.21l0.7 -0.41 0 0.62z"/>
    <path class="fil0" d="M22.4 24.49c-0.53,-0.04 -1.03,-0.12 -1.5,-0.23l0 -0.65 1.51 0.88 -0.01 0z"/>
    <path class="fil0" d="M24.22 24.51c-0.24,0.01 -0.47,0.02 -0.63,0.02 -0.29,0.01 -0.57,0 -0.85,-0.01l-0.04 -0.03 1.52 -0.89 0 0.91z"/>
   </g>
   <polygon class="fil3" points="1.51,3.95 0.75,4.4 0,4.85 0,3.06 "/>
   <polygon class="fil1" points="1.58,2.03 1.58,2.93 1.58,3.82 0.07,2.92 "/>
   <polygon class="fil5" points="0,1.01 0.75,1.45 1.51,1.9 0,2.79 "/>
   <polygon class="fil1" points="3.25,2.92 1.74,3.81 1.74,2.93 1.74,2.04 "/>
   <polygon class="fil3" points="3.33,2.8 1.81,1.9 2.57,1.45 3.33,1.01 "/>
   <polygon class="fil0" points="3.48,1.01 4.23,1.45 4.99,1.9 3.48,2.79 "/>
   <polygon class="fil6" points="6.8,2.8 5.29,1.9 6.05,1.45 6.8,1.01 "/>
   <polygon class="fil0" points="6.95,1.01 7.71,1.45 8.46,1.9 6.95,2.79 "/>
   <polygon class="fil1" points="10.28,2.8 8.76,1.9 9.53,1.45 10.28,1.01 "/>
   <polygon class="fil7" points="10.43,1.01 11.18,1.45 11.94,1.9 10.43,2.79 "/>
   <polygon class="fil6" points="13.76,2.8 12.24,1.9 13,1.45 13.76,1.01 "/>
   <polygon class="fil7" points="13.91,1.01 14.66,1.45 15.42,1.9 13.91,2.79 "/>
   <polygon class="fil7" points="18.9,3.95 18.14,4.4 17.38,4.85 17.38,3.06 "/>
   <polygon class="fil7" points="17.23,2.8 15.72,1.9 16.48,1.45 17.23,1.01 "/>
   <polygon class="fil3" points="1.51,10.12 0.75,10.57 0,11.01 0,9.23 "/>
   <polygon class="fil0" points="1.58,8.2 1.58,9.09 1.58,9.98 0.07,9.09 "/>
   <polygon class="fil3" points="0,7.17 0.75,7.62 1.51,8.07 0,8.96 "/>
   <polygon class="fil6" points="3.25,9.09 1.74,9.98 1.74,9.09 1.74,8.2 "/>
   <polygon class="fil7" points="18.9,10.12 18.14,10.57 17.38,11.01 17.38,9.23 "/>
   <polygon class="fil0" points="18.97,8.2 18.97,9.09 18.97,9.98 17.45,9.09 "/>
   <polygon class="fil7" points="17.38,7.17 18.14,7.62 18.89,8.07 17.38,8.96 "/>
   <polygon class="fil3" points="1.61,7.93 0.86,7.48 0.09,7.02 1.61,6.13 "/>
   <polygon class="fil5" points="3.28,7.03 2.52,7.48 1.76,7.93 1.76,6.14 "/>
   <polygon class="fil0" points="1.53,6 0.03,6.89 0.03,6 0.03,5.11 "/>
   <polygon class="fil0" points="1.61,5.87 0.1,4.98 0.86,4.53 1.61,4.08 "/>
   <polygon class="fil3" points="1.76,4.08 2.52,4.53 3.27,4.98 1.76,5.87 "/>
   <polygon class="fil8" points="19,7.93 18.24,7.48 17.48,7.02 19,6.13 "/>
   <polygon class="fil7" points="18.92,6 17.41,6.89 17.41,6 17.41,5.11 "/>
   <polygon class="fil6" points="19,5.87 17.48,4.98 18.24,4.53 19,4.08 "/>
   <polygon class="fil7" points="3.33,17.18 2.57,16.73 1.81,16.28 3.33,15.38 "/>
   <polygon class="fil9" points="4.99,16.28 4.23,16.73 3.48,17.18 3.48,15.39 "/>
   <polygon class="fil0" points="3.25,15.26 1.74,16.14 1.74,15.26 1.74,14.37 "/>
   <polygon class="fil5" points="3.33,15.13 1.81,14.24 2.57,13.78 3.33,13.34 "/>
   <polygon class="fil0" points="6.8,17.18 6.05,16.73 5.28,16.28 6.8,15.38 "/>
   <polygon class="fil5" points="8.47,16.28 7.71,16.73 6.95,17.18 6.95,15.39 "/>
   <polygon class="fil5" points="10.28,17.18 9.53,16.73 8.76,16.28 10.28,15.38 "/>
   <polygon class="fil1" points="11.94,16.28 11.18,16.73 10.43,17.18 10.43,15.39 "/>
   <path class="fil6 str1" d="M13.76 17.18l-0.76 -0.45 -0.76 -0.45 0.65 -0.38c0.3,0.39 0.58,0.82 0.85,1.25l0.02 0.02 0 0.01z"/>
   <polygon class="fil3" points="1.61,14.09 0.86,13.64 0.09,13.19 1.61,12.29 "/>
   <polygon class="fil9" points="3.28,13.19 2.52,13.64 1.76,14.09 1.76,12.3 "/>
   <polygon class="fil0" points="1.53,12.17 0.03,13.05 0.03,12.17 0.03,11.28 "/>
   <polygon class="fil7" points="1.61,12.04 0.1,11.15 0.86,10.69 1.61,10.25 "/>
   <polygon class="fil3" points="1.76,10.25 2.52,10.69 3.27,11.14 1.76,12.03 "/>
   <polygon class="fil1" points="19,12.04 17.48,11.15 18.24,10.69 19,10.25 "/>
   <polygon class="fil6" points="5.24,16.41 5.99,16.86 6.75,17.31 5.24,18.2 "/>
   <polygon class="fil0" points="8.72,16.41 9.47,16.86 10.23,17.31 8.72,18.2 "/>
   <polygon class="fil5" points="12.19,16.41 12.95,16.86 13.7,17.31 12.19,18.2 "/>
   <polygon class="fil9" points="1.55,0 1.61,0 1.61,1.76 0.86,1.31 0.09,0.86 "/>
   <polygon class="fil3" points="0.03,0 1.26,0 0.03,0.72 "/>
   <path class="fil5" d="M0.39 14.89c-0.2,-0.48 -0.33,-1 -0.38,-1.55l0.74 0.44 0.76 0.45 -1.12 0.66z"/>
   <path class="fil6" d="M0.81 15.7c-0.13,-0.22 -0.25,-0.44 -0.36,-0.67l1.13 -0.67 0 0.9 0 0.89 -0.77 -0.45z"/>
   <path class="fil10" d="M1.34 16.39c-0.11,-0.13 -0.22,-0.26 -0.32,-0.4l0.49 0.29 -0.17 0.11z"/>
   <path class="fil10" d="M1.61 16.67c-0.02,-0.03 -0.05,-0.05 -0.08,-0.08 -0.02,-0.03 -0.05,-0.05 -0.08,-0.08l0.16 -0.1 0 0.26z"/>
   <path class="fil3" d="M2.85 17.56c-0.4,-0.21 -0.76,-0.46 -1.09,-0.75l0 -0.4 0.76 0.45 0.75 0.45 -0.42 0.25z"/>
   <path class="fil7" d="M3.35 17.79c-0.12,-0.04 -0.23,-0.1 -0.34,-0.15l0.34 -0.2 0 0.35z"/>
   <path class="fil9" d="M4.71 18.15c-0.42,-0.05 -0.82,-0.15 -1.2,-0.29l0 -0.41 1.2 0.7z"/>
   <path class="fil5" d="M5.09 18.19c-0.01,0 -0.02,0 -0.03,0l-1.49 -0.88 0.77 -0.45 0.75 -0.45 0 1.78z"/>
   <polygon class="fil9" points="6.82,18.2 5.53,18.2 6.82,17.44 "/>
   <polygon class="fil7" points="8.27,18.2 6.98,18.2 6.98,17.45 "/>
   <polygon class="fil3" points="8.57,18.2 8.56,18.2 7.05,17.31 7.81,16.86 8.57,16.41 "/>
   <polygon class="fil3" points="10.3,18.2 9,18.2 10.3,17.44 "/>
   <polygon class="fil5" points="11.75,18.2 10.46,18.2 10.46,17.45 "/>
   <polygon class="fil7" points="12.04,18.2 12.04,18.2 10.53,17.31 11.29,16.86 12.04,16.41 "/>
   <polygon class="fil7" points="13.78,18.2 12.48,18.2 13.78,17.44 "/>
   <path class="fil7" d="M14.35 18.2l-0.41 0 0 -0.73c0.13,0.23 0.27,0.47 0.41,0.73z"/>
   <path class="fil7" d="M12.17 15.25l0.17 0c0,0 0.17,0.17 0.45,0.53l-0.62 0.36 0 -0.88 0 -0.01z"/>
   <polygon class="fil3" points="10.51,15.25 12.01,15.25 12.01,15.26 12.01,16.15 10.5,15.26 "/>
   <polygon class="fil7" points="8.7,15.25 10.19,15.25 10.2,15.26 8.7,16.14 8.7,15.26 "/>
   <polygon class="fil3" points="7.03,15.25 8.54,15.25 8.54,15.26 8.54,16.15 7.02,15.26 "/>
   <path class="fil5" d="M5.22 15.24c0.08,0.01 0.16,0.01 0.24,0.01l1.26 0 0 0.01 -1.5 0.88 0 -0.88 0 -0.02z"/>
   <path class="fil3" d="M4.25 14.84c0.24,0.18 0.52,0.31 0.81,0.37l0 0.05 0 0.89 -1.52 -0.89 0.71 -0.42z"/>
   <path class="fil9" d="M3.48 13.81c0.12,0.31 0.3,0.59 0.53,0.82 0.04,0.04 0.07,0.07 0.12,0.11l-0.65 0.38 0 -1.31z"/>
   <path class="fil5" d="M3.31 11.29l0 1.63c0,0.04 0,0.08 0,0.12l-1.48 -0.87 1.48 -0.88z"/>
   <polygon class="fil3" points="3.31,9.23 3.31,11.01 2.57,10.57 1.81,10.11 "/>
   <polygon class="fil7" points="3.31,7.18 3.31,8.95 1.81,8.07 2.57,7.62 "/>
   <polygon class="fil3" points="3.31,5.13 3.31,6.87 1.83,6 "/>
   <polygon class="fil7" points="3.31,3.06 3.31,4.84 2.57,4.4 1.81,3.95 "/>
   <polygon class="fil1" points="5.06,2.95 3.59,2.95 3.54,2.92 5.06,2.03 5.06,2.93 "/>
   <polygon class="fil7" points="6.68,2.95 5.22,2.95 5.22,2.93 5.22,2.04 6.72,2.92 "/>
   <polygon class="fil7" points="8.54,2.95 7.07,2.95 7.02,2.92 8.54,2.03 8.54,2.93 "/>
   <polygon class="fil6" points="10.16,2.95 8.7,2.95 8.7,2.93 8.7,2.04 10.2,2.92 "/>
   <polygon class="fil7" points="12.01,2.95 10.54,2.95 10.5,2.92 12.01,2.03 12.01,2.93 "/>
   <polygon class="fil7" points="13.63,2.95 12.17,2.95 12.17,2.93 12.17,2.04 13.68,2.92 "/>
   <path class="fil9" d="M15.49 3.18c-0.28,-0.15 -0.59,-0.23 -0.92,-0.23l-0.55 0 -0.05 -0.03 1.52 -0.89 0 0.9 0 0.25z"/>
   <path class="fil7" d="M16.03 3.59l-0.01 -0.02c-0.11,-0.11 -0.24,-0.21 -0.37,-0.3l0 -0.34 0 -0.89 1.51 0.88 -1.13 0.67z"/>
   <path class="fil0" d="M16.58 4.46c-0.1,-0.28 -0.25,-0.54 -0.44,-0.76l1.09 -0.65 0 1.8 -0.65 -0.39z"/>
   <path class="fil7" d="M16.72 5.25c0,-0.21 -0.03,-0.41 -0.08,-0.59l0.54 0.32 -0.46 0.27z"/>
   <polygon class="fil7" points="16.72,6.58 16.72,5.42 17.25,5.11 17.25,6 17.25,6.89 "/>
   <polygon class="fil7" points="16.72,7.3 16.72,6.75 17.18,7.03 "/>
   <polygon class="fil1" points="16.72,8.66 16.72,7.48 17.23,7.17 17.23,8.96 "/>
   <polygon class="fil7" points="16.72,9.35 16.72,8.83 17.16,9.09 "/>
   <polygon class="fil9 str2" points="16.72,10.71 16.72,9.52 17.23,9.22 17.23,11.01 "/>
   <polygon class="fil7" points="16.72,11.42 16.72,10.87 17.18,11.14 "/>
   <path class="fil7" d="M17.25 12.36c-0.17,-0.26 -0.35,-0.51 -0.53,-0.76l0 -0.01 0.53 -0.32 0 0.9 0 0.19z"/>
   <path class="fil6" d="M17.62 12.93c-0.07,-0.11 -0.14,-0.22 -0.21,-0.32l0 -0.44 0 -0.89 1.51 0.89 -1.3 0.76z"/>
   <path class="fil0" d="M17.95 13.47c-0.08,-0.14 -0.17,-0.27 -0.25,-0.41l1.3 -0.77 0 1.8 -0.76 -0.45 -0.29 -0.17z"/>
   <path class="fil7" d="M18.52 14.45c-0.13,-0.22 -0.26,-0.45 -0.39,-0.67l0.01 0 0.75 0.45 -0.37 0.22z"/>
   <path class="fil7" d="M18.97 15.22c-0.13,-0.21 -0.25,-0.43 -0.37,-0.64l0.37 -0.22 0 0.86z"/>
   <path class="fil6" d="M20.03 15.78l0 1 -0.01 -0.01c-0.18,-0.22 -0.34,-0.45 -0.5,-0.68l0.51 -0.31z"/>
   <path class="fil0" d="M20.03 14.9l0 0.71 -0.6 0.35c-0.1,-0.16 -0.2,-0.32 -0.3,-0.48l0 -0.22 0 -0.89 0.9 0.53z"/>
   <polygon class="fil7" points="20.03,13.74 20.03,14.73 19.2,14.24 19.96,13.78 "/>
   <polygon class="fil7" points="20.03,12.82 20.03,13.57 19.9,13.64 19.15,14.09 19.15,12.3 "/>
   <polygon class="fil3" points="20.03,11.68 20.03,12.65 19.21,12.17 "/>
   <polygon class="fil9" points="20.03,10.77 20.03,11.51 19.15,12.03 19.15,10.25 19.9,10.69 "/>
   <polygon class="fil7" points="20.03,9.62 20.03,10.61 19.96,10.57 19.19,10.11 "/>
   <polygon class="fil7" points="20.03,8.74 20.03,9.44 19.13,9.98 19.13,9.09 19.13,8.2 "/>
   <polygon class="fil7" points="20.03,7.57 20.03,8.56 19.2,8.07 19.96,7.62 "/>
   <polygon class="fil7" points="20.03,6.66 20.03,7.4 19.9,7.48 19.15,7.93 19.15,6.14 "/>
   <polygon class="fil7" points="20.03,5.52 20.03,6.48 19.21,6 "/>
   <path class="fil7" d="M19.99 4.58c0.03,0.23 0.04,0.46 0.04,0.7l0 0.06 -0.88 0.53 0 -1.79 0.75 0.45 0.09 0.05z"/>
   <path class="fil7" d="M19.75 3.62c0.09,0.25 0.16,0.51 0.21,0.78l0 0 -0.77 -0.45 0.56 -0.33z"/>
   <path class="fil7" d="M19.13 2.37c0.23,0.34 0.42,0.71 0.57,1.1l-0.57 0.34 0 -0.88 0 -0.56z"/>
   <path class="fil5" d="M18.9 2.07c0.02,0.03 0.05,0.05 0.07,0.08l0 0.78 0 0.89 -1.52 -0.9 1.45 -0.85z"/>
   <path class="fil0" d="M18.61 1.73c0.07,0.07 0.13,0.15 0.2,0.22l-1.43 0.84 0 -1.78 0.76 0.44 0.47 0.28z"/>
   <path class="fil7" d="M17.52 0.84c0.15,0.09 0.3,0.2 0.45,0.31l-0.49 -0.29 0.04 -0.02z"/>
   <path class="fil7" d="M16.79 0.45c0.16,0.07 0.31,0.15 0.46,0.23l0 0.05 -0.46 -0.28z"/>
   <path class="fil7" d="M15.67 0.11c0.13,0.02 0.26,0.05 0.39,0.09l1.12 0.66 -0.76 0.45 -0.75 0.45 0 -1.65z"/>
   <path class="fil7" d="M15.36 0.06c0.06,0 0.11,0.01 0.16,0.02l0 1.68 -0.75 -0.45 -0.77 -0.45 1.36 -0.8z"/>
   <path class="fil7" d="M13.94 0l0.63 0c0.19,0 0.37,0.01 0.55,0.03l-1.18 0.69 0 -0.72z"/>
   <polygon class="fil7" points="12.54,0 13.78,0 13.78,0.73 "/>
   <polygon class="fil9" points="12.19,0 12.24,0 13.71,0.86 12.95,1.31 12.19,1.76 "/>
   <polygon class="fil7" points="11.98,0 12.04,0 12.04,1.76 11.29,1.31 10.52,0.86 "/>
   <polygon class="fil7" points="10.46,0 11.69,0 10.46,0.72 "/>
   <polygon class="fil7" points="9.06,0 10.3,0 10.3,0.73 "/>
   <polygon class="fil7" points="8.72,0 8.77,0 10.23,0.86 9.47,1.31 8.72,1.76 "/>
   <polygon class="fil7" points="8.5,0 8.57,0 8.57,1.76 7.81,1.31 7.05,0.86 "/>
   <polygon class="fil1" points="6.98,0 8.21,0 6.98,0.72 "/>
   <polygon class="fil7" points="5.59,0 6.82,0 6.82,0.73 "/>
   <polygon class="fil1" points="5.24,0 5.29,0 6.75,0.86 5.99,1.31 5.24,1.76 "/>
   <polygon class="fil5" points="5.03,0 5.09,0 5.09,1.76 4.34,1.31 3.57,0.86 "/>
   <polygon class="fil3" points="3.51,0 4.73,0 3.51,0.72 "/>
   <polygon class="fil7" points="2.11,0 3.35,0 3.35,0.73 "/>
   <polygon class="fil6" points="1.76,0 1.81,0 3.28,0.86 2.52,1.31 1.76,1.76 "/>
  </g>
 </g>
</svg>
