<?xml version="1.0" encoding="utf-8"?>
<!-- Generator: Adobe Illustrator 16.0.0, SVG Export Plug-In . SVG Version: 6.00 Build 0)  -->
<!DOCTYPE svg PUBLIC "-//W3C//DTD SVG 1.1//EN" "http://www.w3.org/Graphics/SVG/1.1/DTD/svg11.dtd">
<svg version="1.1" id="Layer_1" xmlns="http://www.w3.org/2000/svg" xmlns:xlink="http://www.w3.org/1999/xlink" x="0px" y="0px"
	 width="450.371px" height="473.818px" viewBox="0 0 450.371 473.818" enable-background="new 0 0 450.371 473.818"
	 xml:space="preserve">
<g>
	<polygon fill-rule="evenodd" clip-rule="evenodd" fill="#939698" points="379.017,150.962 348.769,168.803 348.761,151.021 
		348.752,133.148 	"/>
	<polygon fill-rule="evenodd" clip-rule="evenodd" fill="#515658" points="65.317,296.162 50.048,305.224 34.887,314.221 
		34.87,278.241 	"/>
	<polygon fill-rule="evenodd" clip-rule="evenodd" fill="#939698" points="31.849,272.961 1.356,255.013 16.67,245.924 
		31.832,236.927 	"/>
	<polygon fill-rule="evenodd" clip-rule="evenodd" fill="#313535" points="66.709,335.271 36.216,317.323 51.531,308.235 
		66.693,299.237 	"/>
	<polygon fill-rule="evenodd" clip-rule="evenodd" fill="#27B78A" points="69.711,299.236 84.881,308.22 100.083,317.222 
		69.728,335.126 	"/>
	<polygon fill-rule="evenodd" clip-rule="evenodd" fill="#C3C6C6" points="136.46,335.271 105.967,317.323 121.281,308.235 
		136.443,299.237 	"/>
	<polygon fill-rule="evenodd" clip-rule="evenodd" fill="#939698" points="139.462,299.236 154.632,308.22 169.833,317.222 
		139.478,335.126 	"/>
	<polygon fill-rule="evenodd" clip-rule="evenodd" fill="#27B78A" points="206.21,335.271 175.717,317.323 191.032,308.235 
		206.193,299.237 	"/>
	<polygon fill-rule="evenodd" clip-rule="evenodd" fill="#939698" points="209.212,299.236 224.382,308.22 239.583,317.222 
		209.229,335.126 	"/>
	<polygon fill-rule="evenodd" clip-rule="evenodd" fill="#515658" points="275.961,335.271 245.468,317.323 260.782,308.235 
		275.944,299.237 	"/>
	<polygon fill-rule="evenodd" clip-rule="evenodd" fill="#313535" points="31.868,189.654 16.698,180.67 1.298,171.551 
		31.852,153.53 	"/>
	<polygon fill-rule="evenodd" clip-rule="evenodd" fill="#C3C6C6" points="30.264,150.962 0.016,168.803 0.008,151.021 0,133.148 	
		"/>
	<polygon fill-rule="evenodd" clip-rule="evenodd" fill="#939698" points="31.849,148.393 1.356,130.444 16.67,121.356 
		31.832,112.358 	"/>
	<polygon fill-rule="evenodd" clip-rule="evenodd" fill="#939698" points="31.812,195.284 31.82,213.301 31.828,231.227 
		1.319,213.27 	"/>
	<polygon fill-rule="evenodd" clip-rule="evenodd" fill="#313535" points="65.317,46.993 50.048,56.054 34.887,65.052 34.87,29.072 
			"/>
	<polygon fill-rule="evenodd" clip-rule="evenodd" fill="#939698" points="66.702,8.373 66.71,26.39 66.718,44.315 36.21,26.358 	
		"/>
	<polygon fill-rule="evenodd" clip-rule="evenodd" fill="#939698" points="136.453,8.373 136.461,26.39 136.469,44.315 
		105.96,26.358 	"/>
	<polygon fill-rule="evenodd" clip-rule="evenodd" fill="#C3C6C6" points="100.015,26.361 69.767,44.202 69.759,26.42 69.75,8.547 	
		"/>
	<polygon fill-rule="evenodd" clip-rule="evenodd" fill="#C8E7E0" points="206.204,8.373 206.212,26.39 206.22,44.315 
		175.711,26.358 	"/>
	<polygon fill-rule="evenodd" clip-rule="evenodd" fill="#737578" points="169.765,26.361 139.517,44.202 139.509,26.42 
		139.501,8.547 	"/>
	<polygon fill-rule="evenodd" clip-rule="evenodd" fill="#515658" points="275.954,8.373 275.962,26.39 275.97,44.315 
		245.461,26.358 	"/>
	<polygon fill-rule="evenodd" clip-rule="evenodd" fill="#27B78A" points="239.516,26.361 209.268,44.202 209.26,26.42 
		209.251,8.547 	"/>
	<polygon fill-rule="evenodd" clip-rule="evenodd" fill="#313535" points="31.812,70.684 31.82,88.7 31.828,106.625 1.319,88.669 	
		"/>
	<polygon fill-rule="evenodd" clip-rule="evenodd" fill="#313535" points="379.18,109.303 363.911,118.364 348.749,127.362 
		348.732,91.382 	"/>
	<polygon fill-rule="evenodd" clip-rule="evenodd" fill="#515658" points="345.711,86.102 315.219,68.154 330.533,59.065 
		345.694,50.068 	"/>
	<polygon fill-rule="evenodd" clip-rule="evenodd" fill="#313535" points="310.87,65.053 295.7,56.069 280.301,46.95 
		310.854,28.929 	"/>
	<polygon fill-rule="evenodd" clip-rule="evenodd" fill="#737578" points="344.319,46.993 329.051,56.054 313.889,65.052 
		313.872,29.072 	"/>
	<polygon fill-rule="evenodd" clip-rule="evenodd" fill="#515658" points="309.266,26.361 279.019,44.202 279.01,26.42 
		279.002,8.547 	"/>
	<polygon fill-rule="evenodd" clip-rule="evenodd" fill="#737578" points="348.713,174.668 363.884,183.651 379.084,192.653 
		348.729,210.557 	"/>
	<path fill-rule="evenodd" clip-rule="evenodd" fill="#515658" d="M31.814,323.592c-0.837-0.744-1.658-1.507-2.464-2.286
		l2.462-1.453L31.814,323.592z"/>
	<path fill-rule="evenodd" clip-rule="evenodd" fill="#515658" d="M61.065,340.235c-9.551-3.084-18.445-7.838-26.202-14.066
		l-0.002-6.142l30.264,17.813L61.065,340.235z"/>
	<path fill-rule="evenodd" clip-rule="evenodd" fill="#515658" d="M66.712,341.845c-0.566-0.141-1.13-0.286-1.692-0.438l1.691-0.997
		L66.712,341.845z"/>
	<path fill-rule="evenodd" clip-rule="evenodd" fill="#515658" d="M74.583,343.408c-1.63-0.245-3.248-0.537-4.852-0.873
		l-0.001-1.983L74.583,343.408z"/>
	<path fill-rule="evenodd" clip-rule="evenodd" fill="#939698" d="M101.574,344.365H87.422c-1.865,0-3.722-0.061-5.568-0.18
		l-10.784-6.348l30.492-17.985l0.008,18.018L101.574,344.365z"/>
	<polygon fill-rule="evenodd" clip-rule="evenodd" fill="#515658" points="123.813,344.365 104.622,344.365 104.619,337.9 
		104.61,320.027 134.875,337.841 	"/>
	<polygon fill-rule="evenodd" clip-rule="evenodd" fill="#27B78A" points="136.464,344.365 129.755,344.365 136.462,340.409 	"/>
	<polygon fill-rule="evenodd" clip-rule="evenodd" fill="#313535" points="145.959,344.365 139.482,344.365 139.48,340.552 	"/>
	<polygon fill-rule="evenodd" clip-rule="evenodd" fill="#C8E7E0" points="171.324,344.365 151.91,344.365 140.821,337.838 
		171.313,319.853 171.321,337.87 	"/>
	<polygon fill-rule="evenodd" clip-rule="evenodd" fill="#515658" points="193.564,344.365 174.373,344.365 174.37,337.9 
		174.361,320.027 204.625,337.841 	"/>
	<polygon fill-rule="evenodd" clip-rule="evenodd" fill="#C3C6C6" points="206.214,344.365 199.505,344.365 206.213,340.409 	"/>
	<polygon fill-rule="evenodd" clip-rule="evenodd" fill="#515658" points="215.71,344.365 209.233,344.365 209.231,340.552 	"/>
	<polygon fill-rule="evenodd" clip-rule="evenodd" fill="#C3C6C6" points="241.074,344.365 221.661,344.365 210.571,337.838 
		241.063,319.853 241.072,337.87 	"/>
	<polygon fill-rule="evenodd" clip-rule="evenodd" fill="#939698" points="263.314,344.365 244.123,344.365 244.12,337.9 
		244.111,320.027 274.376,337.841 	"/>
	<polygon fill-rule="evenodd" clip-rule="evenodd" fill="#515658" points="275.965,344.365 269.256,344.365 275.963,340.409 	"/>
	<path fill-rule="evenodd" clip-rule="evenodd" fill="#515658" d="M313.871,339.786c0.354,0.57,0.708,1.141,1.063,1.71
		c-0.354,0.093-0.708,0.184-1.063,0.272L313.871,339.786z"/>
	<path fill-rule="evenodd" clip-rule="evenodd" fill="#515658" d="M295.833,309.227l1.148,1.989c1.911,3.308,3.82,6.613,5.738,9.907
		l-23.741,14.003l-0.016-35.89l15.17,8.983L295.833,309.227z"/>
	<path fill-rule="evenodd" clip-rule="evenodd" fill="#515658" d="M286.093,292.703c2.131,3.493,4.219,7.024,6.287,10.569
		l-12.079-7.153L286.093,292.703z"/>
	<path fill-rule="evenodd" clip-rule="evenodd" fill="#515658" d="M279.013,281.553c1.876,2.819,3.704,5.684,5.499,8.578
		l-5.493,3.24L279.013,281.553z"/>
	<polygon fill-rule="evenodd" clip-rule="evenodd" fill="#515658" points="255.115,281.21 275.965,281.21 275.97,293.484 	"/>
	<polygon fill-rule="evenodd" clip-rule="evenodd" fill="#515658" points="244.123,281.21 249.165,281.21 274.568,296.162 
		259.3,305.224 244.138,314.221 	"/>
	<polygon fill-rule="evenodd" clip-rule="evenodd" fill="#313535" points="235.827,281.21 241.104,281.21 241.119,314.223 
		225.949,305.238 210.55,296.119 	"/>
	<polygon fill-rule="evenodd" clip-rule="evenodd" fill="#515658" points="209.262,281.21 229.887,281.21 209.268,293.371 	"/>
	<polygon fill-rule="evenodd" clip-rule="evenodd" fill="#939698" points="185.365,281.21 206.214,281.21 206.22,293.484 	"/>
	<polygon fill-rule="evenodd" clip-rule="evenodd" fill="#939698" points="174.373,281.21 179.415,281.21 204.818,296.162 
		189.55,305.224 174.387,314.221 	"/>
	<polygon fill-rule="evenodd" clip-rule="evenodd" fill="#515658" points="166.077,281.21 171.354,281.21 171.369,314.223 
		156.199,305.238 140.799,296.119 	"/>
	<polygon fill-rule="evenodd" clip-rule="evenodd" fill="#939698" points="139.512,281.21 160.136,281.21 139.517,293.371 	"/>
	<polygon fill-rule="evenodd" clip-rule="evenodd" fill="#313535" points="115.615,281.21 136.464,281.21 136.469,293.484 	"/>
	<polygon fill-rule="evenodd" clip-rule="evenodd" fill="#C8E7E0" points="104.622,281.21 109.664,281.21 135.068,296.162 
		119.799,305.224 104.637,314.221 	"/>
	<polygon fill-rule="evenodd" clip-rule="evenodd" fill="#515658" points="96.326,281.21 101.604,281.21 101.619,314.223 
		86.448,305.238 71.049,296.119 	"/>
	<path fill-rule="evenodd" clip-rule="evenodd" fill="#C3C6C6" d="M69.758,273.492c0.18,0.191,0.363,0.38,0.549,0.566l0.421,0.427
		l-0.21,0.199c4.333,4.043,10.482,6.525,16.905,6.525h2.963l-20.619,12.161l-0.008-17.781L69.758,273.492z"/>
	<path fill-rule="evenodd" clip-rule="evenodd" fill="#C8E7E0" d="M63.298,259.551c0.388,3.545,1.562,6.934,3.41,9.949l0.003,6.06
		l0.008,17.925L36.21,275.527L63.298,259.551z"/>
	<polygon fill-rule="evenodd" clip-rule="evenodd" fill="#313535" points="63.155,253.688 63.155,256.131 34.867,272.815 
		34.851,236.926 50.021,245.909 	"/>
	<polygon fill-rule="evenodd" clip-rule="evenodd" fill="#939698" points="63.155,217.938 63.155,249.849 51.558,242.98 
		36.159,233.861 	"/>
	<polygon fill-rule="evenodd" clip-rule="evenodd" fill="#515658" points="63.155,212.114 63.155,214.434 34.876,231.113 
		34.868,213.332 34.86,195.459 	"/>
	<polygon fill-rule="evenodd" clip-rule="evenodd" fill="#515658" points="63.155,176.768 63.155,208.611 36.216,192.754 
		51.531,183.667 	"/>
	<polygon fill-rule="evenodd" clip-rule="evenodd" fill="#939698" points="63.155,170.321 63.155,172.876 50.048,180.655 
		34.887,189.653 34.87,153.672 	"/>
	<polygon fill-rule="evenodd" clip-rule="evenodd" fill="#515658" points="63.155,135.066 63.155,166.819 36.21,150.959 	"/>
	<polygon fill-rule="evenodd" clip-rule="evenodd" fill="#27B78A" points="63.155,129.119 63.155,131.562 34.867,148.247 
		34.851,112.357 50.021,121.34 	"/>
	<polygon fill-rule="evenodd" clip-rule="evenodd" fill="#C8E7E0" points="63.155,93.337 63.155,125.248 51.558,118.38 
		36.159,109.26 	"/>
	<polygon fill-rule="evenodd" clip-rule="evenodd" fill="#737578" points="63.155,87.513 63.155,89.833 34.876,106.512 
		34.868,88.731 34.86,70.858 	"/>
	<path fill-rule="evenodd" clip-rule="evenodd" fill="#939698" d="M66.704,74.732c-1.75,2.859-2.882,6.062-3.33,9.407L36.216,68.154
		l15.314-9.088l15.162-8.997L66.704,74.732z"/>
	<path fill-rule="evenodd" clip-rule="evenodd" fill="#515658" d="M91.813,63.155h-4.39c-6.423,0-12.572,2.488-17.115,7.038
		l-0.114,0.114c-0.16,0.16-0.317,0.322-0.472,0.486l-0.009-20.726l15.17,8.983L91.813,63.155z"/>
	<polygon fill-rule="evenodd" clip-rule="evenodd" fill="#737578" points="101.618,63.155 98.414,63.155 86.448,56.069 
		71.049,46.95 101.602,28.929 	"/>
	<polygon fill-rule="evenodd" clip-rule="evenodd" fill="#27B78A" points="107.833,63.155 104.636,63.155 104.62,29.072 
		135.068,46.993 119.799,56.054 	"/>
	<polygon fill-rule="evenodd" clip-rule="evenodd" fill="#515658" points="136.449,63.155 114.39,63.155 121.281,59.065 
		136.443,50.068 	"/>
	<polygon fill-rule="evenodd" clip-rule="evenodd" fill="#C3C6C6" points="161.563,63.155 139.468,63.155 139.462,50.067 
		154.632,59.05 	"/>
	<polygon fill-rule="evenodd" clip-rule="evenodd" fill="#515658" points="171.368,63.155 168.164,63.155 156.199,56.069 
		140.799,46.95 171.353,28.929 	"/>
	<polygon fill-rule="evenodd" clip-rule="evenodd" fill="#939698" points="177.583,63.155 174.387,63.155 174.371,29.072 
		204.818,46.993 189.55,56.054 	"/>
	<polygon fill-rule="evenodd" clip-rule="evenodd" fill="#515658" points="206.2,63.155 184.14,63.155 191.032,59.065 
		206.193,50.068 	"/>
	<polygon fill-rule="evenodd" clip-rule="evenodd" fill="#939698" points="231.313,63.155 209.218,63.155 209.212,50.067 
		224.382,59.05 	"/>
	<polygon fill-rule="evenodd" clip-rule="evenodd" fill="#515658" points="241.119,63.155 237.914,63.155 225.949,56.069 
		210.55,46.95 241.104,28.929 	"/>
	<polygon fill-rule="evenodd" clip-rule="evenodd" fill="#737578" points="247.334,63.155 244.138,63.155 244.121,29.072 
		274.568,46.993 259.3,56.054 	"/>
	<polygon fill-rule="evenodd" clip-rule="evenodd" fill="#515658" points="275.95,63.155 253.891,63.155 260.782,59.065 
		275.944,50.068 	"/>
	<path fill-rule="evenodd" clip-rule="evenodd" fill="#515658" d="M308.146,68.753c-4.318-3.587-9.735-5.598-15.412-5.598h-13.766
		l-0.006-13.088l15.17,8.983l15.201,9.002L308.146,68.753z"/>
	<polygon fill-rule="evenodd" clip-rule="evenodd" fill="#515658" points="310.814,70.889 310.693,70.754 310.814,70.684 	"/>
	<path fill-rule="evenodd" clip-rule="evenodd" fill="#C8E7E0" d="M317.001,104.67V87.422c0-4.352-1.142-8.583-3.137-12.207
		l-0.002-4.358l30.264,17.813L317.001,104.67z"/>
	<polygon fill-rule="evenodd" clip-rule="evenodd" fill="#737578" points="317.001,110.351 317.001,108.175 345.714,91.239 
		345.73,127.364 330.56,118.38 	"/>
	<polygon fill-rule="evenodd" clip-rule="evenodd" fill="#27B78A" points="317.001,146.399 317.001,114.222 329.023,121.34 
		344.224,130.343 	"/>
	<polygon fill-rule="evenodd" clip-rule="evenodd" fill="#313535" points="317.001,152.012 317.001,149.904 345.704,132.974 
		345.713,150.99 345.721,168.916 	"/>
	<polygon fill-rule="evenodd" clip-rule="evenodd" fill="#515658" points="317.001,187.805 317.001,155.515 344.319,171.593 
		329.051,180.655 	"/>
	<polygon fill-rule="evenodd" clip-rule="evenodd" fill="#939698" points="317.001,193.804 317.001,191.696 330.533,183.667 
		345.694,174.669 345.711,210.703 	"/>
	<path fill-rule="evenodd" clip-rule="evenodd" fill="#515658" d="M333.94,219.28c-5.262-7.2-10.859-14.142-16.939-20.704v-1.27
		l27.125,15.966L333.94,219.28z"/>
	<path fill-rule="evenodd" clip-rule="evenodd" fill="#737578" d="M345.724,236.565c-3.222-5.028-6.543-9.983-10.007-14.829
		l9.997-5.896L345.724,236.565z"/>
	<path fill-rule="evenodd" clip-rule="evenodd" fill="#27B78A" d="M353.514,249.136c-1.571-2.61-3.159-5.209-4.77-7.791
		l-0.012-25.362l30.447,17.921l-15.269,9.062L353.514,249.136z"/>
	<path fill-rule="evenodd" clip-rule="evenodd" fill="#515658" d="M376.993,280.229c-0.547,1.973-1.163,3.924-1.847,5.85
		c-0.702-1.17-1.401-2.345-2.098-3.523L376.993,280.229z"/>
	<path fill-rule="evenodd" clip-rule="evenodd" fill="#313535" d="M378.253,275.081c-0.073,0.345-0.149,0.689-0.227,1.033
		l-6.508,3.839c-1.733-2.958-3.454-5.934-5.175-8.912l-2.601-4.501L378.253,275.081z"/>
	<path fill-rule="evenodd" clip-rule="evenodd" fill="#C3C6C6" d="M380.157,237.181v19.762c0,5.068-0.439,10.081-1.296,14.993
		l-18.204-10.715c-1.8-3.089-3.609-6.172-5.438-9.241l10.204-6.057L380.157,237.181z"/>
	<polygon fill-rule="evenodd" clip-rule="evenodd" fill="#313535" points="380.157,195.524 380.157,230.977 350.072,213.27 	"/>
	<polygon fill-rule="evenodd" clip-rule="evenodd" fill="#C8E7E0" points="380.157,153.793 380.157,189.38 365.45,180.67 
		350.051,171.551 	"/>
	<polygon fill-rule="evenodd" clip-rule="evenodd" fill="#515658" points="380.157,112.612 380.157,148.13 350.108,130.444 
		365.423,121.356 	"/>
	<path fill-rule="evenodd" clip-rule="evenodd" fill="#515658" d="M378.728,71.767c0.943,5.113,1.43,10.353,1.43,15.655v18.954
		l-30.085-17.707L378.728,71.767z"/>
	<path fill-rule="evenodd" clip-rule="evenodd" fill="#27B78A" d="M377.775,67.277c0.108,0.453,0.213,0.907,0.314,1.362
		l-29.36,17.317l-0.017-35.889l15.171,8.983L377.775,67.277z"/>
	<path fill-rule="evenodd" clip-rule="evenodd" fill="#515658" d="M364.613,38.361c5.251,7.328,9.266,15.534,11.898,24.259
		l-11.062-6.551l-15.399-9.12L364.613,38.361z"/>
	<path fill-rule="evenodd" clip-rule="evenodd" fill="#515658" d="M348.758,20.399c1.981,1.66,3.898,3.413,5.742,5.256l1.02,1.025
		l-1.076,0.057c3.032,2.847,5.821,5.922,8.355,9.189l-14.03,8.275l-0.008-17.782L348.758,20.399z"/>
	<path fill-rule="evenodd" clip-rule="evenodd" fill="#313535" d="M338.192,12.804c2.585,1.582,5.094,3.301,7.517,5.154l0.004,8.432
		l0.008,17.925l-30.509-17.957L338.192,12.804z"/>
	<path fill-rule="evenodd" clip-rule="evenodd" fill="#515658" d="M313.86,2.596c7.465,1.866,14.64,4.713,21.35,8.462
		l-21.341,12.587L313.86,2.596z"/>
	<path fill-rule="evenodd" clip-rule="evenodd" fill="#939698" d="M290.204,0h2.53c6.144,0,12.207,0.645,18.106,1.898l0.01,21.893
		L280.358,5.843L290.204,0z"/>
	<polygon fill-rule="evenodd" clip-rule="evenodd" fill="#515658" points="278.997,0 283.706,0 278.998,2.794 	"/>
	<polygon fill-rule="evenodd" clip-rule="evenodd" fill="#515658" points="271.26,0 275.979,0 275.98,2.795 	"/>
	<polygon fill-rule="evenodd" clip-rule="evenodd" fill="#939698" points="244.108,0 264.777,0 274.474,5.742 244.119,23.646 	"/>
	<polygon fill-rule="evenodd" clip-rule="evenodd" fill="#C3C6C6" points="220.454,0 241.09,0 241.101,23.792 210.607,5.843 	"/>
	<polygon fill-rule="evenodd" clip-rule="evenodd" fill="#515658" points="209.246,0 213.956,0 209.248,2.794 	"/>
	<polygon fill-rule="evenodd" clip-rule="evenodd" fill="#515658" points="201.509,0 206.228,0 206.229,2.795 	"/>
	<polygon fill-rule="evenodd" clip-rule="evenodd" fill="#939698" points="174.358,0 195.027,0 204.723,5.742 174.368,23.646 	"/>
	<polygon fill-rule="evenodd" clip-rule="evenodd" fill="#313535" points="150.704,0 171.339,0 171.35,23.792 140.857,5.843 	"/>
	<polygon fill-rule="evenodd" clip-rule="evenodd" fill="#515658" points="139.496,0 144.205,0 139.497,2.794 	"/>
	<polygon fill-rule="evenodd" clip-rule="evenodd" fill="#515658" points="131.759,0 136.478,0 136.479,2.795 	"/>
	<polygon fill-rule="evenodd" clip-rule="evenodd" fill="#515658" points="104.607,0 125.276,0 134.973,5.742 104.618,23.646 	"/>
	<path fill-rule="evenodd" clip-rule="evenodd" fill="#515658" d="M80.483,0.279C82.781,0.094,85.096,0,87.422,0h14.166
		l0.011,23.792L71.106,5.843L80.483,0.279z"/>
	<path fill-rule="evenodd" clip-rule="evenodd" fill="#515658" d="M69.746,1.82c0.809-0.168,1.621-0.326,2.436-0.471l-2.435,1.445
		L69.746,1.82z"/>
	<polygon fill-rule="evenodd" clip-rule="evenodd" fill="#515658" points="66.382,2.59 66.729,2.505 66.729,2.795 	"/>
	<path fill-rule="evenodd" clip-rule="evenodd" fill="#515658" d="M34.865,17.725c8.189-6.212,17.361-10.914,27.108-13.908
		l3.25,1.925L34.867,23.646L34.865,17.725z"/>
	<path fill-rule="evenodd" clip-rule="evenodd" fill="#515658" d="M29.317,22.301c0.831-0.744,1.675-1.471,2.53-2.181l0.002,3.671
		L29.317,22.301z"/>
	<path fill-rule="evenodd" clip-rule="evenodd" fill="#C3C6C6" d="M19.335,32.807c1.971-2.444,4.079-4.794,6.321-7.037l0.114-0.114
		c0.409-0.409,0.822-0.812,1.238-1.211l3.256,1.917L19.335,32.807z"/>
	<path fill-rule="evenodd" clip-rule="evenodd" fill="#C8E7E0" d="M8.046,50.946c1.919-4.14,4.166-8.132,6.722-11.941l17.083-10.076
		l0.017,36.125l-15.17-8.984L8.046,50.946z"/>
	<path fill-rule="evenodd" clip-rule="evenodd" fill="#939698" d="M0.015,85.934C0.204,74.854,2.503,64.06,6.68,54.046l8.451,5.004
		l15.201,9.002L0.015,85.934z"/>
	<polygon fill-rule="evenodd" clip-rule="evenodd" fill="#27B78A" points="0,127.36 0,91.394 30.427,109.303 15.158,118.364 	"/>
	<polygon fill-rule="evenodd" clip-rule="evenodd" fill="#515658" points="0,210.543 0,174.691 15.131,183.651 30.332,192.653 	"/>
	<polygon fill-rule="evenodd" clip-rule="evenodd" fill="#C8E7E0" points="0,251.961 0,215.995 30.427,233.904 15.158,242.966 	"/>
	<path fill-rule="evenodd" clip-rule="evenodd" fill="#313535" d="M6.362,289.628c-4.067-10.036-6.259-20.836-6.357-31.908
		l30.259,17.811L6.362,289.628z"/>
	<path fill-rule="evenodd" clip-rule="evenodd" fill="#515658" d="M13.325,303.241c-2.178-3.472-4.106-7.084-5.771-10.812
		l24.298-14.331l0.017,36.124l-15.17-8.984L13.325,303.241z"/>
	<path fill-rule="evenodd" clip-rule="evenodd" fill="#515658" d="M26.458,319.507l-0.802-0.798
		c-2.788-2.788-5.368-5.741-7.731-8.834l12.407,7.347L26.458,319.507z"/>
	<polygon fill-rule="evenodd" clip-rule="evenodd" fill="#27B78A" points="275.954,257.542 275.962,275.56 275.97,293.484 
		245.461,275.527 	"/>
	<polygon fill-rule="evenodd" clip-rule="evenodd" fill="#27B78A" points="241.101,272.961 210.607,255.013 225.922,245.924 
		241.084,236.927 	"/>
	<polygon fill-rule="evenodd" clip-rule="evenodd" fill="#27B78A" points="244.103,236.926 259.272,245.909 274.474,254.911 
		244.119,272.815 	"/>
	<polygon fill-rule="evenodd" clip-rule="evenodd" fill="#5BC1A3" points="310.814,319.853 310.822,337.87 310.83,355.795 
		280.322,337.838 	"/>
	<polygon fill-rule="evenodd" clip-rule="evenodd" fill="#939698" points="278.963,299.236 294.133,308.22 309.334,317.222 
		278.979,335.126 	"/>
	<polygon fill-rule="evenodd" clip-rule="evenodd" fill="#5BC1A3" points="206.229,251.965 191.059,242.98 175.66,233.861 
		206.213,215.84 	"/>
	<polygon fill-rule="evenodd" clip-rule="evenodd" fill="#939698" points="239.679,233.904 224.41,242.966 209.248,251.963 
		209.231,215.983 	"/>
	<polygon fill-rule="evenodd" clip-rule="evenodd" fill="#515658" points="204.625,213.272 174.377,231.113 174.37,213.332 
		174.361,195.459 	"/>
	<polygon fill-rule="evenodd" clip-rule="evenodd" fill="#27B78A" points="345.73,376.533 330.56,367.55 315.16,358.43 
		345.714,340.409 	"/>
	<polygon fill-rule="evenodd" clip-rule="evenodd" fill="#C8E7E0" points="344.126,337.841 313.879,355.682 313.87,337.9 
		313.862,320.027 	"/>
	<polygon fill-rule="evenodd" clip-rule="evenodd" fill="#5BC1A3" points="310.87,314.223 295.7,305.238 280.301,296.119 
		310.854,278.099 	"/>
	<polygon fill-rule="evenodd" clip-rule="evenodd" fill="#27B78A" points="309.266,275.53 279.019,293.371 279.01,275.59 
		279.002,257.717 	"/>
	<polygon fill-rule="evenodd" clip-rule="evenodd" fill="#5BC1A3" points="415.462,459.966 384.969,442.018 400.283,432.929 
		415.445,423.932 	"/>
	<polygon fill-rule="evenodd" clip-rule="evenodd" fill="#939698" points="418.464,423.931 433.634,432.914 448.835,441.916 
		418.48,459.819 	"/>
	<polygon fill-rule="evenodd" clip-rule="evenodd" fill="#5BC1A3" points="345.704,382.236 345.713,400.253 345.721,418.179 
		315.212,400.222 	"/>
	<polygon fill-rule="evenodd" clip-rule="evenodd" fill="#27B78A" points="313.854,361.62 329.023,370.604 344.224,379.605 
		313.869,397.509 	"/>
	<polygon fill-rule="evenodd" clip-rule="evenodd" fill="#27B78A" points="380.62,438.917 365.45,429.933 350.051,420.813 
		380.604,402.792 	"/>
	<polygon fill-rule="evenodd" clip-rule="evenodd" fill="#C8E7E0" points="414.069,420.856 398.801,429.917 383.639,438.915 
		383.622,402.936 	"/>
	<polygon fill-rule="evenodd" clip-rule="evenodd" fill="#27B78A" points="379.017,400.225 348.769,418.065 348.761,400.283 
		348.752,382.411 	"/>
	<polygon fill-rule="evenodd" clip-rule="evenodd" fill="#27B78A" points="450.371,438.917 435.201,429.933 419.802,420.813 
		450.354,402.792 	"/>
	<path fill-rule="evenodd" clip-rule="evenodd" fill="#515658" d="M442.741,393.175c2.47,0.107,5.009,0.146,7.608,0.121l0.003,4.359
		L442.741,393.175z"/>
	<path fill-rule="evenodd" clip-rule="evenodd" fill="#939698" d="M418.506,389.679c5.438,1.406,11.252,2.43,17.484,3.025
		l12.777,7.521l-30.248,17.841l-0.008-17.782L418.506,389.679z"/>
	<path fill-rule="evenodd" clip-rule="evenodd" fill="#5BC1A3" d="M408.312,386.449c2.307,0.875,4.687,1.675,7.146,2.394
		l0.005,11.41l0.008,17.926l-30.508-17.957L408.312,386.449z"/>
	<path fill-rule="evenodd" clip-rule="evenodd" fill="#27B78A" d="M383.608,372.444c6.314,4.961,13.301,9.227,21.173,12.583
		l-21.161,12.481L383.608,372.444z"/>
	<path fill-rule="evenodd" clip-rule="evenodd" fill="#27B78A" d="M375.033,364.916c1.794,1.747,3.644,3.437,5.556,5.061
		l0.013,27.679l-30.493-17.948l15.314-9.089L375.033,364.916z"/>
	<path fill-rule="evenodd" clip-rule="evenodd" fill="#C8E7E0" d="M359.62,346.961c4.012,5.462,8.276,10.655,12.918,15.453
		l-8.627,5.12l-15.162,8.998l-0.017-35.98L359.62,346.961z"/>
	<path fill-rule="evenodd" clip-rule="evenodd" fill="#27B78A" d="M352.39,336.471c0.983,1.512,1.979,3.009,2.988,4.491
		l-5.306-3.124L352.39,336.471z"/>
	<path fill-rule="evenodd" clip-rule="evenodd" fill="#27B78A" d="M348.728,330.708c0.671,1.08,1.348,2.154,2.028,3.223
		l-2.026,1.195L348.728,330.708z"/>
	<path fill-rule="evenodd" clip-rule="evenodd" fill="#27B78A" d="M334.2,306.059l2.388,4.133c3.018,5.226,6.031,10.441,9.119,15.57
		l0.004,9.51l-30.492-17.948l15.314-9.088L334.2,306.059z"/>
	<path fill-rule="evenodd" clip-rule="evenodd" fill="#27B78A" d="M319.729,281.688c4.387,7.074,8.612,14.265,12.793,21.474
		l-3.472,2.062l-15.162,8.997l-0.017-35.979L319.729,281.688z"/>
	<polygon fill-rule="evenodd" clip-rule="evenodd" fill="#27B78A" points="315.673,275.256 316.228,276.126 315.212,275.527 	"/>
	<polygon fill-rule="evenodd" clip-rule="evenodd" fill="#27B78A" points="313.869,272.474 314.03,272.721 313.869,272.815 	"/>
	<path fill-rule="evenodd" clip-rule="evenodd" fill="#27B78A" d="M294.845,246.416c5.706,6.885,10.992,14.097,16.004,21.517
		l0.002,5.028l-30.492-17.948L294.845,246.416z"/>
	<path fill-rule="evenodd" clip-rule="evenodd" fill="#27B78A" d="M278.988,229.357c4.844,4.608,9.388,9.453,13.691,14.487
		l-13.682,8.118L278.988,229.357z"/>
	<path fill-rule="evenodd" clip-rule="evenodd" fill="#27B78A" d="M268.56,220.207c2.546,2.053,5.014,4.167,7.408,6.34l0.013,25.417
		l-15.171-8.984l-15.399-9.119L268.56,220.207z"/>
	<path fill-rule="evenodd" clip-rule="evenodd" fill="#C8E7E0" d="M244.115,203.979c7.922,4.245,15.184,9.019,21.905,14.222
		l-21.893,12.913l-0.008-17.782L244.115,203.979z"/>
	<path fill-rule="evenodd" clip-rule="evenodd" fill="#27B78A" d="M234.415,199.206c2.268,1.021,4.483,2.084,6.651,3.185
		l0.006,10.91l0.008,17.926l-30.509-17.957L234.415,199.206z"/>
	<path fill-rule="evenodd" clip-rule="evenodd" fill="#27B78A" d="M209.219,190.201c7.739,2.12,14.985,4.636,21.783,7.514
		l-21.773,12.842L209.219,190.201z"/>
	<path fill-rule="evenodd" clip-rule="evenodd" fill="#27B78A" d="M187.77,185.602c6.437,1.029,12.575,2.3,18.43,3.799l0.01,21.302
		l-30.493-17.949L187.77,185.602z"/>
	<path fill-rule="evenodd" clip-rule="evenodd" fill="#27B78A" d="M174.385,183.872c2.762,0.278,5.478,0.593,8.138,0.954
		l-8.135,4.828L174.385,183.872z"/>
	<path fill-rule="evenodd" clip-rule="evenodd" fill="#27B78A" d="M159.835,182.824c3.937,0.178,7.784,0.428,11.531,0.758
		l0.003,6.072L159.835,182.824z"/>
	<path fill-rule="evenodd" clip-rule="evenodd" fill="#27B78A" d="M137.37,211.652l-0.033-0.407v-29.93
		c3.573,0.159,9.496,0.559,14.368,0.908l18.127,10.431L137.37,211.652z"/>
	<polygon fill-rule="evenodd" clip-rule="evenodd" fill="#27B78A" points="140.714,213.08 171.313,195.284 171.321,213.301 
		171.33,231.227 	"/>
	<polygon fill-rule="evenodd" clip-rule="evenodd" fill="#70C7AD" points="151.166,245.039 137.337,253.099 137.337,217.286 
		137.369,214.822 169.928,233.904 154.659,242.966 	"/>
	<path fill-rule="evenodd" clip-rule="evenodd" fill="#27B78A" d="M171.346,264.483c-11.13-1.93-23.287-2.545-34.009-2.559v-4.364
		l18.835-11.637l15.162-8.997L171.346,264.483z"/>
	<path fill-rule="evenodd" clip-rule="evenodd" fill="#27B78A" d="M183.664,267.333c-2.988-0.875-6.086-1.638-9.299-2.283
		l-0.013-28.124l15.17,8.983l15.201,9.002L183.664,267.333z"/>
	<path fill-rule="evenodd" clip-rule="evenodd" fill="#27B78A" d="M206.212,277.031c-5.71-3.352-11.906-6.209-18.674-8.479
		l18.666-11.01l0.008,18.018L206.212,277.031z"/>
	<path fill-rule="evenodd" clip-rule="evenodd" fill="#27B78A" d="M220.202,286.922c-3.443-2.881-7.08-5.564-10.941-8.021
		l-0.001-3.311l-0.008-17.873l30.264,17.813L220.202,286.922z"/>
	<path fill-rule="evenodd" clip-rule="evenodd" fill="#C8E7E0" d="M241.117,309.225c-5.579-7.323-11.653-14.162-18.498-20.224
		l18.484-10.902L241.117,309.225z"/>
	<path fill-rule="evenodd" clip-rule="evenodd" fill="#515658" d="M244.6,313.947c-0.154-0.216-0.308-0.432-0.462-0.646
		l-0.017-35.06l30.447,17.921l-15.269,9.062L244.6,313.947z"/>
	<path fill-rule="evenodd" clip-rule="evenodd" fill="#27B78A" d="M247.984,318.805c-0.479-0.708-0.963-1.413-1.449-2.114
		l14.247-8.455l15.162-8.998l0.017,36.034L247.984,318.805z"/>
	<path fill-rule="evenodd" clip-rule="evenodd" fill="#515658" d="M263.642,344.172c-3.855-6.635-7.766-13.235-11.882-19.643
		l22.616,13.312L263.642,344.172z"/>
	<path fill-rule="evenodd" clip-rule="evenodd" fill="#27B78A" d="M275.975,365.418c-2.938-4.989-5.842-10.017-8.748-15.051
		l-2.071-3.584l10.808-6.374L275.975,365.418z"/>
	<path fill-rule="evenodd" clip-rule="evenodd" fill="#C8E7E0" d="M281.669,374.947c-0.896-1.474-1.786-2.954-2.674-4.438
		l-0.014-29.958l30.447,17.921l-15.269,9.062L281.669,374.947z"/>
	<path fill-rule="evenodd" clip-rule="evenodd" fill="#27B78A" d="M287.082,383.664c-1.221-1.921-2.428-3.854-3.625-5.796
		l12.216-7.25l15.162-8.997l0.016,36.034L287.082,383.664z"/>
	<path fill-rule="evenodd" clip-rule="evenodd" fill="#27B78A" d="M301.549,404.776c-3.753-5.014-7.339-10.182-10.812-15.458
		l18.528,10.906L301.549,404.776z"/>
	<path fill-rule="evenodd" clip-rule="evenodd" fill="#27B78A" d="M310.859,416.438c-2.569-3.009-5.055-6.094-7.472-9.242
		l7.466-4.403L310.859,416.438z"/>
	<path fill-rule="evenodd" clip-rule="evenodd" fill="#939698" d="M325.658,431.931c-4.127-3.833-8.04-7.857-11.778-12.04
		l-0.008-16.955l30.447,17.921l-15.269,9.061L325.658,431.931z"/>
	<path fill-rule="evenodd" clip-rule="evenodd" fill="#27B78A" d="M345.705,447.719c-6.236-4.106-12.029-8.606-17.457-13.435
		l2.285-1.355l15.161-8.997L345.705,447.719z"/>
	<path fill-rule="evenodd" clip-rule="evenodd" fill="#C8E7E0" d="M357.438,454.684c-3-1.593-5.898-3.273-8.713-5.029l-0.013-25.724
		l15.171,8.983l15.2,9.002L357.438,454.684z"/>
	<path fill-rule="evenodd" clip-rule="evenodd" fill="#27B78A" d="M380.574,464.536c-7.096-2.351-13.735-5.104-19.968-8.218
		l19.958-11.771l0.009,18.017L380.574,464.536z"/>
	<path fill-rule="evenodd" clip-rule="evenodd" fill="#515658" d="M401.308,469.948c-6.194-1.215-12.08-2.701-17.686-4.436
		l-0.001-2.919l-0.009-17.872l30.265,17.813L401.308,469.948z"/>
	<path fill-rule="evenodd" clip-rule="evenodd" fill="#27B78A" d="M415.468,472.184c-3.29-0.396-6.496-0.868-9.63-1.403l9.627-5.678
		L415.468,472.184z"/>
	<path fill-rule="evenodd" clip-rule="evenodd" fill="#27B78A" d="M432.635,473.575c-4.873-0.214-9.586-0.568-14.148-1.054
		l-0.004-7.275L432.635,473.575z"/>
	<path fill-rule="evenodd" clip-rule="evenodd" fill="#5BC1A3" d="M450.328,473.745c-3.896,0.089-7.697,0.096-11.412,0.025
		l-19.094-11.238l30.493-17.985l0.008,18.017L450.328,473.745z"/>
</g>
</svg>
