<?xml version="1.0" encoding="utf-8"?>
<!-- Generator: Adobe Illustrator 16.0.0, SVG Export Plug-In . SVG Version: 6.00 Build 0)  -->
<!DOCTYPE svg PUBLIC "-//W3C//DTD SVG 1.0//EN" "http://www.w3.org/TR/2001/REC-SVG-20010904/DTD/svg10.dtd">
<svg version="1.0" id="Layer_1" xmlns="http://www.w3.org/2000/svg" xmlns:xlink="http://www.w3.org/1999/xlink" x="0px" y="0px"
	 width="25px" height="25.736px" viewBox="0 0 25 25.736" enable-background="new 0 0 25 25.736" xml:space="preserve">
<g>
	<path fill="#5E6061" d="M4.698,0h11.219c1.293,0,2.468,0.528,3.319,1.379l-0.003,0.003c0.853,0.854,1.382,2.028,1.382,3.316v9.263
		c0,1.294-0.528,2.469-1.379,3.319c-0.574,0.574-1.295,1.001-2.101,1.219c-0.12-0.191-0.239-0.383-0.358-0.575
		c-0.539-0.868-1.08-1.739-1.689-2.558h0.829c0.385,0,0.736-0.158,0.991-0.414c0.255-0.255,0.414-0.605,0.414-0.991V4.698
		c0-0.389-0.156-0.74-0.407-0.991h-0.007c-0.255-0.255-0.606-0.414-0.991-0.414H4.698c-0.389,0-0.74,0.156-0.991,0.408L3.7,3.707
		C3.449,3.958,3.293,4.31,3.293,4.698v9.263c0,0.386,0.159,0.736,0.414,0.991v0.007c0.251,0.251,0.602,0.407,0.991,0.407H6.71h1.236
		c2.493,0.176,3.385,1.49,4.379,3.293H4.698c-1.288,0-2.462-0.529-3.316-1.382L1.379,17.28C0.528,16.43,0,15.255,0,13.961V4.698
		c0-1.287,0.528-2.459,1.379-3.313l0.006-0.006C2.239,0.528,3.412,0,4.698,0L4.698,0z"/>
	<path fill="#01C28D" d="M25,25.709c-6.43,0.375-8.45-3.217-10.498-6.863c-1.332-2.369-2.683-4.771-6.189-4.895V9.482
		c6.03,0.136,8.007,3.653,9.956,7.122c1.387,2.47,2.756,4.903,6.731,4.615V25.709L25,25.709z"/>
</g>
<g>
	<path fill="#5E6061" d="M256.759-87.105h75.392c8.689,0,16.586,3.547,22.305,9.267l-0.02,0.021
		c5.73,5.738,9.287,13.628,9.287,22.284V6.713c0,8.692-3.549,16.588-9.268,22.308c-3.855,3.855-8.701,6.727-14.115,8.186
		c-0.807-1.282-1.609-2.572-2.41-3.864c-3.623-5.834-7.256-11.688-11.35-17.184h5.57c2.586,0,4.947-1.068,6.66-2.783
		c1.715-1.714,2.781-4.074,2.781-6.662v-62.247c0-2.612-1.047-4.975-2.738-6.66h-0.043c-1.713-1.715-4.074-2.784-6.66-2.784h-75.392
		c-2.612,0-4.976,1.05-6.659,2.739l-0.045,0.045c-1.689,1.685-2.739,4.047-2.739,6.66V6.713c0,2.588,1.068,4.948,2.784,6.662v0.045
		c1.684,1.687,4.047,2.738,6.659,2.738h13.521h8.305c16.752,1.176,22.748,10.013,29.426,22.128h-51.251
		c-8.655,0-16.547-3.557-22.284-9.288l-0.021,0.022c-5.719-5.72-9.266-13.615-9.266-22.308v-62.247
		c0-8.646,3.547-16.528,9.266-22.262l0.043-0.042C240.23-83.559,248.113-87.105,256.759-87.105L256.759-87.105z"/>
	<path fill="#01C28D" d="M393.188,85.66c-43.209,2.521-56.785-21.619-70.549-46.12c-8.947-15.924-18.024-32.07-41.593-32.893
		v-30.033c40.526,0.916,53.81,24.551,66.903,47.859c9.324,16.6,18.523,32.954,45.238,31.016V85.66L393.188,85.66z"/>
</g>
</svg>
