<?xml version="1.0" encoding="utf-8"?>
<!-- Generator: Adobe Illustrator 16.0.0, SVG Export Plug-In . SVG Version: 6.00 Build 0)  -->
<!DOCTYPE svg PUBLIC "-//W3C//DTD SVG 1.0//EN" "http://www.w3.org/TR/2001/REC-SVG-20010904/DTD/svg10.dtd">
<svg version="1.0" id="Layer_1" xmlns="http://www.w3.org/2000/svg" xmlns:xlink="http://www.w3.org/1999/xlink" x="0px" y="0px"
	 width="76.875px" height="70px" viewBox="21 -5 76.875 70" enable-background="new 21 -5 76.875 70" xml:space="preserve">
<g>
	<g>
		<ellipse fill="#00D8FF" cx="58.511" cy="21.465" rx="3.802" ry="3.748"/>
		<g>
			<path fill="none" stroke="#00D8FF" d="M58.511,13.844c5.104,0,9.845,0.722,13.422,1.935c4.306,1.463,6.954,3.68,6.954,5.687
				c0,2.091-2.806,4.446-7.433,5.958c-3.496,1.143-8.099,1.739-12.943,1.739c-4.967,0-9.671-0.56-13.208-1.751
				c-4.474-1.508-7.169-3.893-7.169-5.946c0-1.99,2.528-4.19,6.775-5.65C48.498,14.583,53.356,13.844,58.511,13.844L58.511,13.844z"
				/>
			<path fill="none" stroke="#00D8FF" d="M51.783,17.677c2.549-4.361,5.552-8.049,8.404-10.497c3.436-2.949,6.707-4.104,8.469-3.101
				c1.838,1.044,2.504,4.619,1.521,9.324c-0.743,3.559-2.518,7.787-4.938,11.927c-2.481,4.242-5.322,7.98-8.136,10.406
				c-3.561,3.069-7.002,4.18-8.805,3.154c-1.749-0.993-2.417-4.253-1.578-8.609c0.709-3.683,2.487-8.202,5.062-12.604H51.783z"/>
			<path fill="none" stroke="#00D8FF" d="M51.789,25.341c-2.557-4.355-4.298-8.764-5.024-12.423
				c-0.875-4.409-0.256-7.78,1.505-8.785c1.835-1.048,5.309,0.167,8.952,3.357c2.754,2.413,5.583,6.041,8.011,10.176
				c2.488,4.24,4.354,8.535,5.079,12.149c0.919,4.572,0.176,8.068-1.625,9.097c-1.748,0.996-4.944-0.062-8.354-2.951
				C57.454,33.517,54.371,29.74,51.789,25.341L51.789,25.341z"/>
		</g>
	</g>
	<path d="M48.255,56.097l-2.661-4.019c1.345-0.119,2.556-1.093,2.556-2.873c0-1.812-1.286-2.971-3.088-2.971h-3.959v9.854h1.226
		v-3.915h1.965l2.512,3.915L48.255,56.097z M44.916,51.104h-2.586v-3.768h2.586c1.167,0,1.965,0.767,1.965,1.876
		C46.881,50.32,46.083,51.104,44.916,51.104L44.916,51.104z M52.821,56.274c1.167,0,2.127-0.386,2.837-1.093l-0.533-0.726
		c-0.561,0.577-1.388,0.902-2.201,0.902c-1.537,0-2.482-1.124-2.572-2.467h5.778v-0.282c0-2.143-1.271-3.827-3.429-3.827
		c-2.04,0-3.516,1.67-3.516,3.738c0,2.232,1.522,3.747,3.634,3.747L52.821,56.274z M55.037,52.077h-4.684
		c0.061-1.093,0.813-2.379,2.335-2.379C54.314,49.698,55.022,51.013,55.037,52.077z M63.49,56.097v-4.905
		c0-1.729-1.256-2.409-2.764-2.409c-1.168,0-2.083,0.384-2.851,1.182l0.517,0.768c0.635-0.679,1.33-0.989,2.188-0.989
		c1.033,0,1.802,0.545,1.802,1.508v1.285c-0.576-0.665-1.39-0.976-2.364-0.976c-1.212,0-2.498,0.754-2.498,2.349
		c0,1.552,1.286,2.364,2.498,2.364c0.96,0,1.774-0.339,2.364-0.989v0.813L63.49,56.097z M60.418,55.477
		c-1.034,0-1.759-0.651-1.759-1.552c0-0.917,0.725-1.566,1.759-1.566c0.782,0,1.535,0.295,1.964,0.887v1.345
		C61.954,55.18,61.2,55.477,60.418,55.477L60.418,55.477z M68.849,56.274c1.3,0,2.067-0.532,2.615-1.241l-0.739-0.68
		c-0.473,0.635-1.079,0.93-1.811,0.93c-1.522,0-2.467-1.182-2.467-2.763c0-1.579,0.944-2.747,2.467-2.747
		c0.739,0,1.346,0.28,1.811,0.93l0.739-0.679c-0.547-0.709-1.315-1.241-2.615-1.241c-2.128,0-3.562,1.626-3.562,3.738
		c0,2.128,1.434,3.746,3.562,3.746V56.274z M74.818,56.274c0.649,0,1.049-0.192,1.33-0.458l-0.324-0.828
		c-0.148,0.162-0.439,0.295-0.754,0.295c-0.487,0-0.725-0.383-0.725-0.916v-4.433h1.449V48.96h-1.449v-1.95h-1.109v1.95h-1.181
		v0.976h1.181v4.669C73.236,55.67,73.769,56.275,74.818,56.274L74.818,56.274z"/>
</g>
</svg>
