<?xml version="1.0" encoding="utf-8"?>
<!-- Generator: Adobe Illustrator 16.0.0, SVG Export Plug-In . SVG Version: 6.00 Build 0)  -->
<!DOCTYPE svg PUBLIC "-//W3C//DTD SVG 1.1//EN" "http://www.w3.org/Graphics/SVG/1.1/DTD/svg11.dtd">
<svg version="1.1" id="Layer_1" xmlns="http://www.w3.org/2000/svg" xmlns:xlink="http://www.w3.org/1999/xlink" x="0px" y="0px"
	 width="554.7px" height="469.295px" viewBox="28.651 147.353 554.7 469.295" enable-background="new 28.651 147.353 554.7 469.295"
	 xml:space="preserve">
<path fill="#D5FCC0" d="M28.812,335.878c-1.746,41.67,10.329,89.138,58.197,113.523c70.666,36,140,22.668,191.334,20
	c51.334-2.666,104,48.668,164.667,107.334s90,35.334,90,35.334c58-26,54-140.668,45.333-203.335
	c-8.667-62.667-34.75-153.083-54.75-180.583s-26.25-23.499-45.25-13.17s-53,14.42-71,13.42s-88.823-9.286-165-56
	c-71.75-44-117.479-22.949-152,9C43.343,224.901,29.645,316.031,28.812,335.878z"/>
</svg>
