<?xml version="1.0" encoding="utf-8"?>
<!-- Generator: Adobe Illustrator 16.0.0, SVG Export Plug-In . SVG Version: 6.00 Build 0)  -->
<!DOCTYPE svg PUBLIC "-//W3C//DTD SVG 1.1//EN" "http://www.w3.org/Graphics/SVG/1.1/DTD/svg11.dtd">
<svg version="1.1" id="Layer_1" xmlns="http://www.w3.org/2000/svg" xmlns:xlink="http://www.w3.org/1999/xlink" x="0px" y="0px"
	 width="50px" height="50px" viewBox="0 0 50 50" enable-background="new 0 0 50 50" xml:space="preserve">
<g>
	<path fill-rule="evenodd" clip-rule="evenodd" fill="#FFFFFF" d="M50,26.367c0,7.098,0,14.195,0,21.293
		c-0.204,0.638-0.453,1.267-1.03,1.646c-0.437,0.286-0.938,0.47-1.412,0.699c-15.85,0-31.7,0-47.558,0C0,33.347,0,16.689,0-0.004
		c11.647,0,23.303,0,34.958,0c0.392,0.279,0.496,0.657,0.495,1.133c-0.013,6.701-0.008,13.402-0.008,20.103c0,0.194,0,0.388,0,0.582
		c0.031-0.028,0.064-0.056,0.096-0.084c0.377,0.286,0.85,0.506,1.105,0.877c0.266,0.385,0.322,0.916,0.479,1.406
		c1.225,0,2.506,0,3.811,0c0.012-0.164,0.021-0.307,0.031-0.45c0.072-1.036,0.724-1.679,1.754-1.715
		c0.391-0.013,0.782-0.015,1.171,0.011c0.874,0.057,1.54,0.732,1.606,1.608c0.012,0.173,0.001,0.348,0.001,0.569
		c0.374,0,0.696,0,1.017,0C48.474,24.036,49.285,24.579,50,26.367z M20.051,48.426c-0.059-0.53-0.162-1.025-0.164-1.521
		c-0.01-6.592,0.021-13.185-0.023-19.776c-0.014-1.902,1.419-3.109,3.094-3.092c0.318,0.002,0.637,0,0.957,0
		c0.008-0.172,0.013-0.27,0.016-0.367c0.037-1.109,0.705-1.789,1.805-1.823c0.325-0.011,0.651-0.011,0.977,0.001
		c1.027,0.039,1.688,0.682,1.766,1.713c0.012,0.143,0.02,0.285,0.029,0.446c1.316,0,2.609,0,3.935,0
		c-0.056-1.093,0.368-1.854,1.403-2.153c0-6.784,0-13.529,0-20.267c-10.775,0-21.512,0-32.259,0c0,15.626,0,31.225,0,46.84
		C7.766,48.426,13.915,48.426,20.051,48.426z M48.437,31.274c-9.023,0-17.983,0-26.972,0c-0.01,0.183-0.023,0.341-0.023,0.499
		c-0.001,5.046-0.002,10.09,0,15.135c0,1.015,0.508,1.531,1.525,1.531c7.975,0.004,15.949,0.004,23.923,0.001
		c1.054-0.001,1.547-0.507,1.547-1.559c0.001-5.028,0-10.057,0-15.085C48.437,31.636,48.437,31.476,48.437,31.274z M21.475,29.651
		c8.994,0,17.963,0,26.962,0c0-0.895,0.002-1.754-0.001-2.614c-0.002-0.799-0.404-1.315-1.188-1.402
		c-0.559-0.061-1.128-0.012-1.771-0.012c0,0.46,0.094,0.922-0.026,1.32c-0.122,0.408-0.381,0.853-0.713,1.101
		c-0.321,0.239-0.809,0.309-1.23,0.343c-0.66,0.053-1.334,0.074-1.909-0.39c-0.776-0.626-0.606-1.516-0.649-2.367
		c-1.33,0-2.621,0-3.984,0c0,0.45,0.081,0.891-0.021,1.283c-0.102,0.387-0.318,0.812-0.616,1.058c-0.3,0.247-0.757,0.381-1.157,0.41
		c-0.703,0.052-1.434,0.125-2.061-0.366c-0.798-0.625-0.641-1.53-0.688-2.376c-1.33,0-2.618,0-3.846,0
		c-0.104,0.637-0.117,1.255-0.32,1.803c-0.23,0.624-0.81,0.931-1.475,0.946c-0.722,0.017-1.467,0.138-2.125-0.328
		c-0.871-0.616-0.695-1.564-0.75-2.446c-0.438,0-0.828-0.029-1.213,0.007c-0.639,0.061-1.178,0.446-1.203,0.96
		C21.439,27.596,21.475,28.617,21.475,29.651z M25.492,25.073c0,0.276-0.004,0.553,0,0.828c0.016,1.028-0.178,0.923,0.982,0.942
		c0.346,0.005,0.457-0.13,0.449-0.461c-0.016-0.666,0.006-1.332-0.006-1.998c-0.021-1.093,0.246-0.987-1.083-0.964
		c-0.116,0.003-0.315,0.211-0.327,0.338C25.467,24.193,25.492,24.634,25.492,25.073z M34.004,25.102c0,0.26-0.004,0.52,0,0.779
		c0.014,1.059-0.174,0.946,1.014,0.961c0.323,0.004,0.427-0.13,0.42-0.438c-0.014-0.666-0.004-1.332-0.004-1.998
		c0-1.081,0-1.072-1.063-1.005c-0.272,0.017-0.375,0.12-0.369,0.386C34.012,24.224,34.004,24.663,34.004,25.102z M43.941,25.135
		c0-0.26,0.006-0.521,0-0.78c-0.023-1.049,0.207-0.928-0.959-0.957c-0.379-0.009-0.474,0.142-0.465,0.486
		c0.02,0.666,0,1.332,0.008,1.998c0.012,1.073-0.173,0.941,1.01,0.96c0.327,0.006,0.424-0.134,0.411-0.44
		C43.928,25.979,43.941,25.557,43.941,25.135z"/>
	<path fill-rule="evenodd" clip-rule="evenodd" fill="#33B88B" d="M6.357,6.348c0,2.309,0,4.537,0,6.799c2.493,0,4.972,0,7.476,0
		c0-0.746,0-1.482,0-2.315c-0.452,0.409-0.844,0.765-1.236,1.119c-0.562,0.507-0.897,0.505-1.425-0.016
		c-0.509-0.503-1.018-1.007-1.519-1.519c-0.4-0.408-0.429-0.873-0.091-1.203c0.349-0.34,0.774-0.308,1.198,0.115
		c0.369,0.367,0.718,0.752,1.111,1.165c0.73-0.66,1.415-1.277,2.098-1.896c0.531-0.481,1.056-0.968,1.589-1.445
		c0.442-0.395,0.877-0.411,1.207-0.058c0.328,0.351,0.276,0.798-0.14,1.201c-0.012,0.011-0.022,0.024-0.036,0.032
		c-1.052,0.622-1.305,1.557-1.188,2.722c0.092,0.902,0.023,1.821,0.018,2.732c-0.004,0.671-0.283,0.959-0.946,0.96
		c-2.914,0.004-5.827,0.004-8.741,0c-0.665-0.001-0.949-0.289-0.95-0.958c-0.004-2.686-0.004-5.372,0-8.058
		c0.001-0.657,0.295-0.94,0.967-0.94c2.897-0.004,5.795-0.003,8.692,0c0.612,0,0.976,0.299,0.975,0.783
		c-0.001,0.487-0.358,0.777-0.976,0.778C11.935,6.35,9.428,6.348,6.921,6.348C6.746,6.348,6.571,6.348,6.357,6.348z"/>
	<path fill-rule="evenodd" clip-rule="evenodd" fill="#33B88B" d="M6.384,28.402c2.489,0,4.944,0,7.437,0c0-0.748,0-1.487,0-2.326
		c-0.424,0.385-0.813,0.736-1.2,1.088c-0.604,0.548-0.913,0.54-1.494-0.038c-0.496-0.494-0.995-0.984-1.483-1.485
		c-0.396-0.406-0.417-0.876-0.072-1.202c0.34-0.32,0.764-0.295,1.163,0.1c0.381,0.375,0.742,0.771,1.14,1.188
		c0.794-0.718,1.539-1.392,2.283-2.065c0.482-0.438,0.957-0.883,1.446-1.313c0.411-0.361,0.854-0.355,1.169-0.009
		c0.313,0.345,0.268,0.78-0.121,1.165c-0.023,0.023-0.045,0.049-0.072,0.065c-1.029,0.614-1.296,1.525-1.178,2.678
		c0.094,0.918,0.023,1.854,0.018,2.781c-0.005,0.663-0.29,0.946-0.959,0.947c-2.913,0.004-5.826,0.004-8.739-0.001
		c-0.639-0.001-0.936-0.29-0.938-0.92c-0.005-2.702-0.005-5.403,0-8.105c0.001-0.633,0.295-0.925,0.931-0.926
		c2.929-0.004,5.859-0.004,8.788,0c0.565,0.001,0.923,0.323,0.914,0.793c-0.009,0.471-0.359,0.766-0.939,0.766
		c-2.49,0.004-4.98,0.002-7.47,0.002c-0.195,0-0.39,0-0.625,0C6.384,23.854,6.384,26.104,6.384,28.402z"/>
	<path fill-rule="evenodd" clip-rule="evenodd" fill="#33B88B" d="M13.837,43.621c0-0.752,0-1.479,0-2.323
		c-0.427,0.387-0.803,0.727-1.178,1.066c-0.655,0.594-0.938,0.588-1.565-0.037c-0.496-0.494-0.996-0.983-1.482-1.486
		c-0.369-0.381-0.376-0.848-0.041-1.165c0.328-0.312,0.755-0.301,1.127,0.064c0.394,0.386,0.761,0.798,1.169,1.229
		c1.152-1.043,2.246-2.034,3.34-3.024c0.157-0.143,0.305-0.294,0.472-0.424c0.379-0.295,0.802-0.269,1.095,0.055
		c0.291,0.321,0.283,0.756-0.055,1.095c-0.332,0.333-0.712,0.622-1.033,0.966c-0.137,0.146-0.25,0.38-0.253,0.576
		c-0.021,1.334-0.009,2.669-0.013,4.004c-0.002,0.726-0.275,0.997-1.008,0.997c-2.881,0.003-5.761,0.003-8.642,0
		c-0.701-0.001-0.986-0.279-0.987-0.971c-0.003-2.669-0.003-5.338,0-8.007c0.001-0.697,0.281-0.975,0.979-0.976
		c2.897-0.003,5.794-0.003,8.691,0c0.607,0.001,0.972,0.308,0.964,0.792c-0.009,0.483-0.365,0.768-0.986,0.769
		c-2.668,0.002-5.337,0.001-8.046,0.001c0,2.269,0,4.518,0,6.799C8.848,43.621,11.314,43.621,13.837,43.621z"/>
	<path fill-rule="evenodd" clip-rule="evenodd" fill="#FFFFFF" d="M25.736,6.348c-1.625,0-3.252,0.001-4.877-0.001
		c-0.629-0.001-0.967-0.276-0.97-0.773c-0.003-0.495,0.343-0.787,0.958-0.788c3.252-0.002,6.504-0.002,9.756,0
		c0.618,0,0.969,0.287,0.973,0.776c0.002,0.494-0.345,0.783-0.961,0.784C28.988,6.35,27.363,6.348,25.736,6.348z"/>
	<path fill-rule="evenodd" clip-rule="evenodd" fill="#FFFFFF" d="M25.729,10.544c-1.626,0-3.252,0.002-4.878-0.001
		c-0.619-0.001-0.963-0.286-0.963-0.781c0.002-0.495,0.344-0.779,0.967-0.779c3.252-0.002,6.503-0.002,9.756,0
		c0.615,0,0.965,0.291,0.964,0.782c-0.001,0.491-0.351,0.777-0.968,0.778C28.981,10.546,27.355,10.544,25.729,10.544z"/>
	<path fill-rule="evenodd" clip-rule="evenodd" fill="#33B88B" d="M24.695,36.413c0-0.635-0.008-1.27,0.002-1.904
		c0.008-0.561,0.277-0.856,0.834-0.863c1.301-0.016,2.604-0.016,3.905,0.001c0.525,0.007,0.817,0.31,0.823,0.832
		c0.012,1.302,0.013,2.604-0.002,3.905c-0.006,0.502-0.288,0.801-0.791,0.808c-1.334,0.02-2.668,0.02-4.002-0.001
		c-0.498-0.008-0.758-0.314-0.767-0.825C24.687,37.715,24.695,37.063,24.695,36.413z M28.668,37.616c0-0.812,0-1.597,0-2.398
		c-0.809,0-1.583,0-2.379,0c0,0.813,0,1.6,0,2.398C27.098,37.616,27.871,37.616,28.668,37.616z"/>
	<path fill-rule="evenodd" clip-rule="evenodd" fill="#33B88B" d="M42.412,33.639c0.617,0,1.236-0.009,1.854,0.003
		c0.641,0.012,0.92,0.291,0.926,0.936c0.01,1.236,0.01,2.474,0,3.71c-0.006,0.618-0.284,0.905-0.896,0.912
		c-1.27,0.014-2.539,0.015-3.808-0.001c-0.593-0.007-0.856-0.287-0.86-0.883c-0.009-1.253-0.008-2.506-0.001-3.759
		c0.004-0.642,0.274-0.905,0.931-0.916C41.175,33.631,41.793,33.639,42.412,33.639z M41.219,35.219c0,0.811,0,1.595,0,2.377
		c0.816,0,1.598,0,2.377,0c0-0.817,0-1.587,0-2.377C42.789,35.219,42.018,35.219,41.219,35.219z"/>
	<path fill-rule="evenodd" clip-rule="evenodd" fill="#33B88B" d="M32.09,36.416c0-0.618-0.008-1.236,0.002-1.854
		c0.01-0.633,0.266-0.912,0.879-0.918c1.27-0.014,2.538-0.014,3.807,0c0.584,0.006,0.868,0.292,0.875,0.881
		c0.014,1.269,0.016,2.538-0.001,3.807c-0.007,0.586-0.292,0.862-0.886,0.868c-1.269,0.014-2.537,0.015-3.806-0.001
		c-0.593-0.007-0.854-0.285-0.866-0.88C32.081,37.685,32.091,37.05,32.09,36.416z M36.095,37.61c0-0.741,0.008-1.45-0.01-2.159
		c-0.002-0.087-0.135-0.242-0.21-0.244c-0.725-0.019-1.449-0.012-2.184-0.012c0,0.843,0,1.626,0,2.415
		C34.501,37.61,35.271,37.61,36.095,37.61z"/>
	<path fill-rule="evenodd" clip-rule="evenodd" fill="#33B88B" d="M39.625,43.284c0-0.651-0.01-1.303,0.002-1.953
		c0.01-0.539,0.268-0.835,0.801-0.843c1.318-0.021,2.637-0.021,3.953,0c0.523,0.009,0.801,0.313,0.808,0.85
		c0.015,1.286,0.016,2.571-0.001,3.856c-0.007,0.554-0.301,0.837-0.861,0.843c-1.285,0.013-2.571,0.013-3.856-0.001
		c-0.564-0.006-0.832-0.286-0.843-0.849C39.615,44.553,39.625,43.918,39.625,43.284z M41.207,42.072c0,0.805,0,1.58,0,2.386
		c0.808,0,1.594,0,2.402,0c0-0.807,0-1.579,0-2.386C42.801,42.072,42.016,42.072,41.207,42.072z"/>
	<path fill-rule="evenodd" clip-rule="evenodd" fill="#33B88B" d="M27.486,46.041c-0.635,0.001-1.27,0.011-1.904-0.002
		c-0.615-0.013-0.883-0.289-0.885-0.91c-0.006-1.253-0.008-2.507,0-3.759c0.004-0.586,0.273-0.879,0.863-0.888
		c1.27-0.017,2.539-0.017,3.808-0.001c0.614,0.008,0.89,0.303,0.894,0.915c0.008,1.254,0.009,2.507-0.001,3.76
		c-0.005,0.583-0.288,0.868-0.871,0.882C28.756,46.053,28.121,46.041,27.486,46.041z M26.288,42.068c0,0.812,0,1.594,0,2.387
		c0.816,0,1.601,0,2.393,0c0-0.811,0-1.583,0-2.387C27.873,42.068,27.088,42.068,26.288,42.068z"/>
	<path fill-rule="evenodd" clip-rule="evenodd" fill="#33B88B" d="M32.09,43.225c0.001-0.618-0.008-1.236,0.004-1.854
		c0.012-0.597,0.27-0.879,0.861-0.887c1.269-0.018,2.537-0.017,3.807-0.002c0.594,0.007,0.883,0.286,0.89,0.868
		c0.017,1.269,0.015,2.537,0.001,3.806c-0.007,0.597-0.285,0.876-0.87,0.882c-1.269,0.013-2.538,0.013-3.806,0.001
		c-0.614-0.006-0.874-0.282-0.885-0.91C32.082,44.493,32.09,43.858,32.09,43.225z M36.068,42.068c-0.822,0-1.594,0-2.377,0
		c0,0.813,0,1.597,0,2.391c0.809,0,1.578,0,2.377,0C36.068,43.656,36.068,42.887,36.068,42.068z"/>
</g>
</svg>
