<?xml version="1.0" encoding="utf-8"?>
<!-- Generator: Adobe Illustrator 16.0.0, SVG Export Plug-In . SVG Version: 6.00 Build 0)  -->
<!DOCTYPE svg PUBLIC "-//W3C//DTD SVG 1.1//EN" "http://www.w3.org/Graphics/SVG/1.1/DTD/svg11.dtd">
<svg version="1.1" id="Layer_1" xmlns="http://www.w3.org/2000/svg" xmlns:xlink="http://www.w3.org/1999/xlink" x="0px" y="0px"
	 width="50px" height="50px" viewBox="0 0 50 50" enable-background="new 0 0 50 50" xml:space="preserve">
<g>
	<path fill-rule="evenodd" clip-rule="evenodd" fill="#FFFFFF" d="M8.335,5.111c0-0.639-0.012-1.194,0.002-1.749
		c0.046-1.813,1.524-3.25,3.329-3.25c1.806,0,3.28,1.436,3.328,3.251c0.015,0.554,0.002,1.11,0.002,1.706c2.213,0,4.406,0,6.669,0
		c0-0.485-0.002-0.982,0-1.478c0.01-1.981,1.429-3.47,3.312-3.479c1.91-0.009,3.343,1.482,3.353,3.491c0.003,0.483,0,0.965,0,1.478
		c2.222,0,4.402,0,6.67,0c0-0.565-0.014-1.147,0.002-1.728c0.066-2.381,2.535-3.931,4.697-2.937
		c1.229,0.565,1.873,1.563,1.955,2.906c0.034,0.569,0.006,1.142,0.006,1.789c0.229,0,0.429-0.003,0.629,0
		c1.438,0.027,2.893-0.07,4.312,0.112c1.959,0.251,3.381,1.985,3.386,3.965c0.019,7.204,0.01,14.408,0.008,21.613
		c0,0.604-0.344,0.98-0.848,0.971c-0.502-0.011-0.814-0.385-0.815-1.003c-0.003-4.444-0.001-8.888-0.001-13.332
		c0-0.203,0-0.407,0-0.635c-15.563,0-31.076,0-46.665,0c0,0.182,0,0.365,0,0.547c0,8.315,0,16.63,0,24.946
		c0,1.802,1.003,2.813,2.793,2.813c7.534,0.001,15.068,0,22.602,0.001c0.174,0,0.351-0.017,0.521,0.011
		c0.451,0.072,0.713,0.344,0.74,0.804c0.026,0.43-0.303,0.788-0.756,0.843c-0.137,0.018-0.277,0.009-0.416,0.009
		c-7.587,0-15.173,0.002-22.759-0.001c-2.613,0-4.391-1.77-4.392-4.371c-0.002-10.971-0.002-21.942,0-32.914
		c0-2.606,1.775-4.373,4.385-4.378C5.683,5.109,6.981,5.111,8.335,5.111z M14.999,6.79c0,0.531,0.002,1.013,0,1.496
		c-0.01,2.008-1.445,3.5-3.354,3.49c-1.882-0.01-3.301-1.501-3.311-3.481c-0.002-0.496,0-0.992,0-1.517
		c-1.389,0-2.706-0.004-4.023,0.001C2.722,6.785,1.673,7.835,1.668,9.428c-0.006,1.736-0.002,3.472,0,5.208
		c0,0.149,0.019,0.299,0.028,0.432c15.568,0,31.093,0,46.631,0c0-1.986,0.02-3.931-0.006-5.875
		c-0.016-1.213-0.934-2.295-2.143-2.371C44.696,6.729,43.204,6.8,41.664,6.8c0,0.542,0.005,1.058-0.001,1.574
		c-0.02,1.928-1.47,3.405-3.338,3.402c-1.865-0.002-3.31-1.483-3.326-3.414c-0.005-0.515-0.001-1.03-0.001-1.548
		c-2.253,0-4.446,0-6.669,0c0,0.59,0.013,1.144-0.002,1.697c-0.027,0.969-0.393,1.799-1.131,2.426c-1.062,0.9-2.27,1.109-3.545,0.54
		c-1.272-0.569-1.924-1.601-1.981-2.993c-0.023-0.563-0.004-1.128-0.004-1.695C19.413,6.79,17.245,6.79,14.999,6.79z M10,5.892
		c0,0.815-0.005,1.631,0.001,2.447c0.008,1.019,0.708,1.764,1.652,1.77c0.947,0.006,1.671-0.735,1.677-1.745
		c0.009-1.614,0.009-3.228,0-4.842c-0.006-1.009-0.732-1.75-1.679-1.743c-0.948,0.008-1.641,0.747-1.65,1.77
		C9.994,4.33,10,5.111,10,5.892z M23.332,5.899c0,0.815-0.006,1.631,0.001,2.447c0.009,1.016,0.715,1.76,1.659,1.763
		c0.946,0.003,1.665-0.739,1.67-1.752c0.008-1.614,0.009-3.228-0.001-4.841c-0.006-1.007-0.738-1.748-1.686-1.736
		c-0.928,0.011-1.63,0.74-1.642,1.725C23.324,4.302,23.332,5.101,23.332,5.899z M36.665,5.91c0,0.798,0,1.596,0,2.395
		c0,0.035,0,0.069,0,0.104c0.025,0.971,0.746,1.704,1.672,1.7c0.926-0.003,1.65-0.734,1.657-1.711
		c0.012-1.631,0.011-3.263,0.001-4.894c-0.007-0.981-0.721-1.715-1.645-1.725c-0.951-0.01-1.672,0.726-1.684,1.736
		C36.657,4.313,36.665,5.112,36.665,5.91z"/>
	<path fill-rule="evenodd" clip-rule="evenodd" fill="#33B88B" d="M39.21,50.104c-6.063,0.002-10.889-4.852-10.877-10.939
		c0.012-5.902,4.918-10.733,10.89-10.721c5.905,0.012,10.767,4.878,10.774,10.785C50.005,45.218,45.158,50.104,39.21,50.104z
		 M48.33,39.289c-0.009-5.054-4.105-9.18-9.112-9.178c-5.137,0.003-9.227,4.097-9.218,9.228c0.009,5.01,4.138,9.1,9.188,9.103
		C44.202,48.444,48.338,44.304,48.33,39.289z"/>
	<path fill-rule="evenodd" clip-rule="evenodd" fill="#33B88B" d="M9.983,26.776c-0.538,0-1.076,0.008-1.614-0.002
		c-0.977-0.02-1.681-0.705-1.699-1.67c-0.016-0.832-0.017-1.666,0-2.498c0.019-0.946,0.709-1.643,1.652-1.658
		c1.111-0.018,2.222-0.016,3.332,0c0.967,0.013,1.658,0.717,1.675,1.691c0.014,0.815,0.014,1.631,0,2.447
		c-0.017,0.976-0.708,1.665-1.68,1.688C11.094,26.786,10.538,26.776,9.983,26.776z M11.629,25.087c0-0.844,0-1.646,0-2.436
		c-1.117,0-2.197,0-3.27,0c0,0.832,0,1.622,0,2.436C9.455,25.087,10.522,25.087,11.629,25.087z"/>
	<path fill-rule="evenodd" clip-rule="evenodd" fill="#33B88B" d="M20.05,20.945c0.538-0.001,1.076-0.012,1.614,0.002
		c0.941,0.023,1.642,0.711,1.663,1.651c0.019,0.85,0.021,1.7-0.001,2.55c-0.024,0.912-0.72,1.606-1.635,1.623
		c-1.127,0.02-2.256,0.02-3.383,0c-0.913-0.017-1.613-0.716-1.635-1.623c-0.021-0.867-0.024-1.736,0.001-2.603
		c0.026-0.888,0.716-1.564,1.607-1.595C18.87,20.929,19.46,20.945,20.05,20.945z M18.371,22.631c0,0.85,0,1.653,0,2.454
		c1.106,0,2.174,0,3.265,0c0-0.827,0-1.63,0-2.454C20.539,22.631,19.471,22.631,18.371,22.631z"/>
	<path fill-rule="evenodd" clip-rule="evenodd" fill="#33B88B" d="M30.046,20.944c0.537,0,1.076-0.01,1.613,0.002
		c0.943,0.023,1.646,0.709,1.667,1.647c0.019,0.85,0.021,1.701-0.001,2.55c-0.023,0.914-0.718,1.609-1.632,1.627
		c-1.128,0.021-2.256,0.02-3.384,0c-0.934-0.017-1.624-0.729-1.641-1.672c-0.015-0.832-0.017-1.666,0.001-2.499
		c0.02-0.943,0.713-1.629,1.657-1.653C28.899,20.932,29.474,20.944,30.046,20.944z M31.638,25.087c0-0.85,0-1.64,0-2.445
		c-1.107,0-2.188,0-3.27,0c0,0.835,0,1.639,0,2.445C29.473,25.087,30.54,25.087,31.638,25.087z"/>
	<path fill-rule="evenodd" clip-rule="evenodd" fill="#33B88B" d="M39.98,26.776c-0.538,0-1.076,0.009-1.614-0.002
		c-0.976-0.02-1.68-0.705-1.697-1.67c-0.016-0.833-0.017-1.667,0-2.499c0.02-0.945,0.709-1.642,1.652-1.657
		c1.111-0.018,2.222-0.016,3.332,0c0.967,0.013,1.658,0.717,1.674,1.692c0.014,0.816,0.015,1.631,0,2.447
		c-0.018,0.975-0.708,1.664-1.681,1.687C41.091,26.786,40.536,26.776,39.98,26.776z M38.351,25.068c1.137,0,2.217,0,3.285,0
		c0-0.833,0-1.623,0-2.426c-1.108,0-2.188,0-3.285,0C38.351,23.466,38.351,24.257,38.351,25.068z"/>
	<path fill-rule="evenodd" clip-rule="evenodd" fill="#33B88B" d="M10.049,28.444c0.538,0,1.076-0.012,1.614,0.002
		c0.942,0.023,1.644,0.711,1.664,1.649c0.019,0.851,0.021,1.701-0.001,2.551c-0.024,0.912-0.72,1.606-1.634,1.624
		c-1.127,0.02-2.256,0.02-3.384,0c-0.913-0.017-1.613-0.715-1.636-1.623c-0.021-0.85-0.019-1.7-0.001-2.551
		c0.02-0.942,0.714-1.627,1.661-1.65C8.904,28.433,9.477,28.444,10.049,28.444z M11.636,32.585c0-0.828,0-1.631,0-2.441
		c-1.11,0-2.19,0-3.265,0c0,0.838,0,1.641,0,2.441C9.479,32.585,10.546,32.585,11.636,32.585z"/>
	<path fill-rule="evenodd" clip-rule="evenodd" fill="#33B88B" d="M19.985,28.444c0.555,0,1.111-0.011,1.666,0.002
		c0.967,0.021,1.66,0.717,1.677,1.689c0.014,0.816,0.014,1.632,0,2.447c-0.017,0.976-0.707,1.675-1.677,1.689
		c-1.11,0.016-2.222,0.018-3.332-0.002c-0.938-0.016-1.632-0.723-1.649-1.663c-0.016-0.833-0.016-1.666,0-2.499
		c0.019-0.946,0.707-1.636,1.649-1.662C18.875,28.431,19.43,28.444,19.985,28.444z M21.637,32.587c0-0.852,0-1.643,0-2.445
		c-1.109,0-2.189,0-3.268,0c0,0.837,0,1.64,0,2.445C19.475,32.587,20.543,32.587,21.637,32.587z"/>
	<path fill-rule="evenodd" clip-rule="evenodd" fill="#33B88B" d="M9.99,41.775c-0.555-0.001-1.111,0.013-1.666-0.003
		c-0.94-0.026-1.635-0.721-1.654-1.66c-0.017-0.834-0.016-1.667,0-2.5c0.019-0.969,0.716-1.654,1.697-1.666
		c1.093-0.014,2.187-0.014,3.28,0c0.968,0.014,1.665,0.714,1.682,1.686c0.015,0.814,0.014,1.631,0,2.445
		c-0.017,1-0.714,1.68-1.725,1.697C11.066,41.782,10.528,41.775,9.99,41.775z M8.343,40.077c1.127,0,2.207,0,3.286,0
		c0-0.837,0-1.64,0-2.426c-1.119,0-2.199,0-3.286,0C8.343,38.472,8.343,39.249,8.343,40.077z"/>
	<path fill-rule="evenodd" clip-rule="evenodd" fill="#33B88B" d="M20.013,41.775c-0.555-0.001-1.111,0.011-1.666-0.003
		c-0.968-0.022-1.662-0.719-1.678-1.689c-0.013-0.816-0.013-1.632,0-2.447c0.016-0.977,0.704-1.676,1.675-1.689
		c1.11-0.015,2.221-0.017,3.332,0.002c0.938,0.015,1.633,0.717,1.652,1.66c0.017,0.832,0.017,1.666,0,2.498
		c-0.02,0.967-0.723,1.647-1.7,1.667C21.089,41.784,20.551,41.775,20.013,41.775z M18.364,37.619c0,0.847,0,1.649,0,2.454
		c1.112,0,2.192,0,3.261,0c0-0.84,0-1.643,0-2.454C20.528,37.619,19.473,37.619,18.364,37.619z"/>
	<path fill-rule="evenodd" clip-rule="evenodd" fill="#33B88B" d="M28.351,30.108c0,0.858,0,1.652,0,2.457
		c0.096,0.037,0.193,0.069,0.285,0.111c0.418,0.195,0.61,0.529,0.492,0.973c-0.117,0.439-0.447,0.642-0.904,0.622
		c-0.801-0.034-1.518-0.722-1.547-1.552c-0.033-0.9-0.031-1.805-0.002-2.707c0.027-0.84,0.697-1.531,1.533-1.557
		c1.145-0.035,2.291-0.021,3.437-0.006c0.499,0.006,0.838,0.354,0.849,0.807c0.012,0.471-0.338,0.84-0.862,0.847
		C30.557,30.119,29.481,30.108,28.351,30.108z"/>
	<path fill-rule="evenodd" clip-rule="evenodd" fill="#33B88B" d="M37.521,42.29c0.586-0.604,1.123-1.168,1.672-1.719
		c1.529-1.537,3.057-3.076,4.607-4.592c0.215-0.209,0.557-0.398,0.844-0.402c0.575-0.011,0.92,0.673,0.643,1.184
		c-0.089,0.164-0.23,0.303-0.364,0.437c-2.193,2.198-4.39,4.394-6.585,6.588c-0.662,0.661-1.01,0.665-1.658,0.017
		c-1.068-1.066-2.138-2.131-3.199-3.203c-0.422-0.426-0.451-0.877-0.111-1.243c0.355-0.382,0.843-0.372,1.28,0.061
		C35.586,40.341,36.512,41.279,37.521,42.29z"/>
</g>
</svg>
