<?xml version="1.0" encoding="utf-8"?>
<!-- Generator: Adobe Illustrator 16.0.0, SVG Export Plug-In . SVG Version: 6.00 Build 0)  -->
<!DOCTYPE svg PUBLIC "-//W3C//DTD SVG 1.0//EN" "http://www.w3.org/TR/2001/REC-SVG-20010904/DTD/svg10.dtd">
<svg version="1.0" id="Layer_1" xmlns="http://www.w3.org/2000/svg" xmlns:xlink="http://www.w3.org/1999/xlink" x="0px" y="0px"
	 width="76.875px" height="70px" viewBox="21 -5 76.875 70" enable-background="new 21 -5 76.875 70" xml:space="preserve">
<g>
	<path fill="#00749A" d="M55.604,48.266h-3.895v0.402c1.218,0,1.421,0.254,1.421,1.786v2.76c0,1.543-0.203,1.825-1.421,1.825
		c-0.933-0.122-1.581-0.648-2.433-1.582l-1.016-1.096c1.339-0.253,2.07-1.096,2.07-2.028c0-1.177-1.014-2.109-2.922-2.109h-3.813
		v0.405c1.217,0,1.419,0.252,1.419,1.782v2.762c0,1.542-0.202,1.825-1.419,1.825v0.405h4.301v-0.405c-1.217,0-1.42-0.284-1.42-1.825
		v-0.771h0.365l2.394,3.001h6.328c3.126,0,4.464-1.665,4.464-3.611c0.039-1.906-1.299-3.529-4.423-3.529L55.604,48.266z
		 M46.518,51.793v-2.871h0.894c0.973,0,1.419,0.688,1.419,1.461c0,0.771-0.446,1.42-1.419,1.42L46.518,51.793z M55.686,54.795
		h-0.163c-0.77,0-0.894-0.203-0.894-1.178v-4.703h1.055c2.271,0,2.677,1.663,2.677,2.921c0,1.339-0.446,2.961-2.677,2.961
		L55.686,54.795z M31.506,52.613l1.5-4.422c0.447-1.298,0.254-1.663-1.136-1.663v-0.446h4.098v0.446
		c-1.379,0-1.703,0.325-2.231,1.907l-2.476,7.415h-0.325l-2.231-6.775l-2.231,6.775h-0.284l-2.394-7.424
		c-0.528-1.582-0.843-1.906-2.11-1.906v-0.446h4.788v0.446c-1.299,0-1.623,0.284-1.178,1.663l1.461,4.421l2.192-6.531h0.404
		L31.506,52.613z M38.889,55.779c-2.395,0-4.342-1.744-4.342-3.894c0-2.111,1.939-3.895,4.342-3.895s4.341,1.744,4.341,3.895
		C43.229,54.035,41.291,55.779,38.889,55.779z M38.889,48.64c-1.988,0-2.677,1.786-2.677,3.204c0,1.42,0.688,3.205,2.677,3.205
		c2.028,0,2.718-1.785,2.718-3.205C41.606,50.465,40.917,48.64,38.889,48.64z M65.421,55.048v0.448h-4.99v-0.448
		c1.463,0,1.705-0.364,1.705-2.555v-3.49c0-2.192-0.254-2.517-1.705-2.517v-0.445h4.502c2.232,0,3.492,1.136,3.492,2.677
		c0,1.5-1.258,2.677-3.492,2.677h-1.215v1.138c0,2.147,0.252,2.514,1.701,2.514L65.421,55.048z M64.933,46.854h-1.215v3.772h1.215
		c1.219,0,1.787-0.843,1.787-1.864C66.72,47.735,66.151,46.854,64.933,46.854z M83.313,53.466l-0.121,0.404
		c-0.201,0.729-0.447,0.975-1.988,0.975h-0.285c-1.135,0-1.336-0.254-1.336-1.786v-1.014c1.701,0,1.824,0.161,1.824,1.297h0.404
		v-3.244h-0.404c0,1.135-0.121,1.297-1.824,1.297v-2.43h1.174c1.545,0,1.787,0.252,1.988,0.973l0.121,0.404h0.365l-0.162-2.027H76.7
		v0.405c1.217,0,1.422,0.251,1.422,1.784v2.759c0,1.42-0.166,1.785-1.139,1.827c-0.893-0.123-1.541-0.65-2.393-1.583l-1.016-1.096
		c1.338-0.254,2.07-1.096,2.07-2.028c0-1.176-1.014-2.109-2.92-2.109h-3.814v0.403c1.217,0,1.42,0.254,1.42,1.786v2.76
		c0,1.54-0.203,1.824-1.42,1.824v0.405h4.301v-0.405c-1.219,0-1.42-0.285-1.42-1.824v-0.771h0.365l2.393,3h8.926l0.123-2.027h-0.285
		V53.466z M71.833,51.803v-2.881h0.893c0.973,0,1.422,0.688,1.422,1.461c0,0.771-0.449,1.42-1.422,1.42H71.833z"/>
	<g>
		<path id="B" fill="#00749A" d="M87.735,55.779c-0.852,0-1.623-0.447-1.938-0.73c-0.123,0.121-0.285,0.447-0.365,0.73h-0.408
			v-3.001h0.449c0.162,1.42,1.176,2.271,2.434,2.271c0.689,0,1.258-0.404,1.258-1.053c0-0.569-0.488-1.014-1.379-1.42l-1.219-0.568
			c-0.852-0.404-1.5-1.136-1.5-2.069c0-1.055,0.973-1.939,2.313-1.939c0.732,0,1.34,0.246,1.703,0.569
			c0.121-0.081,0.203-0.323,0.285-0.569h0.404v2.559h-0.449c-0.16-1.016-0.727-1.867-1.863-1.867c-0.609,0-1.178,0.363-1.178,0.892
			c0,0.569,0.447,0.852,1.502,1.34l1.174,0.568c1.055,0.486,1.463,1.299,1.463,1.939c-0.041,1.378-1.217,2.351-2.678,2.351
			L87.735,55.779z"/>
	</g>
	<g>
		<path id="B_1_" fill="#00749A" d="M94.429,55.779c-0.85,0-1.621-0.447-1.938-0.73c-0.121,0.121-0.285,0.447-0.365,0.73h-0.404
			v-3.001h0.445c0.164,1.42,1.18,2.271,2.434,2.271c0.691,0,1.26-0.404,1.26-1.053c0-0.569-0.486-1.014-1.379-1.42l-1.219-0.568
			c-0.85-0.404-1.5-1.136-1.5-2.069c0-1.055,0.975-1.939,2.314-1.939c0.729,0,1.338,0.246,1.701,0.569
			c0.123-0.081,0.201-0.323,0.285-0.569h0.402v2.559h-0.445c-0.162-1.016-0.73-1.867-1.867-1.867c-0.607,0-1.176,0.363-1.176,0.892
			c0,0.569,0.447,0.852,1.502,1.34l1.174,0.568c1.055,0.486,1.463,1.299,1.463,1.939c-0.041,1.378-1.219,2.351-2.678,2.351
			L94.429,55.779z"/>
	</g>
</g>
<path fill="#00749A" d="M43.729,21.167c0,6.216,3.569,11.571,8.794,14.084L45.118,14.82c-0.86,1.983-1.39,4.1-1.39,6.348V21.167z
	 M69.98,20.371c0-1.917-0.729-3.306-1.325-4.298c-0.793-1.323-1.519-2.381-1.519-3.702c0-1.456,1.125-2.78,2.644-2.78h0.2
	c-2.78-2.574-6.482-4.096-10.57-4.096c-5.486,0.066-10.247,2.843-13.092,7.076h0.992c1.653,0,4.166-0.199,4.166-0.199
	c0.859-0.067,0.926,1.189,0.119,1.323c0,0-0.861,0.119-1.786,0.119l5.701,16.928l3.438-10.249l-2.446-6.679l-1.653-0.119
	c-0.86-0.066-0.729-1.322,0.066-1.322c0,0,2.579,0.198,4.1,0.198c1.653,0,4.164-0.198,4.164-0.198
	c0.862-0.066,0.927,1.19,0.12,1.322c0,0-0.859,0.119-1.785,0.119l5.701,16.862l1.586-5.225c0.661-2.183,1.188-3.703,1.188-5.091
	L69.98,20.371z M59.665,22.556l-4.694,13.621c1.388,0.397,2.909,0.661,4.428,0.661c1.854,0,3.57-0.33,5.227-0.859
	c-0.068-0.065-0.068-0.119-0.12-0.198L59.665,22.556z M73.154,13.697l0.118,1.586c0,1.587-0.265,3.373-1.188,5.621l-4.751,13.818
	c4.629-2.71,7.801-7.736,7.801-13.555c-0.067-2.711-0.792-5.225-1.983-7.472L73.154,13.697z M59.398,2.917
	c-10.05,0-18.248,8.199-18.248,18.249c0,10.049,8.198,18.251,18.248,18.251c10.051,0,18.251-8.2,18.251-18.25
	C77.649,11.117,69.449,2.917,59.398,2.917z M59.398,38.621c-9.587,0-17.388-7.802-17.388-17.455c0-9.6,7.801-17.39,17.388-17.39
	c9.59,0,17.39,7.803,17.39,17.39C76.788,30.819,68.988,38.621,59.398,38.621z"/>
</svg>
