<?xml version="1.0" encoding="utf-8"?>
<!-- Generator: Adobe Illustrator 16.0.0, SVG Export Plug-In . SVG Version: 6.00 Build 0)  -->
<!DOCTYPE svg PUBLIC "-//W3C//DTD SVG 1.0//EN" "http://www.w3.org/TR/2001/REC-SVG-20010904/DTD/svg10.dtd">
<svg version="1.0" id="Layer_1" xmlns="http://www.w3.org/2000/svg" xmlns:xlink="http://www.w3.org/1999/xlink" x="0px" y="0px"
	 width="75px" height="75px" viewBox="0 0 75 75" enable-background="new 0 0 75 75" xml:space="preserve">
<g>
	<path fill-rule="evenodd" clip-rule="evenodd" fill="#E5E7E4" d="M53.751,44.709c-0.516,0.067-0.816-0.049-1.122-0.502
		c-2.05-3.041-4.648-5.535-7.825-7.362c-1.775-1.02-3.676-1.825-5.502-2.718c0.062-0.041,0.215-0.145,0.373-0.243
		c6.682-4.141,9.642-10.142,8.813-17.938C47.767,9.166,42.485,3.148,35.694,1.217C34.59,0.903,33.445,0.736,32.319,0.5
		c-1.06,0-2.12,0-3.179,0c-0.442,0.088-0.885,0.174-1.327,0.265C20.68,2.224,15.791,6.356,13.73,13.335
		c-2.068,7.007-0.239,13.177,5.059,18.232c1.065,1.016,2.347,1.806,3.492,2.673c-1.114,0.475-2.337,0.902-3.474,1.498
		C10.172,40.259,5.344,47.372,4.577,57.103c-0.236,2.994-0.089,6.018-0.105,9.028c-0.01,1.718,0.477,2.202,2.174,2.202
		c12.018,0,24.035,0.004,36.053-0.01c0.525,0,0.867,0.135,1.211,0.566c1.98,2.48,4.517,4.16,7.574,5.021
		c0.873,0.245,1.771,0.396,2.66,0.59c0.963,0,1.926,0,2.891,0c0.136-0.04,0.27-0.102,0.409-0.119
		c7.255-0.948,12.505-6.492,13.069-13.81C71.237,51.192,63.098,43.482,53.751,44.709z M16.128,18.478
		c0.01-8.128,6.532-14.66,14.637-14.658c8.13,0.001,14.692,6.525,14.696,14.611c0.004,8.134-6.553,14.707-14.686,14.722
		C22.72,33.167,16.119,26.555,16.128,18.478z M41.915,53.798c-1.56,3.721-1.486,7.493-0.096,11.329c-11.426,0-22.77,0-34.193,0
		c0-0.407-0.009-0.785,0.001-1.162c0.077-2.789-0.123-5.62,0.288-8.358c1.327-8.829,6.301-14.991,14.659-17.99
		c7.344-2.635,14.59-1.954,21.329,2.262c2.289,1.431,4.8,3.884,6.018,5.824C46.173,47.383,43.481,50.057,41.915,53.798z
		 M55.698,71.38c-6.467,0.031-11.813-5.283-11.85-11.776c-0.037-6.577,5.098-11.806,11.627-11.842
		c6.523-0.034,11.893,5.27,11.93,11.786C67.442,65.997,62.146,71.351,55.698,71.38z"/>
	<path fill-rule="evenodd" clip-rule="evenodd" fill="#E5E7E4" d="M61.651,57.882c-1.436-0.011-2.872-0.003-4.361-0.003
		c0-1.51,0.023-2.927-0.008-4.344c-0.021-0.999-0.707-1.692-1.602-1.709c-0.92-0.017-1.619,0.703-1.655,1.729
		c-0.022,0.601-0.006,1.204-0.006,1.806c0,0.83,0,1.66,0,2.52c-1.563,0-3.007-0.018-4.449,0.004c-1.099,0.017-1.81,0.869-1.64,1.91
		c0.129,0.795,0.762,1.304,1.727,1.319c1.418,0.021,2.836,0.006,4.362,0.006c0,1.476-0.02,2.846,0.013,4.215
		c0.01,0.394,0.1,0.821,0.279,1.169c0.32,0.616,1.08,0.879,1.741,0.701c0.753-0.203,1.216-0.785,1.231-1.665
		c0.025-1.442,0.006-2.885,0.006-4.418c0.324,0,0.582,0,0.84,0c1.229-0.005,2.457,0.024,3.684-0.021
		c1.071-0.041,1.744-0.899,1.57-1.899C63.245,58.402,62.588,57.889,61.651,57.882z"/>
</g>
</svg>
