<?xml version="1.0" encoding="utf-8"?>
<!-- Generator: Adobe Illustrator 16.0.0, SVG Export Plug-In . SVG Version: 6.00 Build 0)  -->
<!DOCTYPE svg PUBLIC "-//W3C//DTD SVG 1.0//EN" "http://www.w3.org/TR/2001/REC-SVG-20010904/DTD/svg10.dtd">
<svg version="1.0" id="Layer_1" xmlns="http://www.w3.org/2000/svg" xmlns:xlink="http://www.w3.org/1999/xlink" x="0px" y="0px"
	 width="75px" height="75px" viewBox="0 0 75 75" enable-background="new 0 0 75 75" xml:space="preserve">
<g>
	<path fill-rule="evenodd" clip-rule="evenodd" fill="#CECFCD" d="M70.285,38.808c-0.451-0.89-0.451-1.727,0-2.616
		c0.848-1.672,1.669-3.36,2.475-5.054c1.677-3.526,0.527-7.048-2.904-8.91c-1.607-0.871-3.215-1.742-4.851-2.558
		c-0.998-0.497-1.516-1.239-1.681-2.337c-0.275-1.831-0.592-3.657-0.962-5.471c-0.799-3.94-3.887-6.021-7.864-5.381
		C52.693,6.772,50.88,7.008,49.07,7.27c-0.844,0.122-1.56-0.114-2.173-0.717c-1.116-1.096-2.279-2.148-3.368-3.272
		c-1.335-1.378-2.817-2.468-4.764-2.781c-0.481,0-0.964,0-1.445,0c-1.947,0.313-3.429,1.402-4.764,2.782
		c-1.038,1.072-2.163,2.059-3.208,3.125c-0.744,0.758-1.579,0.998-2.62,0.824c-1.803-0.301-3.614-0.558-5.428-0.783
		c-4.01-0.495-6.934,1.691-7.65,5.697c-0.318,1.776-0.627,3.552-0.914,5.333c-0.157,0.977-0.632,1.667-1.531,2.123
		c-1.673,0.847-3.327,1.734-4.976,2.629c-3.428,1.859-4.577,5.392-2.9,8.915c0.806,1.693,1.625,3.381,2.475,5.053
		c0.453,0.891,0.448,1.727-0.004,2.615c-0.838,1.65-1.645,3.317-2.446,4.987c-1.722,3.586-0.562,7.125,2.948,9.009
		c1.589,0.853,3.171,1.721,4.785,2.524c1,0.498,1.511,1.244,1.676,2.341c0.275,1.831,0.595,3.656,0.961,5.471
		c0.788,3.906,3.854,6,7.792,5.387c1.831-0.285,3.667-0.527,5.5-0.798c0.877-0.13,1.597,0.142,2.227,0.763
		c1.355,1.335,2.741,2.64,4.096,3.974c1.117,1.1,2.461,1.733,3.982,2.031c0.481,0,0.963,0,1.445,0
		c1.946-0.314,3.43-1.403,4.764-2.782c1.055-1.089,2.193-2.097,3.262-3.174c0.708-0.715,1.511-0.939,2.494-0.781
		c1.829,0.294,3.664,0.563,5.501,0.789c4.016,0.492,6.931-1.688,7.649-5.695c0.318-1.775,0.627-3.553,0.914-5.334
		c0.157-0.978,0.634-1.667,1.531-2.122c1.672-0.849,3.326-1.735,4.975-2.629c3.434-1.863,4.581-5.385,2.903-8.911
		C71.953,42.167,71.132,40.48,70.285,38.808z M67.798,49.03c-1.633,0.873-3.262,1.756-4.909,2.6
		c-2.156,1.104-3.374,2.847-3.75,5.231c-0.299,1.9-0.647,3.794-1.002,5.684c-0.222,1.174-1.087,1.857-2.368,1.832
		c-1.757-0.246-3.649-0.451-5.518-0.787c-2.602-0.468-4.791,0.181-6.641,2.084c-1.243,1.276-2.552,2.489-3.837,3.724
		c-1.166,1.12-2.306,1.112-3.483-0.021c-1.301-1.253-2.614-2.494-3.891-3.771c-1.72-1.721-3.757-2.432-6.17-2.071
		c-1.832,0.273-3.668,0.522-5.5,0.798c-1.539,0.231-2.519-0.425-2.81-1.964c-0.375-1.985-0.708-3.978-1.072-5.966
		c-0.391-2.134-1.593-3.673-3.492-4.686c-1.655-0.883-3.315-1.756-4.971-2.637c-1.606-0.854-1.941-1.875-1.148-3.506
		c0.799-1.643,1.585-3.293,2.408-4.925c1.063-2.107,1.063-4.192-0.001-6.3c-0.846-1.673-1.658-3.365-2.474-5.053
		c-0.702-1.453-0.343-2.544,1.088-3.311c1.42-0.761,2.815-1.581,4.28-2.247c2.758-1.255,4.21-3.36,4.555-6.346
		c0.184-1.599,0.528-3.179,0.828-4.762c0.291-1.534,1.271-2.189,2.813-1.961c1.975,0.292,3.953,0.568,5.932,0.832
		c2.184,0.292,4.019-0.434,5.576-1.955c1.309-1.279,2.628-2.547,3.944-3.819c1.321-1.277,2.387-1.284,3.691-0.025
		c1.282,1.238,2.584,2.456,3.838,3.722c1.742,1.761,3.813,2.419,6.249,2.032c1.83-0.29,3.665-0.539,5.499-0.802
		c1.447-0.206,2.423,0.482,2.698,1.941c0.346,1.843,0.689,3.688,0.979,5.542c0.374,2.386,1.592,4.127,3.748,5.232
		c1.627,0.833,3.232,1.708,4.845,2.567c1.565,0.834,1.904,1.869,1.134,3.455c-0.81,1.665-1.611,3.335-2.44,4.99
		c-1.043,2.084-1.044,4.152,0,6.236c0.839,1.678,1.655,3.366,2.473,5.054C69.624,47.17,69.273,48.24,67.798,49.03z"/>
	<path fill-rule="evenodd" clip-rule="evenodd" fill="#CECFCD" d="M53.813,24.693c0.521-0.701,0.593-1.468,0.197-2.24
		c-0.395-0.771-1.054-1.154-1.933-1.155c-0.799-0.001-1.326,0.474-1.847,0.995c-8.713,8.719-17.43,17.434-26.146,26.151
		c-0.527,0.527-1.1,1.02-1.566,1.597c-0.346,0.429-0.553,0.967-0.822,1.457c0.142,1.078,0.844,1.972,1.808,2.165
		c0.954,0.191,1.65-0.248,2.302-0.9c9.151-9.167,18.313-18.324,27.471-27.483C53.464,25.091,53.656,24.906,53.813,24.693z"/>
	<path fill-rule="evenodd" clip-rule="evenodd" fill="#CECFCD" d="M29.479,33.928c4.299,0.019,7.829-3.475,7.845-7.764
		c0.017-4.293-3.467-7.832-7.752-7.873c-4.275-0.042-7.843,3.467-7.874,7.743C21.667,30.393,25.133,33.909,29.479,33.928z
		 M29.507,22.586c1.958-0.002,3.531,1.557,3.547,3.514c0.017,1.926-1.576,3.55-3.509,3.577c-1.938,0.028-3.606-1.632-3.59-3.574
		C25.971,24.151,27.55,22.588,29.507,22.586z"/>
	<path fill-rule="evenodd" clip-rule="evenodd" fill="#CECFCD" d="M46.553,41.076c-4.345,0.016-7.813,3.528-7.789,7.887
		c0.023,4.233,3.557,7.738,7.806,7.745c4.309,0.007,7.842-3.548,7.819-7.869C54.365,44.522,50.87,41.061,46.553,41.076z
		 M46.574,52.414c-1.958-0.001-3.528-1.563-3.542-3.52c-0.013-1.929,1.578-3.544,3.515-3.568c1.944-0.025,3.605,1.633,3.585,3.576
		C50.109,50.86,48.536,52.414,46.574,52.414z"/>
</g>
</svg>
