<?xml version="1.0" encoding="utf-8"?>
<!-- Generator: Adobe Illustrator 16.0.0, SVG Export Plug-In . SVG Version: 6.00 Build 0)  -->
<!DOCTYPE svg PUBLIC "-//W3C//DTD SVG 1.0//EN" "http://www.w3.org/TR/2001/REC-SVG-20010904/DTD/svg10.dtd">
<svg version="1.0" id="Layer_1" xmlns="http://www.w3.org/2000/svg" xmlns:xlink="http://www.w3.org/1999/xlink" x="0px" y="0px"
	 width="75px" height="75px" viewBox="0 0 75 75" enable-background="new 0 0 75 75" xml:space="preserve">
<g>
	<path fill-rule="evenodd" clip-rule="evenodd" fill="#E5E7E4" d="M73.939,31.121C71.524,16.702,60.313,4.774,46.063,1.517
		c-1.868-0.427-3.795-0.604-5.694-0.898C40.182,0.59,39.998,0.541,39.813,0.5c-1.542,0-3.083,0-4.625,0
		c-1.378,0.188-2.763,0.343-4.136,0.569C16.275,3.5,3.971,15.538,1.217,30.273c-0.304,1.626-0.481,3.275-0.717,4.914
		c0,1.542,0,3.083,0,4.625c0.191,1.402,0.352,2.811,0.578,4.207C3.42,58.442,15.295,70.77,29.64,73.641
		c1.67,0.334,3.375,0.498,5.064,0.744c0.164,0.023,0.322,0.075,0.483,0.115c1.542,0,3.083,0,4.625,0
		c1.379-0.188,2.761-0.348,4.134-0.57c14.439-2.343,26.704-14.077,29.672-28.424c0.351-1.692,0.509-3.423,0.76-5.135
		c0.028-0.188,0.081-0.372,0.122-0.559c0-1.542,0-3.083,0-4.625C74.314,33.832,74.165,32.471,73.939,31.121z M37.47,69.874
		C19.612,69.847,5.068,55.261,5.126,37.433C5.183,19.589,19.714,5.1,37.529,5.126c17.864,0.025,32.406,14.611,32.346,32.439
		C69.813,55.415,55.283,69.902,37.47,69.874z"/>
	<path fill-rule="evenodd" clip-rule="evenodd" fill="#E5E7E4" d="M37.569,35.194c-3.211-0.103-5.732-2.454-5.843-5.525
		c-0.117-3.216,2.373-5.932,5.532-6.038c3.249-0.108,5.883,2.356,6.019,5.627c0.061,1.48,1.034,2.488,2.372,2.457
		c1.335-0.031,2.276-1.105,2.251-2.568c-0.075-4.403-3.119-8.412-7.359-9.693c-0.243-0.074-0.484-0.153-0.729-0.231
		c0-0.855,0.01-1.649-0.003-2.444c-0.021-1.365-0.991-2.384-2.274-2.402c-1.32-0.02-2.325,1.002-2.345,2.401
		c-0.012,0.817-0.002,1.634-0.002,2.452c-0.198,0.072-0.353,0.136-0.512,0.182c-6.072,1.714-9.292,8.416-6.691,14.15
		c1.817,4.004,5.041,6.088,9.444,6.242c3.215,0.112,5.729,2.448,5.845,5.524c0.12,3.213-2.368,5.93-5.532,6.04
		c-3.241,0.112-5.885-2.359-6.02-5.629c-0.061-1.479-1.032-2.486-2.371-2.456c-1.34,0.03-2.292,1.097-2.248,2.563
		c0.073,2.471,0.914,4.653,2.527,6.529c1.475,1.714,3.336,2.805,5.558,3.369c0,0.836-0.009,1.652,0.002,2.47
		c0.019,1.366,0.987,2.387,2.27,2.407c1.315,0.022,2.327-1.006,2.35-2.399c0.013-0.817,0.003-1.633,0.003-2.462
		c0.27-0.081,0.498-0.147,0.725-0.216c6.073-1.857,9.14-8.749,6.329-14.438C44.986,37.304,41.82,35.331,37.569,35.194z"/>
</g>
</svg>
