<?xml version="1.0" encoding="utf-8"?>
<!-- Generator: Adobe Illustrator 16.0.0, SVG Export Plug-In . SVG Version: 6.00 Build 0)  -->
<!DOCTYPE svg PUBLIC "-//W3C//DTD SVG 1.0//EN" "http://www.w3.org/TR/2001/REC-SVG-20010904/DTD/svg10.dtd">
<svg version="1.0" id="Layer_1" xmlns="http://www.w3.org/2000/svg" xmlns:xlink="http://www.w3.org/1999/xlink" x="0px" y="0px"
	 width="75px" height="75px" viewBox="0 0 75 75" enable-background="new 0 0 75 75" xml:space="preserve">
<g>
	<path fill-rule="evenodd" clip-rule="evenodd" fill="#C8CAC7" d="M73.806,44.744c-1.006-3.055-3.043-4.986-6.141-5.752
		c-0.186-0.045-0.369-0.092-0.541-0.137c-0.071-1.471-0.087-2.938-0.222-4.394c-0.393-4.212-1.694-8.138-3.777-11.797
		c-0.205-0.36-0.191-0.619-0.01-0.98c4.563-9.044-0.852-19.617-10.774-21.062c-0.111-0.017-0.216-0.081-0.324-0.122
		c-0.952,0-1.906,0-2.857,0C47.947,0.817,46.7,1.038,45.53,1.472c-2.934,1.087-5.216,3.042-6.893,5.706
		c-0.249,0.396-0.496,0.544-0.962,0.541c-4.223-0.036-8.266,0.838-12.117,2.588c-0.478,0.217-0.733,0.142-1.093-0.217
		C22.033,7.67,18.48,7.01,15.418,8.367c-3.098,1.374-5.07,4.503-4.97,7.94c0.046,1.602,0.52,3.08,1.408,4.412
		c0.227,0.339,0.465,0.668,0.713,1.027c-2.727,4.456-4.196,9.311-4.454,14.651c-0.626,0-1.236,0-1.846,0
		c-2.083,0.002-2.907,0.827-2.908,2.921c-0.001,7.504-0.006,15.008,0.009,22.511c0.001,0.577-0.075,0.893-0.742,1.02
		C1.77,63.013,1.341,63.761,1,64.526c0,1.159,0,2.318,0,3.477c0.51,1.427,1.534,1.96,2.997,1.897c1.448-0.064,2.902-0.029,4.353,0
		c0.236,0.005,0.584,0.133,0.688,0.315c1.374,2.439,3.41,3.896,6.137,4.37c0.042,0.008,0.078,0.053,0.116,0.081
		c0.714,0,1.429,0,2.144,0c0.43-0.121,0.865-0.227,1.291-0.362c2.088-0.666,3.693-1.96,4.774-3.888
		c0.213-0.38,0.42-0.545,0.869-0.543c4.094,0.021,8.187,0.005,12.28,0.027c0.252,0.001,0.623,0.151,0.736,0.351
		c1.356,2.385,3.341,3.837,6.02,4.309c0.064,0.012,0.121,0.069,0.182,0.106c0.714,0,1.429,0,2.144,0
		c1.334-0.349,2.717-0.66,3.756-1.621c0.883-0.818,1.597-1.822,2.412-2.72c0.179-0.198,0.457-0.406,0.702-0.42
		c0.854-0.052,1.712-0.009,2.568-0.023c1.464-0.024,2.414-0.967,2.465-2.434c0.075-2.198,0.05-4.39-0.68-6.501
		c-0.162-0.466-0.055-0.76,0.301-1.13c1.324-1.381,2.586-2.824,3.87-4.243c0.108-0.122,0.211-0.248,0.365-0.431
		c1.481,1.998,2.932,3.952,4.418,5.958c2.109-2.846,4.156-5.625,6.223-8.39c0.842-1.128,1.523-2.325,1.828-3.721
		c0.063-0.279,0.14-0.557,0.209-0.834c0-0.678,0-1.354,0-2.028C74.048,45.667,73.955,45.196,73.806,44.744z M40.617,8.423
		c2.62-4.138,7.302-6.184,12.161-5.316c4.565,0.815,8.361,4.525,9.319,9.27c0.728,3.601,0.085,6.983-2.146,9.93
		c-3.014,3.981-6.104,7.902-9.159,11.849c-0.06,0.075-0.101,0.163-0.211,0.344c-3.323-4.316-6.626-8.437-9.739-12.701
		C38.058,17.986,38.068,12.452,40.617,8.423z M14.774,11.599c2.09-1.896,5.186-2.043,7.429-0.354
		c2.271,1.711,3.21,4.887,1.769,7.341c-1.52,2.591-3.433,4.945-5.245,7.502c-1.776-2.438-3.552-4.671-5.1-7.058
		C12.099,16.671,12.692,13.488,14.774,11.599z M8.098,67.447c-1.558,0-3.09,0-4.679,0c0-0.761,0-1.494,0-2.288
		c1.536,0,3.086,0,4.679,0C8.098,65.901,8.098,66.654,8.098,67.447z M16.254,72.26c-3.271-0.061-5.863-2.769-5.813-6.075
		c0.049-3.311,2.772-5.93,6.095-5.861c3.152,0.063,5.775,2.837,5.71,6.037C22.177,69.687,19.502,72.32,16.254,72.26z M23.462,62.107
		c-3.211-5.578-11.048-5.572-14.251,0.016c-0.257,0.45-0.525,0.597-1.004,0.577c-0.802-0.032-1.607-0.009-2.449-0.009
		c0-7.997,0-15.924,0-23.886c3.125,0,6.209,0,9.365,0c0,2.997,0,5.976,0,9.096c0.826-0.415,1.542-0.771,2.255-1.132
		c1.042-0.526,2.092-1.039,3.121-1.593c0.397-0.215,0.715-0.22,1.124-0.005c1.728,0.905,3.476,1.772,5.326,2.708
		c0-3.071,0-6.043,0-9.063c3.172,0,6.256,0,9.403,0c0,7.916,0,15.839,0,23.828c-0.226,0.016-0.454,0.043-0.682,0.043
		c-3.738,0.004-7.476-0.008-11.214,0.015C23.962,62.706,23.709,62.536,23.462,62.107z M17.575,43.987c0-1.782,0-3.46,0-5.177
		c2.336,0,4.63,0,6.97,0c0,1.699,0,3.376,0,5.168c-0.841-0.423-1.684-0.781-2.457-1.255c-0.703-0.431-1.295-0.473-2.014-0.016
		C19.317,43.188,18.477,43.534,17.575,43.987z M36.423,67.436c-3.938,0-7.848,0-11.836,0c0-0.781,0-1.517,0-2.293
		c3.948,0,7.878,0,11.836,0C36.423,65.914,36.423,66.65,36.423,67.436z M44.674,72.262c-3.253,0.006-5.922-2.69-5.917-5.979
		c0.005-3.259,2.647-5.946,5.861-5.96c3.266-0.016,5.935,2.648,5.952,5.94C50.588,69.554,47.931,72.256,44.674,72.262z
		 M52.314,62.659c-0.176-0.013-0.371-0.323-0.492-0.533c-2.282-3.923-7.003-5.335-10.972-3.237
		c-0.706,0.374-1.338,0.896-2.045,1.376c0-4.737,0-9.47,0-14.298c2.681,0,5.298,0,7.916,0c0.952,0,1.905-0.003,2.858,0.001
		c0.988,0.004,1.311,0.258,1.553,1.225c0.087,0.349,0.153,0.701,0.249,1.146c-1.409,0-2.76,0-4.11,0
		c-0.477,0.001-0.953-0.018-1.429,0.008c-1.375,0.072-2.308,1.014-2.363,2.408c-0.031,0.794-0.033,1.593,0.002,2.388
		c0.063,1.416,1.044,2.374,2.453,2.387c2.214,0.02,4.43,0.018,6.645-0.005c0.459-0.004,0.65,0.126,0.761,0.605
		c0.465,2.019,0.985,4.022,1.482,6.033c0.033,0.137,0.037,0.281,0.068,0.521C54.011,62.684,53.16,62.714,52.314,62.659z
		 M51.999,50.783c0.184,0.724,0.371,1.461,0.576,2.271c-2.237,0-4.429,0-6.671,0c0-0.721,0-1.457,0-2.271
		C47.939,50.783,49.933,50.783,51.999,50.783z M55.25,67.425c-0.774,0-1.54,0-2.359,0c0-0.788,0-1.505,0-2.273
		c0.777,0,1.546,0,2.359,0C55.25,65.895,55.25,66.629,55.25,67.425z M59.38,52.247c0.487,0.663,0.551,1.09,0.002,1.709
		c-1.056,1.19-2.053,2.434-3.205,3.813c-0.52-2.095-0.979-3.933-1.434-5.774c-0.443-1.8-0.878-3.603-1.324-5.401
		c-0.502-2.028-1.777-3.039-3.86-3.044c-3.311-0.007-6.62-0.002-9.93-0.002c-0.259,0-0.518,0-0.877,0
		c0-1.557,0.004-3.001-0.002-4.445c-0.006-1.808-0.889-2.704-2.683-2.704c-8.214-0.003-16.429-0.002-24.644-0.002
		c-0.28,0-0.561,0-0.923,0c0.181-4.517,1.382-8.643,3.601-12.604c1.543,2.082,3.045,4.108,4.587,6.188
		c0.212-0.269,0.378-0.467,0.531-0.674c1.929-2.605,3.842-5.223,5.788-7.813c1.987-2.646,2.521-5.501,1.319-8.638
		c-0.025-0.064-0.021-0.141-0.038-0.27c3.422-1.62,7.029-2.419,10.846-2.503c-0.202,0.98-0.451,1.904-0.577,2.845
		c-0.501,3.764,0.167,7.32,2.429,10.363c3.752,5.046,7.661,9.974,11.569,15.039c3.623-4.67,7.205-9.288,10.832-13.965
		c2.424,4.564,3.516,9.352,3.317,14.265c-1.26,0.599-2.487,0.994-3.505,1.7C57.283,43.041,56.494,48.307,59.38,52.247z
		 M71.012,50.04c-1.515,2.438-3.333,4.684-5.142,7.181c-0.107-0.22-0.146-0.34-0.218-0.437c-1.522-2.068-3.096-4.103-4.565-6.209
		c-2.43-3.482-0.565-8.351,3.532-9.237c2.437-0.527,4.5,0.227,5.992,2.255C72.104,45.621,72.328,47.917,71.012,50.04z"/>
	<path fill-rule="evenodd" clip-rule="evenodd" fill="#C8CAC7" d="M29.364,33.923c0.796,0,1.54,0,2.301,0c0-0.773,0-1.486,0-2.248
		c-0.82,0-1.564,0-2.301,0C29.364,32.47,29.364,33.202,29.364,33.923z"/>
	<path fill-rule="evenodd" clip-rule="evenodd" fill="#C8CAC7" d="M38.8,33.928c0.792,0,1.536,0,2.308,0c0-0.768,0-1.481,0-2.258
		c-0.813,0-1.555,0-2.308,0C38.8,32.459,38.8,33.191,38.8,33.928z"/>
	<path fill-rule="evenodd" clip-rule="evenodd" fill="#C8CAC7" d="M34.061,33.923c0.82,0,1.563,0,2.303,0c0-0.793,0-1.525,0-2.249
		c-0.797,0-1.541,0-2.303,0C34.061,32.45,34.061,33.163,34.061,33.923z"/>
	<path fill-rule="evenodd" clip-rule="evenodd" fill="#C8CAC7" d="M50.533,24.412c5.227,0.01,9.47-4.264,9.477-9.543
		c0.007-5.245-4.22-9.565-9.376-9.583c-5.237-0.019-9.477,4.229-9.497,9.517C41.117,20.11,45.312,24.402,50.533,24.412z
		 M50.596,7.691c3.931,0.023,7.063,3.237,7.032,7.213c-0.032,3.941-3.191,7.131-7.062,7.13c-3.89,0-7.101-3.261-7.089-7.196
		C43.489,10.884,46.69,7.669,50.596,7.691z"/>
	<path fill-rule="evenodd" clip-rule="evenodd" fill="#C8CAC7" d="M18.68,19.628c1.953,0.008,3.549-1.583,3.567-3.557
		c0.018-1.967-1.569-3.584-3.525-3.593c-1.957-0.01-3.552,1.582-3.563,3.552C15.147,18,16.732,19.62,18.68,19.628z M18.71,14.856
		c0.645,0.005,1.171,0.559,1.158,1.219c-0.013,0.658-0.566,1.191-1.21,1.165c-0.625-0.025-1.113-0.542-1.116-1.181
		C17.539,15.385,18.058,14.851,18.71,14.856z"/>
	<path fill-rule="evenodd" clip-rule="evenodd" fill="#C8CAC7" d="M65.905,43.558c-1.937,0.002-3.541,1.635-3.539,3.596
		c0.002,1.966,1.608,3.595,3.541,3.593c1.936-0.001,3.54-1.632,3.538-3.597C69.445,45.187,67.837,43.555,65.905,43.558z
		 M65.889,48.326c-0.638-0.008-1.133-0.496-1.153-1.136c-0.021-0.667,0.486-1.204,1.147-1.216c0.665-0.012,1.18,0.5,1.182,1.173
		C67.066,47.825,66.557,48.335,65.889,48.326z"/>
	<path fill-rule="evenodd" clip-rule="evenodd" fill="#C8CAC7" d="M44.657,62.701c-1.95,0.003-3.521,1.609-3.519,3.597
		c0.003,1.983,1.582,3.585,3.53,3.583c1.948-0.005,3.52-1.609,3.519-3.596C48.186,64.298,46.609,62.698,44.657,62.701z
		 M44.628,67.468c-0.649-0.019-1.166-0.566-1.143-1.214c0.022-0.643,0.577-1.168,1.215-1.147c0.633,0.02,1.168,0.589,1.146,1.221
		C45.823,66.978,45.281,67.486,44.628,67.468z"/>
	<path fill-rule="evenodd" clip-rule="evenodd" fill="#C8CAC7" d="M16.356,62.702c-1.95-0.01-3.534,1.59-3.539,3.574
		c-0.005,1.987,1.564,3.597,3.51,3.604c1.95,0.006,3.537-1.596,3.543-3.574C19.876,64.323,18.304,62.71,16.356,62.702z
		 M16.353,67.469c-0.658,0.006-1.193-0.526-1.19-1.184c0.003-0.648,0.554-1.192,1.199-1.18c0.645,0.011,1.176,0.575,1.153,1.226
		C17.493,66.964,16.982,67.464,16.353,67.469z"/>
</g>
</svg>
