<?xml version="1.0" encoding="utf-8"?>
<!-- Generator: Adobe Illustrator 16.0.0, SVG Export Plug-In . SVG Version: 6.00 Build 0)  -->
<!DOCTYPE svg PUBLIC "-//W3C//DTD SVG 1.0//EN" "http://www.w3.org/TR/2001/REC-SVG-20010904/DTD/svg10.dtd">
<svg version="1.0" id="Layer_1" xmlns="http://www.w3.org/2000/svg" xmlns:xlink="http://www.w3.org/1999/xlink" x="0px" y="0px"
	 width="75px" height="75px" viewBox="0 0 75 75" enable-background="new 0 0 75 75" xml:space="preserve">
<g>
	<path fill-rule="evenodd" clip-rule="evenodd" fill="#89CF5C" d="M74.143,12.512c-1.32-5.108-5.8-8.691-11.072-8.7
		c-17.048-0.03-34.096-0.033-51.144,0.001C6.251,3.824,1.52,7.988,0.638,13.575c-0.029,0.186-0.091,0.366-0.138,0.549
		c0,11.948,0,23.895,0,35.844c0.17,0.721,0.304,1.453,0.516,2.163c1.252,4.191,5.308,8.254,11.568,8.192
		c6.286-0.061,12.572-0.012,18.859-0.016c0.313,0,0.628-0.008,0.937-0.051c1.187-0.164,1.987-0.833,2.365-1.955
		c0.651-1.936-0.765-3.763-2.927-3.769c-4.89-0.013-9.779-0.001-14.669-0.005c-1.782-0.002-3.568,0.052-5.345-0.047
		c-3.247-0.18-5.516-2.625-5.52-5.883C6.275,37.929,6.281,27.259,6.284,16.588c0-0.174,0.036-0.348,0.06-0.57
		c0.275,0.165,0.482,0.284,0.685,0.41c7.95,4.942,15.907,9.873,23.847,14.833c4.427,2.768,8.814,2.771,13.24,0.01
		c7.922-4.941,15.856-9.864,23.786-14.793c0.237-0.147,0.483-0.28,0.817-0.473c0,0.359,0,0.615,0,0.872
		c0,5.467-0.006,10.935,0.004,16.403c0.003,2.008,1.656,3.373,3.553,2.945c1.17-0.264,1.799-1.109,2.225-2.154
		c0-6.648,0-13.297,0-19.946C74.382,13.586,74.281,13.044,74.143,12.512z M65.601,11.098c-8.233,5.12-16.472,10.231-24.697,15.363
		c-2.303,1.438-4.529,1.422-6.837-0.021C25.867,21.31,17.645,16.218,9.432,11.112c-0.201-0.125-0.397-0.258-0.596-0.387
		c-0.013-0.093-0.026-0.187-0.04-0.28c0.804-0.268,1.599-0.569,2.416-0.79c0.386-0.104,0.813-0.072,1.222-0.072
		c16.711-0.003,33.422,0,50.134-0.007c1.308,0,2.528,0.234,3.703,1.082C66.016,10.826,65.811,10.966,65.601,11.098z"/>
	<path fill-rule="evenodd" clip-rule="evenodd" fill="#89CF5C" d="M72.367,56.601c-1.359-0.62-2.055-1.762-2.049-3.292
		c0.005-1.469,0.021-2.938-0.008-4.406c-0.069-3.482-1.365-6.453-3.799-8.936c-1.709-1.742-3.771-2.875-6.181-3.502
		c0-0.682,0.024-1.354-0.005-2.023c-0.063-1.419-1.137-2.563-2.525-2.719c-1.461-0.166-2.773,0.675-3.115,2.092
		c-0.145,0.597-0.152,1.244-0.113,1.86c0.037,0.591-0.172,0.802-0.729,0.978c-4.901,1.557-8.071,4.826-9.094,9.871
		c-0.419,2.07-0.306,4.262-0.301,6.396c0.004,1.892-0.764,3.171-2.494,3.904c-0.995,0.422-1.568,1.209-1.672,2.264
		c-0.059,0.613,0.017,1.25,0.111,1.865c0.558,3.592,3.098,6.402,6.478,6.989c1.314,0.228,2.687,0.142,4.032,0.169
		c1.197,0.023,2.395,0.005,3.57,0.005c0.458,1.915,1.422,2.841,2.918,2.868c1.52,0.028,2.445-0.829,3.053-2.868
		c0.241,0,0.502,0,0.763,0c1.638-0.001,3.275,0.019,4.912-0.005c3.884-0.057,6.687-2.117,7.896-5.797
		c0.192-0.588,0.324-1.197,0.484-1.795c0-0.578,0-1.156,0-1.734C74.108,57.744,73.397,57.07,72.367,56.601z M67.979,61.576
		c-0.49,0.599-1.144,0.758-1.868,0.758c-1.661,0-3.323,0-4.983,0c-1.276,0.001-2.553,0.001-3.828,0.001
		c-2.842-0.001-5.682-0.005-8.523,0.003c-0.858,0.002-1.626-0.16-2.139-0.94c-0.18-0.272-0.248-0.472,0.069-0.725
		c2.549-2.027,3.579-4.72,3.517-7.928c-0.033-1.656-0.094-3.341,0.154-4.968c0.537-3.516,3.961-6.141,7.396-5.863
		c3.776,0.307,6.673,3.305,6.757,7.01c0.044,1.924-0.025,3.855,0.129,5.771c0.194,2.392,1.365,4.339,3.226,5.836
		C68.365,60.918,68.303,61.18,67.979,61.576z"/>
</g>
</svg>
