<?xml version="1.0" encoding="utf-8"?>
<!-- Generator: Adobe Illustrator 16.0.0, SVG Export Plug-In . SVG Version: 6.00 Build 0)  -->
<!DOCTYPE svg PUBLIC "-//W3C//DTD SVG 1.0//EN" "http://www.w3.org/TR/2001/REC-SVG-20010904/DTD/svg10.dtd">
<svg version="1.0" id="Layer_1" xmlns="http://www.w3.org/2000/svg" xmlns:xlink="http://www.w3.org/1999/xlink" x="0px" y="0px"
	 width="75px" height="75px" viewBox="0 0 75 75" enable-background="new 0 0 75 75" xml:space="preserve">
<g>
	<path fill-rule="evenodd" clip-rule="evenodd" fill="#A8ADA6" d="M64.252,60.717c0.001-0.119-0.017-0.241-0.044-0.356
		c-0.133-0.57-0.506-0.886-1.08-0.863c-0.572,0.023-0.936,0.354-1.012,0.938c-0.033,0.261-0.023,0.528-0.025,0.793
		c-0.019,2.071,0.063,4.148-0.075,6.211c-0.183,2.725-2.531,4.886-5.255,4.894c-8.979,0.025-17.958,0.015-26.937,0.002
		c-1.302-0.002-2.439-0.5-3.396-1.387c-1.306-1.211-1.761-2.737-1.759-4.487c0.017-12.164,0.009-24.328,0.01-36.492
		c0-0.289-0.05-0.599,0.036-0.862c0.219-0.673,0.359-1.44,0.782-1.968c2.619-3.27,5.304-6.485,7.976-9.713
		c0.814-0.984,1.853-1.463,3.155-1.456c4.453,0.022,8.906,0.008,13.36,0.008c0.278,0,0.556,0,0.849,0
		c-0.332,2.12-2.645,4.704-4.578,5.185c-0.068-0.085-0.142-0.179-0.219-0.269c-1.102-1.289-2.726-1.66-4.162-0.95
		c-1.407,0.694-2.154,2.267-1.812,3.814c0.319,1.444,1.667,2.562,3.161,2.622c1.598,0.064,2.933-0.939,3.452-2.539
		c0.081-0.248,0.325-0.518,0.563-0.628c1.863-0.859,3.385-2.113,4.487-3.845c0.431-0.678,0.767-1.417,1.214-2.253
		c0.134,0.188,0.234,0.351,0.355,0.497c2.571,3.122,5.138,6.248,7.724,9.358c0.763,0.917,1.079,1.938,1.075,3.126
		c-0.018,8.262-0.01,16.523-0.009,24.785c0,1.183,0.331,1.705,1.075,1.703c0.75-0.001,1.09-0.529,1.09-1.702
		c0-8.262-0.014-16.524,0.012-24.786c0.006-1.774-0.534-3.287-1.675-4.635c-1.587-1.874-3.109-3.803-4.7-5.673
		c-1.416-1.665-2.892-3.279-4.328-4.927c-0.109-0.124-0.172-0.333-0.172-0.502c0.004-4.07,0.01-8.141,0.039-12.211
		c0.005-0.662-0.107-1.232-0.676-1.636c-0.289,0-0.578,0-0.866,0c-0.534,0.426-0.647,0.988-0.644,1.65
		c0.021,3.588,0.008,7.177,0.006,10.766c0,0.284,0,0.567,0,0.842c-0.152,0.033-0.222,0.061-0.29,0.061
		c-4.813-0.006-9.628-0.042-14.441,0.006c-0.885,0.008-1.839,0.205-2.639,0.579c-3.614,1.688-7.18,3.48-10.771,5.218
		c-1.505,0.729-2.533,1.854-3.138,3.415c-1.312,3.384-2.656,6.757-3.986,10.134c-0.07,0.179-0.151,0.356-0.199,0.541
		c-0.163,0.629,0.083,1.142,0.637,1.358c0.547,0.214,1.076-0.012,1.371-0.596c0.086-0.171,0.148-0.354,0.219-0.533
		c1.323-3.354,2.661-6.704,3.958-10.068c0.424-1.099,1.117-1.878,2.195-2.35c0.748-0.327,1.47-0.714,2.205-1.071
		c0.897-0.436,1.795-0.868,2.692-1.303c-1.53,2.049-3.084,4.035-4.748,5.926c-1.302,1.479-1.828,3.13-1.822,5.084
		c0.034,12.018,0.017,24.036,0.017,36.055c0,0.619,0,1.238,0,1.895c-0.113-0.037-0.227-0.064-0.332-0.11
		c-3.559-1.578-7.127-3.135-10.672-4.744c-2.613-1.187-3.687-3.905-2.626-6.575c1.536-3.865,3.101-7.719,4.653-11.577
		c0.799-1.985,1.605-3.967,2.388-5.958c0.316-0.806-0.117-1.564-0.891-1.593c-0.7-0.024-0.986,0.459-1.216,1.033
		c-2.279,5.691-4.578,11.374-6.853,17.066c-1.632,4.084-0.054,7.938,3.966,9.73c3.907,1.74,7.814,3.482,11.734,5.195
		c0.657,0.287,1.18,0.654,1.633,1.224c0.443,0.555,0.984,1.101,1.599,1.435c0.957,0.519,2.013,0.854,3.027,1.267
		c9.582,0,19.163,0,28.745,0c0.105-0.045,0.209-0.109,0.32-0.131c3.482-0.7,6.008-3.475,6.208-7.02
		C64.321,65.153,64.242,62.933,64.252,60.717z M43.394,24.211c-0.679,0.011-1.226-0.535-1.226-1.224c0-0.66,0.503-1.193,1.155-1.223
		c0.672-0.03,1.248,0.51,1.269,1.188C44.612,23.629,44.067,24.2,43.394,24.211z"/>
	<path fill-rule="evenodd" clip-rule="evenodd" fill="#A8ADA6" d="M34.71,57.89c0.187-0.149,0.35-0.33,0.52-0.5
		c4.066-4.068,8.133-8.137,12.198-12.205c1.855-1.855,3.716-3.704,5.557-5.573c0.271-0.275,0.447-0.646,0.568-0.825
		c-0.026-1.036-0.918-1.535-1.622-1.106c-0.202,0.123-0.372,0.304-0.541,0.473c-5.956,5.957-11.91,11.916-17.864,17.875
		c-0.102,0.102-0.21,0.199-0.304,0.309c-0.397,0.466-0.396,1.073,0,1.504C33.618,58.271,34.202,58.297,34.71,57.89z"/>
	<path fill-rule="evenodd" clip-rule="evenodd" fill="#A8ADA6" d="M40.99,42.03c-0.028-2.616-2.133-4.668-4.781-4.661
		s-4.735,2.076-4.736,4.694c0,2.647,2.116,4.717,4.805,4.699C38.908,46.745,41.019,44.625,40.99,42.03z M33.64,42.064
		c0.001-1.43,1.126-2.528,2.588-2.527c1.457,0.001,2.598,1.111,2.597,2.529c0,1.416-1.144,2.529-2.599,2.528
		C34.765,44.594,33.639,43.492,33.64,42.064z"/>
	<path fill-rule="evenodd" clip-rule="evenodd" fill="#A8ADA6" d="M50.347,58.181c2.676,0.013,4.816-2.091,4.8-4.717
		c-0.017-2.611-2.123-4.679-4.767-4.677c-2.652,0.002-4.742,2.06-4.75,4.679C45.62,56.085,47.704,58.167,50.347,58.181z
		 M50.415,50.955c1.451,0.013,2.586,1.147,2.563,2.562c-0.022,1.421-1.168,2.509-2.63,2.496c-1.455-0.014-2.568-1.132-2.553-2.563
		C47.813,52.023,48.948,50.942,50.415,50.955z"/>
</g>
</svg>
