<?xml version="1.0" encoding="utf-8"?>
<!-- Generator: Adobe Illustrator 16.0.0, SVG Export Plug-In . SVG Version: 6.00 Build 0)  -->
<!DOCTYPE svg PUBLIC "-//W3C//DTD SVG 1.0//EN" "http://www.w3.org/TR/2001/REC-SVG-20010904/DTD/svg10.dtd">
<svg version="1.0" id="Layer_1" xmlns="http://www.w3.org/2000/svg" xmlns:xlink="http://www.w3.org/1999/xlink" x="0px" y="0px"
	 width="75px" height="75px" viewBox="0 0 75 75" enable-background="new 0 0 75 75" xml:space="preserve">
<g>
	<path fill-rule="evenodd" clip-rule="evenodd" fill="#89CE5D" d="M72.039,42.174c0,5.522-0.016,11.048,0.016,16.572
		c0.004,0.766-0.189,1.01-0.985,1.008c-22.379-0.019-44.76-0.019-67.141,0c-0.798,0.002-0.984-0.244-0.982-1.008
		c0.022-12.539,0.016-25.079,0.016-37.619c0-0.272,0-0.543,0-0.806c23.082,0,46.063,0,69.101,0c0,6.164,0,12.269,0,18.388
		c0.838,0,1.614,0,2.414,0c0.01-0.202,0.021-0.354,0.021-0.505c0.002-9.148,0.004-18.295-0.002-27.443
		c0-1.679-1.176-2.824-2.883-2.826c-4.086-0.006-8.171-0.002-12.256-0.002c-0.276,0-0.55,0-0.893,0c0-0.975,0.002-1.869,0-2.762
		c-0.002-2.875-1.775-4.638-4.664-4.638C42.957,0.534,32.114,0.583,21.271,0.5c-2.737-0.021-4.961,2.076-4.748,4.754
		c0.07,0.881,0.011,1.772,0.011,2.713c-1.297,0-2.469,0-3.643,0c0,0.837,0,1.616,0,2.428c0.389,0,0.722,0,1.054,0
		c18.911,0,37.825,0,56.735,0c0.206,0,0.414,0.018,0.616-0.003c0.58-0.063,0.76,0.197,0.752,0.76
		c-0.027,1.772-0.01,3.545-0.01,5.317c0,0.428,0,0.855,0,1.274c-23.079,0-46.06,0-69.077,0c0-2.289,0.007-4.523-0.005-6.756
		c-0.003-0.495,0.249-0.6,0.677-0.596c1.439,0.011,2.878,0.005,4.317,0.004c0.787,0,1.573,0,2.35,0c0-0.877,0-1.657,0-2.461
		c-2.321,0-4.582-0.003-6.842,0.001c-1.837,0.004-2.958,1.132-2.958,2.984C0.5,27.031,0.5,43.141,0.501,59.253
		c0,1.802,1.132,2.942,2.921,2.944c4.06,0.004,8.12,0.002,12.18,0.002c0.278,0,0.557,0,0.932,0c0,2.726-0.006,5.344,0.002,7.961
		c0.008,2.512,1.869,4.369,4.39,4.371c11.049,0.004,22.099,0.004,33.146,0c2.521-0.002,4.382-1.859,4.39-4.371
		c0.01-2.364,0.002-4.727,0.002-7.092c0-0.273,0-0.545,0-0.869c0.376,0,0.655,0,0.935,0c4.008,0,8.017,0,12.025,0
		c1.994-0.002,3.073-1.092,3.075-3.104c0-5.679,0-11.355,0-17.035c0-0.25,0-0.499,0-0.772c-0.855,0-1.632,0-2.461,0
		C72.039,41.614,72.039,41.894,72.039,42.174z M56.004,7.902c-12.351,0-24.617,0-36.929,0c0-1.155-0.082-2.328,0.027-3.481
		c0.076-0.806,0.786-1.31,1.618-1.407c0.253-0.03,0.513-0.018,0.769-0.018c10.68,0,21.36-0.001,32.04,0
		c1.843,0,2.475,0.644,2.475,2.513C56.004,6.277,56.004,7.046,56.004,7.902z M19.032,62.238c12.307,0,24.578,0,36.91,0
		c0,1.178,0,2.368,0,3.613c-12.271,0-24.562,0-36.91,0C19.032,64.622,19.032,63.45,19.032,62.238z M55.99,70.241
		c-0.069,1.051-0.784,1.742-1.836,1.823c-0.255,0.02-0.513,0.008-0.77,0.008c-10.577,0-21.154,0-31.73,0
		c-2.078,0-2.658-0.576-2.658-2.639c0-0.327,0-0.655,0-1.024c12.348,0,24.632,0,37.002,0C55.998,69.065,56.029,69.657,55.99,70.241z
		"/>
	<path fill-rule="evenodd" clip-rule="evenodd" fill="#89CE5D" d="M33.414,22.736c-8.788-0.001-17.576-0.001-26.364,0
		c-1.234,0-1.616,0.375-1.616,1.595c-0.001,10.432-0.001,20.866,0,31.297c0,1.274,0.367,1.637,1.653,1.637
		c8.762,0.002,17.525,0.002,26.287,0c1.286,0,1.654-0.364,1.655-1.635c0.001-5.191,0.001-10.381,0.001-15.572
		c0-5.241,0-10.483-0.001-15.726C35.029,23.115,34.646,22.736,33.414,22.736z M7.955,25.254c8.155,0,16.333,0,24.59,0
		c0,7.234,0,14.422,0,21.61c-1.956-0.746-3.875-1.584-5.865-2.197c-1.443-0.445-2.286-1.21-2.342-2.812
		c1.551-0.994,2.147-2.517,2.074-4.415c-0.069-1.821-0.006-3.647-0.018-5.471c-0.015-2.416-1.888-4.282-4.304-4.299
		c-1.232-0.009-2.466-0.008-3.699,0c-2.458,0.015-4.311,1.882-4.321,4.359c-0.007,1.798,0.053,3.599-0.016,5.394
		c-0.072,1.894,0.497,3.43,2.14,4.463c-0.022,0.109-0.04,0.183-0.05,0.254c-0.196,1.384-0.971,2.114-2.336,2.526
		c-1.977,0.598-3.88,1.436-5.852,2.186C7.955,39.705,7.955,32.509,7.955,25.254z M21.884,40c-1.102,0.017-2.206,0.017-3.309,0
		c-1.293-0.023-2.032-0.777-2.042-2.088c-0.015-1.898-0.015-3.796,0-5.695c0.01-1.311,0.75-2.061,2.046-2.083
		c1.103-0.018,2.206-0.018,3.309,0c1.292,0.022,2.025,0.774,2.044,2.086c0.014,0.974,0.002,1.949,0.002,2.924
		c0,0.923,0.012,1.847-0.002,2.77C23.912,39.227,23.178,39.977,21.884,40z M22.037,45.411c-0.615,0.721-1.15,1.507-1.802,2.374
		c-0.751-0.998-1.47-1.898-2.109-2.851c-0.138-0.204-0.054-0.62,0.037-0.905c0.5-1.568,0.511-1.564,2.159-1.564
		c1.469,0,1.43,0.015,1.964,1.432C22.515,44.503,22.451,44.924,22.037,45.411z M32.559,54.774c-8.25,0-16.411,0-24.6,0
		c0-1.176-0.085-2.328,0.023-3.463c0.109-1.143,0.775-2.049,1.838-2.485c2.056-0.849,4.153-1.596,6.268-2.397
		c0.998,1.325,1.966,2.616,2.937,3.906c0.798,1.058,1.616,1.058,2.417-0.006c0.972-1.287,1.94-2.579,2.938-3.906
		c2.117,0.808,4.217,1.549,6.268,2.408c1.212,0.509,1.813,1.577,1.896,2.87C32.609,52.695,32.559,53.697,32.559,54.774z"/>
	<path fill-rule="evenodd" clip-rule="evenodd" fill="#89CE5D" d="M46.817,57.265c2.646,0.008,5.294,0,7.939,0
		c2.698,0,5.396,0.01,8.094-0.004c1.922-0.008,3.625-1.28,4.07-3.147c0.192-0.809,0.173-1.68,0.168-2.521
		c-0.016-2.275-1.906-4.176-4.179-4.184c-5.423-0.016-10.844-0.012-16.265,0c-1.871,0.004-3.57,1.281-4.025,3.106
		c-0.188,0.758-0.173,1.576-0.175,2.366C42.438,55.399,44.301,57.257,46.817,57.265z M44.902,51.818
		c0.052-1.168,0.78-1.94,1.948-1.944c5.287-0.018,10.575-0.018,15.861,0.002c1.131,0.004,1.855,0.771,1.922,1.895
		c0.017,0.308,0.009,0.616,0.003,0.925c-0.026,1.349-0.757,2.099-2.105,2.104c-2.593,0.014-5.187,0.004-7.778,0.004
		c-2.542,0-5.081,0.006-7.623-0.002c-1.5-0.002-2.219-0.723-2.231-2.213C44.896,52.333,44.891,52.075,44.902,51.818z"/>
	<path fill-rule="evenodd" clip-rule="evenodd" fill="#89CE5D" d="M47.364,27.68c0.002-2.756-2.169-4.941-4.915-4.945
		c-2.76-0.003-4.946,2.169-4.946,4.914c0,2.756,2.172,4.942,4.917,4.947C45.172,32.602,47.361,30.425,47.364,27.68z M39.971,27.64
		c0.01-1.304,1.194-2.462,2.489-2.438c1.324,0.026,2.455,1.181,2.437,2.49c-0.02,1.317-1.182,2.454-2.488,2.435
		C41.086,30.107,39.959,28.957,39.971,27.64z"/>
	<path fill-rule="evenodd" clip-rule="evenodd" fill="#89CE5D" d="M42.412,44.931c2.756,0.008,4.949-2.166,4.952-4.91
		c0.004-2.759-2.164-4.946-4.908-4.951c-2.761-0.005-4.951,2.164-4.953,4.907C37.501,42.734,39.672,44.924,42.412,44.931z
		 M42.497,37.536c1.331,0.052,2.443,1.223,2.399,2.527c-0.045,1.325-1.22,2.441-2.524,2.397c-1.33-0.047-2.44-1.211-2.403-2.523
		C40.005,38.63,41.208,37.486,42.497,37.536z"/>
	<path fill-rule="evenodd" clip-rule="evenodd" fill="#89CE5D" d="M49.884,26.38c4.108,0,8.171,0,12.222,0c0-0.83,0-1.607,0-2.375
		c-4.104,0-8.146,0-12.222,0C49.884,24.856,49.884,25.615,49.884,26.38z"/>
	<path fill-rule="evenodd" clip-rule="evenodd" fill="#89CE5D" d="M49.894,38.705c4.118,0,8.178,0,12.256,0c0-0.8,0-1.541,0-2.357
		c-4.13,0-8.19,0-12.256,0C49.894,37.172,49.894,37.95,49.894,38.705z"/>
	<path fill-rule="evenodd" clip-rule="evenodd" fill="#89CE5D" d="M59.768,31.325c3.283,0,6.504,0,9.749,0c0-0.816,0-1.593,0-2.37
		c-3.288,0-6.527,0-9.749,0C59.768,29.786,59.768,30.563,59.768,31.325z"/>
	<path fill-rule="evenodd" clip-rule="evenodd" fill="#89CE5D" d="M69.522,41.268c-3.265,0-6.486,0-9.761,0c0,0.842,0,1.619,0,2.368
		c3.297,0,6.536,0,9.761,0C69.522,42.817,69.522,42.058,69.522,41.268z"/>
	<path fill-rule="evenodd" clip-rule="evenodd" fill="#89CE5D" d="M49.9,28.929c0,0.86,0,1.637,0,2.394c2.463,0,4.862,0,7.281,0
		c0-0.818,0-1.593,0-2.394C54.732,28.929,52.335,28.929,49.9,28.929z"/>
	<path fill-rule="evenodd" clip-rule="evenodd" fill="#89CE5D" d="M49.874,43.697c1.233,0,2.43,0,3.627,0c1.222,0,2.443,0,3.697,0
		c0-0.84,0-1.599,0-2.406c-2.485,0-4.904,0-7.324,0C49.874,42.105,49.874,42.863,49.874,43.697z"/>
	<path fill-rule="evenodd" clip-rule="evenodd" fill="#89CE5D" d="M69.524,24.058c-1.653,0-3.229,0-4.827,0c0,0.841,0,1.639,0,2.449
		c1.636,0,3.212,0,4.827,0C69.524,25.683,69.524,24.901,69.524,24.058z"/>
	<path fill-rule="evenodd" clip-rule="evenodd" fill="#89CE5D" d="M69.532,36.357c-1.659,0-3.255,0-4.831,0c0,0.832,0,1.608,0,2.367
		c1.64,0,3.218,0,4.831,0C69.532,37.927,69.532,37.168,69.532,36.357z"/>
	<path fill-rule="evenodd" clip-rule="evenodd" fill="#89CE5D" d="M5.489,15.295c0.812,0,1.568,0,2.364,0c0-0.847,0-1.604,0-2.379
		c-0.816,0-1.591,0-2.364,0C5.489,13.741,5.489,14.516,5.489,15.295z"/>
	<path fill-rule="evenodd" clip-rule="evenodd" fill="#89CE5D" d="M12.774,12.902c-0.811,0-1.567,0-2.366,0c0,0.845,0,1.603,0,2.379
		c0.816,0,1.59,0,2.366,0C12.774,14.458,12.774,13.684,12.774,12.902z"/>
	<path fill-rule="evenodd" clip-rule="evenodd" fill="#89CE5D" d="M15.363,12.923c0,0.832,0,1.606,0,2.392c0.8,0,1.538,0,2.352,0
		c0-0.843,0-1.618,0-2.392C16.891,12.923,16.117,12.923,15.363,12.923z"/>
	<path fill-rule="evenodd" clip-rule="evenodd" fill="#89CE5D" d="M67.135,12.914c0,0.803,0,1.559,0,2.356c0.852,0,1.628,0,2.394,0
		c0-0.817,0-1.575,0-2.356C68.713,12.914,67.938,12.914,67.135,12.914z"/>
</g>
</svg>
