<?xml version="1.0" encoding="utf-8"?>
<!-- Generator: Adobe Illustrator 16.0.0, SVG Export Plug-In . SVG Version: 6.00 Build 0)  -->
<!DOCTYPE svg PUBLIC "-//W3C//DTD SVG 1.0//EN" "http://www.w3.org/TR/2001/REC-SVG-20010904/DTD/svg10.dtd">
<svg version="1.0" id="Layer_1" xmlns="http://www.w3.org/2000/svg" xmlns:xlink="http://www.w3.org/1999/xlink" x="0px" y="0px"
	 width="75px" height="75px" viewBox="0 0 75 75" enable-background="new 0 0 75 75" xml:space="preserve">
<g>
	<path fill-rule="evenodd" clip-rule="evenodd" fill="#E5E7E4" d="M65.289,38.752c-0.451-0.176-0.605-0.367-0.602-0.854
		c0.027-2.565,0.023-5.132,0.01-7.697c-0.016-3.208-2.273-5.473-5.475-5.499c-1.568-0.014-3.137-0.001-4.705-0.005
		c-0.247,0-0.494-0.023-0.761-0.037c0.018-0.353,0.034-0.612,0.042-0.872c0.094-3.159-1.485-5.696-4.104-6.583
		c-1.578-0.533-3.143-0.406-4.672,0.171c-3.277,1.236-5.461,3.607-6.857,6.753c-0.194,0.438-0.414,0.599-0.894,0.583
		c-1.14-0.038-2.28-0.013-3.421-0.013c-0.912,0-1.825,0-2.893,0c5.045-7.203,9.992-14.268,14.958-21.358
		c6.962,4.875,13.842,9.694,20.745,14.529c-0.166,0.249-0.292,0.448-0.427,0.641c-0.856,1.227-1.729,2.442-2.562,3.685
		c-0.186,0.277-0.39,0.703-0.301,0.963c0.119,0.348,0.487,0.795,0.802,0.842c0.353,0.053,0.905-0.188,1.128-0.484
		c1.115-1.478,2.154-3.013,3.211-4.533c0.793-1.139,0.643-1.977-0.502-2.778c-6.982-4.891-13.965-9.779-20.949-14.667
		c-1.202-0.841-1.998-0.704-2.829,0.48c-1.405,2.001-2.806,4.007-4.21,6.01c-0.129,0.185-0.275,0.358-0.533,0.69
		c0-1.411,0.004-2.635,0-3.858c-0.004-1.391-0.602-1.991-1.996-1.992c-8.293-0.002-16.584-0.002-24.876,0
		c-1.463,0-2.055,0.604-2.058,2.092c-0.003,1.474-0.002,2.946,0,4.419c0,0.38-0.034,0.769,0.033,1.138
		c0.105,0.582,0.481,0.934,1.098,0.897c0.607-0.036,0.945-0.397,0.997-1.004c0.021-0.26,0.009-0.522,0.009-0.784
		c0.001-1.514,0-3.028,0-4.563c1.079,0,2.08,0,3.076,0c0,6.559,0,13.061,0,19.573c-1.037,0-2.037,0-3.076,0c0-2.271,0-4.479,0-6.686
		c0-1.093,0.012-2.186-0.009-3.278c-0.012-0.629-0.434-1.063-0.995-1.095c-0.577-0.033-1.057,0.409-1.125,1.055
		c-0.022,0.211-0.01,0.427-0.01,0.641c0,3.136-0.009,6.272,0.01,9.408c0.002,0.429-0.129,0.668-0.491,0.91
		c-1.572,1.053-2.373,2.55-2.387,4.446c-0.013,1.663-0.003,3.326-0.003,4.989c0,9.005-0.005,18.009,0.003,27.014
		c0.003,2.857,2.021,5.229,4.764,5.359c2.821,0.134,5.653,0.056,8.48,0.036c0.82-0.006,1.369-0.855,0.939-1.489
		c-0.221-0.325-0.758-0.6-1.159-0.608c-2.493-0.055-4.989-0.021-7.483-0.029c-2.129-0.006-3.405-1.291-3.405-3.427
		c-0.002-10.502-0.002-21.003,0-31.504c0-2.266,1.263-3.537,3.525-3.537c15.253-0.003,30.507-0.003,45.759,0
		c2.162,0,3.445,1.298,3.449,3.474c0.006,2.447,0.002,4.895,0.002,7.341c0,0.228,0,0.456,0,0.731c-0.576,0-1.049-0.006-1.521,0.001
		c-2.398,0.032-4.811-0.09-7.191,0.135c-4.389,0.414-7.455,4.919-6.439,9.221c0.842,3.568,3.844,5.983,7.508,6.011
		c2.515,0.019,5.029,0.004,7.645,0.004c0,2.78,0.005,5.461-0.002,8.142c-0.006,2.117-1.303,3.404-3.434,3.409
		c-2.565,0.007-5.131-0.003-7.697,0.005c-0.768,0.003-1.25,0.431-1.249,1.067c0.001,0.634,0.481,1.063,1.251,1.064
		c2.709,0.006,5.418,0.028,8.125-0.011c2.535-0.037,4.655-1.876,5.027-4.396c0.152-1.025,0.105-2.082,0.112-3.126
		c0.015-2.087,0.005-4.174,0.005-6.251c0.157-0.07,0.262-0.125,0.373-0.165c2.412-0.868,3.777-2.715,3.828-5.269
		c0.031-1.543,0.063-3.092-0.026-4.631C68.738,41.23,67.488,39.607,65.289,38.752z M20.884,24.667c-0.974,0-1.913,0-2.894,0
		c0-6.548,0-13.064,0-19.621c0.959,0,1.898,0,2.894,0C20.884,11.556,20.884,18.07,20.884,24.667z M27.645,24.711
		c-1.492-0.033-2.984-0.012-4.521-0.012c0-6.574,0-13.092,0-19.661c4.761,0,9.455,0,14.229,0c0,1.688-0.069,3.347,0.022,4.997
		c0.068,1.252-0.276,2.252-1.014,3.271c-2.588,3.577-5.094,7.214-7.609,10.842C28.46,24.568,28.15,24.723,27.645,24.711z
		 M51.571,24.663c-3.769,0-7.483,0-11.206,0c0-0.104-0.025-0.186,0.004-0.239c1.217-2.323,2.902-4.155,5.435-5.061
		c1.593-0.569,3.155-0.575,4.476,0.628C51.661,21.252,51.781,22.908,51.571,24.663z M66.751,48.375
		c-0.07,1.892-1.486,3.213-3.374,3.243c-0.047,0-0.095,0-0.143,0c-1.4,0-2.801,0-4.202,0c-1.329,0-2.659,0.005-3.989-0.001
		c-3.164-0.015-5.621-2.37-5.692-5.45c-0.067-2.979,2.281-5.512,5.373-5.611c2.917-0.094,5.841-0.064,8.76-0.01
		c1.874,0.034,3.209,1.402,3.271,3.271C66.805,45.335,66.807,46.857,66.751,48.375z"/>
	<path fill-rule="evenodd" clip-rule="evenodd" fill="#E5E7E4" d="M36.185,48.18c-7.124,0-12.927,5.797-12.923,12.907
		c0.006,7.107,5.82,12.916,12.93,12.913c7.119-0.002,12.914-5.801,12.914-12.921C49.105,53.954,43.321,48.179,36.185,48.18z
		 M36.193,71.862c-5.938,0.002-10.801-4.86-10.793-10.793c0.008-5.915,4.828-10.737,10.748-10.752
		c5.973-0.014,10.805,4.784,10.818,10.742C46.98,67.005,42.139,71.858,36.193,71.862z"/>
	<path fill-rule="evenodd" clip-rule="evenodd" fill="#E5E7E4" d="M59.855,21.651c-0.384,0.61-0.301,1.206,0.213,1.564
		c0.503,0.35,1.106,0.224,1.541-0.36c0.467-0.627,0.91-1.271,1.351-1.916c0.504-0.736,0.474-1.08-0.171-1.738
		c-0.445-0.453-0.504-0.932-0.203-1.481c0.123-0.224,0.209-0.466,0.343-0.77c-0.155-0.252-0.257-0.577-0.478-0.745
		c-0.809-0.616-1.639-1.208-2.496-1.755c-0.514-0.328-1.027-0.18-1.37,0.313c-0.342,0.492-0.274,1.002,0.173,1.403
		c0.299,0.268,0.635,0.5,0.98,0.702c0.449,0.262,0.664,0.553,0.564,1.129c-0.076,0.445-0.059,1.002,0.15,1.381
		c0.402,0.73,0.248,1.267-0.272,1.809C60.051,21.321,59.956,21.49,59.855,21.651z"/>
	<path fill-rule="evenodd" clip-rule="evenodd" fill="#E5E7E4" d="M49.08,6.813c-0.555-0.38-1.097-0.342-1.512,0.191
		c-0.497,0.64-1.041,0.726-1.74,0.356c-0.462-0.244-0.96-0.196-1.288,0.235c-0.589,0.772-1.155,1.566-1.669,2.389
		c-0.314,0.502-0.202,1.03,0.293,1.384c0.494,0.351,1.002,0.273,1.407-0.168c0.255-0.277,0.476-0.596,0.663-0.923
		c0.263-0.458,0.572-0.754,1.203-0.506c0.364-0.066,0.873-0.017,1.18-0.241c0.83-0.605,1.428-0.232,2.049,0.293
		c0.125,0.106,0.267,0.197,0.408,0.284c0.572,0.354,1.175,0.276,1.525-0.191c0.369-0.492,0.263-1.133-0.305-1.553
		C50.57,7.828,49.823,7.322,49.08,6.813z"/>
	<path fill-rule="evenodd" clip-rule="evenodd" fill="#E5E7E4" d="M56.413,44.754c0.669,0.52,1.272,0.521,1.688,0.006
		c0.4-0.494,0.266-1.154-0.341-1.678c-1.335-1.151-3.288-1.28-4.761-0.314c-1.455,0.956-2.121,2.756-1.635,4.424
		c0.488,1.682,2.073,2.861,4.03,2.852c0.731-0.021,1.567-0.313,2.29-0.903c0.649-0.529,0.779-1.133,0.371-1.662
		c-0.41-0.529-0.988-0.54-1.684-0.031c-0.896,0.656-1.885,0.596-2.557-0.158c-0.634-0.712-0.617-1.764,0.037-2.455
		C54.547,44.102,55.533,44.071,56.413,44.754z"/>
	<path fill-rule="evenodd" clip-rule="evenodd" fill="#E5E7E4" d="M37.019,60.021c-0.427-0.007-0.854-0.002-1.281-0.003
		c-0.977-0.003-1.423-0.318-1.411-0.998c0.01-0.669,0.453-0.967,1.447-0.969c0.926-0.002,1.852,0.006,2.777-0.002
		c0.807-0.007,1.25-0.373,1.267-1.027c0.017-0.67-0.462-1.087-1.28-1.107c-0.347-0.009-0.693-0.002-1.03-0.002
		c-0.108-1.477-0.373-1.975-1.084-1.943c-1.275,0.055-1.06,1.088-1.118,1.896c-0.213,0.044-0.375,0.075-0.537,0.109
		c-1.73,0.365-2.74,1.727-2.566,3.46c0.152,1.531,1.489,2.691,3.143,2.72c0.498,0.009,0.996-0.003,1.495,0.003
		c0.804,0.01,1.223,0.346,1.222,0.97c-0.002,0.621-0.42,0.962-1.228,0.971c-0.997,0.011-1.993-0.008-2.99,0.008
		c-0.825,0.013-1.315,0.439-1.298,1.09c0.018,0.627,0.494,1.021,1.28,1.041c0.485,0.012,0.972,0.002,1.439,0.002
		c0.163,1.567,0.382,1.935,1.097,1.95c0.746,0.017,0.97-0.353,1.168-1.97c0.123-0.028,0.217-0.045,0.307-0.07
		c1.602-0.462,2.541-1.835,2.35-3.436C40,61.166,38.688,60.048,37.019,60.021z"/>
</g>
</svg>
